<svg xmlns="http://www.w3.org/2000/svg" width="14" height="14" viewBox="0 0 14 14" fill="none">
    <g clip-path="url(#clip0_2398_734)">
        <path fill-rule="evenodd" clip-rule="evenodd"
            d="M5.77468 0C4.36983 0 3.34141 0.00269969 3.30075 0.00709382C2.45373 0.098419 1.67982 0.475279 1.06802 1.09437C0.52401 1.64484 0.212124 2.22873 0.0490866 3.00195C0.00325966 3.21931 0 3.48518 0 7.0012C0 10.5172 0.00325966 10.7831 0.0490866 11.0004C0.212316 11.7745 0.525079 12.3596 1.06802 12.9068C1.61931 13.4623 2.21821 13.786 2.99943 13.9508C3.21679 13.9966 3.48252 13.9999 6.99868 13.9999C10.4754 13.9999 10.8886 14.008 11.265 13.8942C11.344 13.8703 11.4213 13.841 11.525 13.8052C12.0636 13.619 12.4709 13.3613 12.9055 12.9319C13.4568 12.387 13.7834 11.782 13.9483 11.0004C13.9941 10.7831 13.9974 10.5174 13.9974 7.0012C13.9974 3.53842 14.005 3.13718 13.8985 2.76899C13.8765 2.69312 13.8497 2.61865 13.817 2.51908C13.6346 1.96412 13.3621 1.53007 12.916 1.0839C12.3742 0.542116 11.831 0.2422 11.0664 0.0626176C10.8223 0.00528594 10.7834 0.00468331 7.10824 0.000738855C6.64124 0.00023754 6.1914 0 5.77468 0ZM11.4701 4.31677C11.2368 3.44003 10.5801 2.77843 9.6968 2.5304C9.47799 2.46896 9.47396 2.46887 7.08085 2.46345C5.12224 2.45901 4.64567 2.46507 4.47406 2.49651C3.53281 2.66908 2.77783 3.37498 2.52725 4.31677L2.46529 4.5496V7.0012V9.45279L2.52725 9.68562C2.76578 10.5821 3.44779 11.2523 4.36002 11.4865C4.53153 11.5306 4.7511 11.5346 6.99868 11.5346H9.45027L9.6831 11.4726C10.5666 11.2375 11.235 10.5691 11.4701 9.68562L11.5321 9.45279V7.0012V4.5496L11.4701 4.31677ZM3.76548 3.768C3.99941 3.5341 4.2117 3.40982 4.51153 3.33126C4.7004 3.28179 4.83706 3.2788 6.98745 3.27738C9.16709 3.27593 9.27241 3.27817 9.47503 3.32997C9.78445 3.40914 9.9946 3.53073 10.2319 3.768C10.4691 4.00527 10.5907 4.21542 10.6699 4.52484C10.7216 4.72716 10.724 4.83547 10.724 7.0012C10.724 9.16692 10.7216 9.27523 10.6699 9.47755C10.5907 9.78697 10.4691 9.99712 10.2319 10.2344C9.9946 10.4717 9.78445 10.5933 9.47503 10.6724C9.27271 10.7242 9.1644 10.7265 6.99868 10.7265C4.83295 10.7265 4.72464 10.7242 4.52232 10.6724C4.2129 10.5933 4.00275 10.4717 3.76548 10.2344C3.52821 9.99712 3.40662 9.78697 3.32745 9.47755C3.27571 9.27523 3.27335 9.16692 3.27335 7.0012C3.27335 4.83547 3.27571 4.72716 3.32745 4.52484C3.40662 4.21542 3.52821 4.00527 3.76548 3.768ZM9.76528 4.64548C9.76528 4.50956 9.66839 4.35175 9.54685 4.28974C9.40466 4.2172 9.28265 4.22027 9.1515 4.29965C8.95532 4.4184 8.89429 4.63337 8.99865 4.83793C9.06067 4.95947 9.21848 5.05636 9.3544 5.05636C9.56282 5.05636 9.76528 4.8539 9.76528 4.64548ZM8.44829 5.55876C8.15454 5.26103 7.81118 5.07455 7.40079 4.98977C6.30473 4.76337 5.21452 5.48902 4.98755 6.59601C4.69574 8.01933 5.98221 9.30564 7.40381 9.01199C8.1687 8.854 8.77875 8.27671 8.9903 7.51066C9.05358 7.28147 9.05358 6.72092 8.9903 6.49173C8.89013 6.12898 8.71715 5.8312 8.44829 5.55876ZM6.13385 6.1367C6.30982 5.96109 6.48302 5.86188 6.70994 5.80676C7.13232 5.70415 7.55085 5.82372 7.8635 6.13637C8.34954 6.62245 8.34922 7.37732 7.86273 7.86602C7.37888 8.35209 6.62258 8.35176 6.13385 7.86525C5.64762 7.38123 5.64762 6.62198 6.13385 6.1367Z"
            fill="currentColor" />
        <rect x="0.411765" y="0.411765" width="13.1765" height="13.1765" rx="1.72941"
            stroke="currentColor" stroke-width="0.823529" />
    </g>
    <defs>
        <clipPath id="clip0_2398_734">
            <rect width="14" height="14" fill="white" />
        </clipPath>
    </defs>
</svg>