<svg xmlns="http://www.w3.org/2000/svg" width="18" height="18" viewBox="0 0 18 18" fill="none">
    <path fill-rule="evenodd" clip-rule="evenodd" d="M8.15157 0.119763C7.13949 0.468645 6.23021 1.39937 5.52134 2.81198L5.34464 3.16411L5.70382 3.23907C6.5338 3.41231 7.33507 3.51352 8.1708 3.55073L8.69112 3.57391V1.78695V0L8.59411 0.000317484C8.54077 0.000493866 8.3416 0.0542196 8.15157 0.119763ZM9.29082 1.78699V3.57395L9.82878 3.55094C10.6746 3.51475 11.5386 3.40451 12.4019 3.2227L12.6733 3.16552L12.4962 2.81268C11.9212 1.6668 11.1609 0.780523 10.3766 0.341898C10.1101 0.192926 9.55927 0 9.40024 0H9.29082V1.78699ZM6.23942 0.401973C5.14575 0.765989 4.22363 1.26899 3.31601 1.99664L2.93245 2.30411L3.03379 2.35727C3.35714 2.52691 4.72296 3.03245 4.75387 2.99397C4.75965 2.98674 4.85945 2.79035 4.97565 2.55753C5.37561 1.75605 5.75698 1.20677 6.30443 0.643792C6.49778 0.444904 6.64164 0.282739 6.62411 0.283374C6.60654 0.284045 6.43344 0.337418 6.23942 0.401973ZM11.7128 0.643792C12.2602 1.20677 12.6416 1.75605 13.0416 2.55753C13.1578 2.79035 13.2575 2.9867 13.2632 2.9939C13.2934 3.03147 14.5831 2.55993 14.9242 2.38658L15.0825 2.30612L14.7232 2.0123C13.843 1.2927 12.7727 0.713463 11.6966 0.374458C11.5355 0.32373 11.3942 0.28221 11.3825 0.28221C11.3708 0.28221 11.5194 0.444904 11.7128 0.643792ZM2.28714 2.97273C1.53251 3.80208 0.85619 4.95039 0.469598 6.0587L0.405007 6.2439H2.10751H3.81005L3.87418 5.89996C3.97412 5.36369 4.18793 4.54302 4.36092 4.03165L4.51861 3.56562L4.12672 3.43725C3.6603 3.28447 3.07616 3.04963 2.7343 2.87745L2.48712 2.753L2.28714 2.97273ZM15.3054 2.8638C14.9846 3.03104 14.4388 3.25293 13.942 3.41806L13.4958 3.56636L13.6698 4.08496C13.8501 4.62257 14.0402 5.35321 14.1465 5.91759L14.2079 6.2439H15.8943C17.4062 6.2439 17.5807 6.23815 17.5807 6.1883C17.5807 6.0962 17.2841 5.36707 17.0863 4.97283C16.7264 4.25559 16.1875 3.46445 15.7241 2.97298L15.5171 2.75345L15.3054 2.8638ZM4.97374 4.10087C4.77034 4.68063 4.6134 5.27754 4.44037 6.12925L4.41708 6.2439H6.55412H8.69112V5.20325V4.1626L8.40009 4.16204C7.73157 4.16077 6.66298 4.03832 5.77035 3.86071C5.43473 3.79393 5.14674 3.73928 5.13037 3.73928C5.114 3.73928 5.04352 3.90198 4.97374 4.10087ZM12.3951 3.83111C11.6223 4.00407 10.2778 4.1626 9.58361 4.1626H9.29082V5.20325V6.2439H11.4427C12.6262 6.2439 13.5945 6.23773 13.5945 6.23014C13.5945 6.18566 13.4427 5.49022 13.3653 5.18064C13.2629 4.77048 13.1811 4.49935 13.0234 4.04795C12.8987 3.69074 12.9473 3.70754 12.3951 3.83111ZM0.176664 7.11699C0.0293146 7.80756 0 8.11926 0 8.99545C0 9.87164 0.0293146 10.1833 0.176664 10.8739L0.235011 11.1473H9.01372C13.842 11.1473 17.7924 11.1379 17.7924 11.1264C17.7924 11.1149 17.8248 10.9464 17.8644 10.752C18.089 9.65028 18.089 8.34062 17.8644 7.2389C17.8248 7.04449 17.7924 6.87602 17.7924 6.86452C17.7924 6.85302 13.842 6.8436 9.01372 6.8436H0.235011L0.176664 7.11699ZM2.00496 7.59322C2.0722 7.65195 2.16974 7.87878 2.38044 8.4663C2.53696 8.90285 2.66879 9.26383 2.67334 9.26845C2.67793 9.27311 2.80704 8.92387 2.96024 8.49237C3.24648 7.68649 3.3419 7.51385 3.50114 7.51385C3.61155 7.51385 3.74059 7.58419 3.78335 7.66765C3.81453 7.72857 4.05476 8.38563 4.33172 9.16763C4.37331 9.28496 4.37874 9.27364 4.66762 8.4698C4.9802 7.59992 5.03177 7.51385 5.2404 7.51385C5.37526 7.51385 5.51626 7.65456 5.51626 7.78911C5.51626 7.84523 5.31733 8.44521 5.07417 9.12237C4.61329 10.406 4.5783 10.4746 4.38336 10.4763C4.18599 10.4779 4.12951 10.3822 3.82039 9.52156C3.58985 8.87978 3.52138 8.72227 3.49905 8.78263C3.48343 8.82482 3.36105 9.16382 3.22707 9.53592C2.92631 10.3713 2.91784 10.3897 2.81208 10.4379C2.6368 10.5177 2.47848 10.4536 2.39805 10.2702C2.25662 9.94763 1.53036 7.87465 1.53127 7.79606C1.5324 7.69629 1.58535 7.61579 1.68878 7.55646C1.79796 7.49384 1.90555 7.50633 2.00496 7.59322ZM7.50309 7.59322C7.5506 7.64119 7.69287 7.9832 7.86255 8.45749C8.01699 8.8892 8.1515 9.24231 8.16148 9.24221C8.17147 9.2421 8.30661 8.88316 8.46183 8.44454C8.75956 7.60327 8.81208 7.51385 9.00861 7.51385C9.20513 7.51385 9.25766 7.60327 9.55539 8.44454C9.71061 8.88316 9.84575 9.2421 9.85573 9.24221C9.86572 9.24231 10.0002 8.8892 10.1547 8.45749C10.3243 7.9832 10.4666 7.64119 10.5141 7.59322C10.6607 7.44545 10.9459 7.53314 10.9983 7.74212C11.0142 7.8053 10.8941 8.18402 10.5759 9.07436C10.1038 10.3954 10.0616 10.4771 9.85168 10.4771C9.67035 10.4771 9.60442 10.3628 9.30736 9.53341C9.15275 9.10174 9.01831 8.74855 9.00861 8.74855C8.99891 8.74855 8.86447 9.10174 8.70985 9.53341C8.41279 10.3628 8.34686 10.4771 8.16554 10.4771C7.95561 10.4771 7.91346 10.3954 7.44132 9.07436C7.12313 8.18402 7.00305 7.8053 7.01892 7.74212C7.07134 7.53314 7.35655 7.44545 7.50309 7.59322ZM12.975 7.59322C13.041 7.65142 13.1404 7.88368 13.3478 8.46377C13.5034 8.89893 13.6347 9.259 13.6396 9.26397C13.6445 9.26891 13.7656 8.94462 13.9087 8.54331C14.2299 7.64225 14.2473 7.60366 14.3563 7.55403C14.6354 7.42689 14.7178 7.53727 15.057 8.49237C15.2102 8.92387 15.3393 9.27311 15.3439 9.26845C15.3484 9.26383 15.4803 8.90285 15.6368 8.4663C15.9291 7.651 16.0065 7.51385 16.174 7.51385C16.3342 7.51385 16.4842 7.64959 16.4859 7.79606C16.4869 7.87465 15.7606 9.94763 15.6192 10.2702C15.5387 10.4536 15.3804 10.5177 15.2051 10.4379C15.0994 10.3897 15.0909 10.3713 14.7901 9.53592C14.6562 9.16382 14.5338 8.82482 14.5182 8.78263C14.4958 8.72227 14.4274 8.87978 14.1968 9.52156C13.8877 10.3822 13.8312 10.4779 13.6339 10.4763C13.4389 10.4746 13.4039 10.406 12.943 9.12237C12.6999 8.44521 12.501 7.84523 12.501 7.78911C12.501 7.5547 12.7941 7.43359 12.975 7.59322ZM0.469598 11.9322C0.85619 13.0405 1.53251 14.1888 2.28714 15.0182L2.48712 15.2379L2.7343 15.1134C3.07821 14.9402 3.66256 14.7048 4.12651 14.5526L4.51819 14.424L4.36075 13.9586C4.18793 13.4478 3.97408 12.627 3.87418 12.0909L3.81005 11.747H2.10751H0.405007L0.469598 11.9322ZM4.42269 11.7608C4.42269 11.8111 4.57837 12.5145 4.67008 12.8787C4.77637 13.3006 5.06366 14.1988 5.10582 14.241C5.11707 14.2522 5.32118 14.2194 5.5594 14.168C6.37527 13.9922 7.28695 13.8763 8.13552 13.8406L8.69112 13.8173V12.7821V11.747H6.55691C5.38309 11.747 4.42269 11.7532 4.42269 11.7608ZM9.29082 12.7876V13.8283H9.58361C10.2893 13.8283 11.6655 13.991 12.4752 14.1701C12.7036 14.2206 12.8991 14.2533 12.9096 14.2427C12.9499 14.2024 13.2476 13.272 13.3501 12.8657C13.4394 12.5122 13.5945 11.8108 13.5945 11.7608C13.5945 11.7532 12.6262 11.747 11.4427 11.747H9.29082V12.7876ZM14.1443 12.0733C14.0481 12.6069 13.8546 13.353 13.669 13.9057L13.495 14.4241L13.8887 14.5531C14.3566 14.7063 14.9406 14.9411 15.2825 15.1132L15.5293 15.2375L15.7105 15.0393C16.4756 14.2021 17.159 13.0464 17.5476 11.9322L17.6122 11.747H15.9077H14.2032L14.1443 12.0733ZM7.87977 14.4512C7.81186 14.4577 7.57375 14.4798 7.35062 14.5003C6.87094 14.5443 6.20379 14.6459 5.70382 14.7512L5.34464 14.8268L5.52134 15.1789C6.09461 16.3213 6.80917 17.1581 7.6152 17.6308C7.87455 17.7829 8.44295 17.9909 8.59933 17.9909H8.69112V16.2094V14.428L8.34718 14.4336C8.15799 14.4367 7.94767 14.4446 7.87977 14.4512ZM9.29082 16.2085V18L9.47083 17.9761C9.71325 17.9439 10.1513 17.7805 10.425 17.6202C11.2007 17.1657 11.9309 16.3048 12.4964 15.1778L12.6737 14.8245L12.314 14.7499C11.4734 14.5757 10.675 14.4762 9.82878 14.44L9.29082 14.417V16.2085ZM4.24631 15.1477C3.83605 15.2881 3.0901 15.5894 2.98194 15.6583C2.94751 15.6803 3.03895 15.7722 3.31706 15.9951C4.23308 16.7295 5.25334 17.2802 6.32063 17.6164C6.4817 17.6672 6.62266 17.7087 6.63388 17.7087C6.64513 17.7087 6.48815 17.5367 6.2851 17.3265C5.73836 16.7606 5.27765 16.0831 4.90771 15.3011C4.82738 15.1313 4.74494 14.9934 4.72448 14.9946C4.70402 14.9958 4.48884 15.0647 4.24631 15.1477ZM13.0887 15.3443C12.71 16.131 12.2725 16.767 11.7112 17.3471C11.5187 17.546 11.3708 17.7087 11.3825 17.7087C11.3942 17.7087 11.5355 17.6672 11.6966 17.6164C12.765 17.2798 13.8513 16.6915 14.7287 15.9741L15.0825 15.6848L14.9242 15.6043C14.6242 15.4519 13.3899 14.9924 13.2802 14.9924C13.268 14.9924 13.1818 15.1508 13.0887 15.3443Z" fill="currentColor"/>
</svg>