<svg xmlns="http://www.w3.org/2000/svg" width="14" height="14" viewBox="0 0 14 14" fill="none">
    <g clip-path="url(#clip0_2398_742)">
        <path fill-rule="evenodd" clip-rule="evenodd"
            d="M2.14508 0C0.962543 0 0.00390625 0.958637 0.00390625 2.14118V11.8588C0.00390625 13.0414 0.962544 14 2.14508 14H11.8627C13.0453 14 14.0039 13.0414 14.0039 11.8588V2.14118C14.0039 0.958637 13.0453 0 11.8627 0H2.14508ZM8.20021 9.82594V8.75931C8.20021 8.53351 8.12354 8.42061 7.97021 8.42061C7.87977 8.42061 7.79131 8.45768 7.70481 8.53183V10.0534C7.79131 10.1276 7.87977 10.1646 7.97021 10.1646C8.12354 10.1646 8.20021 10.0517 8.20021 9.82594ZM10.1936 8.9969V8.76436C10.1936 8.53519 10.1052 8.42061 9.92823 8.42061C9.7513 8.42061 9.66284 8.53519 9.66284 8.76436V8.9969H10.1936ZM5.12753 7.66234H4.49648V10.5387H3.90671V7.66234H3.28745V7.18716H5.12753V7.66234ZM6.7199 10.5387H6.19501V10.2657C5.98269 10.4713 5.78217 10.5741 5.59344 10.5741C5.41258 10.5741 5.29856 10.5118 5.25138 10.3871C5.21992 10.3062 5.2042 10.1832 5.2042 10.018V8.04148H5.72909V9.88155C5.72909 9.98939 5.73106 10.0484 5.73499 10.0585C5.74678 10.1293 5.78807 10.1646 5.85884 10.1646C5.965 10.1646 6.07705 10.0939 6.19501 9.95232V8.04148H6.7199V10.5387ZM8.72511 8.79469V9.79056C8.72511 10.0366 8.70741 10.2051 8.67203 10.2961C8.60519 10.4814 8.46561 10.5741 8.25329 10.5741C8.06457 10.5741 7.88174 10.4814 7.70481 10.2961V10.5387H7.17992V7.18716H7.70481V8.28412C7.87388 8.10214 8.0567 8.01114 8.25329 8.01114C8.46561 8.01114 8.60519 8.10551 8.67203 8.29423C8.70741 8.38186 8.72511 8.54868 8.72511 8.79469ZM10.7185 9.67429V9.74C10.7185 9.90514 10.7146 10.0029 10.7067 10.0332C10.6949 10.1242 10.6536 10.2152 10.5829 10.3062C10.4413 10.4848 10.229 10.5741 9.94593 10.5741C9.67463 10.5741 9.46232 10.4882 9.30898 10.3163C9.19496 10.1916 9.13794 9.99613 9.13794 9.72989V8.85535C9.13794 8.58912 9.19299 8.39365 9.30308 8.26896C9.45642 8.09708 9.66677 8.01114 9.93413 8.01114C10.1976 8.01114 10.4059 8.09708 10.5593 8.26896C10.6654 8.39365 10.7185 8.58912 10.7185 8.85535V9.37603H9.66284V9.81583C9.66284 10.0484 9.75327 10.1646 9.93413 10.1646C10.0639 10.1646 10.1425 10.104 10.17 9.98265C10.1779 9.94895 10.1818 9.84616 10.1818 9.67429H10.7185ZM7.13274 4.06307V5.12466C7.13274 5.36056 7.0482 5.47852 6.87914 5.47852C6.71007 5.47852 6.62554 5.36056 6.62554 5.12466V4.06307C6.62554 3.83054 6.71007 3.71427 6.87914 3.71427C7.0482 3.71427 7.13274 3.83054 7.13274 4.06307ZM11.2198 10.6904C11.322 10.2994 11.3732 9.70967 11.3732 8.92107C11.3732 8.11899 11.322 7.52922 11.2198 7.15177C11.1687 6.95293 11.0557 6.78611 10.8807 6.65131C10.7057 6.51651 10.5042 6.43731 10.2762 6.41372C9.55275 6.34632 8.46168 6.31261 7.00299 6.31261C5.5443 6.31261 4.45519 6.34632 3.73568 6.41372C3.5037 6.43731 3.30122 6.51651 3.12822 6.65131C2.95522 6.78611 2.8412 6.95293 2.78615 7.15177C2.68393 7.5427 2.63281 8.13247 2.63281 8.92107C2.63281 9.72315 2.68393 10.3129 2.78615 10.6904C2.83727 10.8892 2.9503 11.056 3.12527 11.1908C3.30023 11.3256 3.50174 11.4031 3.72978 11.4234C4.45323 11.4941 5.5443 11.5295 7.00299 11.5295C8.46168 11.5295 9.55275 11.4941 10.2762 11.4234C10.5042 11.4031 10.7048 11.3256 10.8778 11.1908C11.0508 11.056 11.1648 10.8892 11.2198 10.6904ZM6.08885 2.4707H5.48729L5.08624 3.80021L4.66751 2.4707H4.04236C4.15245 2.75379 4.28023 3.0689 4.4257 3.41602C4.6105 3.88109 4.73042 4.23832 4.78546 4.48771V5.85765H5.37523V4.48771L6.08885 2.4707ZM7.66942 5.03872V4.15407C7.66942 3.88446 7.61438 3.68731 7.50429 3.56261C7.35488 3.39074 7.1465 3.3048 6.87914 3.3048C6.61571 3.3048 6.40929 3.39074 6.25988 3.56261C6.14979 3.68731 6.09475 3.88446 6.09475 4.15407V5.03872C6.09475 5.30833 6.14979 5.50716 6.25988 5.63523C6.40929 5.8071 6.61571 5.89304 6.87914 5.89304C7.1465 5.89304 7.35488 5.8071 7.50429 5.63523C7.61438 5.51053 7.66942 5.3117 7.66942 5.03872ZM9.64514 5.85765V3.33513H9.10846V5.26114C8.9905 5.40606 8.87845 5.47852 8.77229 5.47852C8.70152 5.47852 8.66023 5.44144 8.64844 5.3673C8.64451 5.36056 8.64254 5.30159 8.64254 5.19037V3.33513H8.10585V5.32686C8.10585 5.49874 8.12158 5.62511 8.15303 5.706C8.20415 5.83069 8.32013 5.89304 8.501 5.89304C8.69759 5.89304 8.90007 5.78856 9.10846 5.57962V5.85765H9.64514Z"
            fill="currentColor" />
    </g>
    <defs>
        <clipPath id="clip0_2398_742">
            <rect width="14" height="14" fill="white" />
        </clipPath>
    </defs>
</svg>