<svg width="30" height="30" viewBox="0 0 30 30" fill="none" xmlns="http://www.w3.org/2000/svg">
<g opacity="0.68">
<path d="M9.12891 14.7452V15.8033C9.12891 19.3057 11.9752 22.152 15.4776 22.152C18.98 22.152 21.8263 19.3057 21.8263 15.8033V10.5128C21.8263 7.01039 18.98 4.16406 15.4776 4.16406C11.9752 4.16406 9.12891 7.01039 9.12891 10.5128" stroke="#B3B3B3" stroke-width="1.58717" stroke-linecap="round" stroke-linejoin="round"/>
<path d="M5.95508 13.6871V15.8034C5.95508 21.0622 10.2193 25.3264 15.4781 25.3264C20.737 25.3264 25.0012 21.0622 25.0012 15.8034V13.6871" stroke="#B3B3B3" stroke-width="1.58717" stroke-linecap="round" stroke-linejoin="round"/>
<path d="M12.4199 9.96273C14.3034 9.27496 16.3561 9.27496 18.2396 9.96273" stroke="#B3B3B3" stroke-width="1.58717" stroke-linecap="round" stroke-linejoin="round"/>
<path d="M13.3926 13.1368C14.6623 12.7876 16.0061 12.7876 17.2759 13.1368" stroke="#B3B3B3" stroke-width="1.58717" stroke-linecap="round" stroke-linejoin="round"/>
</g>
</svg>
