<svg width="30" height="30" viewBox="0 0 30 30" fill="none" xmlns="http://www.w3.org/2000/svg">
<g opacity="0.68" clip-path="url(#clip0_1820_3845)">
<path d="M23.9084 30H6.08972C3.96878 30 2.02924 28.9255 0.912954 27.1116C-0.203331 25.2976 -0.301005 23.093 0.647836 21.1813L3.04785 16.3673C3.82925 14.8045 5.08507 13.8278 6.49437 13.6743C7.90368 13.5208 9.3409 14.2185 10.4293 15.572L10.7363 15.9627C11.3502 16.7162 12.0618 17.1208 12.7595 17.0511C13.4571 16.9953 14.099 16.4929 14.5734 15.6418L17.2106 10.8836C18.299 8.91619 19.7502 7.89758 21.3269 7.96735C22.8897 8.05107 24.2293 9.22317 25.1223 11.2883L29.4898 21.4883C30.2991 23.372 30.1037 25.5209 28.9735 27.2372C27.8572 28.9814 25.9595 30 23.9084 30ZM6.88507 15.7673C6.82926 15.7673 6.77345 15.7673 6.71763 15.7813C6.01995 15.8511 5.37809 16.4092 4.91762 17.3162L2.51761 22.1302C1.8897 23.372 1.95947 24.8372 2.68506 26.0232C3.41064 27.2093 4.69437 27.9209 6.08972 27.9209H23.8944C25.2618 27.9209 26.4758 27.2651 27.2293 26.1209C27.9828 24.9767 28.1084 23.6092 27.5642 22.3534L23.1967 12.1534C22.6665 10.8976 21.9269 10.1301 21.2153 10.1022C20.5595 10.0604 19.7083 10.7581 19.0386 11.9441L16.4013 16.7022C15.592 18.1534 14.3223 19.0604 12.9409 19.186C11.5595 19.2976 10.1502 18.6278 9.10369 17.3162L8.79671 16.9255C8.21066 16.158 7.54089 15.7673 6.88507 15.7673Z" fill="#B3B3B3"/>
<path d="M8.01383 10.4652C5.1394 10.4652 2.78125 8.12097 2.78125 5.23258C2.78125 2.3442 5.12545 0 8.01383 0C10.9022 0 13.2464 2.3442 13.2464 5.23258C13.2464 8.12097 10.9022 10.4652 8.01383 10.4652ZM8.01383 2.09303C6.28359 2.09303 4.87428 3.50234 4.87428 5.23258C4.87428 6.96282 6.28359 8.37213 8.01383 8.37213C9.74407 8.37213 11.1534 6.96282 11.1534 5.23258C11.1534 3.50234 9.74407 2.09303 8.01383 2.09303Z" fill="#B3B3B3"/>
</g>
<defs>
<clipPath id="clip0_1820_3845">
<rect width="30" height="30" fill="white"/>
</clipPath>
</defs>
</svg>
