<svg xmlns="http://www.w3.org/2000/svg" width="18" height="18" viewBox="0 0 18 18" fill="none">
    <path d="M5.17773 8.84672V9.53139C5.17773 11.7977 7.0195 13.6394 9.28577 13.6394C11.552 13.6394 13.3938 11.7977 13.3938 9.53139V6.10803C13.3938 3.84177 11.552 2 9.28577 2C7.0195 2 5.17773 3.84177 5.17773 6.10803" stroke="currentColor" stroke-width="1.28" stroke-linecap="round" stroke-linejoin="round"/>
    <path d="M3.125 8.16309V9.53243C3.125 12.9352 5.88423 15.6945 9.28705 15.6945C12.6899 15.6945 15.4491 12.9352 15.4491 9.53243V8.16309" stroke="currentColor" stroke-width="1.28" stroke-linecap="round" stroke-linejoin="round"/>
    <path d="M7.30664 5.75272C8.52537 5.30769 9.85363 5.30769 11.0724 5.75272" stroke="currentColor" stroke-width="1.28" stroke-linecap="round" stroke-linejoin="round"/>
    <path d="M7.9375 7.80618C8.75911 7.58023 9.62864 7.58023 10.4502 7.80618" stroke="currentColor" stroke-width="1.28" stroke-linecap="round" stroke-linejoin="round"/>
  </svg>