<svg xmlns="http://www.w3.org/2000/svg" width="18" height="18" viewBox="0 0 18 18" fill="none">
    <path d="M15.7708 13.5974L15.6986 14.5222C15.5902 15.6277 15.5035 16.473 13.5455 16.473H4.45635C2.49835 16.473 2.41165 15.6277 2.30327 14.5222L2.01426 10.9097C1.95646 10.31 2.14432 9.75366 2.4839 9.32738L2.49835 9.31293C2.89573 8.82885 3.49541 8.52539 4.16735 8.52539H13.8345C14.5064 8.52539 15.0989 8.82884 15.4891 9.29848C15.4963 9.3057 15.5035 9.31293 15.5035 9.32015C15.8575 9.74643 16.0526 10.3028 15.9876 10.9097" stroke="currentColor" stroke-width="1.30565" stroke-miterlimit="10" stroke-linecap="round" stroke-linejoin="round"/>
    <path d="M2.85938 8.8365V5.11559C2.85938 2.65906 3.47351 2.04492 5.93004 2.04492H6.84763C7.76522 2.04492 7.97475 2.31948 8.32155 2.78188L9.23914 4.01015C9.47035 4.3136 9.60762 4.50146 10.2218 4.50146H12.0642C14.5207 4.50146 15.1348 5.11559 15.1348 7.57213V8.8654" stroke="currentColor" stroke-width="1.30565" stroke-miterlimit="10" stroke-linecap="round" stroke-linejoin="round"/>
    <path d="M7.14258 12.8613H10.8563" stroke="currentColor" stroke-width="1.30565" stroke-miterlimit="10" stroke-linecap="round" stroke-linejoin="round"/>
  </svg>