<svg xmlns="http://www.w3.org/2000/svg" width="18" height="18" viewBox="0 0 18 18" fill="none">
    <path d="M13.7523 17H4.24379C3.112 17 2.077 16.4149 1.48132 15.4271C0.885638 14.4393 0.833515 13.2387 1.33984 12.1977L2.62056 9.57617C3.03754 8.72512 3.70768 8.19322 4.45973 8.10963C5.21177 8.02605 5.97871 8.40598 6.5595 9.14304L6.72332 9.35581C7.05094 9.76613 7.43069 9.98649 7.80296 9.9485C8.17526 9.9181 8.51778 9.64455 8.77094 9.18104L10.1782 6.58994C10.759 5.51853 11.5334 4.96384 12.3748 5.00183C13.2088 5.04742 13.9236 5.6857 14.4001 6.8103L16.7307 12.3649C17.1626 13.3907 17.0584 14.5608 16.4552 15.4955C15.8596 16.4453 14.8469 17 13.7523 17ZM4.66821 9.24942C4.63843 9.24942 4.60865 9.24942 4.57886 9.25702C4.20656 9.29502 3.86404 9.59896 3.61833 10.0929L2.33761 12.7144C2.00254 13.3907 2.03977 14.1885 2.42696 14.8344C2.81416 15.4803 3.49919 15.8678 4.24379 15.8678H13.7449C14.4746 15.8678 15.1224 15.5107 15.5245 14.8876C15.9266 14.2645 15.9936 13.5198 15.7032 12.836L13.3726 7.28141C13.0896 6.59754 12.695 6.17961 12.3152 6.16442C11.9653 6.14162 11.5111 6.52155 11.1537 7.16743L9.74637 9.75853C9.3145 10.5488 8.63691 11.0427 7.89976 11.1111C7.16263 11.1719 6.41058 10.8071 5.85213 10.0929L5.68832 9.88011C5.37559 9.46219 5.01818 9.24942 4.66821 9.24942Z" fill="currentColor"/>
    <path d="M4.99414 7C3.34614 7 1.99414 5.656 1.99414 4C1.99414 2.344 3.33814 1 4.99414 1C6.65014 1 7.99414 2.344 7.99414 4C7.99414 5.656 6.65014 7 4.99414 7ZM4.99414 2.2C4.00214 2.2 3.19414 3.008 3.19414 4C3.19414 4.992 4.00214 5.8 4.99414 5.8C5.98614 5.8 6.79414 4.992 6.79414 4C6.79414 3.008 5.98614 2.2 4.99414 2.2Z" fill="currentColor"/>
  </svg>