<svg xmlns="http://www.w3.org/2000/svg" width="19" height="18" viewBox="0 0 19 18" fill="none">
    <path d="M7.16667 2.38889V15.6111M16.1111 7.05556H2.88889M2.5 6.97778C2.5 5.23556 2.5 4.36444 2.83911 3.69867C3.13738 3.1133 3.6133 2.63738 4.19867 2.33911C4.86444 2 5.73556 2 7.47778 2H11.5222C13.2644 2 14.1356 2 14.8013 2.33911C15.3867 2.63738 15.8626 3.1133 16.1609 3.69867C16.5 4.36444 16.5 5.23556 16.5 6.97778V11.0222C16.5 12.7644 16.5 13.6356 16.1609 14.3013C15.8626 14.8867 15.3867 15.3626 14.8013 15.6609C14.1356 16 13.2644 16 11.5222 16H7.47778C5.73556 16 4.86444 16 4.19867 15.6609C3.6133 15.3626 3.13738 14.8867 2.83911 14.3013C2.5 13.6356 2.5 12.7644 2.5 11.0222V6.97778Z" stroke="currentColor" stroke-width="1.16667" stroke-linecap="round" stroke-linejoin="round"/>
  </svg>