<svg width="64" height="64" viewBox="0 0 64 64" fill="none" xmlns="http://www.w3.org/2000/svg">
<path fill-rule="evenodd" clip-rule="evenodd" d="M9.3498 11.5765L2.45312 18.153L2.48524 29.7478L2.51735 41.3426L2.8373 42.0252C3.21396 42.8286 4.0654 43.7794 4.78755 44.2025C5.96133 44.8904 5.24372 44.8644 23.0167 44.8644H39.3472V43.9707V43.077L22.8424 43.0454L6.33763 43.0139L5.84303 42.7494C5.21757 42.4149 4.56634 41.6598 4.38702 41.061C4.28638 40.7252 4.24842 37.7165 4.24842 30.0768V19.555L8.57608 19.5541C11.0221 19.5536 13.2394 19.4988 13.6759 19.4279C15.5141 19.1297 16.9579 17.8798 17.503 16.1147C17.7192 15.4148 17.7388 14.996 17.7388 11.0662V6.78097H33.2747C44.7195 6.78097 48.9323 6.8175 49.273 6.91957C49.9065 7.10927 50.612 7.74296 50.9468 8.42285L51.2259 8.98956L51.2606 15.4064C51.2797 18.9358 51.3153 21.8233 51.3397 21.8233C51.364 21.8233 51.7648 21.6038 52.2302 21.3355L53.0764 20.8476L53.074 15.3365C53.0727 12.3053 53.0217 9.48011 52.9607 9.05821C52.7312 7.47088 51.6787 6.04556 50.2372 5.36985L49.5545 5.0499L32.9005 5.02495L16.2465 5L9.3498 11.5765ZM20.1265 14.0037V14.8991H32.7811H45.4358V14.0037V13.1083H32.7811H20.1265V14.0037ZM47.4531 20.7816C47.1244 21.0017 45.837 22.8795 45.6409 23.4251C45.6193 23.4853 45.0405 23.2166 44.3547 22.8282C43.2268 22.1892 43.0413 22.1218 42.4116 22.1218C41.7792 22.1218 41.684 22.1568 41.3744 22.5034C40.9129 23.0198 40.7813 23.5731 40.7806 24.9995L40.7798 26.2058L39.3077 26.2694C37.7193 26.3379 37.2908 26.4706 36.8507 27.0302C36.6771 27.2509 36.6014 27.5199 36.6014 27.9158C36.6014 28.4871 36.7361 28.8081 37.6553 30.4277L38.0331 31.0931L36.9889 31.6731C35.3166 32.602 34.7165 33.4213 35.0547 34.3141C35.2581 34.8507 35.619 35.1677 36.8402 35.8817C37.464 36.2464 37.9895 36.5561 38.008 36.5698C38.0265 36.5836 37.7341 37.1258 37.3583 37.7748C36.3066 39.5911 36.34 40.5286 37.4774 41.1285C37.7495 41.272 38.2635 41.3421 39.3174 41.3793L40.7798 41.431L40.7806 42.6404C40.7813 44.1273 40.9248 44.675 41.4514 45.2016C41.8342 45.5845 41.8992 45.6065 42.4978 45.5569C42.9863 45.5163 43.4102 45.3521 44.3058 44.8559C44.9493 44.4994 45.5071 44.2104 45.5453 44.2136C45.5836 44.217 45.8884 44.6886 46.2228 45.2618C46.9483 46.506 47.3746 46.977 47.9085 47.1244C48.8208 47.3763 49.4479 46.9303 50.3593 45.3811L51.0854 44.147L51.7525 44.5257C53.7822 45.6776 54.3101 45.8102 55.0557 45.3555C55.6709 44.9804 55.8222 44.4853 55.8222 42.8467V41.4022L57.0459 41.4015C58.9527 41.4006 59.7546 41.0769 60.0165 40.2024C60.2021 39.5828 60.0456 39.063 59.254 37.6708C58.7644 36.8097 58.6807 36.5852 58.817 36.4999C58.9099 36.4419 59.464 36.1109 60.0484 35.7645C61.3647 34.9842 61.733 34.505 61.6414 33.6922C61.5607 32.9767 61.1037 32.5022 59.732 31.7094C59.1575 31.3772 58.6874 31.0754 58.6874 31.0385C58.6874 31.0018 58.9824 30.4551 59.343 29.8237C60.1155 28.4713 60.2536 27.8296 59.9074 27.2016C59.5327 26.5223 58.9995 26.3306 57.3008 26.2652L55.8222 26.2083V24.787C55.8222 23.1745 55.6252 22.5714 54.9913 22.2437C54.2936 21.8828 53.6908 22.0258 52.1443 22.9189C51.596 23.2356 51.1288 23.4947 51.106 23.4947C51.0834 23.4947 50.7912 23.0166 50.4567 22.4322C49.6645 21.0477 49.0831 20.5101 48.378 20.5101C48.0365 20.5101 47.72 20.603 47.4531 20.7816ZM9.97884 21.883V22.7784H24.7227H39.4666V21.883V20.9876H24.7227H9.97884V21.883ZM49.9127 27.2153C51.9879 27.6477 53.8934 29.3361 54.7104 31.4665C55.1202 32.5349 55.2226 34.3086 54.9396 35.4338C54.2907 38.0138 52.2465 39.9659 49.6142 40.5194C46.0684 41.2648 42.4383 38.8447 41.6709 35.2237C41.1859 32.9346 41.8289 30.8051 43.5224 29.0921C45.2903 27.3039 47.3852 26.6886 49.9127 27.2153ZM9.97884 29.7026V30.5383H22.9917C30.1487 30.5383 36.0045 30.5133 36.0045 30.4827C36.0045 30.4521 35.8116 30.0761 35.5757 29.647L35.1468 28.867H22.5628H9.97884V29.7026ZM9.97884 37.5229V38.4187L22.6569 38.3884L35.335 38.358L35.7867 37.582C36.0353 37.1552 36.2397 36.7657 36.2409 36.7164C36.2422 36.6671 30.3338 36.6269 23.111 36.6269H9.97884V37.5229ZM43.8241 46.4345C42.5711 47.0084 41.66 47.107 41.0861 46.7309C40.8068 46.5479 40.7272 46.5385 40.5992 46.6732C40.2137 47.0786 35.9951 54.0981 36.0305 54.2752C36.0663 54.4541 36.2776 54.4707 38.0674 54.4358C39.3628 54.4105 40.2117 54.4454 40.4834 54.535C40.7917 54.6369 41.283 55.104 42.3452 56.3052C43.7813 57.929 44.1374 58.1838 44.3759 57.7578C44.4311 57.6593 44.9325 55.4341 45.4902 52.8131L46.5042 48.0474L45.7192 46.9931C45.2875 46.4133 44.9263 45.9397 44.9164 45.9406C44.9066 45.9417 44.4151 46.164 43.8241 46.4345ZM50.9573 46.958C50.547 47.5178 50.2111 48.055 50.2111 48.152C50.2111 48.4024 52.223 57.752 52.3057 57.8858C52.5037 58.2062 52.908 57.8941 54.2121 56.4147C54.9789 55.5447 55.7965 54.7338 56.029 54.6128C56.4021 54.4184 56.6914 54.3974 58.4948 54.4337C60.4872 54.4737 60.5387 54.4687 60.5733 54.2269C60.5954 54.0718 59.7601 52.6033 58.3418 50.3041C57.0949 48.2829 56.0528 46.6073 56.026 46.5804C55.9991 46.5535 55.7408 46.6388 55.452 46.7697C54.6951 47.1132 54.3572 47.0729 52.9736 46.4741C52.2932 46.1797 51.7291 45.9392 51.72 45.9395C51.7108 45.9399 51.3677 46.3982 50.9573 46.958Z" fill="currentColor"/>
</svg>
