<svg width="64" height="64" viewBox="0 0 64 64" fill="none" xmlns="http://www.w3.org/2000/svg">
<path fill-rule="evenodd" clip-rule="evenodd" d="M5.16044 5.18823C4.02395 5.41288 3.24428 6.2732 3.05293 7.51354C2.98052 7.98269 2.95058 14.8675 2.97124 26.2982C3.00071 42.6626 3.02125 44.381 3.19229 44.757C3.47566 45.3801 4.05006 45.9752 4.60078 46.2161C5.07399 46.4231 6.07634 46.4323 31.3754 46.4619C50.0046 46.4836 57.8364 46.4557 58.27 46.3661C59.0611 46.2025 59.769 45.6589 60.1468 44.9246L60.4433 44.3485V25.7792V7.20975L60.1731 6.66123C59.8777 6.06142 59.3906 5.59425 58.7607 5.30647C58.3927 5.13845 55.8791 5.11942 32.0136 5.10398C17.4006 5.09458 5.44462 5.13206 5.16044 5.18823ZM56.9041 25.7761V42.8919H31.7235H6.54293V25.7761V8.66024H31.7235H56.9041V25.7761ZM23.278 14.8416C19.367 16.5053 16.2081 17.9077 16.2581 17.9577C16.437 18.1366 30.3942 23.9992 30.6498 24.0028C30.9018 24.0064 38.6311 20.7965 38.8541 20.5955C38.9155 20.5403 37.4656 20.4963 35.5845 20.4963H32.2045L31.9641 20.1905C31.8318 20.0224 31.7235 19.8159 31.7235 19.7318C31.7235 19.425 31.9881 19.0103 32.2639 18.8845C32.458 18.7961 34.2182 18.7557 37.879 18.7557H43.2114V21.1818V23.608L42.6895 23.9378L42.1675 24.2676L42.1673 26.3273C42.1672 27.46 42.2015 28.387 42.2438 28.387C42.286 28.387 42.702 28.0998 43.1684 27.7487C43.6347 27.3977 44.0627 27.1105 44.1194 27.1105C44.176 27.1105 44.4519 27.2832 44.7322 27.4943C45.0127 27.7052 45.438 28.0248 45.6772 28.2042L46.1124 28.5305V26.4289V24.3273L45.5343 23.9494L44.9562 23.5713L44.9541 20.5936L44.952 17.6159L44.595 17.3155C44.322 17.0858 44.1104 17.0152 43.6956 17.0157C43.248 17.0161 42.0789 16.561 36.9897 14.4048C33.5997 12.9684 30.7278 11.7985 30.6075 11.8049C30.4873 11.8113 27.1891 13.1778 23.278 14.8416ZM20.8158 25.5801V29.2985L21.7151 29.6451C26.8708 31.6321 34.1202 31.64 39.5272 29.6643L40.5425 29.2933V25.591C40.5425 23.5547 40.501 21.8887 40.4501 21.8887C40.3994 21.8887 38.3849 22.7249 35.9736 23.7469C33.5621 24.7687 31.394 25.6488 31.1551 25.7025C30.9163 25.7561 30.5426 25.7739 30.3245 25.7418C30.1065 25.7098 27.9693 24.8508 25.575 23.8329C23.1808 22.8149 21.1306 21.9549 21.0189 21.9218C20.8284 21.8654 20.8158 22.0932 20.8158 25.5801ZM21.8411 34.4251C21.3095 34.5154 20.9198 34.7672 20.5026 35.2901L20.1776 35.6974H17.5325H14.8872L14.6025 35.9823C14.2394 36.3453 14.2394 36.7902 14.6025 37.1532L14.8872 37.438H17.5615C19.1187 37.438 20.2356 37.4828 20.2356 37.5451C20.2356 37.7595 20.8558 38.3821 21.2899 38.6035C22.1722 39.0537 23.3302 38.8012 23.9923 38.0144C24.1598 37.8153 24.297 37.6041 24.297 37.5451C24.297 37.4804 29.0902 37.438 36.4283 37.438H48.5598L48.8446 37.1532C49.2076 36.7902 49.2076 36.3453 48.8446 35.9823L48.5598 35.6974H36.4349H24.3101L24.1005 35.3413C23.703 34.666 22.7347 34.2734 21.8411 34.4251ZM24.4199 48.5017C24.363 48.6512 23.8941 49.6172 23.3777 50.6484L22.439 52.5232H31.7225H41.0059L39.9343 50.3764L38.8628 48.2297H31.6931H24.5233L24.4199 48.5017ZM16.3461 54.4255C15.8546 54.6396 15.2717 55.3427 15.1799 55.8319C15.0232 56.6671 15.4424 57.5288 16.2093 57.9481C16.5573 58.1384 17.5238 58.1511 31.7235 58.1511C45.9233 58.1511 46.8897 58.1384 47.2378 57.9481C48.0047 57.5288 48.4238 56.6671 48.2671 55.8319C48.1729 55.3297 47.5849 54.6335 47.0753 54.4205C46.5274 54.1916 16.872 54.1964 16.3461 54.4255Z" fill="currentColor"/>
</svg>
