<svg width="64" height="64" viewBox="0 0 64 64" fill="none" xmlns="http://www.w3.org/2000/svg">
<path fill-rule="evenodd" clip-rule="evenodd" d="M6.2398 17.5151C5.97686 17.6562 5.64629 17.9867 5.50527 18.2497C5.26141 18.7044 5.24892 19.492 5.24892 34.4798V50.2321H30.0841H54.9193V42.149V34.0658L54.5334 34.1643C52.3801 34.7137 49.6461 34.8225 47.6246 34.439C42.5317 33.4728 37.871 29.7287 35.8097 24.9475C34.9745 23.01 34.698 21.712 34.6131 19.3284L34.5393 17.2588H20.6286C7.42417 17.2588 6.69357 17.2718 6.2398 17.5151ZM30.5815 23.2157C30.8064 23.4405 30.926 23.7189 30.926 24.0178C30.926 24.4221 30.6601 24.7413 28.6411 26.7601C26.9511 28.4503 26.2683 29.045 26.0179 29.045C25.5231 29.045 24.7055 28.423 23.7601 27.3273C22.8012 26.2159 22.7283 25.8558 23.3383 25.2458C23.953 24.6311 24.4721 24.6877 25.2866 25.4588L25.9449 26.0819L27.5715 24.4766C29.0559 23.0116 29.2435 22.8713 29.7176 22.8713C30.0821 22.8713 30.3399 22.974 30.5815 23.2157ZM18.8491 24.9006C19.5306 25.2531 19.6438 26.1684 19.0759 26.7361L18.7316 27.0806H14.1896H9.64756L9.33354 26.7464C8.79657 26.1748 8.96943 25.108 9.64279 24.8366C9.81144 24.7687 11.8625 24.7091 14.2008 24.7042C17.6706 24.697 18.5251 24.7331 18.8491 24.9006ZM30.4768 31.0133C30.8801 31.3889 30.9964 31.9037 30.7904 32.401C30.6984 32.6232 29.6883 33.7269 28.5457 34.8537C26.3383 37.0305 26.1628 37.132 25.3416 36.7057C24.7589 36.4032 23.0973 34.6106 22.985 34.1631C22.79 33.3861 23.6149 32.5533 24.3875 32.7472C24.6006 32.8007 25.0382 33.0906 25.36 33.3916L25.9449 33.9388L27.5715 32.3337C29.0161 30.9083 29.2526 30.7287 29.6848 30.7287C29.9797 30.7287 30.2918 30.8408 30.4768 31.0133ZM19.0586 32.963C19.5571 33.4317 19.5571 34.1995 19.0586 34.6681L18.6967 35.0082L14.5335 35.0522C9.79713 35.1021 9.40861 35.0489 9.09978 34.3098C8.94894 33.9489 8.93856 33.7381 9.0553 33.4033C9.34308 32.5778 9.49448 32.5545 14.323 32.5904L18.6967 32.6229L19.0586 32.963ZM30.4371 39.1932C30.8765 39.8204 30.7151 40.2302 29.5579 41.4258C28.9599 42.0439 27.9185 43.0468 27.2441 43.6547C25.5818 45.1525 25.5098 45.1497 23.8839 43.5236C22.8338 42.4735 22.6476 42.2184 22.6476 41.8291C22.6476 41.5097 22.7719 41.2466 23.0577 40.9607C23.6984 40.32 24.3188 40.4422 25.1186 41.3666L25.5553 41.8712L27.1964 40.3339C28.099 39.4884 28.9759 38.7602 29.1451 38.7157C29.5658 38.605 30.1856 38.834 30.4371 39.1932ZM51.9548 38.7412C52.4819 38.925 52.6743 39.234 52.6743 39.897C52.6743 40.3138 52.4384 40.6656 51.0449 42.3266C49.0899 44.6568 48.9782 44.7599 48.4084 44.7599C48.0663 44.7599 47.8292 44.6207 47.3924 44.1636C45.6304 42.3193 45.354 41.3009 46.4563 40.7137C46.9664 40.4421 47.3143 40.5259 47.9095 41.0635C48.2382 41.3606 48.5271 41.523 48.5957 41.4494C48.6608 41.3795 49.135 40.8171 49.6493 40.1998C50.47 39.2145 51.1587 38.5893 51.4257 38.5869C51.472 38.5865 51.7101 38.6559 51.9548 38.7412ZM19.0957 40.8556C19.4577 41.1957 19.5342 42.0043 19.2405 42.3868C18.8453 42.9016 18.5325 42.9358 14.2311 42.9358C9.59312 42.9358 9.28064 42.8867 9.08112 42.1265C8.9394 41.5867 9.01657 41.2315 9.35501 40.8662C9.64672 40.5514 9.65878 40.5505 14.2092 40.5505C18.6998 40.5505 18.776 40.5553 19.0957 40.8556ZM42.5606 40.7961C42.7258 40.9311 42.8985 41.2755 42.9443 41.5614C43.0161 42.0106 42.9695 42.1389 42.5999 42.5085L42.1725 42.9358H38.8051H35.4374L35.0058 42.5726C34.4827 42.1326 34.4269 41.477 34.865 40.9203L35.1557 40.5505H38.708C41.8831 40.5505 42.2921 40.5766 42.5606 40.7961ZM1.07352 53.9363C1.15982 55.3193 1.59829 56.2819 2.48969 57.0449C3.62509 58.0167 1.5684 57.9493 30.074 57.9478L55.8313 57.9464L56.5382 57.6172C57.4023 57.215 58.3286 56.1964 58.627 55.3206C58.7486 54.9639 58.848 54.2413 58.848 53.7149V52.7577H48.3246H37.8013V54.1542C37.8013 55.6867 37.6645 56.1549 37.1478 56.3903C36.9124 56.4975 34.7115 56.5461 30.0841 56.5461C25.4568 56.5461 23.2558 56.4975 23.0204 56.3903C22.5038 56.1549 22.367 55.6867 22.367 54.1542V52.7577H11.6835H1L1.07352 53.9363ZM24.7523 53.4592V54.1608H30.0841H35.416V53.4592V52.7577H30.0841H24.7523V53.4592Z" fill="currentColor"/>
<circle cx="50.4581" cy="18.5918" r="12.4878" stroke="currentColor" stroke-width="2.10468"/>
<path d="M42.613 23.4952C42.4168 23.4952 42.2812 23.299 42.3505 23.1154L45.9159 13.6785C45.9571 13.5693 46.0617 13.4971 46.1784 13.4971H48.4392C48.5581 13.4971 48.6641 13.572 48.7038 13.6841L52.0428 23.121C52.1074 23.3036 51.9719 23.4952 51.7782 23.4952H49.8881C49.7678 23.4952 49.6609 23.4185 49.6223 23.3046L46.6086 14.4047C46.5503 14.2325 46.6685 14.0512 46.8496 14.0352L47.2519 13.9995C47.4532 13.9817 47.6068 14.1761 47.5429 14.3678L44.5644 23.3033C44.5262 23.4179 44.419 23.4952 44.2982 23.4952H42.613ZM44.7046 21.3367C44.5191 21.3367 44.3846 21.1599 44.4342 20.9811L44.7732 19.7585C44.8069 19.637 44.9175 19.5529 45.0436 19.5529H49.1246C49.266 19.5529 49.3854 19.6581 49.4031 19.7984L49.5572 21.021C49.5783 21.1885 49.4476 21.3367 49.2787 21.3367H44.7046Z" fill="currentColor"/>
<path d="M55.6697 21.7114C55.5147 21.7114 55.3891 21.5858 55.3891 21.4308V20.0134C55.3891 19.8584 55.2634 19.7328 55.1084 19.7328H53.6761C53.5211 19.7328 53.3954 19.6071 53.3954 19.4522V18.5744C53.3954 18.4194 53.5211 18.2938 53.6761 18.2938H55.1084C55.2634 18.2938 55.3891 18.1681 55.3891 18.0131V16.5808C55.3891 16.4258 55.5147 16.3001 55.6697 16.3001H56.5474C56.7024 16.3001 56.8281 16.4258 56.8281 16.5808V18.0131C56.8281 18.1681 56.9537 18.2938 57.1087 18.2938H58.5261C58.6811 18.2938 58.8067 18.4194 58.8067 18.5744V19.4522C58.8067 19.6071 58.6811 19.7328 58.5261 19.7328H57.1087C56.9537 19.7328 56.8281 19.8584 56.8281 20.0134V21.4308C56.8281 21.5858 56.7024 21.7114 56.5474 21.7114H55.6697Z" fill="currentColor"/>
</svg>
