<svg width="64" height="64" viewBox="0 0 64 64" fill="none" xmlns="http://www.w3.org/2000/svg">
<path fill-rule="evenodd" clip-rule="evenodd" d="M30.3051 5.15771C28.4563 5.49523 26.4058 6.38227 24.9445 7.47667C24.0171 8.1712 22.5395 9.71184 21.9556 10.5932C21.3302 11.5373 20.688 12.8367 20.4145 13.711C19.7955 15.691 19.8214 15.2181 19.7755 25.4034L19.7327 34.885L20.5034 35.0582C20.9272 35.1535 22.0503 35.3978 22.9991 35.601L24.7242 35.9704L25.7201 35.6701C26.81 35.3416 27.9243 35.1409 28.6677 35.1396C29.5528 35.1381 30.183 34.3019 30.3347 32.9279C30.3691 32.6162 30.3598 32.3072 30.3139 32.2413C30.2681 32.1756 29.899 32.0046 29.4937 31.8617C27.0275 30.9916 24.9404 29.0202 23.9873 26.6603C23.3667 25.1238 23.3365 24.8837 23.2864 21.0791L23.2394 17.5064L24.1093 17.368C26.0564 17.0583 28.036 16.1203 29.3946 14.8639L30.1707 14.1461L30.8326 14.7218C32.9967 16.6041 37.091 17.9059 40.847 17.9059H41.8716L41.8232 21.2787C41.7719 24.8626 41.7354 25.1423 41.1222 26.6603C40.6639 27.7951 40.1291 28.5817 39.1305 29.5895C38.0651 30.6649 37.0378 31.3364 35.7279 31.8141C35.261 31.9844 34.8414 32.1772 34.7956 32.2424C34.6806 32.406 34.8017 33.3947 35.0073 33.9713C35.1007 34.2334 35.3449 34.5952 35.55 34.7754C35.8766 35.0621 36.0417 35.1119 36.8809 35.1764C37.7355 35.242 38.4826 35.4005 39.9938 35.8364C40.4118 35.9571 40.6886 35.9209 42.6581 35.4889C43.8669 35.2239 44.9731 34.9794 45.1163 34.9459L45.3768 34.8847L45.3341 25.4033C45.2966 17.0786 45.2686 15.8289 45.1046 15.1607C44.4695 12.5726 43.4829 10.7236 41.8004 8.96811C39.7757 6.85549 37.4224 5.59693 34.6584 5.14864C33.4149 4.94695 31.4369 4.95103 30.3051 5.15771ZM15.3219 38.2514V40.6838L15.747 40.7551C17.5171 41.0517 18.7876 42.0498 19.4217 43.6418C19.6294 44.1634 19.6779 44.5541 19.7182 46.0318C19.7715 47.9828 19.6316 48.8445 19.1199 49.7175C18.4699 50.8267 17.182 51.7186 15.9812 51.891L15.3786 51.9775L15.3472 53.28L15.3156 54.5824L22.3764 56.2C26.2597 57.0897 29.4753 57.8167 29.522 57.8156C29.6475 57.8127 29.6282 39.1334 29.5026 39.0557C29.3785 38.9789 15.6746 35.819 15.4659 35.819C15.354 35.819 15.3219 36.3602 15.3219 38.2514ZM42.6183 37.4019C38.8934 38.2632 35.7685 38.9977 35.6741 39.0338C35.5228 39.092 35.5025 40.2067 35.5025 48.4567C35.5025 53.603 35.5407 57.8154 35.5875 57.8175C35.6343 57.8198 38.8484 57.094 42.7301 56.2048L49.7876 54.588V53.3149V52.0418L49.3625 51.9711C47.6979 51.6945 46.4538 50.7844 45.7313 49.3147C45.4259 48.6934 45.4227 48.6631 45.4227 46.3628C45.4227 44.0789 45.428 44.0274 45.7266 43.3903C46.3449 42.071 47.8381 40.9409 49.2125 40.7519L49.7876 40.6728V38.2459C49.7876 36.007 49.7722 35.8197 49.5892 35.8274C49.4802 35.8319 46.3432 36.5405 42.6183 37.4019ZM30.514 48.4035V57.8136H32.5548H34.5955V48.4035V38.9935H32.5548H30.514V48.4035ZM13.6273 42.7595C13.2819 42.9449 13.0408 43.1858 12.862 43.5239C12.6151 43.9908 12.6009 44.1382 12.6016 46.2389C12.6019 47.4606 12.654 48.6465 12.7171 48.8742C12.884 49.4748 13.5857 50.0678 14.2469 50.167C15.4946 50.3541 16.6895 49.9411 17.3302 49.1011C17.8597 48.4069 17.9557 47.9072 17.9091 46.0861C17.8653 44.3726 17.7747 44.0484 17.1513 43.3763C16.6417 42.827 16.0389 42.5871 15.0384 42.5356C14.2459 42.4948 14.0679 42.523 13.6273 42.7595ZM49.1074 42.6357C48.7113 42.7539 48.0489 43.1933 47.769 43.5238C47.2824 44.0984 47.185 44.5653 47.1825 46.3381C47.1798 48.2677 47.2695 48.6402 47.8944 49.2921C48.4561 49.8781 49.0328 50.1211 50.0051 50.1817C50.7475 50.2279 50.9342 50.1991 51.374 49.9713C51.654 49.8261 51.9984 49.534 52.1393 49.3221C52.3862 48.9505 52.3953 48.8456 52.3953 46.3628C52.3953 43.88 52.3862 43.7755 52.1402 43.4139C51.6779 42.7347 51.3413 42.5684 50.3752 42.5416C49.8961 42.5283 49.3256 42.5708 49.1074 42.6357Z" fill="currentColor"/>
</svg>
