<svg width="15" height="14" viewBox="0 0 15 14" fill="none" xmlns="http://www.w3.org/2000/svg">
    <g clip-path="url(#clip0_3127_6638)">
        <path fill-rule="evenodd" clip-rule="evenodd"
            d="M5.25104 0.711249L3.50708 1.43785L3.50673 1.96114L3.50639 2.48444L3.57679 2.4575C3.61552 2.44267 4.3976 2.11768 5.31477 1.73528C6.38623 1.28858 7.00702 1.04541 7.05126 1.05507C7.08915 1.06333 7.8171 1.36173 8.66891 1.71819C9.52073 2.07463 10.2845 2.39298 10.3663 2.42568L10.5149 2.48509L10.5145 1.96146L10.5142 1.43785L8.80151 0.726737C7.85956 0.335636 7.06775 0.00867625 7.04194 0.000165905C7.01612 -0.00834444 6.21024 0.311638 5.25104 0.711249ZM5.50882 2.10704L4.02264 2.72686L4.01473 7.86282L4.00681 12.9988H4.75782H5.50882L5.50929 11.6769C5.50979 10.2426 5.52096 10.123 5.68472 9.79986C5.8009 9.57061 6.10683 9.27626 6.3536 9.1563C6.93844 8.87201 7.59908 8.98209 8.05711 9.44011C8.16546 9.54843 8.29121 9.71032 8.33657 9.79986C8.50033 10.123 8.5115 10.2426 8.512 11.6769L8.51248 12.9988H9.26348H10.0145L10.0066 7.86298L9.99866 2.72714L8.54796 2.12256C7.75005 1.79003 7.07423 1.51107 7.04613 1.50259C7.018 1.49411 6.32622 1.76613 5.50882 2.10704ZM7.34299 2.82463C7.60484 2.95926 7.74382 3.18901 7.74382 3.48722C7.74382 3.91737 7.44089 4.22017 7.01065 4.22017C6.58041 4.22017 6.27748 3.91737 6.27748 3.48722C6.27748 3.13679 6.47212 2.87851 6.82273 2.76371C6.94322 2.72426 7.20811 2.75527 7.34299 2.82463ZM1.73861 4.95134L0.0177716 5.81818L0.00888582 6.15452L0 6.49087H1.75319H3.50639V5.28628C3.50639 4.62376 3.49581 4.08232 3.48292 4.0831C3.47003 4.08388 2.68508 4.47458 1.73861 4.95134ZM10.5149 5.28628V6.49087H12.2681H14.0213L14.0124 6.15452L14.0035 5.81818L12.2827 4.95131C11.3362 4.47454 10.5513 4.08385 10.5384 4.08307C10.5255 4.08232 10.5149 4.62376 10.5149 5.28628ZM6.76034 6.24057V6.99148H6.38489H6.00943V6.24057V5.48965H6.38489H6.76034V6.24057ZM8.01187 6.24057V6.99148H7.63641H7.26095V6.24057V5.48965H7.63641H8.01187V6.24057ZM0.00212761 9.99513V12.9988H1.75426H3.50639V9.99513V6.99148H1.75426H0.00212761V9.99513ZM10.5149 9.99513V12.9988H12.267H14.0192V9.99513V6.99148H12.267H10.5149V9.99513ZM1.50395 8.49331V9.24422H1.1285H0.753041V8.49331V7.74239H1.1285H1.50395V8.49331ZM2.75548 8.49331V9.24422H2.38002H2.00456V8.49331V7.74239H2.38002H2.75548V8.49331ZM12.0167 8.49331V9.24422H11.6413H11.2658V8.49331V7.74239H11.6413H12.0167V8.49331ZM13.2683 8.49331V9.24422H12.8928H12.5173V8.49331V7.74239H12.8928H13.2683V8.49331ZM1.50395 10.9963V11.7473H1.1285H0.753041V10.9963V10.2454H1.1285H1.50395V10.9963ZM2.75548 10.9963V11.7473H2.38002H2.00456V10.9963V10.2454H2.38002H2.75548V10.9963ZM12.0167 10.9963V11.7473H11.6413H11.2658V10.9963V10.2454H11.6413H12.0167V10.9963ZM13.2683 10.9963V11.7473H12.8928H12.5173V10.9963V10.2454H12.8928H13.2683V10.9963ZM0.00212761 13.7497V14H7.01065H14.0192V13.7497V13.4994H7.01065H0.00212761V13.7497Z"
            fill="white" />
    </g>
    <defs>
        <clipPath id="clip0_3127_6638">
            <rect width="14.0213" height="14" fill="white" />
        </clipPath>
    </defs>
</svg>
    