<svg width="14" height="14" viewBox="0 0 14 14" fill="none" xmlns="http://www.w3.org/2000/svg">
<g clip-path="url(#clip0_53_3253)">
<path d="M12.1497 3.31229L9.38129 0.543925C9.28329 0.445925 9.11572 0.515324 9.11572 0.653902V3.42229C9.11572 3.50818 9.18537 3.57785 9.27128 3.57785H12.0397C12.1783 3.57785 12.2476 3.41029 12.1497 3.31229Z" fill="black" fill-opacity="0.5"/>
<path d="M12.5378 4.51112H8.64887C8.39116 4.51112 8.1822 4.30218 8.1822 4.04444V0.155559C8.1822 0.0696719 8.11255 0 8.02664 0H1.77332C1.5156 0 1.30664 0.208934 1.30664 0.466676V13.5334C1.30664 13.7911 1.51557 14 1.77332 14H12.2266C12.4844 14 12.6933 13.7911 12.6933 13.5334V4.66668C12.6933 4.58076 12.6237 4.51112 12.5378 4.51112ZM10.4222 11.1067H3.57776C3.32004 11.1067 3.11108 10.8977 3.11108 10.64C3.11108 10.3823 3.32002 10.1733 3.57776 10.1733H10.4222C10.6799 10.1733 10.8889 10.3823 10.8889 10.64C10.8889 10.8977 10.6799 11.1067 10.4222 11.1067ZM10.4222 9.24H3.57776C3.32004 9.24 3.11108 9.03107 3.11108 8.77332C3.11108 8.51558 3.32002 8.30665 3.57776 8.30665H10.4222C10.6799 8.30665 10.8889 8.51558 10.8889 8.77332C10.8889 9.03107 10.6799 9.24 10.4222 9.24ZM10.4222 7.40444H3.57776C3.32004 7.40444 3.11108 7.19551 3.11108 6.93777C3.11108 6.68005 3.32002 6.47109 3.57776 6.47109H10.4222C10.6799 6.47109 10.8889 6.68002 10.8889 6.93777C10.8889 7.19551 10.6799 7.40444 10.4222 7.40444Z" fill="black" fill-opacity="0.5"/>
</g>
<defs>
<clipPath id="clip0_53_3253">
<rect width="14" height="14" fill="white"/>
</clipPath>
</defs>
</svg>
