<svg width="36" height="32" viewBox="0 0 36 32" fill="none" xmlns="http://www.w3.org/2000/svg">
<g id="Group 2756">
<g id="Rectangle 3">
<rect width="36" height="32" rx="4" fill="white"/>
<rect x="0.5" y="0.5" width="35" height="31" rx="3.5" stroke="black" stroke-opacity="0.5"/>
</g>
<path id="Arrow 1" d="M17.25 22C17.25 22.4142 17.5858 22.75 18 22.75C18.4142 22.75 18.75 22.4142 18.75 22H17.25ZM18.5303 11.4697C18.2374 11.1768 17.7626 11.1768 17.4697 11.4697L12.6967 16.2426C12.4038 16.5355 12.4038 17.0104 12.6967 17.3033C12.9896 17.5962 13.4645 17.5962 13.7574 17.3033L18 13.0607L22.2426 17.3033C22.5355 17.5962 23.0104 17.5962 23.3033 17.3033C23.5962 17.0104 23.5962 16.5355 23.3033 16.2426L18.5303 11.4697ZM18.75 22V12H17.25V22H18.75Z" fill="black" fill-opacity="0.5"/>
</g>
</svg>
