<svg xmlns="http://www.w3.org/2000/svg" width="18" height="18" viewBox="0 0 18 18" fill="none">
    <path
        d="M7.19304 2.76688C8.1006 2.25539 8.55366 2 9.05 2C9.54634 2 9.9994 2.25539 10.907 2.76688L12.1695 3.47821C13.1109 4.00846 13.582 4.27394 13.841 4.71762C14.1 5.1613 14.1 5.70237 14.1 6.78451V8.03691C14.1 9.11906 14.1 9.66013 13.8403 10.1038C13.582 10.5475 13.1116 10.813 12.1695 11.3432L10.907 12.0546C9.9994 12.566 9.54634 12.8214 9.05 12.8214C8.55366 12.8214 8.1006 12.566 7.19304 12.0546L5.93054 11.3432C4.98908 10.813 4.51799 10.5475 4.25899 10.1038C4 9.66013 4 9.11906 4 8.03691V6.78451C4 5.70237 4 5.1613 4.25971 4.71762C4.51799 4.27394 4.98836 4.00846 5.93054 3.47821L7.19304 2.76688Z"
        stroke="currentColor" stroke-width="1.3" stroke-linejoin="round" />
    <path
        d="M6.88664 7.89182C6.88664 7.89182 7.42772 7.89182 7.96879 8.85349C7.96879 8.85349 9.68723 6.44897 11.2152 5.96777M12.5737 11.3785L13.057 13.6943C13.3672 15.1819 13.5231 15.9257 13.2035 16.2784C12.8846 16.6312 12.3305 16.3282 11.2224 15.7215L9.5819 14.8233C9.32002 14.6805 9.18944 14.6083 9.05093 14.6083C8.91242 14.6083 8.78184 14.6805 8.51996 14.8233L6.87943 15.7215C5.77131 16.3275 5.21726 16.6312 4.89839 16.2784C4.57951 15.9257 4.73462 15.1819 5.04484 13.6943L5.52819 11.3785"
        stroke="currentColor" stroke-width="1.3" stroke-linecap="round" stroke-linejoin="round" />
</svg>