<svg xmlns="http://www.w3.org/2000/svg" width="92" height="92" viewBox="0 0 92 92" fill="none">
    <path
        d="M24.6467 9.24681C25.1299 8.66999 25.3678 7.92669 25.3092 7.17646C25.2506 6.42622 24.9002 5.72888 24.3331 5.23413C23.7661 4.73937 23.0277 4.48665 22.2765 4.53022C21.5252 4.57378 20.821 4.91016 20.315 5.46714L15.3623 11.1405C12.5539 14.3588 10.9664 18.462 10.8773 22.7325L10.6588 33.1553C10.651 33.5329 10.7177 33.9082 10.8549 34.26C10.9922 34.6118 11.1974 34.9332 11.4589 35.2056C11.7203 35.4781 12.0329 35.6965 12.3787 35.8481C12.7245 35.9998 13.0968 36.0819 13.4744 36.0897C13.852 36.0975 14.2273 36.0309 14.5791 35.8936C14.9309 35.7563 15.2522 35.5511 15.5247 35.2897C15.7972 35.0282 16.0155 34.7157 16.1672 34.3698C16.3189 34.024 16.401 33.6517 16.4088 33.2741L16.6235 22.8551C16.685 19.9331 17.7719 17.1257 19.694 14.924L24.6467 9.24681Z"
        fill="currentColor" />
    <path fill-rule="evenodd" clip-rule="evenodd"
        d="M23.9046 29.515C24.162 25.4139 25.9727 21.565 28.9681 18.7519C31.9635 15.9389 35.9183 14.3731 40.0276 14.3734H42.1627V11.4984C42.1627 10.4817 42.5666 9.50669 43.2855 8.7878C44.0044 8.06891 44.9794 7.66504 45.9961 7.66504C47.0127 7.66504 47.9877 8.06891 48.7066 8.7878C49.4255 9.50669 49.8294 10.4817 49.8294 11.4984V14.3734H51.9646C56.0738 14.3731 60.0286 15.9389 63.024 18.7519C66.0194 21.565 67.8301 25.4139 68.0876 29.515L68.9347 43.062C69.2622 48.2264 70.9961 53.2027 73.9487 57.4524C74.5596 58.3305 74.9329 59.3517 75.0323 60.4167C75.1316 61.4818 74.9536 62.5544 74.5156 63.5304C74.0777 64.5063 73.3946 65.3522 72.5328 65.986C71.6711 66.6197 70.66 67.0196 69.5979 67.1469L56.5377 68.7109V72.8317C56.5377 75.6275 55.4271 78.3088 53.4501 80.2858C51.4732 82.2627 48.7919 83.3734 45.9961 83.3734C43.2002 83.3734 40.5189 82.2627 38.542 80.2858C36.565 78.3088 35.4544 75.6275 35.4544 72.8317V68.7109L22.3942 67.143C21.3328 67.0154 20.3223 66.6155 19.4611 65.982C18.5999 65.3485 17.9172 64.503 17.4793 63.5277C17.0414 62.5523 16.8633 61.4803 16.9621 60.4158C17.0609 59.3513 17.4334 58.3304 18.0434 57.4524C20.996 53.2027 22.7299 48.2264 23.0574 43.062L23.9046 29.515ZM40.0276 20.1234C37.3809 20.1231 34.8337 21.1314 32.9044 22.9432C30.9751 24.755 29.8088 27.2339 29.6431 29.8754L28.7997 43.4224C28.4056 49.6352 26.319 55.6218 22.7661 60.7337C22.7219 60.7972 22.6948 60.8711 22.6876 60.9481C22.6804 61.0251 22.6932 61.1027 22.7249 61.1733C22.7565 61.2439 22.8059 61.3052 22.8682 61.3511C22.9305 61.3969 23.0036 61.4259 23.0804 61.4352L37.4056 63.1564C43.1134 63.8387 48.8787 63.8387 54.5866 63.1564L68.9117 61.4352C68.9885 61.4259 69.0617 61.3969 69.124 61.3511C69.1862 61.3052 69.2356 61.2439 69.2673 61.1733C69.2989 61.1027 69.3117 61.0251 69.3045 60.9481C69.2973 60.8711 69.2703 60.7972 69.2261 60.7337C65.6744 55.6214 63.5892 49.6349 63.1962 43.4224L62.3491 29.8754C62.1833 27.2339 61.017 24.755 59.0877 22.9432C57.1585 21.1314 54.6112 20.1231 51.9646 20.1234H40.0276ZM45.9961 77.6234C43.3511 77.6234 41.2044 75.4767 41.2044 72.8317V69.9567H50.7877V72.8317C50.7877 75.4767 48.6411 77.6234 45.9961 77.6234Z"
        fill="currentColor" />
    <path
        d="M67.625 5.19469C67.0507 5.69598 66.699 6.40484 66.6473 7.16537C66.5955 7.92591 66.8479 8.67587 67.349 9.25035L72.3017 14.9237C74.2232 17.1269 75.3088 19.9358 75.3683 22.8587L75.5868 33.2739C75.6026 34.0364 75.9206 34.7614 76.4709 35.2894C77.0212 35.8174 77.7587 36.1052 78.5212 36.0894C79.2837 36.0737 80.0087 35.7557 80.5368 35.2054C81.0648 34.655 81.3526 33.9175 81.3368 33.155L81.1183 22.736C81.0292 18.4656 79.4417 14.3624 76.6333 11.144L71.6806 5.47069C71.1794 4.89641 70.4705 4.54472 69.71 4.49297C68.9494 4.44121 68.1995 4.69362 67.625 5.19469Z"
        fill="currentColor" />
</svg>