<svg xmlns="http://www.w3.org/2000/svg" width="24" height="24" viewBox="0 0 24 24" fill="none">
    <path
        d="M10.9844 23C9.08971 23 7.54688 21.4581 7.54688 19.5625C7.54688 19.183 7.85487 18.875 8.23437 18.875C8.61387 18.875 8.92187 19.183 8.92187 19.5625C8.92187 20.7002 9.8477 21.625 10.9844 21.625C12.121 21.625 13.0468 20.7002 13.0468 19.5625C13.0468 19.183 13.3548 18.875 13.7343 18.875C14.1138 18.875 14.4218 19.183 14.4218 19.5625C14.4218 21.4581 12.8792 23 10.9844 23Z"
        fill="currentColor" />
    <path
        d="M3.42335 20.2499H18.5482C19.4328 20.2499 20.1523 19.5303 20.1523 18.6458C20.1523 18.1763 19.9479 17.7319 19.5914 17.4266C19.5684 17.4064 19.5437 17.3881 19.5181 17.3715C18.1724 16.1973 17.4024 14.5079 17.4024 12.724V10.1666C17.4024 6.62838 14.5231 3.75 10.9858 3.75C10.8391 3.75 10.6805 3.75269 10.5338 3.77753C10.159 3.8398 9.90588 4.19462 9.96832 4.56858C10.0306 4.94254 10.3918 5.19565 10.7594 5.13321C10.8327 5.1213 10.9133 5.12499 10.9858 5.12499C13.765 5.12499 16.0274 7.38637 16.0274 10.1666V12.724C16.0274 14.9388 16.9982 17.0343 18.6884 18.4724C18.7022 18.4835 18.7141 18.4936 18.7288 18.5036C18.7535 18.5348 18.7774 18.5825 18.7774 18.6458C18.7774 18.7703 18.6728 18.8749 18.5482 18.8749H3.42335C3.29864 18.8749 3.19407 18.7703 3.19407 18.6458C3.19407 18.5815 3.21791 18.5348 3.24359 18.5036C3.25735 18.4936 3.26927 18.4835 3.28303 18.4724C4.97424 17.0333 5.94406 14.9388 5.94406 12.724V11.725C5.94406 11.3455 5.63606 11.0375 5.25656 11.0375C4.87706 11.0375 4.56907 11.3455 4.56907 11.725V12.724C4.56907 14.5089 3.79815 16.1991 2.45069 17.3744C2.42601 17.3908 2.40218 17.4083 2.38019 17.4276C2.02352 17.7319 1.81908 18.1763 1.81908 18.6458C1.81908 19.5303 2.53864 20.2499 3.42335 20.2499Z"
        fill="currentColor" />
    <path
        d="M18.5474 20.2499H3.42246C2.53791 20.2499 1.81836 19.5303 1.81836 18.6458C1.81836 18.1763 2.0228 17.7319 2.3793 17.4266C2.40229 17.4064 2.42697 17.3881 2.45265 17.3715C3.79826 16.1973 4.56834 14.5079 4.56834 12.724V10.1666C4.56834 6.62838 7.44756 3.75 10.9849 3.75C11.1316 3.75 11.2902 3.75269 11.4369 3.77753C11.8117 3.8398 12.0648 4.19462 12.0024 4.56858C11.9401 4.94254 11.5789 5.19565 11.2113 5.13321C11.138 5.1213 11.0574 5.12499 10.9849 5.12499C8.20572 5.12499 5.94333 7.38637 5.94333 10.1666L5.94333 12.724C5.94333 14.9388 4.97251 17.0343 3.28231 18.4724C3.26854 18.4835 3.25663 18.4936 3.24186 18.5036C3.21718 18.5348 3.19335 18.5825 3.19335 18.6458C3.19335 18.7703 3.29792 18.8749 3.42246 18.8749H18.5474C18.6721 18.8749 18.7766 18.7703 18.7766 18.6458C18.7766 18.5815 18.7528 18.5348 18.7271 18.5036C18.7134 18.4936 18.7014 18.4835 18.6877 18.4724C16.9965 17.0333 16.0266 14.9388 16.0266 12.724V11.725C16.0266 11.3455 16.3346 11.0375 16.7141 11.0375C17.0936 11.0375 17.4016 11.3455 17.4016 11.725V12.724C17.4016 14.5089 18.1726 16.1991 19.52 17.3744C19.5447 17.3908 19.5685 17.4083 19.5905 17.4276C19.9472 17.7319 20.1516 18.1763 20.1516 18.6458C20.1516 19.5303 19.4321 20.2499 18.5474 20.2499Z"
        fill="currentColor" />
</svg>