<svg xmlns="http://www.w3.org/2000/svg" width="14" height="14" viewBox="0 0 14 14" fill="none">
    <g clip-path="url(#clip0_3348_4385)">
      <path d="M0.875 7C0.875 7.80435 1.03343 8.60082 1.34124 9.34394C1.64905 10.0871 2.10021 10.7623 2.66897 11.331C3.23773 11.8998 3.91294 12.351 4.65606 12.6588C5.39918 12.9666 6.19565 13.125 7 13.125C7.80435 13.125 8.60082 12.9666 9.34394 12.6588C10.0871 12.351 10.7623 11.8998 11.331 11.331C11.8998 10.7623 12.351 10.0871 12.6588 9.34394C12.9666 8.60082 13.125 7.80435 13.125 7C13.125 5.37555 12.4797 3.81763 11.331 2.66897C10.1824 1.52031 8.62445 0.875 7 0.875C5.37555 0.875 3.81763 1.52031 2.66897 2.66897C1.52031 3.81763 0.875 5.37555 0.875 7Z" stroke="#7E8CA8" stroke-width="1.36111" stroke-linecap="round" stroke-linejoin="round"/>
      <path d="M7 3.59863V7.00141L9.04167 9.04308" stroke="#7E8CA8" stroke-width="1.36111" stroke-linecap="round" stroke-linejoin="round"/>
    </g>
    <defs>
      <clipPath id="clip0_3348_4385">
        <rect width="14" height="14" fill="white"/>
      </clipPath>
    </defs>
  </svg>