<svg width="12" height="12" viewBox="0 0 12 12" fill="none" xmlns="http://www.w3.org/2000/svg">
<path fill-rule="evenodd" clip-rule="evenodd" d="M5.45358 0.013461C5.25716 0.0293035 4.76272 0.115205 4.52674 0.174468C3.47904 0.437572 2.52442 0.981734 1.7478 1.75858C0.971161 2.53541 0.427143 3.49028 0.164109 4.53826C0.0287906 5.07737 0 5.33482 0 6.00516C0 6.6755 0.0287906 6.93294 0.164109 7.47206C0.427143 8.52004 0.971161 9.47491 1.7478 10.2517C2.52442 11.0286 3.47904 11.5727 4.52674 11.8358C5.06572 11.9712 5.3231 12 5.99326 12C6.66342 12 6.9208 11.9712 7.45977 11.8358C8.50748 11.5727 9.4621 11.0286 10.2387 10.2517C11.3106 9.17956 11.9342 7.7688 11.9927 6.28387C12.0064 5.93491 12.0045 5.91182 11.9539 5.80704C11.8177 5.52573 11.4352 5.46693 11.2228 5.69469C11.1196 5.80538 11.0853 5.91353 11.0851 6.12929C11.0845 6.9401 10.7871 7.94168 10.3287 8.67684C9.9315 9.31395 9.30118 9.94444 8.66424 10.3418C7.05199 11.3475 4.93392 11.3469 3.31991 10.3403C2.6856 9.94467 2.05439 9.31296 1.6578 8.67684C0.652329 7.06417 0.652916 4.94554 1.6593 3.3311C2.05418 2.69763 2.68661 2.06504 3.31991 1.67005C4.05636 1.21073 5.05884 0.912613 5.86916 0.911933C6.08486 0.911768 6.19299 0.877502 6.30364 0.774279C6.52817 0.564782 6.47249 0.179162 6.19857 0.0465074C6.11016 0.00369729 6.05821 -0.00271014 5.82746 0.000833891C5.67989 0.00308705 5.51166 0.0087669 5.45358 0.013461ZM11.1789 1.52606C11.1137 1.54432 10.5294 2.11618 8.34555 4.29902L5.59434 7.04896L5.49073 6.94365C5.43373 6.88575 4.98481 6.40005 4.4931 5.86434C3.89657 5.21444 3.56675 4.87273 3.50194 4.8375C3.11666 4.62803 2.68588 5.05254 2.88598 5.44447C2.90321 5.47818 3.4457 6.08019 4.09155 6.78229C4.89309 7.65363 5.29679 8.07558 5.36339 8.11163C5.47838 8.17387 5.62797 8.18028 5.7535 8.12836C5.85881 8.0848 11.6984 2.25761 11.7538 2.14075C11.8264 1.98789 11.7748 1.74246 11.645 1.62318C11.5232 1.51116 11.3563 1.47637 11.1789 1.52606Z" fill="white"/>
</svg>
