<svg width="14" height="14" viewBox="0 0 14 14" fill="none" xmlns="http://www.w3.org/2000/svg">
    <path fill-rule="evenodd" clip-rule="evenodd"
        d="M2.71621 1.12903V2.25806L2.87841 2.25849C3.46043 2.25998 4.0636 2.64109 4.32553 3.17289C4.47185 3.46997 4.52057 3.71333 4.52091 4.14919C4.52125 4.56547 4.48765 4.80067 4.39549 5.02764L4.3281 5.19355H5.23946H6.15082L6.57368 4.67843C7.20126 3.91399 7.39052 3.74915 7.74458 3.65852L7.89265 3.62061L7.90675 2.20644C7.92263 0.614843 7.91101 0.692802 8.13243 0.692802C8.35463 0.692802 8.34301 0.611766 8.35181 2.22377L8.3596 3.65524L8.48629 3.70763C8.65862 3.7789 8.85408 3.97628 8.9454 4.17121C9.00898 4.30695 9.02097 4.37088 9.02069 4.57258C9.02018 4.92512 9.01307 4.93616 7.86162 6.36701L7.17051 7.22581H6.07172H4.97297V7.45161V7.67742H9.48648H14V3.83871V0H8.3581H2.71621V1.12903ZM2.51874 2.75012C2.15131 2.85258 1.8726 3.08804 1.70628 3.43658L1.60193 3.65524V4.17742V4.6996L1.70628 4.91826C1.8726 5.26679 2.15131 5.50225 2.51874 5.60471C2.63124 5.6361 2.5766 5.64039 2.03805 5.64265C1.38054 5.64536 1.2281 5.66814 0.96121 5.80345C0.632964 5.96987 0.339614 6.35772 0.26311 6.72638C0.241925 6.82858 0.234449 7.36967 0.239893 8.41321L0.247877 9.9496L0.317723 10.0907C0.387232 10.2311 0.600947 10.4718 0.656181 10.4718C0.673304 10.4718 0.68518 10.3881 0.685293 10.2671C0.685519 9.98189 0.724927 9.7707 0.816693 9.56299L0.895256 9.38508L0.910094 8.13708C0.926766 6.73185 0.917062 6.78958 1.13648 6.78958C1.35248 6.78958 1.347 6.76262 1.35614 7.87285L1.36421 8.85666L1.55361 8.76027C2.4182 8.32018 3.4762 8.76648 3.768 9.69438C3.82264 9.86825 3.83043 9.95502 3.83006 10.3871C3.82955 10.9927 3.78772 11.1638 3.55341 11.5191L3.50492 11.5927L3.69409 11.7026C3.87737 11.8091 4.33828 12.2318 4.46029 12.4052L4.51984 12.4899L4.52071 9.63206L4.52161 6.77419H5.7445H6.96738L7.67425 5.89214C8.06303 5.40702 8.42801 4.94022 8.4853 4.85484C8.58127 4.71187 8.58858 4.68678 8.57783 4.53772C8.56866 4.41099 8.54801 4.35346 8.48256 4.27257C8.34956 4.10812 8.23488 4.05856 8.01959 4.07245C7.67428 4.09475 7.53588 4.21245 6.81586 5.09645L6.36934 5.64465L4.69087 5.64299C3.31385 5.64166 3.0352 5.63514 3.13935 5.60677C3.57812 5.48727 3.91201 5.14788 4.03187 4.6996C4.05452 4.61478 4.06958 4.40641 4.06958 4.17742C4.06958 3.62047 3.97415 3.3392 3.69175 3.0638C3.38322 2.76294 2.91847 2.63866 2.51874 2.75012ZM1.90927 9.09069C1.57657 9.20599 1.30429 9.48158 1.19555 9.8131C1.11049 10.0723 1.11007 10.7056 1.19478 10.9572C1.32314 11.3384 1.60058 11.6006 1.98276 11.7018L2.1097 11.7354L1.99686 11.7542C1.71618 11.801 1.50029 11.8662 1.28943 11.9678C0.573725 12.3126 0.0923861 13.0054 0.0189004 13.7966L0 14H0.452762H0.905524L0.9152 13.7187C0.92654 13.3899 0.956725 13.338 1.13648 13.338C1.31623 13.338 1.34641 13.3899 1.35775 13.7187L1.36743 14H2.26485H3.16228L3.17196 13.7187C3.1833 13.3899 3.21348 13.338 3.39323 13.338C3.57299 13.338 3.60317 13.3899 3.61451 13.7187L3.62419 14H4.52161H5.41904L5.42872 13.7187C5.44006 13.3899 5.47024 13.338 5.64999 13.338C5.82974 13.338 5.85993 13.3899 5.87127 13.7187L5.88094 14H6.77837H7.6758L7.68548 13.7187C7.69682 13.3899 7.727 13.338 7.90675 13.338C8.0865 13.338 8.11669 13.3899 8.12803 13.7187L8.1377 14H9.03513H9.93256L9.94223 13.7187C9.95358 13.3899 9.98376 13.338 10.1635 13.338C10.3433 13.338 10.3734 13.3899 10.3848 13.7187L10.3945 14H11.2919H12.1893L12.199 13.7187C12.2103 13.3899 12.2405 13.338 12.4203 13.338C12.6 13.338 12.6302 13.3899 12.6415 13.7187L12.6512 14H13.104H13.5567L13.5378 13.7966C13.4644 13.0054 12.983 12.3126 12.2673 11.9678C12.0565 11.8662 11.8406 11.801 11.5599 11.7542L11.447 11.7354L11.574 11.7018C11.7868 11.6454 11.9194 11.568 12.083 11.4044C12.363 11.1244 12.4328 10.8895 12.4134 10.292C12.3989 9.84429 12.3634 9.71419 12.1945 9.49059C11.7355 8.88286 10.8464 8.88534 10.3855 9.49564C10.2143 9.72218 10.1635 9.92665 10.1635 10.3886C10.1635 10.7136 10.1739 10.8149 10.2218 10.9572C10.3502 11.3384 10.6276 11.6006 11.0098 11.7018L11.1367 11.7354L11.0239 11.7542C10.2046 11.8909 9.59385 12.3308 9.26112 13.024C9.14983 13.2559 9.06334 13.5394 9.06334 13.6724C9.06334 13.7129 9.05065 13.746 9.03513 13.746C9.01962 13.746 9.00692 13.7129 9.00692 13.6724C9.00692 13.5394 8.92043 13.2559 8.80914 13.024C8.47641 12.3308 7.86562 11.8909 7.04636 11.7542L6.93352 11.7354L7.06047 11.7018C7.27331 11.6454 7.40592 11.568 7.56948 11.4044C7.84951 11.1244 7.91928 10.8895 7.89992 10.292C7.88543 9.84429 7.84988 9.71419 7.68099 9.49059C7.22194 8.88286 6.33292 8.88534 5.87195 9.49564C5.70083 9.72218 5.64999 9.92665 5.64999 10.3886C5.64999 10.7136 5.66037 10.8149 5.7083 10.9572C5.83666 11.3384 6.1141 11.6006 6.49628 11.7018L6.62322 11.7354L6.51038 11.7542C5.69112 11.8909 5.08033 12.3308 4.7476 13.024C4.63631 13.2559 4.54982 13.5394 4.54982 13.6724C4.54982 13.7129 4.53713 13.746 4.52161 13.746C4.5061 13.746 4.4934 13.7129 4.4934 13.6724C4.4934 13.5394 4.40691 13.2559 4.29563 13.024C3.9629 12.3308 3.3521 11.8909 2.53285 11.7542L2.42001 11.7354L2.54695 11.7018C2.75979 11.6454 2.8924 11.568 3.05596 11.4044C3.336 11.1244 3.40576 10.8895 3.38641 10.292C3.3767 9.99219 3.36034 9.85961 3.32048 9.75806C3.21063 9.47814 2.94343 9.21149 2.66786 9.1068C2.45459 9.02577 2.11718 9.0186 1.90927 9.09069Z"
        fill="white" />
</svg>
    