<svg viewBox="0 0 16 17" fill="none" xmlns="http://www.w3.org/2000/svg">
    <path
        d="M6.39714 3.26628H9.59766C9.59766 2.84186 9.42906 2.43483 9.12895 2.13472C8.82884 1.83461 8.42181 1.66602 7.9974 1.66602C7.57298 1.66602 7.16595 1.83461 6.86584 2.13472C6.56573 2.43483 6.39714 2.84186 6.39714 3.26628ZM5.19694 3.26628C5.19694 2.89851 5.26938 2.53435 5.41011 2.19459C5.55085 1.85482 5.75713 1.5461 6.01717 1.28605C6.27722 1.02601 6.58594 0.819728 6.92571 0.678992C7.26547 0.538256 7.62963 0.46582 7.9974 0.46582C8.36516 0.46582 8.72932 0.538256 9.06908 0.678992C9.40885 0.819728 9.71757 1.02601 9.97762 1.28605C10.2377 1.5461 10.4439 1.85482 10.5847 2.19459C10.7254 2.53435 10.7979 2.89851 10.7979 3.26628H15.3986C15.5578 3.26628 15.7104 3.3295 15.8229 3.44204C15.9355 3.55458 15.9987 3.70722 15.9987 3.86637C15.9987 4.02553 15.9355 4.17817 15.8229 4.29071C15.7104 4.40325 15.5578 4.46647 15.3986 4.46647H14.3424L13.4063 14.1568C13.3345 14.8994 12.9886 15.5885 12.4363 16.0898C11.8839 16.5912 11.1646 16.8688 10.4186 16.8685H5.5762C4.83037 16.8686 4.11124 16.5909 3.55903 16.0896C3.00682 15.5882 2.66111 14.8992 2.58932 14.1568L1.65236 4.46647H0.596191C0.437036 4.46647 0.284398 4.40325 0.171858 4.29071C0.0593181 4.17817 -0.00390625 4.02553 -0.00390625 3.86637C-0.00390625 3.70722 0.0593181 3.55458 0.171858 3.44204C0.284398 3.3295 0.437036 3.26628 0.596191 3.26628H5.19694ZM6.7972 7.06689C6.7972 6.90774 6.73398 6.7551 6.62144 6.64256C6.5089 6.53002 6.35626 6.4668 6.1971 6.4668C6.03795 6.4668 5.88531 6.53002 5.77277 6.64256C5.66023 6.7551 5.597 6.90774 5.597 7.06689V13.0679C5.597 13.227 5.66023 13.3797 5.77277 13.4922C5.88531 13.6047 6.03795 13.668 6.1971 13.668C6.35626 13.668 6.5089 13.6047 6.62144 13.4922C6.73398 13.3797 6.7972 13.227 6.7972 13.0679V7.06689ZM9.79769 6.4668C9.95684 6.4668 10.1095 6.53002 10.222 6.64256C10.3346 6.7551 10.3978 6.90774 10.3978 7.06689V13.0679C10.3978 13.227 10.3346 13.3797 10.222 13.4922C10.1095 13.6047 9.95684 13.668 9.79769 13.668C9.63853 13.668 9.4859 13.6047 9.37336 13.4922C9.26082 13.3797 9.19759 13.227 9.19759 13.0679V7.06689C9.19759 6.90774 9.26082 6.7551 9.37336 6.64256C9.4859 6.53002 9.63853 6.4668 9.79769 6.4668ZM3.78391 14.0416C3.82707 14.487 4.03455 14.9004 4.3659 15.2011C4.69725 15.5018 5.12873 15.6684 5.5762 15.6683H10.4186C10.8661 15.6684 11.2975 15.5018 11.6289 15.2011C11.9602 14.9004 12.1677 14.487 12.2109 14.0416L13.1374 4.46647H2.85736L3.78391 14.0416Z"
        fill="currentColor" />
</svg>
    