<svg width="52" height="57" viewBox="0 0 52 57" fill="none" xmlns="http://www.w3.org/2000/svg">
<path fill-rule="evenodd" clip-rule="evenodd" d="M4.58268 0.86319C3.2926 1.21191 2.12049 2.09241 1.58206 3.11709C1.00781 4.20988 0.966797 4.59216 0.966797 8.84921V12.8039H4.80867H8.65054L8.65145 32.3374C8.65201 45.3911 8.69145 52.1058 8.77032 52.5792C8.83529 52.9688 9.0101 53.5452 9.1588 53.86C9.49621 54.5739 10.3963 55.504 11.1154 55.8813C12.3564 56.5327 11.4375 56.5023 29.8555 56.5023C41.8329 56.5023 46.8927 56.4671 47.318 56.3807C48.6592 56.1082 49.9445 55.192 50.5192 54.0982C51.0564 53.0759 51.1371 52.5108 51.1371 49.7775V47.2395H48.7089H46.2806L46.2512 25.7445L46.2218 4.24944L45.9593 3.62262C45.4626 2.43601 44.4808 1.50581 43.1815 0.990581L42.6059 0.762281L23.8485 0.743973C9.04829 0.72948 4.98393 0.754653 4.58268 0.86319ZM6.74407 2.72686C7.4573 2.96126 8.06974 3.48706 8.3815 4.13273C8.64241 4.67302 8.6484 4.75529 8.64941 7.81832L8.65054 10.9513H5.76145H2.87248L2.9083 7.76383C2.94796 4.24824 2.94954 4.23941 3.71961 3.45011C4.51262 2.63717 5.64631 2.36615 6.74407 2.72686ZM42.834 2.89326C43.4653 3.20656 44.0645 3.89059 44.2392 4.49735C44.3179 4.77055 44.3563 11.8254 44.3567 26.0714L44.3574 47.2395H30.4111H16.4649L16.4259 49.8821C16.3828 52.8032 16.3325 53.0457 15.6223 53.7603C15.007 54.3794 14.4702 54.5902 13.5094 54.5902C12.5189 54.5902 11.9566 54.3594 11.3658 53.7106C10.5612 52.8268 10.6341 55.1547 10.5715 28.3326L10.515 4.14046L10.1025 3.34899L9.69 2.55751L25.9816 2.58617L42.273 2.61483L42.834 2.89326ZM23.6225 5.49304L20.3457 6.55586L20.3148 8.60936C20.2711 11.524 20.5324 12.8212 21.5896 14.9382C22.6246 17.0105 24.3362 18.7777 26.7372 20.2525C27.0211 20.427 27.046 20.4181 27.979 19.8047C30.649 18.0494 32.5704 15.4895 33.3581 12.6379C33.6397 11.6184 33.6591 11.3946 33.6688 9.04536L33.6792 6.54017L30.3458 5.47779C28.5125 4.89358 26.987 4.41878 26.9559 4.42281C26.9249 4.42684 25.4248 4.9084 23.6225 5.49304ZM31.7846 9.64363C31.7372 11.1713 31.6835 11.5891 31.4277 12.4225C30.7989 14.4706 29.5532 16.3205 27.9731 17.5516L27.1627 18.1831L26.7694 17.9788C26.1894 17.6776 24.9773 16.5694 24.3345 15.7528C23.6232 14.8489 22.8586 13.3313 22.5468 12.2045C22.3681 11.5584 22.2906 10.8815 22.2472 9.58914L22.1886 7.84556L24.5965 7.07261L27.0044 6.29977L29.4225 7.07261L31.8407 7.84556L31.7846 9.64363ZM27.8616 10.5276C27.6239 11.5159 27.0991 12.4421 26.3332 13.2249L25.6168 13.9573L26.0873 14.6883C26.3462 15.0903 26.6128 15.4192 26.6797 15.4192C26.9057 15.4192 28.3651 13.901 28.7909 13.2231C29.0233 12.853 29.3198 12.2763 29.4499 11.9414C29.7129 11.2643 29.9567 10.2128 29.8701 10.1292C29.8393 10.0995 29.4065 10.0449 28.9085 10.0078L28.003 9.94047L27.8616 10.5276ZM20.2892 22.9929V23.9192H27.0124H33.7357V22.9929V22.0666H27.0124H20.2892V22.9929ZM12.6054 27.6788V28.605H16.8993H21.1931V27.6788V26.7525H16.8993H12.6054V27.6788ZM23.1141 27.6788V28.605H32.7752H42.4364V27.6788V26.7525H32.7752H23.1141V27.6788ZM12.6054 31.3839V32.3101H22.7186H32.8317V31.3839V30.4576H22.7186H12.6054V31.3839ZM34.7527 31.3839V32.3101H38.5946H42.4364V31.3839V30.4576H38.5946H34.7527V31.3839ZM12.6054 35.089V36.0152H16.8993H21.1931V35.089V34.1627H16.8993H12.6054V35.089ZM23.1894 34.2354C23.148 34.2753 23.1141 34.6921 23.1141 35.1616V36.0152H32.7752H42.4364V35.089V34.1627H32.8506C27.5783 34.1627 23.2308 34.1954 23.1894 34.2354ZM12.6054 38.7914V39.7203H14.5309H16.4564L16.4236 38.8213L16.3908 37.9223L14.4981 37.8924L12.6054 37.8626V38.7914ZM18.3682 38.7941V39.7203H30.4023H42.4364V38.7941V37.8678H30.4023H18.3682V38.7941ZM12.6054 42.5536V43.5344H20.2892H27.9729V42.5536V41.5729H20.2892H12.6054V42.5536ZM29.9415 41.7193C29.9094 41.7999 29.8984 42.2289 29.9168 42.6729L29.9503 43.4799L36.1934 43.508L42.4364 43.5363V42.5545V41.5729H36.2181C31.1167 41.5729 29.9893 41.5991 29.9415 41.7193ZM49.1959 50.8629C49.1603 52.3103 49.1146 52.7033 48.9457 53.0151C48.6589 53.5441 48.1134 54.0803 47.5778 54.3596L47.1258 54.5952L32.2851 54.6241C24.1227 54.6399 17.4639 54.6154 17.488 54.5696C18.2718 53.0728 18.3682 52.6384 18.3682 50.6029V49.0921H33.8039H49.2395L49.1959 50.8629Z" fill="#4171CD"/>
</svg>
