<svg width="16" height="16" viewBox="0 0 16 16" fill="none" xmlns="http://www.w3.org/2000/svg">
<path fill-rule="evenodd" clip-rule="evenodd" d="M15.2941 0.0592426C15.2426 0.0918322 14.3728 0.947725 13.3614 1.96122L11.5223 3.80396L11.1122 3.60798C10.0139 3.08324 9.04924 2.84524 8.01474 2.8438C6.2146 2.84127 4.41148 3.60348 2.51759 5.16751C1.79283 5.76603 0.451044 7.17654 0.0950508 7.71409C-0.0316836 7.90551 -0.0316836 8.09205 0.0950508 8.28346C0.429677 8.7888 1.57157 10.0091 2.29892 10.6387C2.64383 10.9373 3.29215 11.4443 3.56483 11.6288L3.64218 11.6811L1.85702 13.4723C0.875199 14.4574 0.0563463 15.2942 0.0373846 15.3317C-0.0174389 15.4402 -0.00360023 15.6586 0.065218 15.7715C0.189672 15.9757 0.480658 16.061 0.683895 15.9529C0.81694 15.8821 15.9274 0.745594 15.9643 0.646106C16.0838 0.324178 15.8651 0 15.5284 0C15.4442 0 15.3502 0.023747 15.2941 0.0592426ZM8.37561 4.75031C8.52121 4.76812 8.74575 4.81068 8.87461 4.84489C9.11705 4.90926 9.73864 5.20144 9.87218 5.31383L9.94825 5.37782L9.62227 5.70269L9.29633 6.02752L9.04642 5.9037C8.37221 5.56955 7.63051 5.56936 6.95345 5.90313C5.7951 6.47422 5.32696 7.87782 5.90537 9.04552L6.02917 9.29549L5.70441 9.62151L5.37963 9.94756L5.31565 9.87148C5.20563 9.74065 4.91214 9.11867 4.84679 8.87782C4.6946 8.31686 4.69475 7.68591 4.84729 7.12389C4.94304 6.77112 5.21812 6.24259 5.46409 5.93885C6.16184 5.07717 7.28826 4.61733 8.37561 4.75031ZM12.0979 5.88395L11.0887 6.89376L11.1539 7.1416C11.3621 7.93357 11.2901 8.69044 10.937 9.42047C10.6089 10.0989 10.0995 10.6084 9.42129 10.9366C8.66416 11.3029 7.89138 11.3681 7.08418 11.1338L6.90256 11.081L6.13856 11.8443L5.37457 12.6076L5.46116 12.6456C5.67417 12.7392 6.34602 12.9438 6.66549 13.0124C8.88142 13.4884 11.1251 12.7732 13.4633 10.8455C14.1951 10.2422 15.5466 8.82442 15.9033 8.2858C16.0322 8.09105 16.0322 7.90651 15.9033 7.71175C15.5559 7.18722 14.2112 5.77193 13.4939 5.17601C13.2941 5.01 13.1253 4.87417 13.1188 4.87417C13.1124 4.87417 12.6529 5.32858 12.0979 5.88395ZM8.99163 8.99096C8.27437 9.70853 7.68755 10.3061 7.68755 10.3189C7.68755 10.3317 7.82588 10.3422 7.99494 10.3422C9.29777 10.3422 10.3428 9.29693 10.3428 7.99378C10.3428 7.82467 10.3322 7.68632 10.3193 7.68632C10.3063 7.68632 9.70887 8.2734 8.99163 8.99096Z" fill="black" fill-opacity="0.5"/>
</svg>
