<svg width="16" height="11" viewBox="0 0 16 11" fill="none" xmlns="http://www.w3.org/2000/svg">
<path fill-rule="evenodd" clip-rule="evenodd" d="M7.42128 0.0187266C5.58271 0.207439 3.71679 1.13796 1.8674 2.78835C1.16527 3.41498 0.226676 4.43977 0.0884248 4.73075C-0.00624398 4.93 -0.0281916 5.26528 0.0386205 5.49094C0.0988046 5.69416 0.237087 5.88194 0.719498 6.41553C1.52553 7.30713 2.45689 8.12557 3.37254 8.74695C6.54894 10.9025 9.49299 10.8928 12.6737 8.71625C13.6194 8.06914 14.5843 7.20389 15.4516 6.22531C15.7947 5.8382 15.8902 5.70007 15.9579 5.49307C16.0289 5.27597 16.0079 4.93491 15.9109 4.73075C15.7727 4.43977 14.8341 3.41498 14.1319 2.78835C12.3998 1.24257 10.6193 0.310862 8.92642 0.0644664C8.50062 0.00250029 7.78986 -0.0191034 7.42128 0.0187266ZM8.5468 1.78285C10.278 2.06505 11.5046 3.57584 11.4283 5.33215C11.3628 6.8401 10.3306 8.11534 8.85435 8.51225C8.5771 8.58678 8.4929 8.59491 7.99968 8.59491C7.50723 8.59491 7.422 8.58672 7.14687 8.51272C6.79778 8.41883 6.34629 8.21445 6.06294 8.02202C5.40732 7.57681 4.88039 6.82756 4.66588 6.0356C4.58897 5.7516 4.58122 5.67284 4.58122 5.17583C4.58122 4.67744 4.58882 4.60094 4.66635 4.31715C5.13929 2.5861 6.80415 1.49879 8.5468 1.78285ZM7.56826 2.73867C7.30257 2.78632 6.87419 2.96171 6.63486 3.12082C5.17093 4.09402 5.16877 6.25617 6.6307 7.22809C7.64811 7.90443 8.9664 7.74902 9.80323 6.85404C11.0681 5.50129 10.4557 3.33357 8.65623 2.7946C8.41918 2.7236 7.82316 2.69296 7.56826 2.73867Z" fill="black" fill-opacity="0.5"/>
</svg>
