<svg xmlns="http://www.w3.org/2000/svg" width="18" height="18" viewBox="0 0 18 18" fill="none">
      <path d="M9 7.5V11.25" stroke="currentColor" stroke-width="1.3" stroke-linecap="round"/>
      <path d="M7.91406 2.15039H14C14.1933 2.15039 14.3496 2.3067 14.3496 2.5V15.5C14.3496 15.6933 14.1933 15.8496 14 15.8496H4C3.8067 15.8496 3.65039 15.6933 3.65039 15.5V6.41406C3.65043 6.32129 3.68733 6.2326 3.75293 6.16699L7.66699 2.25293C7.73259 2.18733 7.82129 2.15043 7.91406 2.15039Z" stroke="currentColor" stroke-width="1.3"/>
      <path d="M7.3252 5.375C7.3252 5.62353 7.12353 5.8252 6.875 5.8252H4.32715L7.3252 2.82715V5.375Z" stroke="currentColor" stroke-width="1.1"/>
      <path d="M6.75 12.75L11.25 12.75" stroke="currentColor" stroke-width="1.3" stroke-linecap="round"/>
      <path d="M7.5 9.75L9 11.25L10.5 9.75" stroke="currentColor" stroke-width="1.3" stroke-linecap="round"/>
  </svg>