<svg width="211" height="211" viewBox="0 0 211 211" fill="none" xmlns="http://www.w3.org/2000/svg">
    <g opacity="0.03">
        <mask id="mask0_3945_4107" style="mask-type:luminance" maskUnits="userSpaceOnUse" x="26"
            y="8" width="159" height="195">
            <path
                d="M167.043 17.584H43.9596C41.6279 17.584 39.3917 18.5102 37.743 20.159C36.0942 21.8078 35.168 24.044 35.168 26.3757V184.626C35.168 186.957 36.0942 189.194 37.743 190.842C39.3917 192.491 41.6279 193.417 43.9596 193.417H167.043C169.375 193.417 171.611 192.491 173.26 190.842C174.908 189.194 175.835 186.957 175.835 184.626V26.3757C175.835 24.044 174.908 21.8078 173.26 20.159C171.611 18.5102 169.375 17.584 167.043 17.584Z"
                fill="white" stroke="white" stroke-width="17.5833" stroke-linecap="round"
                stroke-linejoin="round" />
            <path
                d="M123.085 70.3345C123.085 76.4007 120.624 81.8955 116.645 85.8738C113.049 89.4689 108.318 91.7058 103.257 92.2035C98.1963 92.7011 93.1197 91.4286 88.8921 88.6028C84.6645 85.777 81.5475 81.5727 80.0723 76.7063C78.597 71.84 78.8547 66.6126 80.8016 61.915C82.7484 57.2174 86.2638 53.3401 90.7489 50.9439C95.234 48.5477 100.411 47.7808 105.398 48.7738C110.385 49.7668 114.874 52.4584 118.099 56.3898C121.324 60.3213 123.086 65.2494 123.085 70.3345Z"
                fill="white" />
            <path
                d="M131.876 101.104L116.645 85.8726M116.645 85.8726C118.728 83.8412 120.387 81.4163 121.526 78.7386C122.665 76.061 123.261 73.1838 123.279 70.2741C123.297 67.3644 122.737 64.48 121.632 61.7883C120.527 59.0965 118.898 56.6511 116.841 54.5937C114.783 52.5363 112.337 50.908 109.645 49.8032C106.954 48.6983 104.069 48.139 101.159 48.1577C98.2497 48.1763 95.3726 48.7725 92.6951 49.9118C90.0176 51.051 87.5929 52.7105 85.5618 54.7941C81.4703 58.9227 79.1808 64.504 79.1944 70.3165C79.2079 76.1291 81.5234 81.6996 85.6341 85.8091C89.7448 89.9187 95.3159 92.2325 101.128 92.2444C106.941 92.2563 112.517 89.9653 116.645 85.8726ZM74.7305 131.875H136.272M74.7305 158.25H105.501"
                stroke="black" stroke-width="17.5833" stroke-linecap="round" stroke-linejoin="round" />
        </mask>
        <g mask="url(#mask0_3945_4107)">
            <path d="M0 0H211V211H0V0Z" fill="url(#paint0_linear_3945_4107)" />
        </g>
    </g>
    <defs>
        <linearGradient id="paint0_linear_3945_4107" x1="211" y1="105.5" x2="-4.13586e-06"
            y2="105.5" gradientUnits="userSpaceOnUse">
            <stop stop-color="#001C54" />
            <stop offset="1" stop-color="#001C54" />
        </linearGradient>
    </defs>
</svg>
    