<svg width="20" height="20" viewBox="0 0 20 20" fill="none" xmlns="http://www.w3.org/2000/svg">
<path d="M5.35567 1.87802V5.35567H1.87802L5.35567 1.87802Z" stroke="url(#paint0_linear_1940_2306)" stroke-width="0.552632"/>
<path d="M15.0106 11.1582C12.8864 11.1582 11.1582 12.8864 11.1582 15.0106C11.1582 17.1347 12.8864 18.895 15.0106 18.895C17.1347 18.895 18.895 17.1347 18.895 15.0106C18.895 12.8864 17.1347 11.1582 15.0106 11.1582ZM16.7957 14.8695L14.8695 16.7957C14.6814 16.9838 14.3766 16.9838 14.1885 16.7957L13.2254 15.8326C13.0374 15.6445 13.0374 15.3397 13.2254 15.1516C13.4135 14.9635 13.7183 14.9635 13.9064 15.1516L14.529 15.7743L16.1148 14.1885C16.3028 14.0004 16.6076 14.0004 16.7957 14.1885C16.9838 14.3766 16.9838 14.6814 16.7957 14.8695Z" stroke="url(#paint1_linear_1940_2306)" stroke-width="0.552632"/>
<path d="M3.75502 12.6435H9.81723C10.6046 10.817 12.393 9.53495 14.4741 9.53495V2.76521C14.4741 1.90815 13.7894 1.21094 12.9476 1.21094H6.29911V5.90831C6.29911 6.19467 6.07153 6.4264 5.79029 6.4264H1.21094V17.3063C1.21094 18.1634 1.89567 18.8951 2.73739 18.8951H11.4527C10.466 18.1471 9.74312 17.0226 9.48878 15.7521H3.75502C3.47378 15.7521 3.2462 15.5203 3.2462 15.234C3.2462 14.9476 3.47378 14.7159 3.75502 14.7159H9.38593C9.38593 14.3611 9.42171 14.0146 9.48878 13.6797H3.75502C3.47378 13.6797 3.2462 13.448 3.2462 13.1616C3.2462 12.8752 3.47378 12.6435 3.75502 12.6435ZM7.82556 4.35403H11.93C12.2113 4.35403 12.4388 4.58575 12.4388 4.87212C12.4388 5.15849 12.2113 5.39021 11.93 5.39021H7.82556C7.54432 5.39021 7.31674 5.15849 7.31674 4.87212C7.31674 4.58575 7.54432 4.35403 7.82556 4.35403ZM7.82556 6.4264H11.93C12.2113 6.4264 12.4388 6.65812 12.4388 6.94449C12.4388 7.23086 12.2113 7.46258 11.93 7.46258H7.82556C7.54432 7.46258 7.31674 7.23086 7.31674 6.94449C7.31674 6.65812 7.54432 6.4264 7.82556 6.4264ZM3.75502 8.49877H11.93C12.2113 8.49877 12.4388 8.73049 12.4388 9.01686C12.4388 9.30323 12.2113 9.53495 11.93 9.53495H3.75502C3.47378 9.53495 3.2462 9.30323 3.2462 9.01686C3.2462 8.73049 3.47378 8.49877 3.75502 8.49877ZM3.75502 10.5711H10.0856C10.3668 10.5711 10.5944 10.8029 10.5944 11.0892C10.5944 11.3756 10.3668 11.6073 10.0856 11.6073H3.75502C3.47378 11.6073 3.2462 11.3756 3.2462 11.0892C3.2462 10.8029 3.47378 10.5711 3.75502 10.5711Z" stroke="url(#paint2_linear_1940_2306)" stroke-width="0.552632"/>
<defs>
<linearGradient id="paint0_linear_1940_2306" x1="5.63199" y1="3.42146" x2="1.21094" y2="3.42146" gradientUnits="userSpaceOnUse">
<stop stop-color="#001C54"/>
<stop offset="1" stop-color="#001C54"/>
</linearGradient>
<linearGradient id="paint1_linear_1940_2306" x1="18.895" y1="15.0266" x2="11.1582" y2="15.0266" gradientUnits="userSpaceOnUse">
<stop stop-color="#001C54"/>
<stop offset="1" stop-color="#001C54"/>
</linearGradient>
<linearGradient id="paint2_linear_1940_2306" x1="14.4741" y1="10.053" x2="1.21094" y2="10.053" gradientUnits="userSpaceOnUse">
<stop stop-color="#001C54"/>
<stop offset="1" stop-color="#001C54"/>
</linearGradient>
</defs>
</svg>
