<svg xmlns="http://www.w3.org/2000/svg" width="14" height="14" viewBox="0 0 14 14" fill="none">
    <path
        d="M4.01413 13.9644H10.9136C12.2586 13.9644 12.9277 13.2822 12.9277 11.9309V6.0318C12.9277 5.19355 12.8368 4.82987 12.3171 4.29709L8.73067 0.652478C8.23725 0.145481 7.83421 0.0351562 7.10018 0.0351562H4.01413C2.67581 0.0351562 2 0.723718 2 2.07534V11.9309C2 13.2886 2.67581 13.9644 4.01413 13.9644ZM4.06596 12.9185C3.39681 12.9185 3.04587 12.5609 3.04587 11.9115V2.09474C3.04587 1.45164 3.39681 1.08103 4.07262 1.08103H6.95715V4.85592C6.95715 5.67449 7.37295 6.07726 8.17849 6.07726H11.8819V11.9115C11.8819 12.5609 11.5373 12.9185 10.8618 12.9185H4.06596ZM8.29546 5.09598C8.0421 5.09598 7.93788 4.9923 7.93788 4.73229V1.28255L11.6801 5.09625L8.29546 5.09598ZM9.85471 7.86381H4.92334C4.68966 7.86381 4.52085 8.03928 4.52085 8.2602C4.52085 8.48751 4.68994 8.66297 4.92362 8.66297H9.85471C9.90784 8.66383 9.9606 8.65401 10.0099 8.63407C10.0591 8.61413 10.1039 8.5845 10.1414 8.54692C10.179 8.50935 10.2086 8.46461 10.2286 8.41535C10.2485 8.36609 10.2583 8.31333 10.2575 8.2602C10.2575 8.03928 10.082 7.86381 9.85471 7.86381ZM9.85471 10.1313H4.92334C4.68966 10.1313 4.52085 10.3131 4.52085 10.5404C4.52085 10.7614 4.68994 10.9305 4.92362 10.9305H9.85471C10.082 10.9305 10.2575 10.7614 10.2575 10.5404C10.2575 10.3131 10.082 10.1313 9.85471 10.1313Z"
        fill="#7E8CA8" />
</svg>