<svg width="24" height="24" viewBox="0 0 24 24" fill="none" xmlns="http://www.w3.org/2000/svg">
<path fill-rule="evenodd" clip-rule="evenodd" d="M7.28033 9.96967C6.98744 9.67678 6.51256 9.67678 6.21967 9.96967C5.92678 10.2626 5.92678 10.7374 6.21967 11.0303L11.4697 16.2803C11.7626 16.5732 12.2374 16.5732 12.5303 16.2803L17.7803 11.0303C18.0732 10.7374 18.0732 10.2626 17.7803 9.96967C17.4874 9.67678 17.0126 9.67678 16.7197 9.96967L12.7515 13.9379V5.24963C12.7515 4.83542 12.4157 4.49963 12.0015 4.49963C11.5873 4.49963 11.2515 4.83542 11.2515 5.24963V13.9408L7.28033 9.96967Z" fill="white"/>
<path d="M2.25 18V20.25C2.25 21.0784 2.92157 21.75 3.75 21.75H19.5C20.3284 21.75 21 21.0784 21 20.25V18" stroke="white" stroke-width="1.5" stroke-linecap="round"/>
</svg>
