<svg width="17" height="17" viewBox="0 0 17 17" fill="none" xmlns="http://www.w3.org/2000/svg">
<path fill-rule="evenodd" clip-rule="evenodd" d="M5.35355 6.39645C5.15829 6.20118 4.84171 6.20118 4.64645 6.39645C4.45118 6.59171 4.45118 6.90829 4.64645 7.10355L8.14645 10.6036C8.34171 10.7988 8.65829 10.7988 8.85355 10.6036L12.3536 7.10355C12.5488 6.90829 12.5488 6.59171 12.3536 6.39645C12.1583 6.20118 11.8417 6.20118 11.6464 6.39645L9.00024 9.04265V3.25012C9.00024 2.97398 8.77639 2.75012 8.50024 2.75012C8.2241 2.75012 8.00024 2.97398 8.00024 3.25012V9.04314L5.35355 6.39645Z" fill="black" fill-opacity="0.5"/>
<path fill-rule="evenodd" clip-rule="evenodd" d="M1 14.25V11.25C1 10.6977 1.44772 10.25 2 10.25H2.5V9.25H2C0.895431 9.25 0 10.1454 0 11.25L0 14.25C0 15.3546 0.89543 16.25 2 16.25H15C16.1046 16.25 17 15.3546 17 14.25V11.25C17 10.1454 16.1046 9.25 15 9.25H14.5V10.25H15C15.5523 10.25 16 10.6977 16 11.25V14.25C16 14.8023 15.5523 15.25 15 15.25H2C1.44772 15.25 1 14.8023 1 14.25Z" fill="black" fill-opacity="0.5"/>
</svg>
