<svg xmlns="http://www.w3.org/2000/svg" width="16" height="16" viewBox="0 0 16 16" fill="none">
  <path d="M1.29773 8.78125V8.785C1.27525 8.86439 1.23628 8.93886 1.18305 9.00414C1.12981 9.06941 1.06336 9.12423 0.987482 9.16544C0.911609 9.20665 0.827805 9.23346 0.740861 9.24432C0.653918 9.25518 0.56554 9.24989 0.480782 9.22875C-0.0945554 9.08625 0.00689618 8.465 0.00689618 8.465L0.0309244 8.3875C0.0309244 8.3875 0.0656314 8.2825 0.0936641 8.20625C0.436225 7.30686 0.940517 6.46895 1.58474 5.72875C2.78213 4.36125 4.79648 3 7.99354 3C11.1906 3 13.205 4.36125 14.4037 5.72875C15.0479 6.46895 15.5522 7.30686 15.8948 8.20625C15.9235 8.28354 15.9502 8.36148 15.9748 8.44L15.9789 8.45625V8.46125L15.9802 8.46375C16.0225 8.62283 15.9964 8.79112 15.9075 8.93235C15.8186 9.07358 15.6739 9.17643 15.5048 9.21873C15.3356 9.26103 15.1555 9.23941 15.0032 9.15851C14.8509 9.07761 14.7387 8.94392 14.6907 8.78625L14.6893 8.78125L14.6787 8.75L14.6319 8.61375C14.341 7.85441 13.9144 7.14685 13.3705 6.52125C12.38 5.39 10.7234 4.25 7.99354 4.25C5.26369 4.25 3.60843 5.39 2.61661 6.52125C2.07264 7.14685 1.64608 7.85441 1.35513 8.61375L1.30841 8.75L1.29773 8.78125ZM4.65632 9.875C4.65632 9.0462 5.00792 8.25134 5.63377 7.66529C6.25962 7.07924 7.10846 6.75 7.99354 6.75C8.87863 6.75 9.72746 7.07924 10.3533 7.66529C10.9792 8.25134 11.3308 9.0462 11.3308 9.875C11.3308 10.7038 10.9792 11.4987 10.3533 12.0847C9.72746 12.6708 8.87863 13 7.99354 13C7.10846 13 6.25962 12.6708 5.63377 12.0847C5.00792 11.4987 4.65632 10.7038 4.65632 9.875Z" fill="currentColor"/>
</svg>