<svg xmlns="http://www.w3.org/2000/svg" width="18" height="18" viewBox="0 0 18 18" fill="none">
    <path d="M14.1037 8.70694C13.6982 7.8215 12.9985 7.05751 12.0913 6.50968C11.184 5.96184 10.1092 5.65424 9 5.625C7.89078 5.65424 6.81596 5.96184 5.90875 6.50968C5.00154 7.05751 4.30183 7.8215 3.89634 8.70694L3.75 9L3.89634 9.29362C4.30193 10.179 5.00168 10.9428 5.90888 11.4906C6.81608 12.0383 7.89086 12.3458 9 12.375C10.1091 12.3458 11.1839 12.0383 12.0911 11.4906C12.9983 10.9428 13.6981 10.179 14.1037 9.29362L14.25 9L14.1037 8.70694ZM9 11.25C8.48082 11.25 7.97331 11.118 7.54163 10.8708C7.10995 10.6236 6.7735 10.2722 6.57482 9.86104C6.37614 9.4499 6.32415 8.9975 6.42544 8.56105C6.52672 8.12459 6.77673 7.72368 7.14385 7.40901C7.51096 7.09434 7.97869 6.88005 8.48789 6.79323C8.99709 6.70642 9.52489 6.75097 10.0045 6.92127C10.4842 7.09157 10.8942 7.37996 11.1826 7.74997C11.471 8.11998 11.625 8.55499 11.625 9C11.6241 9.59651 11.3473 10.1684 10.8552 10.5902C10.3631 11.012 9.69593 11.2493 9 11.25Z" fill="currentColor" stroke="currentColor" stroke-width="0.428571"/>
    <path d="M12.75 2.25H15.75V5.25" stroke="currentColor" stroke-width="1.3" stroke-linecap="round"/>
    <path d="M5.25 2.25H2.25V5.25" stroke="currentColor" stroke-width="1.3" stroke-linecap="round"/>
    <path d="M12.75 15.75H15.75V12.75" stroke="currentColor" stroke-width="1.3" stroke-linecap="round"/>
    <path d="M5.25 15.75H2.25V12.75" stroke="currentColor" stroke-width="1.3" stroke-linecap="round"/>
    <path d="M10.125 9C10.125 9.62132 9.62132 10.125 9 10.125C8.37868 10.125 7.875 9.62132 7.875 9C7.875 8.37868 8.37868 7.875 9 7.875C9.62132 7.875 10.125 8.37868 10.125 9Z" fill="currentColor"/>
  </svg>