<svg width="14" height="14" viewBox="0 0 14 14" fill="none" xmlns="http://www.w3.org/2000/svg">
    <g clip-path="url(#clip0_3748_9705)">
        <path fill-rule="evenodd" clip-rule="evenodd"
            d="M10.1591 9.9084C10.4208 9.7564 10.6655 9.59136 10.8903 9.41876C11.3862 9.03842 11.7927 8.61609 12.0774 8.20543C12.3574 7.80176 12.5423 7.37826 12.5423 6.99967C12.5423 6.62109 12.3574 6.19759 12.0774 5.79451C11.7927 5.38326 11.3862 4.96092 10.8903 4.58117C9.90098 3.82051 8.52782 3.20801 7.00065 3.20801C6.5608 3.20801 6.13373 3.25887 5.72492 3.34943L6.72553 4.82954C6.8163 4.81803 6.90817 4.81217 7.00065 4.81217C7.58081 4.81217 8.13721 5.04264 8.54745 5.45288C8.95768 5.86311 9.18815 6.41951 9.18815 6.99967C9.18815 7.37539 9.09149 7.74114 8.91195 8.06368L10.1591 9.9084ZM3.11098 4.58059C3.3326 4.41046 3.57348 4.24767 3.83104 4.09748L5.08233 5.94838C4.90729 6.26781 4.81315 6.62889 4.81315 6.99967C4.81315 7.57984 5.04362 8.13624 5.45385 8.54647C5.86409 8.95671 6.42049 9.18717 7.00065 9.18717C7.08823 9.18717 7.17528 9.18192 7.26136 9.17159L8.26279 10.6529C7.85811 10.7416 7.43563 10.7913 7.00065 10.7913C5.47348 10.7913 4.10032 10.1788 3.11098 9.41817C2.61515 9.03842 2.20915 8.61609 1.92332 8.20484C1.6439 7.80176 1.45898 7.37826 1.45898 6.99967C1.45898 6.62109 1.64332 6.19759 1.92332 5.79392C2.20857 5.38326 2.61515 4.96092 3.11098 4.58059Z"
            fill="currentColor" />
        <path fill-rule="evenodd" clip-rule="evenodd"
            d="M8.30252 7.16196C8.30913 7.10863 8.3125 7.05467 8.3125 7.00036C8.3125 6.65227 8.17422 6.31843 7.92808 6.07229C7.76269 5.9069 7.55772 5.79021 7.33543 5.73145L8.30252 7.16196ZM5.6875 7.00036C5.6875 6.95166 5.69021 6.90324 5.69554 6.85529L6.64851 8.26493C6.43241 8.20485 6.23331 8.08983 6.07192 7.92844C5.82578 7.6823 5.6875 7.34846 5.6875 7.00036Z"
            fill="currentColor" />
        <rect x="2" y="0.649414" width="1.15949" height="15.931" rx="0.579743"
            transform="rotate(-34.0604 2 0.649414)" fill="currentColor" />
    </g>
    <defs>
        <clipPath id="clip0_3748_9705">
            <rect width="14" height="14" fill="white" />
        </clipPath>
    </defs>
</svg>
    