<svg width="14" height="14" viewBox="0 0 14 14" fill="none" xmlns="http://www.w3.org/2000/svg">
    <path
        d="M7 5.6875C6.6519 5.6875 6.31806 5.82578 6.07192 6.07192C5.82578 6.31806 5.6875 6.6519 5.6875 7C5.6875 7.3481 5.82578 7.68194 6.07192 7.92808C6.31806 8.17422 6.6519 8.3125 7 8.3125C7.3481 8.3125 7.68194 8.17422 7.92808 7.92808C8.17422 7.68194 8.3125 7.3481 8.3125 7C8.3125 6.6519 8.17422 6.31806 7.92808 6.07192C7.68194 5.82578 7.3481 5.6875 7 5.6875Z"
        fill="#7E8CA8" />
    <path fill-rule="evenodd" clip-rule="evenodd"
        d="M6.99967 3.20801C5.47251 3.20801 4.09934 3.82109 3.11001 4.58059C2.61417 4.96092 2.20759 5.38326 1.92234 5.79392C1.64234 6.19759 1.45801 6.62109 1.45801 6.99967C1.45801 7.37826 1.64292 7.80176 1.92234 8.20484C2.20817 8.61609 2.61417 9.03842 3.11001 9.41817C4.09934 10.1788 5.47251 10.7913 6.99967 10.7913C8.52684 10.7913 9.90001 10.1783 10.8893 9.41876C11.3852 9.03842 11.7918 8.61609 12.0764 8.20543C12.3564 7.80176 12.5413 7.37826 12.5413 6.99967C12.5413 6.62109 12.3564 6.19759 12.0764 5.79451C11.7918 5.38326 11.3852 4.96092 10.8893 4.58117C9.90001 3.82051 8.52684 3.20801 6.99967 3.20801ZM4.81217 6.99967C4.81217 6.41951 5.04264 5.86311 5.45288 5.45288C5.86311 5.04264 6.41951 4.81217 6.99967 4.81217C7.57984 4.81217 8.13623 5.04264 8.54647 5.45288C8.95671 5.86311 9.18717 6.41951 9.18717 6.99967C9.18717 7.57984 8.95671 8.13624 8.54647 8.54647C8.13623 8.95671 7.57984 9.18717 6.99967 9.18717C6.41951 9.18717 5.86311 8.95671 5.45288 8.54647C5.04264 8.13624 4.81217 7.57984 4.81217 6.99967Z"
        fill="#7E8CA8" />
</svg>
    