<svg width="16" height="16" viewBox="0 0 16 16" fill="none" xmlns="http://www.w3.org/2000/svg">
<path fill-rule="evenodd" clip-rule="evenodd" d="M3.1087 2.02337C3.44561 1.68646 3.90255 1.49719 4.37901 1.49719H8.57082C8.72964 1.49719 8.88196 1.56028 8.99426 1.67259L13.1861 5.8644C13.2984 5.9767 13.3615 6.12902 13.3615 6.28784V12.875C13.3615 13.3514 13.1722 13.8084 12.8353 14.1453C12.4984 14.4822 12.0414 14.6715 11.565 14.6715H4.37901C3.90255 14.6715 3.44561 14.4822 3.1087 14.1453C2.77179 13.8084 2.58252 13.3514 2.58252 12.875V3.29368C2.58252 2.81722 2.77179 2.36028 3.1087 2.02337ZM4.37901 2.69485C4.22019 2.69485 4.06788 2.75794 3.95557 2.87025C3.84327 2.98255 3.78018 3.13486 3.78018 3.29368V12.875C3.78018 13.0338 3.84327 13.1861 3.95557 13.2984C4.06788 13.4107 4.22019 13.4738 4.37901 13.4738H11.565C11.7238 13.4738 11.8761 13.4107 11.9884 13.2984C12.1007 13.1861 12.1638 13.0338 12.1638 12.875V6.53588L8.32278 2.69485H4.37901Z" fill="#B3B3B3"/>
<path fill-rule="evenodd" clip-rule="evenodd" d="M8.57082 1.49719C8.90155 1.49719 9.16965 1.7653 9.16965 2.09602V5.68901H12.7626C13.0934 5.68901 13.3615 5.95711 13.3615 6.28784C13.3615 6.61856 13.0934 6.88667 12.7626 6.88667H8.57082C8.2401 6.88667 7.97199 6.61856 7.97199 6.28784V2.09602C7.97199 1.7653 8.2401 1.49719 8.57082 1.49719Z" fill="#B3B3B3"/>
</svg>
