<svg width="16" height="16" viewBox="0 0 16 16" fill="none" xmlns="http://www.w3.org/2000/svg">
<path d="M2.54545 2.875C2.30784 2.49382 2.58191 2 3.03109 2H12.9689C13.4181 2 13.6922 2.49382 13.4545 2.875L12.9091 3.75L11.8182 5.5L9.78775 8.75716C9.68881 8.91587 9.63636 9.09914 9.63636 9.28616V12V13V13.5C9.63636 13.719 9.39658 13.8535 9.20972 13.7393L6.84219 12.2924C6.54493 12.1108 6.36364 11.7875 6.36364 11.4392V9.28616C6.36364 9.09914 6.31119 8.91587 6.21225 8.75716L4.18182 5.5L3.09091 3.75L2.54545 2.875Z" fill="#D9D9D9" fill-opacity="0.4"/>
<path d="M2.96976 2.6105C2.93976 2.56236 2.97437 2.5 3.03109 2.5H12.9689C13.0256 2.5 13.0602 2.56236 13.0302 2.6105L12.4848 3.4855L11.3939 5.2355L9.36344 8.49265C9.21503 8.73072 9.13636 9.00563 9.13636 9.28616V12V13V13.1085L7.10291 11.8658L6.84219 12.2924L7.10291 11.8658C6.95428 11.775 6.86364 11.6133 6.86364 11.4392V9.28616C6.86364 9.00563 6.78497 8.73072 6.63656 8.49265L4.60613 5.2355L3.51522 3.4855L2.96976 2.6105Z" stroke="black" stroke-opacity="0.5"/>
</svg>
