<svg xmlns="http://www.w3.org/2000/svg" width="12" height="12" viewBox="0 0 12 12" fill="none">
  <g clip-path="url(#clip0_3124_6563)">
    <path fill-rule="evenodd" clip-rule="evenodd" d="M8.53591 0.772916C8.48832 0.788449 8.4098 0.824398 8.36142 0.852817C8.23967 0.924304 8.01269 1.16481 7.94969 1.28911C7.83828 1.50885 7.83828 1.7515 7.94971 1.97417C7.98097 2.03669 8.00937 2.09402 8.01279 2.10159C8.0162 2.10916 7.56463 2.54053 7.00926 3.06019L5.99953 4.00504L5.91508 3.93629C5.70731 3.76715 5.43862 3.6538 5.15654 3.61627C4.87763 3.57918 4.35948 3.64518 3.92267 3.77349C3.55704 3.88086 3.03405 4.11373 2.91979 4.22002C2.79447 4.33661 2.74719 4.56 2.81389 4.72054C2.83546 4.77249 3.12355 5.07506 3.717 5.66906L4.58841 6.54132L3.41626 7.71068C2.7716 8.35385 2.14227 8.99549 2.01781 9.13656C1.71736 9.47703 1.42414 9.86916 1.05429 10.4251C0.782845 10.8331 0.749918 10.8919 0.75 10.9688C0.750144 11.1328 0.869042 11.25 1.03532 11.25C1.10692 11.25 1.17639 11.2109 1.57521 10.9458C2.46538 10.3541 2.81916 10.0603 3.65976 9.215C4.24268 8.6288 4.24779 8.62145 4.15073 8.50866C4.11582 8.46808 4.08469 8.45351 4.0359 8.4549C3.97672 8.45659 3.90222 8.5228 3.39099 9.0281C2.56061 9.84883 2.17961 10.163 1.40519 10.6653L1.20451 10.7954L1.3198 10.6175C1.61577 10.1606 1.91148 9.7605 2.22473 9.39305C2.32095 9.28019 2.9428 8.64308 3.60662 7.97725L4.81356 6.76663L5.02426 6.97691L5.23498 7.18721L4.81943 7.60292C4.44773 7.9748 4.40391 8.02577 4.40391 8.08608C4.40391 8.17068 4.48195 8.25425 4.56094 8.25425C4.60672 8.25425 4.69604 8.17579 5.03951 7.83388L5.46182 7.41351L6.32362 8.27547C6.88305 8.83499 7.21475 9.15168 7.26892 9.17803C7.42959 9.2562 7.64659 9.21572 7.77797 9.08307C7.89131 8.96863 8.12525 8.44159 8.23946 8.04336C8.38386 7.53984 8.43448 6.95859 8.35867 6.6743C8.30827 6.4853 8.20703 6.27441 8.09608 6.12727L8.00074 6.00087L8.84157 5.10132C9.30403 4.60657 9.73068 4.15298 9.78968 4.09336L9.89698 3.98496L10.0192 4.04768C10.3567 4.22082 10.686 4.14792 10.9922 3.83228C11.1974 3.62073 11.25 3.50151 11.25 3.24765C11.25 2.94204 11.2199 2.89259 10.7408 2.4121C10.3758 2.04588 10.341 2.01652 10.2732 2.01652C10.1785 2.01652 10.1107 2.08503 10.1107 2.18078C10.1107 2.24317 10.1482 2.2877 10.4895 2.63086C10.7271 2.86974 10.8802 3.04013 10.9001 3.08798C10.9424 3.18975 10.9395 3.32166 10.8926 3.42206C10.8463 3.52121 10.6171 3.7494 10.5315 3.78149C10.4412 3.81535 10.2681 3.80964 10.1895 3.77019C10.0984 3.72445 8.31583 1.94842 8.25004 1.8378C8.19305 1.742 8.18069 1.58228 8.22177 1.47277C8.25387 1.38727 8.48217 1.15812 8.58136 1.11185C8.68182 1.065 8.8138 1.06205 8.9156 1.1044C8.96254 1.12393 9.1228 1.26609 9.33201 1.47374C9.63073 1.7703 9.68014 1.81133 9.73836 1.81133C9.82772 1.81133 9.90541 1.73312 9.90541 1.64316C9.90541 1.58314 9.86635 1.53685 9.5504 1.2224C9.13268 0.806649 9.05896 0.761139 8.78664 0.750879C8.68624 0.747104 8.58881 0.755681 8.53591 0.772916ZM8.97024 3.04132L9.66684 3.73783L9.5658 3.84668C9.51023 3.90655 9.08191 4.36476 8.61398 4.86489L7.76319 5.77422L6.99715 5.00872L6.2311 4.24323L6.30798 4.16718C6.46556 4.01134 8.25332 2.3454 8.2633 2.34511C8.269 2.34495 8.58713 2.65825 8.97024 3.04132ZM5.18931 3.95459C5.28238 3.97119 5.41466 4.01493 5.50749 4.05985C5.66061 4.1339 5.70628 4.1766 6.76639 5.23622C7.82615 6.2955 7.86922 6.34154 7.94322 6.49439C8.05315 6.72147 8.086 6.92814 8.05816 7.21805C8.01 7.71996 7.87359 8.2041 7.66086 8.6281C7.54644 8.85615 7.52874 8.88073 7.47457 8.88689C7.41964 8.89314 7.23765 8.71678 5.26206 6.74267C3.27805 4.76016 3.10984 4.58681 3.11516 4.53008C3.12045 4.47339 3.14082 4.45853 3.37299 4.34215C3.77209 4.14209 4.28131 3.99304 4.72209 3.94728C4.96186 3.92239 5.01309 3.92319 5.18931 3.95459Z" fill="#D9D9D9" stroke="#D9D9D9" stroke-width="0.225"/>
  </g>
  <defs>
    <clipPath id="clip0_3124_6563">
      <rect width="12" height="12" fill="white"/>
    </clipPath>
  </defs>
</svg>