<svg xmlns="http://www.w3.org/2000/svg" width="16" height="16" viewBox="0 0 16 16" fill="none">
    <path d="M1 5.46788V11.0007C1 11.7962 1.3417 12.5591 1.94992 13.1215C2.55815 13.684 3.38308 14 4.24324 14H11.7568C12.6169 14 13.4418 13.684 14.0501 13.1215C14.6583 12.5591 15 11.7962 15 11.0007V6.73432C15 5.93887 14.6583 5.17599 14.0501 4.61353C13.4418 4.05106 12.6169 3.73507 11.7568 3.73507H8.5M1 5.46788V4.24944C1 3.65285 1.25627 3.0807 1.71244 2.65884C2.16861 2.23699 2.78731 2 3.43243 2H5.78378C6.05 1.99995 6.31361 2.0484 6.55957 2.14258C6.80554 2.23675 7.02903 2.37481 7.2173 2.54886L8.5 3.73507M1 5.46788H5.78703C6.05324 5.46793 6.31685 5.41948 6.56282 5.32531C6.80878 5.23113 7.03228 5.09308 7.22054 4.91902L8.5 3.73507" stroke="currentColor" stroke-width="1.2" stroke-linejoin="round"/>
  </svg>