<svg width="12" height="12" viewBox="0 0 12 12" xmlns="http://www.w3.org/2000/svg">
<g clip-path="url(#clip0_121_285)">
<path fill-rule="evenodd" clip-rule="evenodd" d="M0.166992 0.750081C0.166992 0.427915 0.428159 0.166748 0.750326 0.166748H4.83366C5.15582 0.166748 5.41699 0.427915 5.41699 0.750081V4.83341C5.41699 5.15558 5.15582 5.41675 4.83366 5.41675H0.750326C0.428159 5.41675 0.166992 5.15558 0.166992 4.83341V0.750081ZM1.33366 1.33341V4.25008H4.25033V1.33341H1.33366Z" />
<path fill-rule="evenodd" clip-rule="evenodd" d="M6.58301 0.750081C6.58301 0.427915 6.84417 0.166748 7.16634 0.166748H11.2497C11.5718 0.166748 11.833 0.427915 11.833 0.750081V4.83341C11.833 5.15558 11.5718 5.41675 11.2497 5.41675H7.16634C6.84417 5.41675 6.58301 5.15558 6.58301 4.83341V0.750081ZM7.74967 1.33341V4.25008H10.6663V1.33341H7.74967Z" />
<path fill-rule="evenodd" clip-rule="evenodd" d="M6.58301 7.16659C6.58301 6.84442 6.84417 6.58325 7.16634 6.58325H11.2497C11.5718 6.58325 11.833 6.84442 11.833 7.16659V11.2499C11.833 11.5721 11.5718 11.8333 11.2497 11.8333H7.16634C6.84417 11.8333 6.58301 11.5721 6.58301 11.2499V7.16659ZM7.74967 7.74992V10.6666H10.6663V7.74992H7.74967Z" />
<path fill-rule="evenodd" clip-rule="evenodd" d="M0.166992 7.16659C0.166992 6.84442 0.428159 6.58325 0.750326 6.58325H4.83366C5.15582 6.58325 5.41699 6.84442 5.41699 7.16659V11.2499C5.41699 11.5721 5.15582 11.8333 4.83366 11.8333H0.750326C0.428159 11.8333 0.166992 11.5721 0.166992 11.2499V7.16659ZM1.33366 7.74992V10.6666H4.25033V7.74992H1.33366Z" />
</g>
<defs>
<clipPath id="clip0_121_285">
<rect width="12" height="12" fill="white"/>
</clipPath>
</defs>
</svg>
