<svg xmlns="http://www.w3.org/2000/svg" width="14" height="14" viewBox="0 0 14 14" fill="none">
  <g clip-path="url(#clip0_3127_6645)">
    <path fill-rule="evenodd" clip-rule="evenodd" d="M6.57118 0.922446C6.14809 1.03641 6.30007 0.90947 3.07704 3.84089C1.01509 5.71631 0.0824029 6.58097 0.0469652 6.65007C-0.100833 6.93807 0.117786 7.3007 0.457113 7.33045C0.717683 7.35328 0.770497 7.33002 1.07822 7.05702L1.3609 6.80621L1.36985 9.13624C1.37978 11.7253 1.36733 11.5483 1.56778 11.9447C1.90727 12.616 2.55601 13.0289 3.38348 13.1004C3.76333 13.1333 5.417 13.1332 5.60721 13.1002C5.78676 13.0692 5.92443 12.9749 6.008 12.8257L6.06957 12.7158V10.6375V8.55907H7.02735H7.98513V10.6375V12.7158L8.0467 12.8257C8.13027 12.9749 8.26795 13.0692 8.44749 13.1002C8.63759 13.1331 10.2369 13.1333 10.6165 13.1004C11.0802 13.0603 11.4374 12.9349 11.7889 12.6888C12.2835 12.3424 12.5905 11.8088 12.6279 11.2306C12.6401 11.041 12.6345 11.0046 12.5778 10.9062C12.4864 10.7474 12.3423 10.6508 12.1746 10.6361C11.9745 10.6186 11.8661 10.6454 11.7407 10.7432C11.6108 10.8446 11.56 10.9586 11.5213 11.2355C11.4724 11.586 11.2562 11.8621 10.9132 12.0122L10.7353 12.0901L9.90752 12.0974L9.07973 12.1046V10.0252V7.94579L9.01816 7.83589C8.93458 7.68674 8.79691 7.59244 8.61737 7.5614C8.52906 7.54613 7.89343 7.53594 7.02735 7.53594C6.16127 7.53594 5.52564 7.54613 5.43733 7.5614C5.25779 7.59244 5.12012 7.68674 5.03654 7.83589L4.97497 7.94579V10.0252V12.1046L4.11981 12.0973L3.26466 12.0901L3.08678 12.0122C2.7757 11.8761 2.5475 11.6086 2.48516 11.3069C2.46746 11.2212 2.45742 10.1992 2.45744 8.48705L2.4575 5.80162L4.60305 3.86171C5.78309 2.79474 6.78134 1.91043 6.82135 1.89656C6.92922 1.85915 7.15468 1.86599 7.25448 1.90969C7.30264 1.93077 8.28685 2.8151 9.44163 3.87483L11.5412 5.80162L11.5419 7.2624L11.5426 8.72317L11.6042 8.83307C11.638 8.89351 11.713 8.9773 11.7709 9.01927C11.8679 9.08969 11.8926 9.09558 12.0899 9.09558C12.2872 9.09558 12.3118 9.08969 12.4089 9.01927C12.4667 8.9773 12.5417 8.89351 12.5756 8.83307C12.6363 8.72474 12.6372 8.70952 12.6372 7.76385V6.80454L12.9208 7.05617C13.2295 7.3301 13.2822 7.35328 13.5429 7.33045C13.8817 7.30075 14.0998 6.93986 13.954 6.65007C13.8816 6.50596 8.18779 1.27942 7.92624 1.11689C7.65579 0.948848 7.3675 0.872588 7.01225 0.875058C6.83445 0.876306 6.68146 0.892751 6.57118 0.922446Z" fill="#FCFCFC"/>
  </g>
  <defs>
    <clipPath id="clip0_3127_6645">
      <rect width="14" height="14" fill="white"/>
    </clipPath>
  </defs>
</svg>