<svg xmlns="http://www.w3.org/2000/svg" width="12" height="12" viewBox="0 0 12 12" fill="none">
    <path fill-rule="evenodd" clip-rule="evenodd"
        d="M6.84033 -0.039502C6.30633 0.0731854 5.86598 0.44764 5.72025 0.912983C5.66331 1.09478 5.653 1.41253 5.69788 1.60174C5.79896 2.02779 6.17159 2.41899 6.62286 2.57276C6.86219 2.65433 7.21211 2.67357 7.45853 2.61875C8.10146 2.47572 8.57157 1.92601 8.57157 1.31726C8.57157 0.939365 8.45136 0.655366 8.17495 0.380328C7.97076 0.177162 7.84665 0.0989517 7.59108 0.0123953C7.40055 -0.0521343 7.02363 -0.078197 6.84033 -0.039502ZM5.4591 3.90698C5.09322 3.94503 4.63777 4.07562 3.93934 4.3427L3.58252 4.47917L3.50182 4.80141C3.45745 4.97865 3.42473 5.12725 3.4291 5.13165C3.4335 5.13603 3.55109 5.10278 3.69044 5.05772C4.14839 4.90969 4.59584 4.89731 4.86789 5.02521C5.06184 5.11637 5.15129 5.32631 5.15125 5.69011C5.15118 6.0362 5.06891 6.39435 4.64819 7.87997C4.33031 9.00245 4.25741 9.30991 4.21479 9.70785C4.14682 10.3428 4.26892 10.7584 4.62762 11.1131C4.9811 11.4626 5.40503 11.6016 6.10895 11.5989C6.55886 11.5971 6.74919 11.5677 7.12592 11.4416C7.48514 11.3214 8.21492 11.0402 8.24372 11.0108C8.2678 10.9863 8.41987 10.3808 8.40555 10.3665C8.40188 10.3628 8.33016 10.3848 8.24616 10.4153C7.81637 10.5713 7.30209 10.604 7.01134 10.4938C6.85784 10.4357 6.78487 10.3683 6.71574 10.2209C6.67385 10.1316 6.66783 10.0784 6.66936 9.81046C6.67175 9.38967 6.7221 9.16017 7.12444 7.73548C7.48831 6.44703 7.52929 6.28201 7.56885 5.94552C7.66225 5.15112 7.56643 4.7631 7.18295 4.38299C7.03581 4.23713 6.94412 4.16769 6.81581 4.10485C6.43698 3.91938 5.98024 3.85278 5.4591 3.90698Z"
        fill="#001C54" />
</svg>