<svg width="58" height="53" viewBox="0 0 58 53" fill="none" xmlns="http://www.w3.org/2000/svg">
<path d="M27.3151 25.906C30.1647 27.0458 33.1588 27.6157 36.1528 27.6157C39.1469 27.6157 42.141 27.0458 44.9905 25.906C45.4169 25.7354 45.6963 25.3226 45.6963 24.8635V12.761L56.7176 9.0872C57.1761 8.93439 57.4853 8.50527 57.4853 8.02203C57.4853 7.53879 57.1761 7.10978 56.7176 6.95686L36.5078 0.22028C36.2773 0.14337 36.0283 0.14337 35.7978 0.22028L15.6104 6.94945C15.1479 7.0926 14.8203 7.52745 14.8203 8.02203V18.1269C14.8203 18.747 15.323 19.2497 15.9431 19.2497C16.5632 19.2497 17.0658 18.747 17.0658 18.1269V9.57975L26.6093 12.7609V24.8634C26.6093 25.3226 26.8889 25.7354 27.3151 25.906ZM43.4508 24.0893C38.7163 25.7963 33.5893 25.7963 28.8549 24.0893V13.5094L35.7978 15.8238C35.913 15.8622 36.0329 15.8814 36.1528 15.8814C36.2727 15.8814 36.3926 15.8622 36.5078 15.8238L43.4508 13.5094V24.0893ZM36.1528 2.46895L52.8121 8.02203C51.509 8.45643 40.0126 12.2885 36.1528 13.5751C34.4704 13.0143 21.502 8.69153 19.4936 8.02203L36.1528 2.46895Z" fill="#4171CD"/>
<path d="M46.7068 44.3999C47.3269 44.3999 47.8296 43.8972 47.8296 43.2771C47.8296 42.657 47.3269 42.1543 46.7068 42.1543C46.0867 42.1543 45.584 42.657 45.584 43.2771C45.584 43.8972 46.0867 44.3999 46.7068 44.3999Z" fill="#4171CD"/>
<path d="M1.12276 47.8802H4.76726C6.54268 47.8802 8.83727 48.6601 11.4942 49.5633C15.3266 50.8661 20.0858 52.4839 25.5458 52.4839C31.1973 52.4839 36.2777 50.7595 41.0895 47.794C41.6883 47.4249 42.2886 47.0627 42.8735 46.7173C43.4074 46.402 43.5847 45.7136 43.2693 45.1797C42.9541 44.6457 42.2658 44.4684 41.7317 44.7838C41.1347 45.1363 40.5222 45.5061 39.9112 45.8825C35.2055 48.7829 30.5583 50.2075 25.7043 50.2381C20.5505 50.2724 16.1233 48.7652 12.2169 47.4374C9.37148 46.4702 6.91409 45.6347 4.76726 45.6347H2.24553V37.7754H3.47383C8.06672 37.7754 11.2472 35.9985 13.8027 34.5708C15.5776 33.5793 17.1102 32.723 18.6379 32.723C20.2962 32.723 21.234 33.3304 22.4214 34.0995C23.8209 35.006 25.4071 36.0334 28.3088 36.1951C35.7235 36.6076 37.3285 38.0115 37.3285 38.3369C37.3285 38.6268 36.6619 38.9316 36.5643 39.0049C35.0879 39.7484 31.3484 40.5824 22.0062 40.5824C21.3861 40.5824 20.8834 41.0851 20.8834 41.7052C20.8834 42.3253 21.3861 42.8279 22.0062 42.8279C30.2603 42.8279 35.4224 42.1967 37.7813 40.8998C39.7607 40.1907 42.3349 39.3141 44.15 38.2174C47.4678 36.2105 51.6307 36.875 54.4136 38.6116C54.3541 38.6346 54.2943 38.6578 54.2347 38.6809C53.4039 39.0021 52.2661 39.442 50.8175 40.0773C50.2496 40.3263 49.9913 40.9885 50.2402 41.5564C50.4893 42.1244 51.152 42.3825 51.7194 42.1336C53.1222 41.5185 54.2332 41.0889 55.0443 40.7752C55.8002 40.4829 56.3293 40.2784 56.6995 40.0657C57.5577 39.5728 57.6644 38.7288 57.2597 38.1433C55.9453 36.2451 48.9963 32.6614 42.988 36.2957C42.0366 36.8706 40.7797 37.4017 39.5314 37.876C39.1047 35.6291 35.4627 34.344 28.4335 33.9531C26.1274 33.8245 24.9202 33.0426 23.642 32.2148C22.3234 31.3607 20.9598 30.4775 18.6378 30.4775C16.5255 30.4775 14.6708 31.5136 12.7074 32.6106C10.2581 33.979 7.48187 35.53 3.47372 35.53H1.12276C0.502661 35.53 0 36.0326 0 36.6527V46.7576C0 47.3775 0.502661 47.8802 1.12276 47.8802Z" fill="#4171CD"/>
</svg>
