<svg width="18" height="18" viewBox="0 0 18 18" fill="none" xmlns="http://www.w3.org/2000/svg">
  <path
    d="M16.2929 11.978H15.5917V4.29505C15.5917 3.83762 15.4291 3.39893 15.1398 3.07548C14.8504 2.75203 14.458 2.57031 14.0488 2.57031H3.95009C3.5409 2.57031 3.14847 2.75203 2.85913 3.07548C2.56978 3.39893 2.40723 3.83762 2.40723 4.29505V11.978H1.70594C1.59434 11.978 1.48731 12.0275 1.4084 12.1158C1.32949 12.204 1.28516 12.3236 1.28516 12.4484V13.7027C1.28516 14.1601 1.44771 14.5988 1.73705 14.9223C2.02639 15.2457 2.41882 15.4275 2.82801 15.4275H15.1709C15.5801 15.4275 15.9725 15.2457 16.2618 14.9223C16.5512 14.5988 16.7137 14.1601 16.7137 13.7027V12.4484C16.7137 12.3236 16.6694 12.204 16.5905 12.1158C16.5116 12.0275 16.4045 11.978 16.2929 11.978ZM3.24879 4.29505C3.24879 4.08713 3.32268 3.88772 3.4542 3.7407C3.58572 3.59368 3.7641 3.51108 3.95009 3.51108H14.0488C14.2348 3.51108 14.4132 3.59368 14.5447 3.7407C14.6762 3.88772 14.7501 4.08713 14.7501 4.29505V11.978H3.24879V4.29505ZM15.8722 13.7027C15.8722 13.9106 15.7983 14.11 15.6668 14.2571C15.5352 14.4041 15.3569 14.4867 15.1709 14.4867H2.82801C2.64202 14.4867 2.46364 14.4041 2.33212 14.2571C2.2006 14.11 2.12671 13.9106 2.12671 13.7027V12.9187H15.8722V13.7027ZM10.5423 5.54941C10.5423 5.67416 10.498 5.7938 10.4191 5.88202C10.3401 5.97023 10.2331 6.01979 10.1215 6.01979H7.87736C7.76577 6.01979 7.65874 5.97023 7.57983 5.88202C7.50092 5.7938 7.45658 5.67416 7.45658 5.54941C7.45658 5.42465 7.50092 5.30501 7.57983 5.2168C7.65874 5.12858 7.76577 5.07902 7.87736 5.07902H10.1215C10.2331 5.07902 10.3401 5.12858 10.4191 5.2168C10.498 5.30501 10.5423 5.42465 10.5423 5.54941Z"
    fill="currentColor" stroke="currentColor" stroke-width="0.437143" />
</svg>