<svg xmlns="http://www.w3.org/2000/svg" width="86" height="86" viewBox="0 0 86 86" fill="none">
    <path fill-rule="evenodd" clip-rule="evenodd" d="M50.106 6.20203C49.2039 6.65648 49.1543 6.82826 49.1141 9.64103C49.0732 12.5123 49.1444 12.793 50.047 13.3174C50.8998 13.8129 51.8789 13.5607 52.551 12.6721C52.7887 12.3579 52.8148 12.123 52.8506 9.95939C52.8868 7.7767 52.8696 7.54904 52.6297 7.05954C52.1656 6.11222 51.042 5.73037 50.106 6.20203ZM37.8886 11.3426C37.1192 11.806 36.817 12.9633 37.2518 13.7801C37.3614 13.9859 38.1517 14.8365 39.008 15.67C40.2231 16.8527 40.677 17.2154 41.0742 17.3204C42.0763 17.5855 43.1148 17.0093 43.3864 16.0376C43.4582 15.7805 43.4967 15.5044 43.4719 15.4236C43.4471 15.3431 43.3909 15.1159 43.347 14.9189C43.2616 14.5362 40.9495 12.0899 40.0728 11.4548C39.4598 11.0106 38.5196 10.9623 37.8886 11.3426ZM62.0275 11.3313C61.8192 11.4592 60.9572 12.2634 60.112 13.1187C58.4852 14.7646 58.2989 15.0918 58.4924 15.9627C58.6196 16.5348 59.2512 17.1846 59.8297 17.3385C60.7619 17.5865 61.104 17.3878 62.9988 15.4981C64.0555 14.4443 64.7558 13.6446 64.8104 13.4296C64.9902 12.7208 64.7937 12.0677 64.2496 11.5662C63.795 11.1472 63.6716 11.0981 63.074 11.0986C62.6431 11.0988 62.272 11.1814 62.0275 11.3313ZM46.2793 17.5926C45.9973 17.7398 45.709 18.0295 45.5629 18.3123C45.4286 18.5726 45.0092 19.989 44.6309 21.4599C44.2528 22.9306 43.7527 24.6112 43.5197 25.1944C41.5826 30.0416 38.1138 34.1284 34.7235 35.5577C34.2563 35.7546 33.7888 35.9157 33.6846 35.9154C33.5805 35.9153 33.2967 35.5726 33.054 35.154C32.3082 33.868 30.9232 32.8873 29.3921 32.5614C28.8945 32.4555 26.9209 32.4247 22.426 32.4529C16.3136 32.491 16.1452 32.4986 15.7979 32.7504C15.602 32.8925 15.3423 33.2012 15.2209 33.4365C15.0139 33.8377 15.0001 34.9394 15 51.1436C14.9998 67.7303 15.0091 68.4402 15.2338 68.8575C15.3626 69.0965 15.6892 69.4189 15.9598 69.5737L16.4516 69.8552L22.9534 69.8232C29.4233 69.7912 29.4588 69.7897 30.1798 69.502C31.2663 69.0685 32.0376 68.4913 32.7221 67.5992C33.0606 67.1581 33.3841 66.7795 33.441 66.7579C33.4978 66.7363 35.266 67.278 37.3703 67.9616C41.2887 69.2345 42.3685 69.5073 44.3527 69.7261C45.8392 69.89 62.2786 69.893 63.29 69.7296C66.3656 69.2326 68.4895 66.1543 67.8465 63.1257C67.7382 62.6157 67.6629 62.1915 67.6792 62.1828C67.6955 62.1742 68.0968 61.9823 68.5711 61.7562C70.7912 60.698 72.0908 58.2561 71.6884 55.8985C71.5547 55.1149 71.1322 54.0949 70.5964 53.2623C70.4043 52.9636 70.415 52.9223 70.8493 52.2859C72.1571 50.3695 72.0656 48.1074 70.5852 45.7655C70.3898 45.4564 70.3956 45.4222 70.7136 45.0102C71.5206 43.9648 71.9041 42.4046 71.6997 40.9987C71.3596 38.6586 69.5034 36.7395 67.1544 36.2994C66.7556 36.2247 64.1355 36.172 60.811 36.172C57.6958 36.172 55.147 36.1447 55.147 36.1113C55.147 36.0777 55.2837 35.5305 55.4507 34.895C56.2157 31.9846 56.5852 29.0828 56.5907 25.9429C56.5949 23.578 56.5732 23.3246 56.3025 22.5747C55.8439 21.3048 55.3025 20.4635 54.3358 19.5184C52.71 17.929 51.0648 17.3314 48.3409 17.3409C47.0091 17.3455 46.6749 17.3863 46.2793 17.5926ZM50.1523 21.2563C51.4653 21.6467 52.4767 22.7647 52.7557 24.134C53.1723 26.1778 52.431 32.2226 51.3981 35.2053L51.0633 36.172L48.9074 36.1723C47.1043 36.1724 46.6806 36.2081 46.3185 36.3906C45.7154 36.6943 45.3996 37.1731 45.3373 37.8781C45.2692 38.6465 45.587 39.2506 46.2595 39.6317L46.7514 39.9103L56.6448 39.9124L66.5382 39.9144L67.0288 40.1869C67.9634 40.7059 68.2785 41.9712 67.6726 42.773C67.0775 43.5606 66.9649 43.5891 64.1738 43.6568C61.8291 43.7137 61.572 43.7419 61.2473 43.9775C60.1387 44.7821 60.2247 46.4453 61.4094 47.1165C61.869 47.3767 62.0535 47.3952 64.2197 47.3972C66.3672 47.3991 66.5743 47.4193 67.0288 47.6716C67.9634 48.1907 68.2785 49.456 67.6726 50.2577C67.0775 51.0454 66.9649 51.0738 64.1738 51.1416C61.8291 51.1985 61.572 51.2267 61.2473 51.4623C60.1387 52.2669 60.2247 53.93 61.4094 54.6013C61.869 54.8615 62.0535 54.88 64.2197 54.882C66.3672 54.8838 66.5743 54.904 67.0288 55.1564C67.9634 55.6755 68.2785 56.9408 67.6726 57.7425C67.0775 58.5302 66.9649 58.5586 64.1738 58.6263C61.3061 58.6959 61.1278 58.7472 60.6706 59.6332C60.0464 60.8426 60.9655 62.3601 62.326 62.3667C62.986 62.3698 63.6912 62.8305 63.9995 63.4601C64.426 64.3306 64.1839 65.1429 63.3044 65.7915C62.9598 66.0457 62.8506 66.0487 53.7804 66.0487C45.4722 66.0487 44.4918 66.0275 43.4058 65.8242C42.7461 65.7006 40.36 64.9956 38.1033 64.2575L34.0002 62.9155L33.968 51.318L33.9359 39.7206L34.8062 39.499C38.8362 38.4732 43.2545 34.279 45.9582 28.9127C46.9558 26.9328 47.5729 25.2685 48.1579 22.9801L48.6442 21.0778H49.0981C49.3477 21.0778 49.822 21.1581 50.1523 21.2563ZM29.154 36.4445C29.4678 36.6188 29.7362 36.9039 29.8988 37.2357C30.1494 37.7472 30.1525 37.9453 30.1197 51.3C30.0868 64.7606 30.0849 64.8475 29.8262 65.1899C29.683 65.3793 29.4091 65.65 29.2174 65.7915C28.8811 66.0397 28.6934 66.05 23.8281 66.084L18.7872 66.1193V51.1457V36.172H23.7253C28.5682 36.172 28.6729 36.1773 29.154 36.4445ZM23.5937 58.8449C22.9906 59.1487 22.6748 59.6274 22.6124 60.3324C22.4415 62.2634 24.8141 63.0682 26.0104 61.4849C26.6163 60.6832 26.3012 59.4179 25.3666 58.8988C24.7742 58.5698 24.1755 58.5516 23.5937 58.8449Z" fill="currentColor"/>
  </svg>