<svg width="18" height="19" viewBox="0 0 18 19" fill="none" xmlns="http://www.w3.org/2000/svg">
<path id="image 397 (Traced)" fill-rule="evenodd" clip-rule="evenodd" d="M7.76482 0.260095C6.95797 0.433387 6.24929 1.12747 6.06098 1.92883C5.9848 2.25308 5.98455 3.32133 6.06067 3.50341C6.28499 4.04035 7.01812 4.10784 7.35879 3.62296C7.46568 3.47077 7.46589 3.46961 7.48478 2.86676C7.50511 2.21752 7.53898 2.08746 7.73549 1.90414C7.93505 1.71801 7.9391 1.71766 9.88281 1.71963L11.6865 1.72146L11.4931 1.79511C11.1005 1.94455 10.8193 2.20634 10.6362 2.59277L10.5258 2.82572L10.5166 8.63916L10.5074 14.4526L9.24461 14.4425L7.9818 14.4325L7.82936 14.3254C7.74551 14.2665 7.63732 14.1478 7.58896 14.0616C7.50251 13.9076 7.50075 13.8885 7.48344 12.9377C7.46431 11.8859 7.46055 11.8653 7.24916 11.6646C6.88594 11.3195 6.30997 11.4299 6.07333 11.8899C6.01192 12.0093 6.00625 12.1047 6.00675 13.0154C6.00731 14.1374 6.02873 14.2923 6.24398 14.7315C6.43159 15.1142 6.83631 15.5132 7.23766 15.7111C7.70974 15.9438 7.85057 15.9612 9.26843 15.9619L10.5082 15.9625V16.4661C10.5082 16.8093 10.5249 17.0258 10.5605 17.1458C10.6425 17.4217 10.8646 17.7339 11.1048 17.9108C11.3986 18.127 11.6147 18.1955 12.0031 18.1956L12.3196 18.1957L14.6761 17.4083C15.9722 16.9752 17.1099 16.5822 17.2043 16.535C17.4084 16.4328 17.6708 16.1795 17.7987 15.9613C18.0117 15.5978 17.9999 16.0355 17.9999 8.48275C17.9999 3.56567 17.9887 1.52696 17.9609 1.39418C17.8421 0.826329 17.3515 0.351049 16.7703 0.240856C16.6506 0.218134 15.0385 0.206422 12.2884 0.208181C8.7534 0.210502 7.95299 0.219682 7.76482 0.260095ZM4.19366 4.01805C4.05259 4.0795 3.86241 4.27277 3.80294 4.41507C3.76587 4.50378 3.75521 4.80042 3.75521 5.74253V6.95576L2.1259 6.96589L0.496556 6.97602L0.349994 7.07306C0.139068 7.21266 0.024442 7.40343 0.00288159 7.65072C-0.0217037 7.93273 0.112196 8.19403 0.359843 8.3472L0.531341 8.45324L2.14328 8.46369L3.75521 8.47414L3.75598 9.67712C3.75669 10.7646 3.76291 10.8937 3.82081 11.0211C3.99128 11.3964 4.47729 11.5659 4.83735 11.3757C4.89021 11.3478 5.66336 10.5917 6.55547 9.69562C8.08555 8.15864 8.17974 8.05675 8.21847 7.89682C8.26806 7.6918 8.24154 7.5157 8.13276 7.32774C8.00839 7.11287 4.96175 4.08973 4.8027 4.02336C4.64422 3.95724 4.33938 3.95456 4.19366 4.01805Z" fill="currentColor"/>
</svg>
