<svg width="17" height="17" viewBox="0 0 17 17" fill="none" xmlns="http://www.w3.org/2000/svg">
<path fill-rule="evenodd" clip-rule="evenodd" d="M11.3536 4.85355C11.5488 4.65829 11.5488 4.34171 11.3536 4.14645C11.1583 3.95118 10.8417 3.95118 10.6464 4.14645L7.14645 7.64645C6.95118 7.84171 6.95118 8.15829 7.14645 8.35355L10.6464 11.8536C10.8417 12.0488 11.1583 12.0488 11.3536 11.8536C11.5488 11.6583 11.5488 11.3417 11.3536 11.1464L8.70712 8.50002H14.5002C14.7764 8.50002 15.0002 8.27616 15.0002 8.00002C15.0002 7.72387 14.7764 7.50002 14.5002 7.50002H8.70709L11.3536 4.85355Z" fill="white"/>
<path fill-rule="evenodd" clip-rule="evenodd" d="M2 1H11C11.5523 1 12 1.44772 12 2V3H13V2C13 0.895431 12.1046 0 11 0H2C0.895431 0 0 0.89543 0 2V15C0 16.1046 0.89543 17 2 17H11C12.1046 17 13 16.1046 13 15V13H12V15C12 15.5523 11.5523 16 11 16H2C1.44772 16 1 15.5523 1 15V2C1 1.44772 1.44772 1 2 1Z" fill="white"/>
</svg>
