<svg width="60" height="57" viewBox="0 0 60 57" fill="none" xmlns="http://www.w3.org/2000/svg">
<path fill-rule="evenodd" clip-rule="evenodd" d="M2.42265 0.972677C1.60688 1.27682 0.732208 2.0968 0.326706 2.93733L0 3.61472V22.8638V42.113L0.253613 42.6455C0.6093 43.3922 1.48304 44.2558 2.25505 44.6236L2.90974 44.9354L13.2975 44.966L23.6853 44.9966L23.6833 45.474C23.6769 46.9857 22.9309 48.7687 21.9277 49.6696C20.9657 50.5335 20.5392 50.6529 18.0986 50.7419C16.1353 50.8134 16.0392 50.8281 15.4368 51.1469C14.4244 51.6826 13.8853 52.5646 13.8853 53.685C13.8853 54.0318 13.9717 54.5166 14.0772 54.7624C14.3256 55.3405 15.0069 56.0271 15.5962 56.2926C16.0416 56.4935 16.6526 56.5025 29.7376 56.5025C42.8226 56.5025 43.4335 56.4935 43.8789 56.2926C44.4682 56.0271 45.1496 55.3405 45.3979 54.7624C45.5035 54.5166 45.5899 54.0318 45.5899 53.685C45.5899 52.5646 45.0507 51.6826 44.0384 51.1469C43.436 50.8281 43.3398 50.8134 41.3766 50.7419C38.936 50.6529 38.5094 50.5335 37.5474 49.6696C36.5443 48.7687 35.7982 46.9857 35.7918 45.474L35.7898 44.9966L46.1776 44.966L56.5654 44.9354L57.2201 44.6236C57.9921 44.2558 58.8659 43.3922 59.2215 42.6455L59.4752 42.113V22.8615V3.60998L59.0926 2.85627C58.6334 1.95139 57.9048 1.28845 57.0147 0.965338C56.3852 0.736946 56.2505 0.735817 29.7041 0.741687C3.34202 0.747558 3.01903 0.750268 2.42265 0.972677ZM56.7245 2.9826C56.94 3.13174 57.2138 3.46197 57.333 3.71644C57.5409 4.16047 57.5497 4.8102 57.5522 19.7874L57.5547 35.3955H56.5654H55.5761V20.3744C55.5761 4.37441 55.592 4.84734 55.0471 4.64446C54.8008 4.55279 4.67433 4.55279 4.42805 4.64446C3.88311 4.84734 3.89906 4.37441 3.89906 20.3744V35.3955H2.90974H1.92043L1.92299 19.7874C1.92544 4.8102 1.93428 4.16047 2.14215 3.71644C2.34153 3.2907 2.76961 2.8942 3.20072 2.73614C3.29674 2.70092 15.2907 2.68105 29.854 2.69189L56.3326 2.71153L56.7245 2.9826ZM53.5975 20.8881V35.2826H29.7376H5.87768V20.8881V6.49362H29.7376H53.5975V20.8881ZM13.1468 8.69005L12.8611 8.9671V18.3939C12.8611 28.0763 12.8693 28.2596 13.3132 28.4743C13.4166 28.5243 18.7365 28.5906 25.1353 28.6216L36.7694 28.6781L37.2747 30.3151C37.8262 32.1018 38.0674 32.4602 38.7184 32.4602C39.0014 32.4602 39.2492 32.295 39.9379 31.6472L40.8023 30.8342L42.133 32.1214C43.9617 33.8901 43.7952 33.9054 45.9829 31.7695C48.1504 29.6531 48.133 29.8394 46.3289 28.0675L44.9963 26.7587L45.8052 25.9536C46.4494 25.3125 46.6141 25.0781 46.6141 24.8027C46.6141 24.1687 46.2453 23.9338 44.4027 23.3939L42.715 22.8995L42.6568 15.8719L42.5986 8.84449L42.3238 8.62863C42.0567 8.41887 41.6543 8.41288 27.7408 8.41288H13.4324L13.1468 8.69005ZM40.6782 11.7434V13.1546H27.759H14.8397V11.7434V10.3322H27.759H40.6782V11.7434ZM40.6782 18.737V22.2872L40.0672 22.1149C39.7311 22.0201 38.6886 21.718 37.7507 21.4436C36.8127 21.1691 35.8733 20.9446 35.6631 20.9446C35.1421 20.9446 34.7423 21.3232 34.7423 21.8166C34.7423 22.1092 35.7964 25.7706 36.1083 26.5612C36.1525 26.6735 33.9836 26.7024 25.5018 26.7024H14.8397V20.9446V15.1868H27.759H40.6782V18.737ZM17.3105 19.1008C16.9057 19.2589 16.8183 19.767 16.8183 21.9637V24.1231L17.1585 24.4531L17.4987 24.7831H21.7035C26.1162 24.7831 26.4499 24.7484 26.6392 24.27C26.6789 24.1695 26.7114 23.0536 26.7114 21.7903V19.4933L26.4048 19.2593C26.1066 19.0317 25.9795 19.0255 21.7783 19.0342C19.4024 19.0391 17.3919 19.0691 17.3105 19.1008ZM24.7328 21.9042V22.8638H21.7649H18.7969V21.9042V20.9446H21.7649H24.7328V21.9042ZM41.4929 24.5758C42.6132 24.8913 43.5718 25.1731 43.6231 25.2023C43.6744 25.2314 43.478 25.5025 43.1866 25.8046C42.3244 26.6986 42.3996 26.93 44.0925 28.5926L45.2699 29.749L44.5794 30.426L43.8889 31.1028L42.659 29.9272C41.0597 28.3984 40.6864 28.3063 39.6923 29.1952C39.4135 29.4443 39.1612 29.6078 39.1313 29.5582C39.1015 29.5088 38.8111 28.5793 38.4859 27.4927C38.1608 26.406 37.7429 25.0288 37.5571 24.4321L37.2195 23.3474L38.3377 23.6749C38.9529 23.8551 40.3727 24.2605 41.4929 24.5758ZM57.5547 39.407C57.5547 41.6902 57.4913 41.9927 56.8998 42.5291C56.7159 42.696 56.4179 42.8864 56.2378 42.9525C56.0098 43.036 47.9433 43.0726 29.7263 43.0726C1.21755 43.0726 3.13612 43.1173 2.48073 42.4373C1.97653 41.9143 1.92043 41.6098 1.92043 39.3961V37.3148H29.7376H57.5547V39.407ZM26.0661 39.5112C25.752 39.8157 25.6852 40.4029 25.9295 40.7116C26.254 41.1215 26.5285 41.1533 29.7376 41.1533C32.9467 41.1533 33.2211 41.1215 33.5456 40.7116C33.7899 40.4029 33.7231 39.8157 33.4091 39.5112L33.1235 39.2341H29.7376H26.3517L26.0661 39.5112ZM33.7409 45.2459C33.7686 45.3856 33.8506 45.9168 33.923 46.4266C34.1325 47.9019 34.8044 49.5897 35.5028 50.3948L35.8106 50.7497H29.7376H23.6646L23.9723 50.3948C24.6708 49.5897 25.3427 47.9019 25.5522 46.4266C25.6246 45.9168 25.7065 45.3856 25.7342 45.2459L25.7847 44.9919H29.7376H33.6904L33.7409 45.2459ZM42.9769 52.7774C43.057 52.7798 43.2271 52.8834 43.3552 53.0076C43.6758 53.3187 43.6656 53.9854 43.3349 54.3269L43.0818 54.5882H29.7539H16.426L16.1565 54.3428C15.6952 53.9222 15.807 53.0768 16.3537 52.854C16.5843 52.7599 20.179 52.7318 29.7501 52.7492C36.9449 52.7623 42.8969 52.775 42.9769 52.7774Z" fill="#4171CD"/>
</svg>
