<svg xmlns="http://www.w3.org/2000/svg" width="19" height="19" viewBox="0 0 19 19" fill="none">
  <g clip-path="url(#clip0_2081_8813)">
    <path d="M15.142 19.0001H3.85682C2.51356 19.0001 1.28518 18.3196 0.578204 17.1708C-0.128776 16.0219 -0.190637 14.6256 0.410296 13.4149L1.9303 10.3661C2.42519 9.3763 3.22054 8.75769 4.1131 8.66048C5.00567 8.56327 5.9159 9.00513 6.60521 9.86235L6.79963 10.1098C7.18847 10.587 7.63917 10.8433 8.08099 10.7991C8.52286 10.7637 8.92937 10.4456 9.22984 9.90653L10.9001 6.89306C11.5894 5.64701 12.5085 5.00189 13.5071 5.04607C14.4968 5.0991 15.3452 5.84142 15.9108 7.14934L18.6769 13.6093C19.1894 14.8024 19.0657 16.1633 18.3499 17.2503C17.6429 18.3549 16.441 19.0001 15.142 19.0001ZM4.36055 9.98607C4.3252 9.98607 4.28985 9.98607 4.2545 9.99491C3.81264 10.0391 3.40612 10.3926 3.1145 10.967L1.59449 14.0159C1.19681 14.8024 1.241 15.7303 1.70053 16.4814C2.16007 17.2326 2.9731 17.6833 3.85682 17.6833H15.1331C15.9992 17.6833 16.768 17.268 17.2452 16.5433C17.7224 15.8187 17.802 14.9526 17.4573 14.1573L14.6913 7.69725C14.3554 6.9019 13.8871 6.41585 13.4364 6.39817C13.021 6.37166 12.4819 6.81352 12.0578 7.56469L10.3875 10.5782C9.87496 11.4972 9.07077 12.0717 8.19588 12.1512C7.32103 12.2219 6.42846 11.7977 5.76567 10.967L5.57125 10.7196C5.20009 10.2335 4.7759 9.98607 4.36055 9.98607Z" fill="#B3B3B3"/>
    <path d="M5.07569 6.62794C3.25521 6.62794 1.76172 5.14328 1.76172 3.31397C1.76172 1.48466 3.24638 0 5.07569 0C6.905 0 8.38966 1.48466 8.38966 3.31397C8.38966 5.14328 6.905 6.62794 5.07569 6.62794ZM5.07569 1.32559C3.97987 1.32559 3.08731 2.21815 3.08731 3.31397C3.08731 4.40979 3.97987 5.30235 5.07569 5.30235C6.17151 5.30235 7.06407 4.40979 7.06407 3.31397C7.06407 2.21815 6.17151 1.32559 5.07569 1.32559Z" fill="#B3B3B3"/>
  </g>
  <defs>
    <clipPath id="clip0_2081_8813">
      <rect width="19" height="19" fill="white"/>
    </clipPath>
  </defs>
</svg>