<svg width="16" height="16" viewBox="0 0 16 16" fill="none" xmlns="http://www.w3.org/2000/svg">
<path d="M15 5.9C15 2.4 13.6 1 10.1 1H5.9C2.4 1 1 2.4 1 5.9V10.1C1 13.6 2.4 15 5.9 15H10.1C13.6 15 15 13.6 15 10.1V8.679M4.49958 3.09294V1.30794M11.4996 1.30794V8.29391C11.4996 9.67291 10.5126 10.2119 9.30158 9.48391L8.37758 8.93091C8.16758 8.80491 7.83158 8.80491 7.62158 8.93091L6.69758 9.48391C5.48658 10.2049 4.49958 9.67291 4.49958 8.29391V5.89994" stroke="black" stroke-opacity="0.5" stroke-width="1.0773" stroke-linecap="round" stroke-linejoin="round"/>
</svg>
