<svg width="16" height="16" viewBox="0 0 16 16" fill="none" xmlns="http://www.w3.org/2000/svg">
<path fill-rule="evenodd" clip-rule="evenodd" d="M5.87211 2.26562C5.98274 2.09967 6.16898 2 6.36842 2H9.94737C10.1468 2 10.3331 2.09967 10.4437 2.26562L11.4596 3.78947H13.5263C14.0009 3.78947 14.4561 3.97801 14.7917 4.3136C15.1273 4.64919 15.3158 5.10435 15.3158 5.57895V12.1404C15.3158 12.6149 15.1273 13.0701 14.7917 13.4057C14.4561 13.7413 14.0009 13.9298 13.5263 13.9298H2.78947C2.31488 13.9298 1.85972 13.7413 1.52412 13.4057C1.18853 13.0701 1 12.6149 1 12.1404V5.57895C1 5.10435 1.18853 4.64919 1.52412 4.3136C1.85972 3.97801 2.31488 3.78947 2.78947 3.78947H4.85621L5.87211 2.26562ZM6.68765 3.19298L5.67175 4.71684C5.56112 4.88278 5.37488 4.98246 5.17544 4.98246H2.78947C2.63127 4.98246 2.47955 5.0453 2.36769 5.15716C2.25583 5.26903 2.19298 5.42075 2.19298 5.57895V12.1404C2.19298 12.2986 2.25583 12.4503 2.36769 12.5621C2.47955 12.674 2.63127 12.7368 2.78947 12.7368H13.5263C13.6845 12.7368 13.8362 12.674 13.9481 12.5621C14.06 12.4503 14.1228 12.2985 14.1228 12.1404V5.57895C14.1228 5.42075 14.06 5.26903 13.9481 5.15716C13.8362 5.0453 13.6845 4.98246 13.5263 4.98246H11.1404C10.9409 4.98246 10.7547 4.88278 10.644 4.71684L9.62814 3.19298H6.68765Z" fill="#B3B3B3"/>
<path fill-rule="evenodd" clip-rule="evenodd" d="M8.15789 6.77193C7.1696 6.77193 6.36842 7.5731 6.36842 8.5614C6.36842 9.5497 7.1696 10.3509 8.15789 10.3509C9.14619 10.3509 9.94737 9.5497 9.94737 8.5614C9.94737 7.5731 9.14619 6.77193 8.15789 6.77193ZM5.17544 8.5614C5.17544 6.91424 6.51073 5.57895 8.15789 5.57895C9.80506 5.57895 11.1404 6.91424 11.1404 8.5614C11.1404 10.2086 9.80506 11.5439 8.15789 11.5439C6.51073 11.5439 5.17544 10.2086 5.17544 8.5614Z" fill="#B3B3B3"/>
</svg>
