<svg width="14" height="14" viewBox="0 0 14 14" fill="none" xmlns="http://www.w3.org/2000/svg">
<path fill-rule="evenodd" clip-rule="evenodd" d="M2 2.85H12C12.0828 2.85 12.15 2.91716 12.15 3V8.53967L10.3567 6.74643C10.2705 6.6603 10.1421 6.61179 10.0058 6.61394C9.86961 6.61609 9.73957 6.66868 9.65068 6.75757L7.56949 8.83888L4.89641 5.12617C4.81421 5.012 4.66532 4.94416 4.50393 4.94733C4.34255 4.9505 4.19221 5.02423 4.10766 5.14167L1.85 8.27738V3C1.85 2.91716 1.91716 2.85 2 2.85ZM1.85 9.74166V11C1.85 11.0828 1.91716 11.15 2 11.15H12C12.0828 11.15 12.15 11.0828 12.15 11V9.76033C12.1477 9.75811 12.1453 9.75585 12.1431 9.75356L9.99033 7.60095L7.84899 9.74239C7.75219 9.83921 7.60714 9.89247 7.45933 9.88548C7.31152 9.87849 7.17906 9.81211 7.1035 9.70715L4.49239 6.08051L1.89239 9.6917C1.87959 9.70948 1.86539 9.72615 1.85 9.74166ZM1 3C1 2.44772 1.44772 2 2 2H12C12.5523 2 13 2.44772 13 3V11C13 11.5523 12.5523 12 12 12H2C1.44772 12 1 11.5523 1 11V3Z" />
<circle cx="8.7" cy="4.7" r="0.7" fill="black" fill-opacity="0.5"/>
</svg>
