<svg width="16" height="16" viewBox="0 0 16 16" fill="none" xmlns="http://www.w3.org/2000/svg">
<path fill-rule="evenodd" clip-rule="evenodd" d="M11.3812 1.03056C11.3178 1.05127 11.2131 1.0992 11.1486 1.13709C10.9862 1.23241 10.6836 1.55307 10.5996 1.71881C10.451 2.01179 10.451 2.33533 10.5996 2.63223C10.6413 2.71559 10.6792 2.79203 10.6837 2.80212C10.6883 2.81222 10.0862 3.38738 9.34568 4.08026L7.99937 5.34006L7.88677 5.24838C7.60975 5.02286 7.25149 4.87174 6.87539 4.8217C6.50351 4.77223 5.81264 4.86025 5.23022 5.03132C4.74272 5.17449 4.0454 5.48498 3.89305 5.62669C3.72596 5.78214 3.66292 6.07999 3.75185 6.29405C3.78062 6.36332 4.16474 6.76675 4.956 7.55875L6.11788 8.72176L4.55501 10.2809C3.69547 11.1385 2.85636 11.994 2.69041 12.1821C2.28982 12.636 1.89885 13.1589 1.40572 13.9001C1.04379 14.4442 0.999891 14.5226 1 14.6251C1.00019 14.8438 1.15872 15 1.38043 15C1.47589 15 1.56852 14.9478 2.10027 14.5944C3.28718 13.8054 3.75888 13.4138 4.87969 12.2867C5.6569 11.5051 5.66372 11.4953 5.53431 11.3449C5.48775 11.2908 5.44626 11.2713 5.3812 11.2732C5.30229 11.2754 5.20296 11.3637 4.52132 12.0375C3.41415 13.1318 2.90615 13.5506 1.87359 14.2204L1.60601 14.3939L1.75973 14.1566C2.15436 13.5474 2.54863 13.014 2.96631 12.5241C3.0946 12.3736 3.92374 11.5241 4.80882 10.6363L6.41808 9.02218L6.69902 9.30255L6.97998 9.58294L6.42591 10.1372C5.93031 10.6331 5.87187 10.701 5.87187 10.7814C5.87187 10.8942 5.97594 11.0057 6.08126 11.0057C6.1423 11.0057 6.26139 10.901 6.71935 10.4452L7.28242 9.88468L8.4315 11.034C9.17741 11.78 9.61966 12.2022 9.69189 12.2374C9.90612 12.3416 10.1955 12.2876 10.3706 12.1108C10.5217 11.9582 10.8337 11.2554 10.986 10.7245C11.1785 10.0531 11.246 9.27812 11.1449 8.89907C11.0777 8.64707 10.9427 8.36588 10.7948 8.16969L10.6677 8.00116L11.7888 6.80177C12.4054 6.1421 12.9742 5.53731 13.0529 5.45781L13.196 5.31327L13.359 5.39691C13.8089 5.62776 14.248 5.53056 14.6563 5.1097C14.9299 4.82763 15 4.66868 15 4.3302C15 3.92273 14.9598 3.85679 14.3211 3.21614C13.8343 2.72785 13.788 2.6887 13.6976 2.6887C13.5713 2.6887 13.4809 2.78005 13.4809 2.9077C13.4809 2.9909 13.5309 3.05027 13.986 3.50781C14.3028 3.82632 14.5069 4.0535 14.5334 4.1173C14.5899 4.253 14.586 4.42888 14.5235 4.56275C14.4618 4.69495 14.1561 4.9992 14.042 5.04199C13.9215 5.08713 13.6908 5.07952 13.586 5.02691C13.4645 4.96593 11.0878 2.59789 11 2.4504C10.9241 2.32267 10.9076 2.10971 10.9624 1.9637C11.0052 1.84969 11.3096 1.54416 11.4418 1.48246C11.5758 1.42 11.7517 1.41606 11.8875 1.47253C11.9501 1.49858 12.1637 1.68812 12.4427 1.96498C12.841 2.36039 12.9069 2.41511 12.9845 2.41511C13.1036 2.41511 13.2072 2.31082 13.2072 2.19088C13.2072 2.11086 13.1551 2.04914 12.7339 1.62987C12.1769 1.07553 12.0786 1.01485 11.7155 1.00117C11.5816 0.996138 11.4517 1.00757 11.3812 1.03056ZM11.9603 4.05509L12.8891 4.98377L12.7544 5.12891C12.6803 5.20874 12.1092 5.81968 11.4853 6.48651L10.3509 7.69896L9.32953 6.6783L8.30814 5.65764L8.41064 5.55624C8.62074 5.34846 11.0044 3.1272 11.0177 3.12681C11.0253 3.1266 11.4495 3.54433 11.9603 4.05509ZM6.91908 5.27278C7.04318 5.29492 7.21955 5.35324 7.34332 5.41313C7.54748 5.51187 7.60838 5.5688 9.02186 6.98162C10.4349 8.394 10.4923 8.45539 10.591 8.65919C10.7375 8.96196 10.7813 9.23752 10.7442 9.62406C10.68 10.2933 10.4981 10.9388 10.2145 11.5041C10.0619 11.8082 10.0383 11.841 9.96609 11.8492C9.89285 11.8575 9.65021 11.6224 7.01608 8.99022C4.37073 6.34688 4.14645 6.11575 4.15354 6.04011C4.1606 5.96451 4.18776 5.94471 4.49732 5.78953C5.02946 5.52279 5.70842 5.32405 6.29612 5.26304C6.61581 5.22986 6.68413 5.23093 6.91908 5.27278Z" fill="#B3B3B3" stroke="#B3B3B3" stroke-width="0.3"/>
</svg>
