<svg width="14" height="14" viewBox="0 0 14 14" fill="none" xmlns="http://www.w3.org/2000/svg">
<path d="M5.72656 8.94742V8.77839C5.72988 8.19837 5.78125 7.73601 5.88068 7.39131C5.98343 7.04662 6.13258 6.76821 6.32813 6.55609C6.52367 6.34396 6.759 6.15173 7.03409 5.97938C7.23958 5.84681 7.42353 5.70926 7.58594 5.56674C7.74834 5.42422 7.8776 5.26679 7.97372 5.09444C8.06984 4.91878 8.1179 4.72323 8.1179 4.50779C8.1179 4.2791 8.06321 4.07858 7.95384 3.90623C7.84446 3.73388 7.69697 3.6013 7.51136 3.5085C7.32907 3.4157 7.12689 3.3693 6.90483 3.3693C6.68939 3.3693 6.48556 3.41735 6.29332 3.51347C6.10109 3.60628 5.94366 3.74548 5.82102 3.93109C5.69839 4.11338 5.6321 4.34041 5.62216 4.61219H3.59375C3.61032 3.94932 3.76941 3.40244 4.07102 2.97157C4.37263 2.53738 4.77202 2.21423 5.26918 2.00211C5.76634 1.78667 6.31487 1.67896 6.91477 1.67896C7.57434 1.67896 8.15767 1.78833 8.66477 2.00708C9.17188 2.22252 9.5696 2.53573 9.85795 2.94671C10.1463 3.3577 10.2905 3.8532 10.2905 4.43322C10.2905 4.821 10.2259 5.1657 10.0966 5.46731C9.97064 5.7656 9.79332 6.03075 9.56463 6.26276C9.33594 6.49146 9.06581 6.69861 8.75426 6.88421C8.49242 7.03999 8.27699 7.20239 8.10795 7.37143C7.94223 7.54046 7.81795 7.73601 7.73509 7.95807C7.65554 8.18014 7.61411 8.45358 7.6108 8.77839V8.94742H5.72656ZM6.71094 12.1292C6.3795 12.1292 6.09612 12.0132 5.8608 11.7812C5.62879 11.5459 5.51444 11.2642 5.51776 10.9361C5.51444 10.6112 5.62879 10.3328 5.8608 10.1008C6.09612 9.86882 6.3795 9.75282 6.71094 9.75282C7.0258 9.75282 7.30256 9.86882 7.54119 10.1008C7.77983 10.3328 7.90081 10.6112 7.90412 10.9361C7.90081 11.1548 7.8428 11.3553 7.73011 11.5376C7.62074 11.7166 7.47656 11.8608 7.29759 11.9701C7.11861 12.0762 6.92306 12.1292 6.71094 12.1292Z" fill="black" fill-opacity="0.5"/>
</svg>
