<svg width="16" height="16" viewBox="0 0 16 16" fill="none" xmlns="http://www.w3.org/2000/svg">
<path fill-rule="evenodd" clip-rule="evenodd" d="M13.4509 12.8249C13.8007 13.011 14.1431 13.1078 14.4706 13.1078C14.746 13.1078 14.9991 13.0407 15.2224 12.9142C15.7211 12.6239 16.004 12.0434 16.004 11.3288V2.87313C16.004 1.28769 14.7162 0 13.1308 0H7.33986C5.75442 0 4.46672 1.28769 4.46672 2.87313V2.88829H2.87314C1.2877 2.88829 0 4.17598 0 5.76142V14.2171C0 14.9316 0.282841 15.5122 0.781547 15.8025C1.27281 16.0928 1.92038 16.063 2.55307 15.7132L5.47087 14.0831C5.61229 14.0087 5.91749 14.0087 6.05892 14.0831L8.98415 15.7132C9.33399 15.8993 9.67639 15.996 10.0039 15.996C10.2793 15.996 10.5324 15.9291 10.7557 15.8025C11.2544 15.5122 11.5372 14.9316 11.5372 14.2171V11.7566L13.4509 12.8249ZM4.93638 3.99734C4.96528 4.00207 4.99487 4.00454 5.02497 4.00454H8.66479C9.57405 4.00454 10.3256 4.70121 10.4129 5.58813C10.4181 5.64273 10.4207 5.69805 10.4207 5.75397V14.2096C10.4207 14.5148 10.3314 14.753 10.19 14.8349C10.0411 14.9242 9.79548 14.887 9.52752 14.7381L6.60227 13.108C6.35664 12.974 6.06635 12.907 5.76862 12.907C5.47088 12.907 5.17315 12.974 4.93496 13.1006L2.00972 14.7307C1.74176 14.8795 1.48868 14.9168 1.34725 14.8349C1.20583 14.753 1.11651 14.5148 1.11651 14.2096V5.75397C1.11651 4.78633 1.9055 3.99734 2.87314 3.99734H4.93638ZM13.9942 11.8498L11.5379 10.4728V5.75372C11.5379 4.16828 10.2502 2.88058 8.66479 2.88058H5.58323V2.86568C5.58323 1.89804 6.37222 1.10906 7.33986 1.10906H13.1308C14.0984 1.10906 14.8874 1.89804 14.8874 2.86568V11.3214C14.8874 11.6266 14.7981 11.8648 14.6567 11.9466C14.5078 12.036 14.2622 11.9987 13.9942 11.8498ZM5.21033 8.55261H4.27883C3.97366 8.55261 3.72058 8.29954 3.72058 7.99436C3.72058 7.68918 3.97366 7.4361 4.27883 7.4361H5.21033V6.50571C5.21033 6.20053 5.46341 5.94746 5.76858 5.94746C6.07376 5.94746 6.32684 6.20053 6.32684 6.50571V7.4361H7.25618C7.56136 7.4361 7.81444 7.68918 7.81444 7.99436C7.81444 8.29954 7.56136 8.55261 7.25618 8.55261H6.32684V9.48306C6.32684 9.78824 6.07376 10.0413 5.76858 10.0413C5.46341 10.0413 5.21033 9.78824 5.21033 9.48306V8.55261Z" fill="black" fill-opacity="0.5"/>
</svg>
