<svg width="16" height="16" viewBox="0 0 16 16" fill="none" xmlns="http://www.w3.org/2000/svg">
<path fill-rule="evenodd" clip-rule="evenodd" d="M3.74125 0.0345998C3.64126 0.0658413 3.50568 0.147752 3.4318 0.221636C3.16859 0.484882 3.18791 -0.0478733 3.18791 6.94504V13.2678L2.18465 12.2716C1.26376 11.3571 1.16681 11.2718 1.00348 11.2319C0.48925 11.1063 0 11.4835 0 12.0054C0 12.1176 0.0280535 12.2711 0.0623329 12.3464C0.15422 12.5482 3.42017 15.8184 3.63275 15.9215C3.84769 16.0257 4.13351 16.0262 4.33218 15.9229C4.54959 15.8098 7.85654 12.4866 7.93095 12.3064C8.20758 11.6365 7.46622 10.9676 6.80712 11.2924C6.74523 11.3229 6.26843 11.7717 5.74761 12.2897L4.80061 13.2315L4.80038 6.96916C4.80027 2.67002 4.78771 0.661905 4.7604 0.56353C4.64752 0.157053 4.1598 -0.0960668 3.74125 0.0345998ZM6.82137 1.69299C6.23235 2.00067 6.24188 2.83411 6.83768 3.12252C6.99895 3.2006 7.01575 3.2009 11.1976 3.20056L15.3957 3.20019L15.5886 3.08955C15.905 2.9081 16.05 2.58241 15.9734 2.22529C15.9203 1.97742 15.6615 1.69209 15.4332 1.62964C15.3288 1.6011 14.0266 1.58853 11.1526 1.58842L7.02194 1.5882L6.82137 1.69299ZM6.98222 4.82002C6.66955 4.89068 6.37622 5.2688 6.37622 5.60121C6.37622 5.95611 6.6691 6.31342 7.01958 6.38618C7.16187 6.41574 8.41532 6.42496 11.3082 6.41776C15.2159 6.40801 15.4015 6.40448 15.527 6.33754C15.8333 6.17413 15.9889 5.92607 15.9889 5.60121C15.9889 5.27634 15.8333 5.02828 15.527 4.86488C15.4013 4.79786 15.2197 4.79459 11.2702 4.78908C8.69383 4.78548 7.08368 4.79711 6.98222 4.82002ZM6.83438 8.08087C6.24117 8.37453 6.23359 9.20238 6.82137 9.50943L7.02194 9.61422L9.95242 9.61399C11.9573 9.61388 12.9303 9.60083 13.0329 9.57277C13.2612 9.51033 13.52 9.22499 13.5731 8.97712C13.6497 8.62 13.5047 8.29431 13.1883 8.11286L12.9954 8.00222L9.99502 8.00189C7.01553 8.00159 6.99351 8.00211 6.83438 8.08087Z" fill="#B3B3B3"/>
</svg>
