<svg xmlns="http://www.w3.org/2000/svg" width="13" height="15" viewBox="0 0 13 15" fill="none">
    <g clip-path="url(#clip0_3586_17547)">
        <path
            d="M7.972 11.8285C8.41336 11.8285 8.77115 11.4054 8.77115 10.8835C8.77115 10.3616 8.41336 9.93848 7.972 9.93848C7.53064 9.93848 7.17285 10.3616 7.17285 10.8835C7.17285 11.4054 7.53064 11.8285 7.972 11.8285Z"
            fill="#7E8CA8" />
        <path
            d="M11.0795 10.6377C10.8326 9.89389 10.4066 9.25214 9.85418 8.79196C9.3018 8.33178 8.64737 8.07339 7.97199 8.04883C7.29661 8.07339 6.64218 8.33178 6.0898 8.79196C5.53742 9.25214 5.11138 9.89389 4.8645 10.6377L4.77539 10.8838L4.8645 11.1305C5.11145 11.8742 5.53751 12.5158 6.08988 12.9759C6.64226 13.436 7.29666 13.6943 7.97199 13.7188C8.64732 13.6943 9.30172 13.436 9.85409 12.9759C10.4065 12.5158 10.8325 11.8742 11.0795 11.1305L11.1686 10.8838L11.0795 10.6377ZM7.97199 12.7738C7.65587 12.7738 7.34686 12.663 7.08402 12.4553C6.82118 12.2476 6.61632 11.9525 6.49535 11.6071C6.37438 11.2617 6.34273 10.8817 6.4044 10.5151C6.46607 10.1485 6.61829 9.81172 6.84182 9.5474C7.06535 9.28308 7.35014 9.10307 7.66018 9.03014C7.97022 8.95722 8.29158 8.99465 8.58363 9.1377C8.87568 9.28075 9.1253 9.52299 9.30092 9.8338C9.47655 10.1446 9.57029 10.51 9.57029 10.8838C9.56976 11.3849 9.4012 11.8653 9.10157 12.2196C8.80195 12.5739 8.39572 12.7732 7.97199 12.7738Z"
            fill="#7E8CA8" />
        <path
            d="M3.97573 12.7733H1.97786V2.85078H3.17658V4.26828H7.97148V2.85078H9.17021V7.10328H9.96935V2.85078C9.96935 2.60015 9.88516 2.35979 9.73529 2.18257C9.58542 2.00534 9.38215 1.90578 9.17021 1.90578H7.97148V1.43328C7.97148 1.18265 7.88729 0.942287 7.73742 0.765065C7.58755 0.587843 7.38428 0.488281 7.17233 0.488281H3.97573C3.76379 0.488281 3.56052 0.587843 3.41065 0.765065C3.26078 0.942287 3.17658 1.18265 3.17658 1.43328V1.90578H1.97786C1.76591 1.90578 1.56265 2.00534 1.41278 2.18257C1.26291 2.35979 1.17871 2.60015 1.17871 2.85078V12.7733C1.17871 13.0239 1.26291 13.2643 1.41278 13.4415C1.56265 13.6187 1.76591 13.7183 1.97786 13.7183H3.97573V12.7733ZM3.97573 1.43328H7.17233V3.32328H3.97573V1.43328Z"
            fill="#7E8CA8" />
    </g>
    <defs>
        <clipPath id="clip0_3586_17547">
            <rect width="11.8393" height="14" fill="white" transform="translate(0.333008 0.103516)" />
        </clipPath>
    </defs>
</svg>