<svg width="16" height="16" viewBox="0 0 16 16" fill="none" xmlns="http://www.w3.org/2000/svg">
<path fill-rule="evenodd" clip-rule="evenodd" d="M6.71835 1.47231C6.35896 1.55897 5.973 1.85577 5.81591 2.16623C5.68629 2.42243 5.65171 2.5741 5.6363 2.95415L5.62205 3.3062L3.90392 3.31313L2.18579 3.32008L2.0952 3.38187C1.94133 3.48682 1.88035 3.60074 1.88086 3.78238C1.88122 3.91482 1.89277 3.95554 1.95166 4.03238C2.09546 4.22 2.15242 4.24213 2.51741 4.25213L2.84524 4.26108L2.85831 4.34187C2.86547 4.38628 3.06334 6.54572 3.29801 9.14059C3.53268 11.7355 3.73575 13.9502 3.74931 14.0623C3.7793 14.3102 3.85061 14.4313 4.01247 14.5093L4.12535 14.5637H7.99959H11.8738L11.9867 14.5093C12.1486 14.4313 12.2199 14.3102 12.2499 14.0623C12.2634 13.9502 12.4665 11.7355 12.7012 9.14059C12.9358 6.54572 13.1337 4.38628 13.1409 4.34187L13.1539 4.26108L13.4818 4.25213C13.8468 4.24213 13.9037 4.22 14.0475 4.03238C14.1064 3.95554 14.118 3.91482 14.1183 3.78238C14.1188 3.60074 14.0578 3.48682 13.904 3.38187L13.8134 3.32008L12.0953 3.31313L10.3771 3.3062L10.3629 2.95415C10.3475 2.5741 10.3129 2.42243 10.1833 2.16623C10.0204 1.84431 9.61255 1.54002 9.24148 1.46359C9.03997 1.42208 6.89592 1.42949 6.71835 1.47231ZM9.1614 2.44367C9.34361 2.53915 9.39842 2.66472 9.41202 3.01792L9.42315 3.30726H7.99959H6.57603L6.58716 3.01792C6.60076 2.66472 6.65556 2.53915 6.83777 2.44367C6.95116 2.38426 6.95291 2.38418 7.99959 2.38418C9.04626 2.38418 9.04801 2.38426 9.1614 2.44367ZM11.7619 8.92905L11.3352 13.6021H8.00057H4.66594L4.24703 9.0252C4.01664 6.5079 3.82758 4.40502 3.82689 4.35213L3.82567 4.25597H8.00711H12.1886L11.7619 8.92905ZM5.46175 5.2132C5.34173 5.26754 5.19925 5.44051 5.1797 5.55556C5.16024 5.67028 5.62012 12.1918 5.65813 12.3396C5.68868 12.4586 5.81944 12.6109 5.93072 12.6572C6.12558 12.7383 6.3629 12.6707 6.49664 12.4962C6.55482 12.4203 6.57007 12.3707 6.57747 12.2332C6.58249 12.1399 6.4807 10.5983 6.3513 8.80726C6.08909 5.17861 6.11682 5.40023 5.90797 5.26267C5.78721 5.18315 5.5791 5.16008 5.46175 5.2132ZM7.80336 5.2281C7.67224 5.28736 7.57287 5.41315 7.53791 5.56418C7.49988 5.72849 7.50006 12.1302 7.53811 12.3067C7.64746 12.8142 8.35172 12.8142 8.46106 12.3067C8.49912 12.1302 8.4993 5.72849 8.46127 5.56418C8.41028 5.344 8.21331 5.18018 7.99959 5.18018C7.94999 5.18018 7.86169 5.20174 7.80336 5.2281ZM10.1443 5.23315C10.0295 5.28969 9.94698 5.38364 9.9056 5.50485C9.87192 5.60351 9.41153 11.9941 9.42184 12.2199C9.42879 12.3722 9.44185 12.417 9.50217 12.4958C9.63628 12.6707 9.87339 12.7383 10.0685 12.6572C10.1797 12.6109 10.3105 12.4586 10.3411 12.3396C10.3791 12.1918 10.8389 5.67028 10.8195 5.55556C10.7993 5.43687 10.6545 5.26472 10.5318 5.21359C10.4125 5.16387 10.2704 5.17105 10.1443 5.23315Z" fill="#4171CD"/>
</svg>
