<svg width="36" height="36" viewBox="0 0 36 36" fill="none" xmlns="http://www.w3.org/2000/svg">
<g id="question 2" clip-path="url(#clip0_1044_6642)">
<path id="Vector" d="M15.1266 14.6639C15.1266 9.56634 18.4375 5.22834 23.0195 3.69166C21.0917 2.49909 18.8541 1.8468 16.5583 1.82852C13.2147 1.80229 9.00877 3.08451 6.63432 5.44005C4.25684 7.79875 2.94741 10.9433 2.94741 14.2945C2.94741 15.1231 2.74238 15.9482 2.3544 16.6806L0.245303 20.6623C-0.0971188 21.3063 -0.0801736 22.0666 0.290655 22.6961C0.661623 23.326 1.31869 23.7097 2.0484 23.7225L2.94411 23.7226V26.9102C2.94411 28.8162 4.49337 30.3669 6.39765 30.3669H8.6423V31.299C8.6423 32.8831 9.92994 34.1718 11.5127 34.1718H22.4316C24.0143 34.1718 25.3019 32.8831 25.3019 31.299V29.2348C25.3019 28.2113 25.3802 27.1878 25.5354 26.175C19.6999 25.597 15.1266 20.655 15.1266 14.6639Z" fill="#4171CD"/>
<path id="Vector_2" d="M26.5554 5.20801C21.3385 5.20801 17.1094 9.44265 17.1094 14.6664C17.1094 19.8901 21.3385 24.1247 26.5554 24.1247C31.7723 24.1247 36.0014 19.8901 36.0014 14.6664C36.0014 9.44265 31.7722 5.20801 26.5554 5.20801ZM27.61 20.2178C27.61 20.8002 27.1378 21.2724 26.5553 21.2724C25.9728 21.2724 25.5006 20.8002 25.5006 20.2178V19.121C25.5006 18.5385 25.9728 18.0663 26.5553 18.0663C27.1378 18.0663 27.61 18.5385 27.61 19.121V20.2178ZM27.9452 15.5539C27.7446 15.6309 27.61 15.8398 27.61 16.0737C27.61 16.6561 27.1378 17.1284 26.5553 17.1284C25.9728 17.1284 25.5006 16.6561 25.5006 16.0737C25.5006 14.973 26.1788 13.9728 27.1885 13.5849C27.9182 13.3045 28.3716 12.5896 28.3167 11.8061C28.2556 10.934 27.5229 10.2164 26.6487 10.1721C26.1413 10.1459 25.6644 10.3291 25.3066 10.6869C24.8948 11.0988 24.227 11.0988 23.8151 10.6869C23.4032 10.275 23.4032 9.60725 23.8151 9.19536C24.5887 8.42178 25.6604 8.01045 26.7554 8.06537C28.7084 8.1643 30.2842 9.70899 30.4208 11.6585C30.5411 13.3732 29.5462 14.9386 27.9452 15.5539Z" fill="#4171CD"/>
</g>
<defs>
<clipPath id="clip0_1044_6642">
<rect width="36" height="36" fill="white"/>
</clipPath>
</defs>
</svg>
