<svg width="16" height="16" viewBox="0 0 16 16" fill="none" xmlns="http://www.w3.org/2000/svg">
<path fill-rule="evenodd" clip-rule="evenodd" d="M15.6384 4.07389C15.8604 4.18816 16 4.41694 16 4.66667V11.3333C16 11.5831 15.8604 11.8118 15.6384 11.9261C15.4163 12.0404 15.1491 12.021 14.9458 11.8758L10.2792 8.54249C10.104 8.41735 10 8.2153 10 8C10 7.7847 10.104 7.58265 10.2792 7.45751L14.9458 4.12418C15.1491 3.97903 15.4163 3.95962 15.6384 4.07389ZM11.8136 8L14.6667 10.0379V5.96213L11.8136 8Z" fill="#B3B3B3"/>
<path fill-rule="evenodd" clip-rule="evenodd" d="M2 4.00002C1.63181 4.00002 1.33333 4.2985 1.33333 4.66669V11.3334C1.33333 11.7015 1.63181 12 2 12H9.33333C9.70152 12 10 11.7015 10 11.3334V4.66669C10 4.2985 9.70152 4.00002 9.33333 4.00002H2ZM0 4.66669C0 3.56212 0.895431 2.66669 2 2.66669H9.33333C10.4379 2.66669 11.3333 3.56212 11.3333 4.66669V11.3334C11.3333 12.4379 10.4379 13.3334 9.33333 13.3334H2C0.895431 13.3334 0 12.4379 0 11.3334V4.66669Z" fill="#B3B3B3"/>
</svg>
