<svg width="16" height="16" viewBox="0 0 16 16" fill="none" xmlns="http://www.w3.org/2000/svg">
<g clip-path="url(#clip0_53_3957)">
<path fill-rule="evenodd" clip-rule="evenodd" d="M3.66667 5.33333C2.378 5.33333 1.33333 6.378 1.33333 7.66667C1.33333 8.95533 2.378 10 3.66667 10C4.95533 10 6 8.95533 6 7.66667C6 6.378 4.95533 5.33333 3.66667 5.33333ZM0 7.66667C0 5.64162 1.64162 4 3.66667 4C5.69171 4 7.33333 5.64162 7.33333 7.66667C7.33333 9.69171 5.69171 11.3333 3.66667 11.3333C1.64162 11.3333 0 9.69171 0 7.66667Z" fill="#B3B3B3"/>
<path fill-rule="evenodd" clip-rule="evenodd" d="M12.3337 5.33333C11.045 5.33333 10.0003 6.378 10.0003 7.66667C10.0003 8.95533 11.045 10 12.3337 10C13.6223 10 14.667 8.95533 14.667 7.66667C14.667 6.378 13.6223 5.33333 12.3337 5.33333ZM8.66699 7.66667C8.66699 5.64162 10.3086 4 12.3337 4C14.3587 4 16.0003 5.64162 16.0003 7.66667C16.0003 9.69171 14.3587 11.3333 12.3337 11.3333C10.3086 11.3333 8.66699 9.69171 8.66699 7.66667Z" fill="#B3B3B3"/>
<path fill-rule="evenodd" clip-rule="evenodd" d="M3 10.6667C3 10.2985 3.29848 10 3.66667 10H12.3333C12.7015 10 13 10.2985 13 10.6667C13 11.0349 12.7015 11.3333 12.3333 11.3333H3.66667C3.29848 11.3333 3 11.0349 3 10.6667Z" fill="#B3B3B3"/>
</g>
<defs>
<clipPath id="clip0_53_3957">
<rect width="16" height="16" fill="white"/>
</clipPath>
</defs>
</svg>
