<svg xmlns="http://www.w3.org/2000/svg" width="16" height="16" viewBox="0 0 16 16" fill="none">
    <path
        d="M3.00027 15H4.00027V13.5H6.00027C6.66307 13.4992 7.29849 13.2356 7.76716 12.7669C8.23583 12.2982 8.49947 11.6628 8.50027 11V10.36L9.65827 9.9745C9.72928 9.9508 9.79406 9.91147 9.84783 9.8594C9.9016 9.80732 9.943 9.74384 9.96896 9.67363C9.99493 9.60342 10.0048 9.52827 9.99784 9.45374C9.99088 9.37921 9.96728 9.30719 9.92877 9.243L8.50027 6.8615V5.5C8.49895 4.30693 8.02442 3.16311 7.18079 2.31948C6.33716 1.47585 5.19334 1.00132 4.00027 1H1.50027V2H4.00027C4.9282 2.00106 5.81783 2.37015 6.47397 3.0263C7.13012 3.68244 7.49921 4.57207 7.50027 5.5V7C7.50039 7.09056 7.5251 7.17939 7.57177 7.257L8.75027 9.223L7.84177 9.5255C7.74226 9.55876 7.65573 9.62248 7.59445 9.70764C7.53316 9.7928 7.50021 9.89508 7.50027 10V11C7.49987 11.3977 7.34171 11.779 7.06049 12.0602C6.77927 12.3414 6.39797 12.4996 6.00027 12.5H3.50027C3.36766 12.5 3.24048 12.5527 3.14672 12.6464C3.05295 12.7402 3.00027 12.8674 3.00027 13V15Z"
        fill="#7E8CA8" />
    <path
        d="M6.50011 6H4.50011V7H6.50011V6ZM11.3336 12.6085C11.7006 12.2802 11.9941 11.8782 12.1951 11.4287C12.3961 10.9792 12.5 10.4924 12.5 10C12.5 9.50762 12.3961 9.02079 12.1951 8.5713C11.9941 8.12181 11.7006 7.71979 11.3336 7.3915L10.6671 8.1365C10.9292 8.37099 11.1389 8.65816 11.2825 8.97923C11.4261 9.30029 11.5003 9.64804 11.5003 9.99975C11.5003 10.3515 11.4261 10.6992 11.2825 11.0203C11.1389 11.3413 10.9292 11.6285 10.6671 11.863L11.3336 12.6085Z"
        fill="#7E8CA8" />
    <path
        d="M12.8007 14.3996C13.4836 13.8872 14.0378 13.2228 14.4195 12.4591C14.8013 11.6954 15 10.8534 15 9.99961C15 9.14583 14.8013 8.30377 14.4195 7.54008C14.0378 6.7764 13.4836 6.11204 12.8007 5.59961L12.2007 6.39961C12.7596 6.81876 13.2133 7.36231 13.5258 7.98721C13.8383 8.61211 14.001 9.30119 14.001 9.99986C14.001 10.6985 13.8383 11.3876 13.5258 12.0125C13.2133 12.6374 12.7596 13.181 12.2007 13.6001L12.8007 14.3996Z"
        fill="#7E8CA8" />
</svg>