<svg xmlns="http://www.w3.org/2000/svg" width="14" height="14" viewBox="0 0 14 14" fill="none">
    <path
        d="M6.66667 10C6.85556 10 7.014 9.936 7.142 9.808C7.27 9.68 7.33378 9.52178 7.33333 9.33334C7.33289 9.14489 7.26889 8.98667 7.14133 8.85867C7.01378 8.73067 6.85556 8.66667 6.66667 8.66667C6.47778 8.66667 6.31956 8.73067 6.192 8.85867C6.06445 8.98667 6.00044 9.14489 6 9.33334C5.99956 9.52178 6.06356 9.68022 6.192 9.80867C6.32045 9.93711 6.47867 10.0009 6.66667 10ZM6.66667 7.33333C6.85556 7.33333 7.014 7.26933 7.142 7.14134C7.27 7.01333 7.33378 6.85511 7.33333 6.66667V3C7.33333 2.81111 7.26933 2.65289 7.14133 2.52533C7.01333 2.39778 6.85511 2.33378 6.66667 2.33333C6.47822 2.33289 6.32 2.39689 6.192 2.52533C6.064 2.65378 6 2.812 6 3V6.66667C6 6.85556 6.064 7.014 6.192 7.142C6.32 7.27 6.47822 7.33378 6.66667 7.33333ZM6.66667 13.3333C5.74444 13.3333 4.87778 13.1582 4.06667 12.808C3.25556 12.4578 2.55 11.9829 1.95 11.3833C1.35 10.7838 0.875112 10.0782 0.525334 9.26667C0.175556 8.45511 0.000445288 7.58845 8.4388e-07 6.66667C-0.000443601 5.74489 0.174668 4.87822 0.525334 4.06667C0.876001 3.25511 1.35089 2.54956 1.95 1.95C2.54911 1.35044 3.25467 0.875556 4.06667 0.525334C4.87867 0.175111 5.74533 0 6.66667 0C7.588 0 8.45467 0.175111 9.26667 0.525334C10.0787 0.875556 10.7842 1.35044 11.3833 1.95C11.9824 2.54956 12.4576 3.25511 12.8087 4.06667C13.1598 4.87822 13.3347 5.74489 13.3333 6.66667C13.332 7.58845 13.1569 8.45511 12.808 9.26667C12.4591 10.0782 11.9842 10.7838 11.3833 11.3833C10.7824 11.9829 10.0769 12.458 9.26667 12.8087C8.45644 13.1593 7.58978 13.3342 6.66667 13.3333ZM6.66667 12C8.15556 12 9.41667 11.4833 10.45 10.45C11.4833 9.41667 12 8.15556 12 6.66667C12 5.17778 11.4833 3.91667 10.45 2.88333C9.41667 1.85 8.15556 1.33333 6.66667 1.33333C5.17778 1.33333 3.91667 1.85 2.88333 2.88333C1.85 3.91667 1.33333 5.17778 1.33333 6.66667C1.33333 8.15556 1.85 9.41667 2.88333 10.45C3.91667 11.4833 5.17778 12 6.66667 12Z"
        fill="currentColor" />
</svg>