<svg width="32" height="32" viewBox="0 0 32 32" fill="none" xmlns="http://www.w3.org/2000/svg">
    <path fill-rule="evenodd" clip-rule="evenodd"
        d="M16.8319 8.33368C16.4933 7.65227 15.5066 7.65227 15.1681 8.33368L7.94948 22.8658C7.64874 23.4712 8.0966 24.1774 8.78133 24.1774H23.2187C23.9034 24.1774 24.3513 23.4712 24.0505 22.8658L16.8319 8.33368ZM13.5044 7.53316C14.5199 5.48895 17.4801 5.48894 18.4956 7.53316L25.7143 22.0653C26.6164 23.8816 25.2729 26 23.2187 26H8.78133C6.72717 26 5.38355 23.8816 6.28577 22.0653L13.5044 7.53316Z"
        fill="currentColor" />
    <path
        d="M15.0781 12.7863C15.0781 12.283 15.4927 11.875 16.0041 11.875C16.5155 11.875 16.93 12.283 16.93 12.7863V17.7985C16.93 18.3019 16.5155 18.7098 16.0041 18.7098C15.4927 18.7098 15.0781 18.3019 15.0781 17.7985V12.7863Z"
        fill="currentColor" />
    <path
        d="M17.3911 21.4422C17.3911 22.1971 16.7693 22.8091 16.0022 22.8091C15.2351 22.8091 14.6133 22.1971 14.6133 21.4422C14.6133 20.6872 15.2351 20.0752 16.0022 20.0752C16.7693 20.0752 17.3911 20.6872 17.3911 21.4422Z"
        fill="currentColor" />
</svg>