<svg xmlns="http://www.w3.org/2000/svg" width="13" height="14" viewBox="0 0 13 14" fill="none">
    <g clip-path="url(#clip0_7977_21684)">
        <path
            d="M8.90918 0.856445C9.1075 0.859266 9.22603 0.863621 9.30176 0.870117C9.38052 0.876897 9.42549 0.886335 9.46973 0.90625C9.65363 0.989099 9.78567 1.16574 9.82715 1.36621C9.90861 1.75951 10.0737 2.06679 10.3184 2.29785C10.564 2.52976 10.8994 2.69405 11.335 2.7832C11.4254 2.80172 11.5092 2.82237 11.5771 2.84277C11.611 2.85294 11.6428 2.86333 11.6699 2.87402C11.6943 2.88368 11.7247 2.89727 11.75 2.91504C11.8376 2.9769 11.9006 3.05756 11.9414 3.12988C11.9791 3.19669 12.0098 3.27681 12.0098 3.34375V3.34473L11.9961 4.60449C11.9825 5.91649 11.9712 6.10866 11.8594 6.70117C11.595 8.10237 10.9706 9.40396 10.0264 10.5234C9.27804 11.4106 8.4683 12.0716 7.35352 12.6992L6.85645 12.9668C6.6671 13.0643 6.52874 13.1336 6.39941 13.1475C6.25644 13.1627 6.14001 13.1104 6.00586 13.0459C5.44995 12.7787 4.70745 12.3347 4.25586 11.999C2.28828 10.5363 1.07374 8.51428 0.763672 6.17578C0.738435 5.98527 0.720276 5.29247 0.712891 4.6416C0.709165 4.31323 0.708325 3.99073 0.710938 3.74023C0.712243 3.6153 0.714536 3.50698 0.717773 3.4248C0.719384 3.384 0.721333 3.34802 0.723633 3.31934C0.725587 3.29506 0.728631 3.26319 0.735352 3.23828C0.79365 3.02362 0.977487 2.86558 1.19727 2.82031C1.75871 2.70492 1.99318 2.60916 2.26074 2.4043C2.59565 2.14778 2.77365 1.84703 2.89648 1.28906C2.91528 1.20412 2.97568 1.12271 3.03027 1.06445C3.08812 1.00277 3.16413 0.941899 3.24316 0.90625C3.28784 0.886134 3.33352 0.875692 3.41211 0.869141C3.48869 0.862756 3.60868 0.859244 3.80859 0.856445C4.21026 0.850824 4.95188 0.849609 6.35547 0.849609C7.76726 0.849609 8.50938 0.850768 8.90918 0.856445ZM3.5166 1.51562C3.50979 1.53601 3.50473 1.55763 3.50195 1.57422C3.34935 2.48984 2.49083 3.26547 1.49609 3.42285C1.45751 3.42895 1.41674 3.43296 1.39648 3.43555C1.39125 3.43622 1.38649 3.43693 1.38281 3.4375C1.38169 3.44187 1.3802 3.44729 1.37891 3.4541C1.36769 3.51375 1.36254 3.61928 1.3623 3.81152C1.36207 4.00028 1.36569 4.25874 1.36914 4.61914C1.38145 5.90795 1.39274 6.06153 1.49902 6.62012C1.72157 7.78955 2.27502 8.97603 3.04883 9.94141C3.86383 10.9581 4.78621 11.6867 6.1709 12.3994L6.34766 12.4902L6.46289 12.4355C6.78927 12.277 7.3626 11.9515 7.64453 11.7656C9.41204 10.6004 10.6356 8.92894 11.1162 7.0332C11.3014 6.30277 11.3267 6.04474 11.3418 4.6123C11.3455 4.26045 11.3487 4.00541 11.3486 3.81836C11.3486 3.62855 11.3446 3.51984 11.335 3.45605C11.334 3.44957 11.332 3.4442 11.3311 3.43945C11.3271 3.43908 11.3224 3.43894 11.3174 3.43848C11.3048 3.43731 11.2893 3.43568 11.2725 3.43359C10.6907 3.36153 10.0606 3.01808 9.68262 2.56738C9.48366 2.33017 9.29316 1.95237 9.22266 1.6543C9.21075 1.60402 9.19803 1.55581 9.18652 1.51758C9.1745 1.51695 9.16088 1.51624 9.14551 1.51562C9.05133 1.51189 8.90189 1.50905 8.67969 1.50684C8.23576 1.50241 7.50594 1.50098 6.35352 1.50098H3.52246C3.52077 1.50542 3.5184 1.51024 3.5166 1.51562Z"
            fill="currentColor" stroke="currentColor" stroke-width="0.3" />
        <path
            d="M6.35126 9.7998C5.88306 9.7998 5.47034 9.71856 5.1131 9.55607C4.75856 9.39358 4.48251 9.15796 4.28495 8.84923C4.08739 8.5405 3.9886 8.16541 3.9886 7.72398V4.74943C3.9886 4.68394 3.94216 4.62764 3.87786 4.61519L3.47012 4.53622C3.40582 4.52376 3.35938 4.46746 3.35938 4.40197V3.93655C3.35938 3.86103 3.4206 3.7998 3.49612 3.7998H5.67054C5.74606 3.7998 5.80728 3.86103 5.80728 3.93655V4.40183C5.80728 4.46739 5.76075 4.52372 5.69638 4.53611L5.28489 4.61529C5.22052 4.62768 5.17399 4.68402 5.17399 4.74957V7.72398C5.17399 7.98396 5.22135 8.20062 5.31607 8.37394C5.4108 8.54727 5.54611 8.67726 5.72203 8.76392C5.89794 8.84788 6.10768 8.88985 6.35126 8.88985C6.60024 8.88985 6.81269 8.84788 6.9886 8.76392C7.16722 8.67726 7.30389 8.54727 7.39862 8.37394C7.49334 8.20062 7.5407 7.98396 7.5407 7.72398V4.74943C7.5407 4.68394 7.49426 4.62764 7.42996 4.61519L7.02221 4.53622C6.95791 4.52376 6.91147 4.46746 6.91147 4.40197V3.93655C6.91147 3.86103 6.97269 3.7998 7.04821 3.7998H9.22263C9.29815 3.7998 9.35938 3.86103 9.35938 3.93655V4.40183C9.35938 4.46739 9.31285 4.52372 9.24847 4.53611L8.83699 4.61529C8.77261 4.62768 8.72609 4.68402 8.72609 4.74957V7.72398C8.72609 8.16541 8.62595 8.54185 8.42568 8.85329C8.22812 9.16203 7.95071 9.39764 7.59348 9.56013C7.23894 9.71991 6.82487 9.7998 6.35126 9.7998Z"
            fill="currentColor" />
    </g>
    <defs>
        <clipPath id="clip0_7977_21684">
            <rect width="12.7215" height="14" fill="currentColor" />
        </clipPath>
    </defs>
</svg>