<svg xmlns="http://www.w3.org/2000/svg" width="14" height="14" viewBox="0 0 14 14" fill="none">
    <path fill-rule="evenodd" clip-rule="evenodd"
        d="M2.0952 8.90825C1.97493 8.93884 2.00294 8.95614 2.00259 9.28927C2.00259 9.57101 2.01162 9.75568 2.02627 9.77343C2.0393 9.7892 2.07068 9.80932 2.096 9.81811C2.12134 9.82689 2.89272 9.93165 3.81015 10.0509C5.17924 10.2288 5.51621 10.2774 5.69025 10.3221C6.09573 10.4263 6.34466 10.5324 6.67964 10.7438C7.00053 10.9464 7.01032 10.947 7.2683 10.7767C7.47654 10.6393 7.73517 10.5084 7.95351 10.4299C8.3177 10.299 8.42821 10.2802 10.1931 10.0509C11.1105 9.93165 11.8819 9.82689 11.9072 9.81811C11.9325 9.80932 11.9639 9.7892 11.977 9.77343C11.9916 9.75567 12 9.74667 12 9.46323V9.10391C12 9.10391 12 8.90348 11.7936 8.90348C11.6463 8.90451 8.43987 9.3318 8.2453 9.37632C7.81492 9.47478 7.40493 9.63777 7.07018 9.84345L6.97342 9.90292L6.8156 9.81014C6.4974 9.62306 6.09762 9.46869 5.68578 9.37388C5.54384 9.34121 4.96147 9.25937 3.85743 9.11695C2.9664 9.00202 2.21655 8.9052 2.19109 8.90181C2.16563 8.89842 2.12249 8.90132 2.0952 8.90825Z"
        fill="currentColor" stroke="currentColor" stroke-width="0.25" />
    <path
        d="M1.10892 10.9803C0.976791 10.9328 0.962947 10.8319 1.07795 10.7547C1.12265 10.7247 1.16908 10.7002 1.18117 10.7002C1.20388 10.7002 3.01006 10.9642 4.17972 11.1385C5.1292 11.28 5.44536 11.3609 5.97447 11.5977C6.22566 11.7102 6.71846 12.0171 6.91347 12.1826L7.00134 12.2572L7.09083 12.1826C7.54849 11.8011 8.1509 11.4972 8.77447 11.3332C9.12869 11.2401 9.12568 11.2406 11.1529 10.9426C12.7338 10.7103 12.8198 10.6996 12.8847 10.7281C13.0262 10.7903 13.0401 10.9145 12.9118 10.971C12.8757 10.9868 12.5037 11.05 12.0852 11.1115C10.0444 11.411 9.30516 11.5235 9.1407 11.5594C8.42242 11.7162 7.74372 12.063 7.32043 12.4896C7.04157 12.7705 6.96104 12.7705 6.68165 12.489C6.26141 12.0655 5.58936 11.7214 4.86458 11.5586C4.76728 11.5367 3.89491 11.4021 2.92597 11.2595C1.95705 11.1168 1.13936 10.9912 1.10892 10.9803Z"
        fill="currentColor" stroke="currentColor" stroke-width="0.5" />
    <path fill-rule="evenodd" clip-rule="evenodd"
        d="M6.92001 1.03983C6.86751 1.06117 5.80655 1.49709 4.56232 2.00855C2.84221 2.71565 2.28636 2.95194 2.24282 2.99458C2.1944 3.04201 2.18555 3.06537 2.18555 3.14573C2.18555 3.30009 2.20389 3.3112 2.99241 3.63526L3.6937 3.92346L3.70376 4.98662C3.71287 5.94992 3.71709 6.05967 3.74882 6.15519C3.85674 6.48017 4.01181 6.65176 4.48379 6.96838C4.97999 7.30125 5.60814 7.53982 6.26139 7.64352C6.56983 7.6925 7.30612 7.69299 7.61682 7.64444C8.43412 7.51672 9.16588 7.20507 9.81708 6.70737C9.97244 6.58862 10.0814 6.45929 10.1612 6.29895C10.2592 6.10173 10.2582 6.11357 10.2694 4.99869L10.28 3.94763L10.9672 3.65535C11.3452 3.49461 11.6738 3.35094 11.6974 3.33608C11.7465 3.30524 11.7977 3.20804 11.7977 3.14578C11.7977 3.07864 11.7442 2.98381 11.6876 2.95036C11.5624 2.87649 7.11592 0.999042 7.06833 1C7.03925 1.00058 6.97251 1.0185 6.92001 1.03983ZM9.0152 2.30693C10.0835 2.7628 10.9577 3.1403 10.9577 3.14578C10.9577 3.15127 10.0817 3.52957 9.01112 3.98644L7.06456 4.81713L5.22641 4.05953C4.21543 3.64283 3.30878 3.26942 3.21167 3.22968C3.11453 3.18997 3.03508 3.1524 3.03508 3.14622C3.03508 3.13507 7.01705 1.48417 7.05364 1.48014C7.06414 1.47899 7.94685 1.85105 9.0152 2.30693ZM11.4602 4.71341C11.3414 4.7722 11.3395 4.78719 11.3395 5.64575V6.42112L11.3831 6.48626C11.4098 6.52613 11.4543 6.5605 11.4977 6.57485C11.5959 6.60736 11.6961 6.57274 11.754 6.48626L11.7977 6.42112V5.64575C11.7977 4.78334 11.796 4.77086 11.674 4.71272C11.5945 4.67486 11.5376 4.67506 11.4602 4.71341ZM5.59322 4.70699C7.33122 5.42131 7.68535 5.54271 8.19387 5.59841C8.38642 5.61949 8.42595 5.63654 8.47685 5.72034C8.5114 5.77723 8.51394 5.82089 8.514 6.35965L8.51407 6.93792L8.30885 7.00618C7.24136 7.36127 6.10847 7.29334 5.14459 6.81643C4.77108 6.63163 4.39988 6.36598 4.28143 6.1987C4.16335 6.03194 4.16142 6.013 4.16142 5.01874C4.16142 4.3069 4.1664 4.12123 4.18529 4.12869C4.19842 4.13388 4.83198 4.39411 5.59322 4.70699Z"
        fill="currentColor" stroke="currentColor" stroke-width="0.4" />
</svg>