<svg xmlns="http://www.w3.org/2000/svg" width="58" height="58" viewBox="0 0 58 58" fill="none">
    <path
        d="M6.65875 48.9573V8.58828C6.70053 7.01112 7.35627 5.51256 8.48637 4.41163C9.61647 3.3107 11.1317 2.69437 12.7094 2.69386H47.0236C47.554 2.69277 48.0794 2.79644 48.5696 2.99891C49.0598 3.20138 49.5052 3.49866 49.8803 3.8737C50.2553 4.24874 50.5526 4.69415 50.7551 5.18437C50.9575 5.67458 51.0612 6.19996 51.0601 6.73034V39.0264C51.0612 39.5567 50.9575 40.0821 50.7551 40.5723C50.5526 41.0626 50.2553 41.508 49.8803 41.883C49.5052 42.258 49.0598 42.5553 48.5696 42.7578C48.0794 42.9603 47.554 43.0639 47.0236 43.0629H12.7094C11.103 43.0629 9.56245 43.701 8.42658 44.8368C7.29071 45.9727 6.65259 47.5133 6.65259 49.1196C6.65259 50.726 7.29071 52.2666 8.42658 53.4024C9.56245 54.5383 11.103 55.1764 12.7094 55.1764H51.0601M47.0236 43.0629V55.1764"
        stroke="currentColor" stroke-width="4.11048" stroke-linecap="round" stroke-linejoin="round" />
    <path
        d="M30.9265 33.852C32.2946 34.4326 33.8121 34.5619 35.2587 34.2212C36.7053 33.8804 38.0056 33.0873 38.9707 31.957L39.9819 30.9418C40.4233 30.5881 40.7109 30.0775 40.7844 29.5167C40.858 28.9559 40.7118 28.3884 40.3765 27.9329L37.1045 24.6651C36.6495 24.3293 36.0823 24.1824 35.5216 24.2552C34.9608 24.328 34.4499 24.6147 34.0957 25.0556C33.7416 25.4952 33.2315 25.7812 32.6717 25.854C32.1119 25.9267 31.5456 25.7806 31.0909 25.4461L25.8542 20.2216C25.5184 19.7667 25.3715 19.1994 25.4443 18.6387C25.517 18.0779 25.8038 17.567 26.2446 17.2128C26.6861 16.8592 26.9737 16.3485 27.0472 15.7877C27.1208 15.2269 26.9746 14.6594 26.6393 14.2039L23.3673 10.932C22.9118 10.5966 22.3443 10.4504 21.7835 10.524C21.2227 10.5975 20.7121 10.8851 20.3584 11.3266L19.3514 12.3295C18.2257 13.2979 17.4357 14.5979 17.0945 16.043C16.7534 17.4881 16.8786 19.0042 17.4523 20.3737C20.7689 25.9036 25.3966 30.5313 30.9265 33.8479"
        stroke="currentColor" stroke-width="4.11048" stroke-linecap="round" stroke-linejoin="round" />
</svg>