<svg xmlns="http://www.w3.org/2000/svg" width="14" height="14" viewBox="0 0 14 14" fill="none">
    <path
        d="M10 5.5C11.6569 5.5 13 6.84315 13 8.5C13 10.1569 11.6569 11.5 10 11.5C8.34315 11.5 7 10.1569 7 8.5C7 6.84315 8.34315 5.5 10 5.5ZM9.79004 7.7002C9.64775 7.71652 9.46985 7.77313 9.19824 7.8877L9.05957 7.94629L9.02832 8.08398C9.01157 8.15777 8.99916 8.22026 9 8.22559C9.00171 8.22746 9.04748 8.21362 9.10156 8.19434C9.27966 8.13084 9.45377 8.1258 9.55957 8.18066C9.63494 8.21979 9.66994 8.30983 9.66992 8.46582C9.66984 8.61416 9.63809 8.76854 9.47461 9.40527C9.35116 9.88611 9.32224 10.018 9.30566 10.1885C9.27923 10.4608 9.32633 10.6399 9.46582 10.792C9.60323 10.9419 9.76844 11.0011 10.042 11C10.2168 10.9992 10.2912 10.9866 10.4375 10.9326C10.5759 10.8815 10.8561 10.7624 10.8721 10.748C10.8813 10.7377 10.9396 10.4833 10.9355 10.4717C10.9341 10.4701 10.9057 10.4791 10.873 10.4922C10.7062 10.5589 10.5066 10.5734 10.3936 10.5264C10.3339 10.5015 10.3052 10.4722 10.2783 10.4092C10.262 10.3709 10.2592 10.3473 10.2598 10.2324C10.2607 10.0522 10.2812 9.9534 10.4375 9.34277C10.5789 8.79038 10.595 8.71942 10.6104 8.5752C10.6467 8.23444 10.6091 8.06734 10.46 7.9043C10.4029 7.84192 10.3672 7.81207 10.3174 7.78516C10.1702 7.70566 9.9925 7.67705 9.79004 7.7002ZM10.3271 6.00781C10.1196 6.05612 9.94839 6.2166 9.8916 6.41602C9.86946 6.494 9.86536 6.63075 9.88281 6.71191C9.92218 6.89455 10.0668 7.06197 10.2422 7.12793C10.3353 7.16292 10.4716 7.17195 10.5674 7.14844C10.8173 7.08704 11 6.85088 11 6.58984C11 6.42775 10.9532 6.30548 10.8457 6.1875C10.7665 6.10065 10.7181 6.0673 10.6191 6.03027C10.5452 6.00264 10.3986 5.99134 10.3271 6.00781Z"
        fill="currentColor" />
    <path
        d="M6.85254 0.754883C7.02634 0.757726 7.128 0.761587 7.19238 0.768555C7.26131 0.776034 7.29528 0.787529 7.33008 0.805664C7.34423 0.813079 7.35792 0.825041 7.36523 0.831055C7.37543 0.839435 7.38839 0.849829 7.40234 0.862305C7.43048 0.887475 7.46793 0.922515 7.5127 0.964844C7.60252 1.04978 7.72436 1.16793 7.86719 1.30762C8.15341 1.58755 8.52586 1.95608 8.89551 2.32617C9.26517 2.69628 9.63311 3.06852 9.91211 3.35449C10.0515 3.49738 10.1695 3.61944 10.2539 3.70898C10.2959 3.75355 10.3296 3.79145 10.3545 3.81934C10.3668 3.83317 10.3785 3.84537 10.3867 3.85547C10.3925 3.86253 10.4038 3.87702 10.4111 3.8916C10.4245 3.91864 10.4306 3.95154 10.4346 3.98633C10.4388 4.02404 10.4425 4.07776 10.4453 4.1543C10.4509 4.30834 10.4538 4.56569 10.4561 4.99902C10.4574 5.26199 10.4564 5.59049 10.457 6.00098C10.4075 5.99809 10.3596 6.00033 10.3271 6.00781C10.1196 6.05612 9.94838 6.21658 9.8916 6.41602C9.86946 6.494 9.86536 6.63075 9.88281 6.71191C9.92219 6.89454 10.0668 7.06197 10.2422 7.12793C10.3037 7.15105 10.3839 7.16184 10.459 7.16016C10.4591 7.3909 10.459 7.63823 10.459 7.90332C10.4024 7.84162 10.3669 7.81193 10.3174 7.78516C10.1702 7.70566 9.99251 7.67705 9.79004 7.7002C9.71784 7.70848 9.63601 7.72663 9.53809 7.75781C9.53888 6.89936 9.54004 5.96508 9.54004 5V4.54785H8.69336C8.38592 4.54785 8.13744 4.54465 7.95508 4.54004C7.86413 4.53773 7.78852 4.53569 7.73047 4.53223C7.67471 4.52889 7.62773 4.52478 7.59863 4.51855C7.14806 4.42204 6.787 4.05993 6.69043 3.60938C6.68422 3.58038 6.68009 3.53405 6.67676 3.47852C6.67329 3.42051 6.67028 3.34485 6.66797 3.25391C6.66335 3.0715 6.66113 2.82235 6.66113 2.51465V1.66797H2.02637L1.95605 1.71094C1.93902 1.72127 1.91619 1.73896 1.89551 1.75977C1.87471 1.78078 1.86099 1.79935 1.85547 1.80957V1.81055C1.85482 1.81244 1.85294 1.81709 1.85156 1.8252C1.84857 1.84305 1.84568 1.87359 1.84277 1.92676C1.83693 2.03421 1.83297 2.22326 1.83008 2.56445C1.8243 3.24695 1.82275 4.53372 1.82227 6.98633C1.82177 9.48749 1.82242 10.7733 1.82812 11.4443C1.83098 11.78 1.83469 11.9599 1.84082 12.0605C1.84703 12.1621 1.8554 12.1698 1.85645 12.1719L1.89746 12.2266C1.91548 12.2448 1.93674 12.262 1.95703 12.2734L2.03027 12.3145H5.67969C7.49778 12.3145 8.41622 12.3137 8.8916 12.3076C9.12947 12.3046 9.253 12.3003 9.32227 12.2939C9.35646 12.2908 9.3744 12.2877 9.38379 12.2852C9.39085 12.2833 9.39444 12.2809 9.40332 12.2764C9.44309 12.2561 9.47626 12.2226 9.49805 12.1836C9.49821 12.1823 9.49879 12.1803 9.49902 12.1787C9.50069 12.1641 9.50217 12.1422 9.50391 12.1133C9.5074 12.0552 9.51076 11.9717 9.51367 11.8652C9.52011 11.6295 9.52464 11.2839 9.52832 10.8506C9.65407 10.9569 9.80805 11.001 10.042 11C10.2168 10.9992 10.2912 10.9866 10.4375 10.9326C10.4428 10.9307 10.4484 10.9279 10.4541 10.9258C10.4523 11.3386 10.4516 11.6497 10.4482 11.8691C10.4464 11.9937 10.4438 12.0901 10.4414 12.1582C10.4402 12.192 10.4389 12.2199 10.4375 12.2412C10.4363 12.2602 10.4347 12.2812 10.4316 12.2959C10.3381 12.741 9.96719 13.1112 9.52148 13.2051C9.50711 13.2081 9.48673 13.2099 9.46973 13.2109C9.44938 13.2121 9.42263 13.2128 9.39062 13.2139C9.3265 13.216 9.23833 13.2179 9.12988 13.2197C8.91265 13.2233 8.61222 13.2261 8.25684 13.2285C7.54571 13.2333 6.61231 13.2354 5.67969 13.2354C4.74716 13.2353 3.81421 13.2333 3.10352 13.2285C2.74837 13.2261 2.44838 13.2233 2.23145 13.2197C2.123 13.2179 2.03472 13.216 1.9707 13.2139C1.93905 13.2128 1.91277 13.2111 1.89258 13.21C1.87562 13.209 1.85435 13.2082 1.83984 13.2051C1.3892 13.1086 1.02824 12.7465 0.931641 12.2959C0.928327 12.2804 0.926739 12.2551 0.925781 12.2344C0.924611 12.2088 0.922934 12.1733 0.921875 12.1309C0.919761 12.0457 0.917819 11.9263 0.916016 11.7783C0.912399 11.4814 0.909648 11.0666 0.907227 10.5742C0.902383 9.58919 0.900446 8.29053 0.900391 6.99219C0.900335 5.69389 0.902468 4.39462 0.907227 3.40918C0.909605 2.91686 0.912427 2.50221 0.916016 2.20508C0.917808 2.05675 0.919767 1.93699 0.921875 1.85156C0.922925 1.80908 0.923643 1.77371 0.924805 1.74805C0.92576 1.72713 0.927457 1.702 0.930664 1.68652C0.978533 1.45892 1.08394 1.26901 1.25391 1.09961C1.41845 0.935814 1.58576 0.840199 1.80566 0.785156C1.84106 0.77636 1.90989 0.771385 2.00977 0.767578C2.11524 0.763563 2.26808 0.760285 2.47949 0.757812C2.90254 0.752867 3.56578 0.75078 4.57227 0.75C5.84539 0.749005 6.50283 0.749163 6.85254 0.754883ZM5.65527 10.1865C5.72275 10.1894 5.76941 10.1941 5.80469 10.209C5.82588 10.218 5.84017 10.2301 5.8457 10.2344C5.84952 10.2373 5.85139 10.2377 5.85449 10.2393C5.9272 10.2765 5.98744 10.3392 6.0293 10.4072C6.07107 10.4753 6.09951 10.558 6.09961 10.6396C6.09953 10.7214 6.07109 10.8039 6.0293 10.8721C5.98741 10.9402 5.92733 11.0038 5.85449 11.041C5.85141 11.0426 5.84959 11.0429 5.8457 11.0459C5.84006 11.0503 5.82565 11.0624 5.80469 11.0713C5.76954 11.0861 5.72327 11.0908 5.65625 11.0938C5.51171 11.1001 5.19396 11.0996 4.46094 11.0996C3.72768 11.0996 3.34657 11.1 3.1377 11.0938C3.03411 11.0906 2.96741 11.086 2.91992 11.0781C2.86758 11.0694 2.83732 11.0561 2.80762 11.041C2.73468 11.0038 2.67377 10.9403 2.63184 10.8721C2.59009 10.804 2.5616 10.7213 2.56152 10.6396C2.56162 10.5596 2.59041 10.4777 2.63086 10.4102C2.67136 10.3426 2.73001 10.2787 2.80078 10.2412C2.8667 10.2064 2.92444 10.1947 3.13184 10.1885C3.34193 10.1822 3.72469 10.1822 4.45605 10.1816C5.19165 10.1811 5.51014 10.1803 5.65527 10.1865ZM10.458 9.25781C10.4576 9.75074 10.4572 10.1769 10.4561 10.541C10.4335 10.5366 10.412 10.534 10.3936 10.5264C10.3339 10.5015 10.3052 10.4722 10.2783 10.4092C10.262 10.3709 10.2592 10.3473 10.2598 10.2324C10.2607 10.0522 10.2811 9.95345 10.4375 9.34277C10.4451 9.3132 10.4511 9.28471 10.458 9.25781ZM5.65039 8.74707C5.69608 8.75032 5.73318 8.7556 5.7666 8.76465C5.80079 8.77392 5.82825 8.78642 5.85449 8.7998C5.92723 8.83707 5.98746 8.89969 6.0293 8.96777C6.07112 9.03598 6.09958 9.11842 6.09961 9.2002C6.09953 9.28199 6.07116 9.36443 6.0293 9.43262C5.98746 9.50067 5.92721 9.56334 5.85449 9.60059C5.79538 9.63073 5.74746 9.64627 5.65137 9.65332C5.56275 9.65981 5.42376 9.66016 5.18066 9.66016C4.08606 9.66016 3.52539 9.66048 3.22754 9.6543C2.93629 9.64824 2.87793 9.63643 2.80762 9.60059C2.73468 9.56337 2.67377 9.50083 2.63184 9.43262C2.59002 9.36446 2.5616 9.28194 2.56152 9.2002C2.56155 9.12009 2.59042 9.03826 2.63086 8.9707C2.67134 8.90322 2.73006 8.83924 2.80078 8.80176C2.86945 8.76551 2.93249 8.7551 3.22461 8.74902C3.5244 8.74279 4.086 8.74173 5.17578 8.74121L5.65039 8.74707ZM9.55957 8.18066C9.63493 8.2198 9.66994 8.30984 9.66992 8.46582C9.66985 8.59179 9.64421 8.72118 9.53711 9.14746C9.53791 8.83849 9.53667 8.5126 9.53711 8.17285C9.54456 8.17591 9.55268 8.17709 9.55957 8.18066ZM5.65039 7.30762C5.69608 7.31087 5.73318 7.31615 5.7666 7.3252C5.80075 7.33446 5.82827 7.346 5.85449 7.35938C5.92741 7.39665 5.98741 7.46009 6.0293 7.52832C6.07112 7.59654 6.09961 7.67895 6.09961 7.76074C6.09949 7.84248 6.07113 7.92503 6.0293 7.99316C5.98744 8.06117 5.92719 8.12394 5.85449 8.16113C5.79537 8.19128 5.74748 8.20682 5.65137 8.21387C5.56275 8.22036 5.42376 8.2207 5.18066 8.2207C4.08606 8.2207 3.52539 8.22005 3.22754 8.21387C2.93647 8.20782 2.87787 8.19693 2.80762 8.16113C2.73471 8.12393 2.67376 8.06135 2.63184 7.99316C2.59 7.92503 2.56164 7.84248 2.56152 7.76074C2.56152 7.68053 2.59034 7.5979 2.63086 7.53027C2.67139 7.46281 2.73004 7.39873 2.80078 7.36133C2.86945 7.32508 2.93249 7.31467 3.22461 7.30859C3.5244 7.30236 4.08601 7.30227 5.17578 7.30176L5.65039 7.30762ZM6.52148 5.86719C6.62651 5.8702 6.69343 5.87487 6.74121 5.88281C6.79419 5.89162 6.82458 5.90466 6.85449 5.91992C6.9272 5.95712 6.98744 6.01987 7.0293 6.08789C7.07106 6.15599 7.0995 6.23866 7.09961 6.32031C7.09953 6.40201 7.07107 6.4846 7.0293 6.55273C6.98741 6.62087 6.92732 6.68445 6.85449 6.72168C6.82458 6.73693 6.79406 6.74998 6.74121 6.75879C6.69346 6.76674 6.62622 6.77133 6.52148 6.77441C6.31051 6.78061 5.9244 6.78027 5.18066 6.78027C4.08606 6.78027 3.52539 6.78059 3.22754 6.77441C2.93663 6.76837 2.87782 6.75742 2.80762 6.72168C2.73468 6.68446 2.67377 6.62095 2.63184 6.55273C2.59011 6.48463 2.5616 6.40195 2.56152 6.32031C2.56164 6.24025 2.59042 6.15831 2.63086 6.09082C2.67137 6.02332 2.73002 5.95933 2.80078 5.92188C2.86945 5.88563 2.93249 5.87522 3.22461 5.86914C3.5244 5.86291 4.08601 5.86282 5.17578 5.8623C5.92298 5.86179 6.3101 5.86112 6.52148 5.86719ZM7.58105 2.7627C7.58106 3.15469 7.58283 3.34432 7.60449 3.4502C7.61442 3.49826 7.62751 3.51947 7.63867 3.53223C7.65211 3.54742 7.67217 3.56182 7.7168 3.58691C7.73959 3.59972 7.75031 3.60536 7.76367 3.60938C7.77814 3.61368 7.80126 3.61728 7.84668 3.62012C7.94025 3.62592 8.10475 3.62521 8.4375 3.62207L8.87305 3.61719L8.22559 2.9707L7.58105 2.32617V2.7627Z"
        fill="currentColor" />
</svg>