<svg xmlns="http://www.w3.org/2000/svg" width="14" height="14" viewBox="0 0 14 14" fill="none">
    <g clip-path="url(#clip0_7993_21777)">
        <path fill-rule="evenodd" clip-rule="evenodd"
            d="M4.0349 1.99772L1.3141 2.94533C1.22458 2.97651 1.14614 3.03322 1.08845 3.10844C1.03109 3.18323 1 3.27484 1 3.36909V5.79931C1 8.35383 1.00049 8.37559 1.05956 8.45778C1.17274 8.61522 1.26507 8.66437 1.44775 8.66437C1.63043 8.66437 1.72275 8.61525 1.83593 8.45778C1.89462 8.37616 1.89561 8.3433 1.90326 6.21923L1.90739 5.0791C1.90919 4.58107 2.40024 4.23253 2.87097 4.39516C3.39893 4.57757 3.83368 4.72895 3.83706 4.73156C3.84047 4.73417 3.78431 4.8542 3.71232 4.99826C3.19109 6.0412 3.16501 7.31168 3.64305 8.37133C3.89298 8.92534 4.35676 9.51449 4.79682 9.837C4.90766 9.91823 4.99874 9.99141 4.99923 9.99967C4.99975 10.0079 4.83663 10.0949 4.6367 10.1929C3.71302 10.6458 2.97071 11.3047 2.39125 12.186C2.30317 12.32 2.28546 12.3728 2.28546 12.5016C2.28546 12.7071 2.36011 12.8459 2.51693 12.9321C2.77821 13.0756 2.97721 12.9896 3.22665 12.6252C3.97603 11.5306 5.10891 10.8197 6.38519 10.6432C8.06883 10.4104 9.7752 11.1773 10.7493 12.6046C11.0122 12.9898 11.1921 13.0752 11.4551 12.9399C11.6089 12.8607 11.68 12.7539 11.6963 12.5773C11.7156 12.3684 11.6976 12.3232 11.4635 11.9935C10.9096 11.2131 10.2022 10.6101 9.35131 10.1929C9.15139 10.0949 8.98772 10.0079 8.98757 9.99967C8.98743 9.99141 9.04901 9.94466 9.12447 9.89578C9.35117 9.74887 9.88699 9.17373 10.0693 8.88162C10.8195 7.67944 10.8914 6.21791 10.2617 4.96954C10.1971 4.84153 10.1472 4.73456 10.1507 4.73177C10.1542 4.72898 10.7517 4.52124 11.4785 4.27006C12.7479 3.83139 12.8033 3.80913 12.8867 3.70414C13.0387 3.51257 13.0377 3.26613 12.8843 3.08459C12.8024 2.9877 12.6456 2.92961 9.932 1.98998C8.35582 1.44422 7.02723 0.998742 6.97956 1C6.9319 1.00129 5.60681 1.45028 4.0349 1.99772ZM5.83854 5.42366C6.43386 5.62996 6.95383 5.79874 6.99401 5.79874C7.03419 5.79874 7.55369 5.63011 8.14844 5.42402C8.95984 5.14283 9.23571 5.05857 9.25353 5.08645C9.46758 5.42078 9.61537 5.76232 9.6998 6.11792C9.76821 6.40596 9.76864 7.11777 9.70058 7.39999C9.39349 8.67332 8.3748 9.55995 7.13844 9.62998C5.80107 9.70575 4.61977 8.78173 4.28761 7.39999C4.20973 7.07603 4.21732 6.39783 4.30251 6.07084C4.38568 5.75169 4.51154 5.44278 4.6486 5.22139C4.70727 5.12663 4.75548 5.049 4.75572 5.04885C4.75595 5.0487 5.24321 5.21737 5.83854 5.42366Z"
            fill="currentColor" stroke="currentColor" stroke-width="0.1" />
    </g>
    <defs>
        <clipPath id="clip0_7993_21777">
            <rect width="14" height="14" fill="currentColor" />
        </clipPath>
    </defs>
</svg>