<svg xmlns="http://www.w3.org/2000/svg" width="14" height="14" viewBox="0 0 14 14" fill="none">
    <g clip-path="url(#clip0_7977_21660)">
        <path
            d="M7 13C3.68235 13 1 10.3176 1 7C1 3.68235 3.68235 1 7 1C10.3176 1 13 3.68235 13 7C13 10.3176 10.2824 13 7 13ZM7 1.70588C4.07059 1.70588 1.70588 4.07059 1.70588 7C1.70588 9.92941 4.07059 12.2941 7 12.2941C9.92941 12.2941 12.2941 9.92941 12.2941 7C12.2941 4.07059 9.89412 1.70588 7 1.70588Z"
            fill="currentColor" stroke="currentColor" stroke-width="0.2" />
        <path
            d="M3.61277 11L3 10.5C3.17021 10.1206 3.71489 10.1462 4.29362 9.89328C4.87234 9.64032 5.58723 9.35573 5.58723 9.00791V8.5336C5.38298 8.37549 5.04255 8.02767 4.97447 7.52174C4.80426 7.36364 4.53192 7.07905 4.53192 6.69961C4.53192 6.47826 4.63404 6.28854 4.70213 6.16206C4.63404 5.90909 4.56596 5.43478 4.56596 5.05534C4.56596 3.82213 5.48511 3 6.94894 3C7.35745 3 7.86809 3.09486 8.14043 3.37945C8.78723 3.50593 9.33191 4.20158 9.33191 5.05534C9.33191 5.59289 9.22979 6.03557 9.1617 6.25692C9.22979 6.35178 9.29787 6.50988 9.29787 6.69961C9.29787 7.11067 9.05958 7.39526 8.85532 7.52174C8.78723 8.02767 8.48085 8.34387 8.2766 8.50198V9.00791C8.2766 9.29249 8.88936 9.51383 9.43404 9.70356C10.0809 9.9249 10.8701 10.3043 11 10.5V11.5C10.8979 11.247 9.70638 10.4625 9.19575 10.3043C8.44681 10.0514 7.59575 9.7668 7.59575 9.03953V8.21739L7.76596 8.12253C7.76596 8.12253 8.17447 7.86957 8.17447 7.36364V7.14229L8.37872 7.04743C8.41277 7.04743 8.58298 6.95257 8.58298 6.69961C8.58298 6.63636 8.51489 6.5415 8.48085 6.50988L8.34468 6.3834L8.41277 6.2253C8.41277 6.2253 8.58298 5.71937 8.58298 5.08696C8.58298 4.48617 8.20851 4.04348 7.90213 4.04348H7.69787L7.59575 3.88538C7.59575 3.75889 7.35745 3.63241 6.94894 3.63241C5.89362 3.63241 5.24681 4.16996 5.24681 5.05534C5.24681 5.4664 5.41702 6.16206 5.41702 6.16206L5.45106 6.32016L5.31489 6.47826C5.28085 6.47826 5.21277 6.57312 5.21277 6.69961C5.21277 6.85771 5.41702 7.04743 5.51915 7.11067L5.65532 7.20553V7.36364C5.65532 7.83794 6.09787 8.09091 6.09787 8.12253L6.26809 8.21739V9.03953C6.26809 9.79842 5.38298 10.1779 4.56596 10.4941C4.19149 10.6206 3.68085 10.8419 3.61277 11Z"
            fill="currentColor" />
        <path
            d="M8 8.79057V9C8 9.15322 7.91343 9.29328 7.77639 9.3618L7.44721 9.52639C7.16569 9.66716 6.83431 9.66716 6.55279 9.52639L6.5 9.5L6.1771 9.33855C6.06856 9.28428 6 9.17334 6 9.05199C6 9.01756 5.99445 8.98335 5.98356 8.95068L5.5 7.5L5.12882 6.38647C5.0435 6.1305 5 5.86244 5 5.59262V5.46353C5 5.1587 5.07097 4.85806 5.20729 4.58541C5.39729 4.20541 5.70541 3.89729 6.08541 3.70729L6.1753 3.66235C6.38883 3.55558 6.62429 3.5 6.86302 3.5C7.27087 3.5 7.66202 3.66202 7.95041 3.95041L8 4C8.32014 4.32014 8.5 4.75435 8.5 5.20711V5.93702C8.5 6.3099 8.43989 6.68034 8.32197 7.03409L8.25 7.25C8.08442 7.74675 8 8.26695 8 8.79057Z"
            fill="currentColor" stroke="currentColor" stroke-width="0.35" stroke-linecap="round" />
    </g>
    <defs>
        <clipPath id="clip0_7977_21660">
            <rect width="14" height="14" fill="currentColor" />
        </clipPath>
    </defs>
</svg>