<svg xmlns="http://www.w3.org/2000/svg" width="30" height="30" viewBox="0 0 30 30" fill="none">
  <g opacity="0.68">
    <path fill-rule="evenodd" clip-rule="evenodd" d="M6.81134 0.513147C5.76914 0.663313 4.20657 1.32757 3.62284 1.86854C3.46761 2.01242 3.42048 2.24061 3.50205 2.45326C3.54069 2.55391 3.81577 2.71769 3.94621 2.71769C3.98955 2.71769 4.25614 2.57107 4.53861 2.39182C6.34595 1.24518 8.48417 1.09665 10.3676 1.98694C11.4371 2.49253 12.2268 3.17773 12.8765 4.16396C14.087 6.00132 14.2 8.11656 13.1924 10.0765C12.3915 11.6345 11.0319 12.7736 9.35834 13.289C8.88609 13.4344 8.77118 13.4463 7.82952 13.4463C6.88233 13.4463 6.77486 13.435 6.288 13.2853C5.63044 13.0831 4.95013 12.7634 4.4308 12.4124C4.20948 12.2628 3.97344 12.1266 3.90636 12.1098C3.83921 12.0929 3.64064 12.1425 3.46511 12.22C3.28958 12.2974 3.05755 12.38 2.94957 12.4036C2.73691 12.45 2.73668 12.4075 2.94817 12.1713C3.11579 11.9842 3.24565 11.6192 3.2044 11.4512C3.18392 11.3677 3.03602 11.109 2.87579 10.8763C1.48078 8.8504 1.44837 6.14241 2.79492 4.11689C3.11416 3.63672 3.14511 3.37595 2.90535 3.18739C2.55661 2.91306 2.29165 3.07981 1.82207 3.86921C0.805005 5.57904 0.5678 7.773 1.19703 9.65109C1.39205 10.2332 1.6708 10.8089 1.97887 11.2658L2.19158 11.5813L1.85419 11.9263C1.66865 12.116 1.40125 12.3219 1.25992 12.3837C0.949003 12.5199 0.852074 12.6371 0.84963 12.8797C0.846954 13.1463 1.1047 13.345 1.52087 13.397C2.06457 13.4649 3.0469 13.3926 3.42642 13.2568L3.76509 13.1356L4.14059 13.3727C5.76141 14.3963 7.8653 14.6853 9.74397 14.1422C11.9272 13.5111 13.7323 11.771 14.4615 9.59442C14.7988 8.58748 14.903 7.27311 14.7258 6.25721C14.231 3.41971 11.8429 1.03271 9.00006 0.53415C8.47533 0.442108 7.37727 0.431577 6.81134 0.513147ZM15.4195 3.84961C15.2429 4.02625 15.2341 4.27689 15.3973 4.48436L15.5179 4.63767L17.0119 4.63814C17.8335 4.63837 18.6722 4.66554 18.8755 4.69853C19.882 4.86184 20.6587 5.66219 20.8072 6.68903C20.8679 7.10857 20.8808 8.594 20.8237 8.594C20.8027 8.594 20.6344 8.45 20.4499 8.274C20.178 8.01463 20.0769 7.954 19.9166 7.954C19.6532 7.954 19.4658 8.15246 19.4658 8.4312C19.4658 8.62221 19.5322 8.70343 20.2841 9.43105C21.3721 10.484 21.2581 10.4845 22.329 9.42331C22.773 8.9834 23.1505 8.56642 23.168 8.4966C23.2391 8.21337 22.9958 7.89582 22.7079 7.89582C22.5806 7.89582 22.4481 7.98344 22.1661 8.25416L21.793 8.61244V7.6539C21.793 6.49197 21.7358 6.1448 21.4438 5.53634C21.0277 4.66921 20.1255 3.96335 19.1866 3.77019C19.0063 3.73313 18.1896 3.70677 17.2203 3.70677H15.5623L15.4195 3.84961ZM5.41238 5.01323C5.31871 5.10685 5.26954 5.22181 5.26954 5.34713C5.26954 5.51644 5.37712 5.64595 6.21353 6.48347L7.15746 7.42874L6.21353 8.37896C5.35373 9.24446 5.26954 9.34744 5.26954 9.53327C5.26954 9.79782 5.4655 9.99035 5.73476 9.99035C5.91006 9.99035 6.03049 9.89115 6.88093 9.04635L7.83114 8.10242L8.77641 9.04635C9.61393 9.88277 9.74345 9.99035 9.91275 9.99035C10.1676 9.99035 10.3895 9.77001 10.3895 9.51698C10.3895 9.35221 10.2741 9.21304 9.44637 8.37983L8.5032 7.43037L9.44637 6.48091C10.2741 5.6477 10.3895 5.50853 10.3895 5.34376C10.3895 5.09236 10.1675 4.8704 9.91613 4.8704C9.75136 4.8704 9.61219 4.98577 8.77898 5.81351L7.82952 6.75669L6.88006 5.81351C6.04684 4.98577 5.90767 4.8704 5.7429 4.8704C5.62113 4.8704 5.50494 4.92061 5.41238 5.01323Z" fill="#B3B3B3"/>
    <path d="M18.0988 16.5705C18.908 16.0111 19.7108 15.6654 20.6711 15.4629C21.2564 15.3395 22.3056 15.3156 22.9856 15.4102C23.7063 15.5104 24.3869 15.7299 25.1345 16.1033C25.9808 16.5259 26.3854 16.8491 26.3854 17.1023C26.3854 17.3025 26.111 17.6169 25.9362 17.6169C25.8763 17.6169 25.6452 17.4967 25.4227 17.3497C23.5006 16.0804 21.4355 15.9537 19.3746 16.9785C17.7038 17.8094 16.6101 19.127 16.1343 20.8825C16.0247 21.2871 16.0023 21.5174 16.0021 22.2423C16.0018 23.2524 16.1029 23.8367 16.4078 24.5883C17.5485 27.4005 20.8007 28.9682 23.7317 28.1188C24.3349 27.944 24.7945 27.7217 25.4294 27.2977C25.6876 27.1251 25.9393 26.9841 25.9887 26.9841C26.0381 26.9841 26.269 27.0626 26.5018 27.1586C27.0976 27.4043 27.2404 27.3836 26.9326 27.096C26.5286 26.7186 26.5253 26.4428 26.9176 25.8424C27.4797 24.9823 27.7457 24.3508 27.9302 23.4383C28.0778 22.7086 28.0239 21.4426 27.8149 20.7296C27.6372 20.1231 27.3207 19.4335 26.9762 18.9024C26.8432 18.6974 26.7345 18.4834 26.7345 18.4269C26.7345 18.3703 26.8023 18.2434 26.8851 18.145C27.0849 17.9075 27.35 17.9 27.5587 18.126C28.1013 18.7136 28.6276 19.8649 28.8684 20.9914C29.0074 21.6419 29.0063 23.0949 28.8664 23.7165C28.668 24.5979 28.3247 25.4305 27.8598 26.1583L27.6625 26.4672L27.8378 26.6799C28.0823 26.9765 28.4544 27.2601 28.6577 27.3047C29.0006 27.3801 29.1176 27.8061 28.8648 28.059C28.6729 28.2509 28.3104 28.3355 27.6938 28.3325C27.1981 28.3301 26.4229 28.1991 26.1936 28.079C26.1136 28.0372 26.0042 28.0779 25.7281 28.2522C24.4957 29.0305 23.2645 29.3565 21.7929 29.2944C19.0191 29.1774 16.4737 27.4045 15.5104 24.9186C14.3082 21.8165 15.3443 18.4746 18.0988 16.5705Z" fill="#B3B3B3"/>
    <path d="M6.77902 21.0328C6.84337 20.951 7.22218 20.5809 7.62078 20.2105C8.23617 19.6386 8.37405 19.5369 8.53423 19.5369C8.69946 19.5369 8.82641 19.6403 9.55426 20.3681C10.2836 21.0975 10.3856 21.2227 10.3856 21.389C10.3856 21.6434 10.1645 21.8641 9.90975 21.8641C9.7547 21.8641 9.65137 21.797 9.34999 21.5005L8.9803 21.1368L9.00282 22.2132C9.0226 23.1613 9.04099 23.3294 9.15694 23.6242C9.40276 24.2492 9.90067 24.7315 10.5626 24.9858C10.7787 25.0688 11.1161 25.091 12.5871 25.1184L14.3524 25.1513L14.4635 25.2887C14.6182 25.48 14.6051 25.737 14.4318 25.9103L14.289 26.0532H12.5822C10.6946 26.0532 10.4802 26.025 9.80421 25.6885C9.34731 25.461 8.73414 24.8748 8.48181 24.4241C8.13388 23.8027 8.09752 23.6224 8.06197 22.3397L8.02922 21.1571L7.67099 21.4815C7.37892 21.746 7.2749 21.8059 7.10792 21.8059C6.72491 21.8059 6.53041 21.3489 6.77902 21.0328Z" fill="#B3B3B3"/>
    <path d="M21.2797 23.418C21.3198 23.4017 22.1229 22.8098 23.0643 22.1026C24.4132 21.0894 24.8131 20.8168 24.9515 20.8168C25.3726 20.8168 25.5551 21.3455 25.2363 21.642C25.1483 21.7238 24.2494 22.4094 23.2387 23.1656C21.8576 24.1989 21.3603 24.5404 21.2373 24.5404C21.0237 24.5404 19.035 23.0733 18.9362 22.8429C18.8569 22.6578 18.9019 22.4843 19.0701 22.3276C19.3163 22.0982 19.496 22.167 20.3822 22.8304C20.8357 23.1699 21.2395 23.4344 21.2797 23.418Z" fill="#B3B3B3"/>
  </g>
</svg>