<svg xmlns="http://www.w3.org/2000/svg" width="30" height="30" viewBox="0 0 30 30" fill="none">
  <g opacity="0.68">
    <path fill-rule="evenodd" clip-rule="evenodd" d="M2.05073 1.11675C1.65967 1.26703 1.26249 1.66968 1.11407 2.06632L1 2.37125V14.9996V27.6279L1.11407 27.9328C1.26632 28.3397 1.6594 28.7328 2.06632 28.8851C2.37125 28.9991 2.37168 28.9991 12.0465 28.9991C21.7214 28.9991 21.7218 28.9991 22.0267 28.8851C22.4337 28.7328 22.8267 28.3397 22.979 27.9328L23.0931 27.6279V14.9996V2.37125L22.979 2.06632C22.8267 1.6594 22.4337 1.26632 22.0267 1.11407L21.7218 1L12.0308 1.00284C2.42528 1.00569 2.33723 1.00667 2.05073 1.11675ZM21.6476 2.17378C22.0271 2.33236 21.9993 1.31953 21.9993 14.9996C21.9993 28.6796 22.0271 27.6668 21.6476 27.8254C21.3585 27.9462 2.73458 27.9462 2.44545 27.8254C2.06594 27.6668 2.09372 28.6796 2.09372 14.9996C2.09372 1.36503 2.06801 2.33488 2.43348 2.17613C2.70767 2.05697 21.3626 2.05472 21.6476 2.17378ZM26.3165 4.02976C25.7058 4.26294 25.2726 4.6494 25.0235 5.18346L24.8703 5.51158L24.8557 9.876L24.8411 14.2405L25.0019 14.4012C25.228 14.6274 25.5514 14.6278 25.7769 14.4022L25.9367 14.2424V11.0117V7.78104H26.9211H27.9054V16.148V24.5149H26.9211H25.9367V21.6123V18.7098L25.7769 18.5499C25.5518 18.3248 25.2279 18.3248 25.0029 18.5499L24.843 18.7098V21.9594V25.209L25.6392 26.981C26.1305 28.0744 26.4877 28.8002 26.5719 28.8761C26.7568 29.0428 27.0853 29.0428 27.2703 28.8761C27.3548 28.8 27.7106 28.0761 28.2034 26.9779L29 25.2028L28.9859 15.3572L28.9718 5.51158L28.8175 5.17772C28.6221 4.75489 28.1987 4.33376 27.7687 4.13426C27.5039 4.01144 27.3508 3.9795 26.9758 3.96884C26.6852 3.96052 26.4381 3.98333 26.3165 4.02976ZM27.4713 5.23383C27.747 5.41632 27.8698 5.69844 27.8956 6.20882L27.917 6.63264H26.9269H25.9367L25.937 6.29085C25.9372 6.1029 25.9631 5.85632 25.9946 5.74295C26.0641 5.4926 26.3656 5.17854 26.607 5.10504C26.8646 5.02657 27.2433 5.08301 27.4713 5.23383ZM11.1127 5.42534C10.9873 5.55073 10.9528 5.63418 10.9528 5.81235C10.9528 5.99052 10.9873 6.07397 11.1127 6.19936L11.2725 6.35921H13.3043H15.3361L15.4959 6.19936C15.721 5.97427 15.721 5.65042 15.4959 5.42534L15.3361 5.26549H13.3043H11.2725L11.1127 5.42534ZM17.374 5.32811C17.2339 5.39608 17.0776 5.65135 17.0776 5.81235C17.0776 5.98193 17.2365 6.22993 17.39 6.29987C17.4705 6.33651 17.9599 6.35921 18.6703 6.35921H19.8203L19.9802 6.19936C20.1055 6.07397 20.14 5.99052 20.14 5.81235C20.14 5.63418 20.1055 5.55073 19.9802 5.42534L19.8203 5.26549L18.6541 5.26921C17.9893 5.27129 17.4389 5.29661 17.374 5.32811ZM6.70526 7.4637L5.65043 8.51345L5.19123 8.06524C4.76386 7.6481 4.71606 7.61698 4.50235 7.61698C4.17664 7.61698 3.95303 7.84251 3.95303 8.17106C3.95303 8.39893 3.97332 8.42573 4.67986 9.13227C5.39406 9.84647 5.4109 9.8591 5.64928 9.8591H5.89192L7.21925 8.53171C8.54144 7.20952 8.54664 7.20345 8.54664 6.96895C8.54664 6.63761 8.32374 6.41389 7.99349 6.41389C7.76348 6.41389 7.74478 6.4291 6.70526 7.4637ZM11.1127 8.92523C10.9873 9.05062 10.9528 9.13407 10.9528 9.31224C10.9528 9.49041 10.9873 9.57386 11.1127 9.69925L11.2725 9.8591H15.5464H19.8203L19.9802 9.69925C20.2053 9.47416 20.2053 9.15032 19.9802 8.92523L19.8203 8.76538H15.5464H11.2725L11.1127 8.92523ZM4.11288 12.8626C3.98639 12.9891 3.95303 13.0709 3.95303 13.2547C3.95303 13.4798 3.97606 13.5102 4.70245 14.2433L5.45186 14.9996L4.70245 15.7559C3.97606 16.4889 3.95303 16.5193 3.95303 16.7444C3.95303 17.0719 4.17746 17.2964 4.50498 17.2964C4.73006 17.2964 4.76047 17.2733 5.49353 16.547L6.24984 15.7975L7.00614 16.547C7.7392 17.2733 7.76961 17.2964 7.9947 17.2964C8.32221 17.2964 8.54664 17.0719 8.54664 16.7444C8.54664 16.5193 8.52362 16.4889 7.79723 15.7559L7.04781 14.9996L7.79723 14.2433C8.52362 13.5102 8.54664 13.4798 8.54664 13.2547C8.54664 12.9272 8.32221 12.7028 7.9947 12.7028C7.76961 12.7028 7.7392 12.7258 7.00614 13.4522L6.24984 14.2016L5.49353 13.4522C4.76047 12.7258 4.73006 12.7028 4.50498 12.7028C4.32118 12.7028 4.23937 12.7361 4.11288 12.8626ZM11.1127 12.8626C10.9873 12.988 10.9528 13.0715 10.9528 13.2496C10.9528 13.4278 10.9873 13.5112 11.1127 13.6366L11.2725 13.7965H13.3043H15.3361L15.4959 13.6366C15.721 13.4115 15.721 13.0877 15.4959 12.8626L15.3361 12.7028H13.3043H11.2725L11.1127 12.8626ZM17.374 12.7654C17.2339 12.8334 17.0776 13.0886 17.0776 13.2496C17.0776 13.4192 17.2365 13.6672 17.39 13.7371C17.4705 13.7738 17.9599 13.7965 18.6703 13.7965H19.8203L19.9802 13.6366C20.1055 13.5112 20.14 13.4278 20.14 13.2496C20.14 13.0715 20.1055 12.988 19.9802 12.8626L19.8203 12.7028L18.6541 12.7065C17.9893 12.7086 17.4389 12.7339 17.374 12.7654ZM25.0029 16.0891C24.8775 16.2145 24.843 16.2979 24.843 16.4761C24.843 16.6542 24.8775 16.7377 25.0029 16.8631C25.3551 17.2153 25.9367 16.9743 25.9367 16.4761C25.9367 16.2979 25.9022 16.2145 25.7769 16.0891C25.6515 15.9637 25.568 15.9292 25.3899 15.9292C25.2117 15.9292 25.1282 15.9637 25.0029 16.0891ZM11.1127 16.3625C10.9873 16.4879 10.9528 16.5713 10.9528 16.7495C10.9528 16.9277 10.9873 17.0111 11.1127 17.1365L11.2725 17.2964H15.5464H19.8203L19.9802 17.1365C20.2053 16.9114 20.2053 16.5876 19.9802 16.3625L19.8203 16.2027H15.5464H11.2725L11.1127 16.3625ZM4.11288 20.2999C3.98639 20.4264 3.95303 20.5082 3.95303 20.692C3.95303 20.9171 3.97606 20.9475 4.70245 21.6805L5.45186 22.4368L4.70245 23.1931C3.97606 23.9262 3.95303 23.9566 3.95303 24.1817C3.95303 24.5092 4.17746 24.7336 4.50498 24.7336C4.73006 24.7336 4.76047 24.7106 5.49353 23.9842L6.24984 23.2348L7.00614 23.9842C7.7392 24.7106 7.76961 24.7336 7.9947 24.7336C8.32221 24.7336 8.54664 24.5092 8.54664 24.1817C8.54664 23.9566 8.52362 23.9262 7.79723 23.1931L7.04781 22.4368L7.79723 21.6805C8.52362 20.9475 8.54664 20.9171 8.54664 20.692C8.54664 20.3645 8.32221 20.14 7.9947 20.14C7.76961 20.14 7.7392 20.1631 7.00614 20.8894L6.24984 21.6389L5.49353 20.8894C4.76047 20.1631 4.73006 20.14 4.50498 20.14C4.32118 20.14 4.23937 20.1734 4.11288 20.2999ZM11.1127 20.2999C10.9873 20.4253 10.9528 20.5087 10.9528 20.6869C10.9528 20.8651 10.9873 20.9485 11.1127 21.0739L11.2725 21.2337H13.3043H15.3361L15.4959 21.0739C15.721 20.8488 15.721 20.525 15.4959 20.2999L15.3361 20.14H13.3043H11.2725L11.1127 20.2999ZM17.374 20.2026C17.2339 20.2706 17.0776 20.5259 17.0776 20.6869C17.0776 20.8565 17.2365 21.1045 17.39 21.1744C17.4705 21.2111 17.9599 21.2337 18.6703 21.2337H19.8203L19.9802 21.0739C20.1055 20.9485 20.14 20.8651 20.14 20.6869C20.14 20.5087 20.1055 20.4253 19.9802 20.2999L19.8203 20.14L18.6541 20.1437C17.9893 20.1458 17.4389 20.1711 17.374 20.2026ZM11.1127 23.7998C10.9873 23.9252 10.9528 24.0086 10.9528 24.1868C10.9528 24.3649 10.9873 24.4484 11.1127 24.5738L11.2725 24.7336H15.5464H19.8203L19.9802 24.5738C20.2053 24.3487 20.2053 24.0249 19.9802 23.7998L19.8203 23.6399H15.5464H11.2725L11.1127 23.7998ZM27.5682 25.6528C27.3906 26.0837 26.9459 27.0304 26.9211 27.0304C26.8962 27.0304 26.4515 26.0837 26.274 25.6528C26.2639 25.6285 26.5551 25.6086 26.9211 25.6086C27.287 25.6086 27.5782 25.6285 27.5682 25.6528Z" fill="#B3B3B3"/>
  </g>
</svg>