<svg width="30" height="30" viewBox="0 0 30 30" fill="none" xmlns="http://www.w3.org/2000/svg">
<g opacity="0.68">
<path fill-rule="evenodd" clip-rule="evenodd" d="M8.44839 1.04832C7.98161 1.1781 7.57552 1.48579 7.36461 1.8695C7.25846 2.0627 7.24512 2.1329 7.24512 2.49887V2.91078H5.25387H3.26261L3.13131 3.02279L3 3.13479V8.00703V12.8793L3.13131 12.9913L3.26261 13.1033H5.42376C7.81082 13.1033 7.76437 13.1076 8.02006 12.8592C8.23232 12.653 8.24755 12.5413 8.13942 11.9852C8.08507 11.7056 8.30163 11.3889 8.63585 11.2594C9.07326 11.09 9.56668 11.2643 9.75859 11.6561C9.84457 11.8316 9.84564 11.9309 9.76443 12.1969C9.65603 12.5519 9.81577 12.8805 10.168 13.0272C10.346 13.1013 10.4518 13.1033 14.3233 13.1033H18.2959V13.5152C18.2959 13.8934 18.3067 13.9459 18.4281 14.157C18.5972 14.4514 18.9639 14.7642 19.2946 14.8964C19.5247 14.9884 19.6066 15 20.0263 15C20.4685 15 20.518 14.992 20.7947 14.8758C21.1509 14.7262 21.4664 14.4522 21.6345 14.1462C21.7417 13.9512 21.7549 13.8819 21.7549 13.5152V13.1033H23.7461H25.7374L25.8687 12.9913L26 12.8793V8.00703V3.13479L25.8687 3.02279L25.7374 2.91078H23.5762C21.1892 2.91078 21.2356 2.90642 20.9799 3.15483C20.7677 3.36102 20.7525 3.47271 20.8606 4.02885C20.9149 4.30846 20.6984 4.62515 20.3641 4.75463C19.9267 4.92411 19.4333 4.7498 19.2414 4.35797C19.1554 4.18243 19.1544 4.08311 19.2356 3.81711C19.3441 3.46179 19.1874 3.13295 18.8416 2.99014C18.6624 2.91619 18.5708 2.91078 17.4921 2.91078H16.3349L16.2036 3.02279C16.1006 3.11065 16.0723 3.16912 16.0723 3.29396C16.0723 3.4188 16.1006 3.47727 16.2036 3.56513L16.3349 3.67714H17.3154H18.2959V4.08986C18.2959 4.47782 18.3046 4.51771 18.4415 4.75486C18.6169 5.05868 18.9381 5.32779 19.2968 5.47117C19.5243 5.5621 19.6077 5.57386 20.0254 5.57386C20.4441 5.57386 20.5262 5.56221 20.7562 5.47029C21.0899 5.33687 21.477 5.00668 21.6335 4.72198C21.7418 4.52476 21.7549 4.45663 21.7549 4.08905V3.67714H23.4282H25.1016V8.00703V12.3369H23.2515C21.4721 12.3369 21.3941 12.34 21.2092 12.4163C20.8634 12.5591 20.7067 12.8879 20.8152 13.2433C20.8985 13.5161 20.8944 13.6266 20.794 13.8122C20.5907 14.1878 20.1142 14.3465 19.6866 14.1808C19.352 14.0511 19.1353 13.7338 19.1909 13.455C19.2827 12.9947 19.2758 12.8431 19.1552 12.6676C19.0756 12.5518 18.9764 12.472 18.8439 12.4172C18.656 12.3397 18.5858 12.3369 16.7993 12.3369H14.9492V10.7589C14.9492 9.24105 14.9457 9.17449 14.8562 9.01682C14.6888 8.72185 14.3032 8.58819 13.8867 8.68073C13.5748 8.75001 13.4584 8.74909 13.2526 8.67575C12.9315 8.56133 12.7051 8.28476 12.7051 8.00703C12.7051 7.59991 13.1885 7.23098 13.6384 7.29463C14.2904 7.38686 14.4214 7.37387 14.6631 7.19282C14.9378 6.98713 14.9492 6.93295 14.9492 5.84036V4.85908L14.8179 4.74708C14.633 4.58937 14.367 4.58937 14.1821 4.74708L14.0508 4.85908V5.69544V6.5318H13.5679C13.1369 6.5318 13.0571 6.54295 12.8259 6.63537C12.4921 6.7688 12.105 7.09898 11.9486 7.38368C11.8408 7.57987 11.8271 7.64987 11.8271 8.00703C11.8271 8.36335 11.8409 8.43443 11.9475 8.62847C12.1156 8.93443 12.4311 9.20848 12.7873 9.35807C13.0653 9.47483 13.1121 9.48226 13.5669 9.48226H14.0508V10.9096V12.3369H12.3774H10.7041V11.925C10.7041 11.5583 10.6909 11.489 10.5837 11.294C10.4156 10.988 10.1001 10.714 9.74394 10.5644C9.46713 10.4482 9.41785 10.4402 8.97461 10.4402C8.5302 10.4402 8.48263 10.4479 8.20168 10.5659C7.84977 10.7137 7.53477 10.9899 7.36178 11.3023C7.25873 11.4885 7.24512 11.5612 7.24512 11.925V12.3369H5.57178H3.89844V8.00703V3.67714H5.7485C7.5279 3.67714 7.60593 3.67411 7.79078 3.59778C8.13659 3.45497 8.29328 3.12613 8.18479 2.77081C8.10357 2.50481 8.10465 2.40549 8.19063 2.22996C8.32477 1.95606 8.64902 1.76294 8.97461 1.76294C9.45222 1.76294 9.88545 2.1762 9.80912 2.55907C9.71735 3.01934 9.72422 3.171 9.84479 3.34649C9.92439 3.46229 10.0236 3.54211 10.1561 3.59682C10.3382 3.672 10.4248 3.67714 11.5079 3.67714H12.6651L12.7964 3.56513C12.8994 3.47727 12.9277 3.4188 12.9277 3.29396C12.9277 3.16912 12.8994 3.11065 12.7964 3.02279L12.6651 2.91078H11.6846H10.7041V2.49887C10.7041 2.13129 10.691 2.06316 10.5827 1.86594C10.4251 1.57913 10.0387 1.25033 9.7054 1.11947C9.39234 0.996511 8.76289 0.960914 8.44839 1.04832ZM14.1821 3.02279C14.0791 3.11065 14.0508 3.16912 14.0508 3.29396C14.0508 3.64307 14.5285 3.81194 14.8179 3.56513C15.1073 3.31829 14.9093 2.91078 14.5 2.91078C14.3536 2.91078 14.2851 2.93496 14.1821 3.02279Z" fill="#B3B3B3"/>
<path d="M19.6058 10.3878C19.3984 10.3878 19.2109 10.3494 19.0433 10.2727C18.8757 10.1946 18.7429 10.0817 18.6449 9.93395C18.5483 9.78622 18.5 9.60511 18.5 9.39062C18.5 9.20597 18.5355 9.05398 18.6065 8.93466C18.6776 8.81534 18.7734 8.72088 18.8942 8.65128C19.0149 8.58168 19.1499 8.52912 19.299 8.49361C19.4482 8.4581 19.6001 8.43111 19.755 8.41264C19.951 8.38991 20.1101 8.37145 20.2322 8.35724C20.3544 8.34162 20.4432 8.31676 20.4986 8.28267C20.554 8.24858 20.5817 8.19318 20.5817 8.11648V8.10156C20.5817 7.91548 20.5291 7.77131 20.424 7.66903C20.3203 7.56676 20.1655 7.51562 19.9595 7.51562C19.745 7.51562 19.576 7.56321 19.4524 7.65838C19.3303 7.75213 19.2457 7.85653 19.1989 7.97159L18.6001 7.83523C18.6712 7.63636 18.7749 7.47585 18.9112 7.35369C19.049 7.23011 19.2074 7.14062 19.3864 7.08523C19.5653 7.02841 19.7536 7 19.951 7C20.0817 7 20.2202 7.01562 20.3665 7.04688C20.5142 7.0767 20.652 7.1321 20.7798 7.21307C20.9091 7.29403 21.0149 7.4098 21.0973 7.56037C21.1797 7.70952 21.2209 7.90341 21.2209 8.14205V10.3153H20.5987V9.8679H20.5732C20.532 9.95028 20.4702 10.0312 20.3878 10.1108C20.3054 10.1903 20.1996 10.2564 20.0703 10.3089C19.9411 10.3615 19.7862 10.3878 19.6058 10.3878ZM19.7443 9.87642C19.9205 9.87642 20.071 9.84162 20.196 9.77202C20.3224 9.70241 20.4183 9.61151 20.4837 9.49929C20.5504 9.38565 20.5838 9.2642 20.5838 9.13494V8.71307C20.5611 8.7358 20.517 8.7571 20.4517 8.77699C20.3878 8.79545 20.3146 8.81179 20.2322 8.82599C20.1499 8.83878 20.0696 8.85085 19.9915 8.86222C19.9134 8.87216 19.848 8.88068 19.7955 8.88778C19.6719 8.90341 19.5589 8.92969 19.4567 8.96662C19.3558 9.00355 19.2749 9.05682 19.2138 9.12642C19.1541 9.1946 19.1243 9.28551 19.1243 9.39915C19.1243 9.55682 19.1825 9.67614 19.299 9.7571C19.4155 9.83665 19.5639 9.87642 19.7443 9.87642Z" fill="#B3B3B3"/>
<path fill-rule="evenodd" clip-rule="evenodd" d="M8.44839 14.0483C7.98161 14.1781 7.57552 14.4858 7.36461 14.8695C7.25846 15.0627 7.24512 15.1329 7.24512 15.4989V15.9108H5.25387H3.26261L3.13131 16.0228L3 16.1348V21.007V25.8793L3.13131 25.9913L3.26261 26.1033H5.42376C7.81082 26.1033 7.76437 26.1076 8.02006 25.8592C8.23232 25.653 8.24755 25.5413 8.13942 24.9852C8.08507 24.7056 8.30163 24.3889 8.63585 24.2594C9.07326 24.09 9.56668 24.2643 9.75859 24.6561C9.84457 24.8316 9.84564 24.9309 9.76443 25.1969C9.65603 25.5519 9.81577 25.8805 10.168 26.0272C10.346 26.1013 10.4518 26.1033 14.3233 26.1033H18.2959V26.5152C18.2959 26.8934 18.3067 26.9459 18.4281 27.157C18.5972 27.4514 18.9639 27.7642 19.2946 27.8964C19.5247 27.9884 19.6066 28 20.0263 28C20.4685 28 20.518 27.992 20.7947 27.8758C21.1509 27.7262 21.4664 27.4522 21.6345 27.1462C21.7417 26.9512 21.7549 26.8819 21.7549 26.5152V26.1033H23.7461H25.7374L25.8687 25.9913L26 25.8793V21.007V16.1348L25.8687 16.0228L25.7374 15.9108H23.5762C21.1892 15.9108 21.2356 15.9064 20.9799 16.1548C20.7677 16.361 20.7525 16.4727 20.8606 17.0289C20.9149 17.3085 20.6984 17.6252 20.3641 17.7546C19.9267 17.9241 19.4333 17.7498 19.2414 17.358C19.1554 17.1824 19.1544 17.0831 19.2356 16.8171C19.3441 16.4618 19.1874 16.1329 18.8416 15.9901C18.6624 15.9162 18.5708 15.9108 17.4921 15.9108H16.3349L16.2036 16.0228C16.1006 16.1106 16.0723 16.1691 16.0723 16.294C16.0723 16.4188 16.1006 16.4773 16.2036 16.5651L16.3349 16.6771H17.3154H18.2959V17.0899C18.2959 17.4778 18.3046 17.5177 18.4415 17.7549C18.6169 18.0587 18.9381 18.3278 19.2968 18.4712C19.5243 18.5621 19.6077 18.5739 20.0254 18.5739C20.4441 18.5739 20.5262 18.5622 20.7562 18.4703C21.09 18.3369 21.477 18.0067 21.6335 17.722C21.7418 17.5248 21.7549 17.4566 21.7549 17.0891V16.6771H23.4282H25.1016V21.007V25.3369H23.2515C21.4721 25.3369 21.3941 25.34 21.2092 25.4163C20.8634 25.5591 20.7067 25.8879 20.8152 26.2433C20.8985 26.5161 20.8944 26.6266 20.794 26.8122C20.5907 27.1878 20.1142 27.3465 19.6866 27.1808C19.352 27.0511 19.1353 26.7338 19.1909 26.455C19.2827 25.9947 19.2758 25.8431 19.1552 25.6676C19.0756 25.5518 18.9764 25.472 18.8439 25.4172C18.656 25.3397 18.5858 25.3369 16.7993 25.3369H14.9492V23.7589C14.9492 22.2411 14.9457 22.1745 14.8562 22.0168C14.6888 21.7218 14.3032 21.5882 13.8867 21.6807C13.5748 21.75 13.4584 21.7491 13.2526 21.6758C12.9315 21.5613 12.7051 21.2848 12.7051 21.007C12.7051 20.5999 13.1885 20.231 13.6384 20.2946C14.2904 20.3869 14.4214 20.3739 14.6631 20.1928C14.9378 19.9871 14.9492 19.9329 14.9492 18.8404V17.8591L14.8179 17.7471C14.633 17.5894 14.367 17.5894 14.1821 17.7471L14.0508 17.8591V18.6954V19.5318H13.5679C13.1369 19.5318 13.0571 19.543 12.8259 19.6354C12.4921 19.7688 12.105 20.099 11.9486 20.3837C11.8408 20.5799 11.8271 20.6499 11.8271 21.007C11.8271 21.3633 11.8409 21.4344 11.9475 21.6285C12.1156 21.9344 12.4311 22.2085 12.7873 22.3581C13.0653 22.4748 13.1121 22.4823 13.5669 22.4823H14.0508V23.9096V25.3369H12.3774H10.7041V24.925C10.7041 24.5583 10.6909 24.489 10.5837 24.294C10.4156 23.988 10.1001 23.714 9.74394 23.5644C9.46713 23.4482 9.41785 23.4402 8.97461 23.4402C8.5302 23.4402 8.48263 23.4479 8.20168 23.5659C7.84977 23.7137 7.53477 23.9899 7.36178 24.3023C7.25873 24.4885 7.24512 24.5612 7.24512 24.925V25.3369H5.57178H3.89844V21.007V16.6771H5.7485C7.5279 16.6771 7.60593 16.6741 7.79078 16.5978C8.13659 16.455 8.29328 16.1261 8.18479 15.7708C8.10357 15.5048 8.10465 15.4055 8.19063 15.23C8.32477 14.9561 8.64902 14.7629 8.97461 14.7629C9.45222 14.7629 9.88545 15.1762 9.80912 15.5591C9.71735 16.0193 9.72422 16.171 9.84479 16.3465C9.92439 16.4623 10.0236 16.5421 10.1561 16.5968C10.3382 16.672 10.4248 16.6771 11.5079 16.6771H12.6651L12.7964 16.5651C12.8994 16.4773 12.9277 16.4188 12.9277 16.294C12.9277 16.1691 12.8994 16.1106 12.7964 16.0228L12.6651 15.9108H11.6846H10.7041V15.4989C10.7041 15.1313 10.691 15.0632 10.5827 14.8659C10.4251 14.5791 10.0387 14.2503 9.7054 14.1195C9.39234 13.9965 8.76289 13.9609 8.44839 14.0483ZM14.1821 16.0228C14.0791 16.1106 14.0508 16.1691 14.0508 16.294C14.0508 16.6431 14.5285 16.8119 14.8179 16.5651C15.1073 16.3183 14.9093 15.9108 14.5 15.9108C14.3536 15.9108 14.2851 15.935 14.1821 16.0228Z" fill="#B3B3B3"/>
<path d="M18.5 23.8636V19.5H19.1371V21.1214H19.1754C19.2124 21.0533 19.2656 20.9744 19.3352 20.8849C19.4048 20.7955 19.5014 20.7173 19.625 20.6506C19.7486 20.5824 19.9119 20.5483 20.1151 20.5483C20.3793 20.5483 20.6151 20.6151 20.8224 20.7486C21.0298 20.8821 21.1925 21.0746 21.3104 21.326C21.4297 21.5774 21.4893 21.88 21.4893 22.2337C21.4893 22.5874 21.4304 22.8906 21.3125 23.1435C21.1946 23.3949 21.0327 23.5888 20.8267 23.7251C20.6207 23.8601 20.3857 23.9276 20.1214 23.9276C19.9226 23.9276 19.7599 23.8942 19.6335 23.8274C19.5085 23.7607 19.4105 23.6825 19.3395 23.593C19.2685 23.5036 19.2138 23.424 19.1754 23.3544H19.1222V23.8636H18.5ZM19.1243 22.2273C19.1243 22.4574 19.1577 22.6591 19.2244 22.8324C19.2912 23.0057 19.3878 23.1413 19.5142 23.2393C19.6406 23.3359 19.7955 23.3842 19.9787 23.3842C20.169 23.3842 20.3281 23.3338 20.456 23.233C20.5838 23.1307 20.6804 22.9922 20.7457 22.8175C20.8125 22.6428 20.8459 22.446 20.8459 22.2273C20.8459 22.0114 20.8132 21.8175 20.7479 21.6456C20.6839 21.4737 20.5874 21.3381 20.4581 21.2386C20.3303 21.1392 20.1705 21.0895 19.9787 21.0895C19.794 21.0895 19.6378 21.1371 19.5099 21.2322C19.3835 21.3274 19.2876 21.4602 19.2223 21.6307C19.157 21.8011 19.1243 22 19.1243 22.2273Z" fill="#B3B3B3"/>
<path d="M9.5229 6.09091V9H8.90785V6.67472H8.8908L8.22461 7.09233V6.54688L8.94478 6.09091H9.5229Z" fill="#B3B3B3"/>
<path d="M7.97603 22V21.5568L9.01154 20.598C9.09961 20.5128 9.17347 20.4361 9.23313 20.3679C9.29374 20.2997 9.33967 20.233 9.37092 20.1676C9.40217 20.1013 9.41779 20.0298 9.41779 19.9531C9.41779 19.8679 9.39838 19.7945 9.35955 19.733C9.32073 19.6705 9.2677 19.6226 9.20046 19.5895C9.13323 19.5554 9.057 19.5384 8.97177 19.5384C8.88275 19.5384 8.8051 19.5563 8.73881 19.5923C8.67253 19.6283 8.62139 19.6799 8.5854 19.7472C8.54942 19.8144 8.53143 19.8944 8.53143 19.9872H7.94762C7.94762 19.7969 7.99071 19.6316 8.07688 19.4915C8.16306 19.3513 8.28379 19.2429 8.4391 19.1662C8.5944 19.0895 8.77338 19.0511 8.97603 19.0511C9.18436 19.0511 9.36571 19.0881 9.52006 19.1619C9.67537 19.2348 9.79611 19.3362 9.88228 19.4659C9.96845 19.5956 10.0115 19.7443 10.0115 19.9119C10.0115 20.0218 9.98976 20.1302 9.9462 20.2372C9.90359 20.3442 9.82736 20.4631 9.71751 20.5938C9.60766 20.7235 9.45283 20.8793 9.25302 21.0611L8.8283 21.4773V21.4972H10.0499V22H7.97603Z" fill="#B3B3B3"/>
</g>
</svg>
