<svg xmlns="http://www.w3.org/2000/svg" width="28" height="28" viewBox="0 0 28 28" fill="none">
  <path fill-rule="evenodd" clip-rule="evenodd" d="M0.881954 2.3693C0.553711 2.4952 0.220328 2.83253 0.0957508 3.16482L0 3.42028V14V24.5797L0.0957508 24.8351C0.223541 25.176 0.553482 25.5053 0.895036 25.6329C1.15098 25.7284 1.15135 25.7284 9.27213 25.7284C17.3929 25.7284 17.3933 25.7284 17.6492 25.6329C17.9908 25.5053 18.3207 25.176 18.4485 24.8351L18.5443 24.5797V14V3.42028L18.4485 3.16482C18.3207 2.82391 17.9908 2.4946 17.6492 2.36705L17.3933 2.27148L9.25891 2.27387C1.19633 2.27625 1.12243 2.27707 0.881954 2.3693ZM17.331 3.25484C17.6495 3.38771 17.6262 2.53918 17.6262 14C17.6262 25.4608 17.6495 24.6122 17.331 24.7451C17.0883 24.8463 1.45595 24.8463 1.21327 24.7451C0.894715 24.6122 0.918033 25.4608 0.918033 14C0.918033 2.5773 0.896459 3.38981 1.20322 3.25681C1.43337 3.15698 17.0918 3.15511 17.331 3.25484Z" fill="#B3B3B3"/>
  <path d="M2.11328 15.4501C2.11328 15.3181 2.13728 15.2593 2.22828 15.1685C2.31929 15.0777 2.37815 15.0537 2.51038 15.0537C2.67232 15.0537 2.6942 15.0702 3.22161 15.5919L3.76574 16.13L4.30987 15.5919C4.83728 15.0702 4.85916 15.0537 5.0211 15.0537C5.25673 15.0537 5.4182 15.2149 5.4182 15.4501C5.4182 15.6117 5.40163 15.6335 4.87903 16.1599L4.33985 16.703L4.87903 17.2461C5.40163 17.7725 5.4182 17.7944 5.4182 17.956C5.4182 18.1912 5.25673 18.3523 5.0211 18.3523C4.85916 18.3523 4.83728 18.3358 4.30987 17.8142L3.76574 17.276L3.22161 17.8142C2.6942 18.3358 2.67232 18.3523 2.51038 18.3523C2.27475 18.3523 2.11328 18.1912 2.11328 17.956C2.11328 17.7944 2.12985 17.7725 2.65246 17.2461L3.19163 16.703L2.65246 16.1599C2.12985 15.6335 2.11328 15.6117 2.11328 15.4501Z" fill="#B3B3B3"/>
  <path d="M7.61914 11.3268C7.61914 11.1948 7.64314 11.136 7.73414 11.0452C7.82515 10.9544 7.88401 10.9304 8.01624 10.9304C8.17818 10.9304 8.20006 10.947 8.72747 11.4686L9.2716 12.0067L9.81573 11.4686C10.3431 10.947 10.365 10.9304 10.527 10.9304C10.7626 10.9304 10.9241 11.0916 10.9241 11.3268C10.9241 11.4884 10.9075 11.5102 10.3849 12.0366L9.84571 12.5797L10.3849 13.1228C10.9075 13.6492 10.9241 13.6711 10.9241 13.8327C10.9241 14.0679 10.7626 14.2291 10.527 14.2291C10.365 14.2291 10.3431 14.2125 9.81573 13.6909L9.2716 13.1528L8.72747 13.6909C8.20006 14.2125 8.17818 14.2291 8.01624 14.2291C7.78061 14.2291 7.61914 14.0679 7.61914 13.8327C7.61914 13.6711 7.6357 13.6492 8.15831 13.1228L8.69749 12.5797L8.15831 12.0366C7.6357 11.5102 7.61914 11.4884 7.61914 11.3268Z" fill="#B3B3B3"/>
  <path d="M13.082 11.3268C13.082 11.1948 13.106 11.136 13.197 11.0452C13.288 10.9544 13.3469 10.9304 13.4791 10.9304C13.6411 10.9304 13.6629 10.947 14.1904 11.4686L14.7345 12.0067L15.2786 11.4686C15.806 10.947 15.8279 10.9304 15.9898 10.9304C16.2255 10.9304 16.3869 11.0916 16.3869 11.3268C16.3869 11.4884 16.3704 11.5102 15.8478 12.0366L15.3086 12.5797L15.8478 13.1228C16.3704 13.6492 16.3869 13.6711 16.3869 13.8327C16.3869 14.0679 16.2255 14.2291 15.9898 14.2291C15.8279 14.2291 15.806 14.2125 15.2786 13.6909L14.7345 13.1528L14.1904 13.6909C13.6629 14.2125 13.6411 14.2291 13.4791 14.2291C13.2435 14.2291 13.082 14.0679 13.082 13.8327C13.082 13.6711 13.0986 13.6492 13.6212 13.1228L14.1604 12.5797L13.6212 12.0366C13.0986 11.5102 13.082 11.4884 13.082 11.3268Z" fill="#B3B3B3"/>
  <path d="M2.11328 20.3981C2.11328 20.2661 2.13728 20.2073 2.22828 20.1165C2.31929 20.0257 2.37815 20.0017 2.51038 20.0017C2.67232 20.0017 2.6942 20.0182 3.22161 20.5399L3.76574 21.078L4.30987 20.5399C4.83728 20.0182 4.85916 20.0017 5.0211 20.0017C5.25673 20.0017 5.4182 20.1629 5.4182 20.3981C5.4182 20.5597 5.40163 20.5815 4.87903 21.1079L4.33985 21.651L4.87903 22.1941C5.40163 22.7205 5.4182 22.7424 5.4182 22.904C5.4182 23.1392 5.25673 23.3003 5.0211 23.3003C4.85916 23.3003 4.83728 23.2838 4.30987 22.7622L3.76574 22.224L3.22161 22.7622C2.6942 23.2838 2.67232 23.3003 2.51038 23.3003C2.27475 23.3003 2.11328 23.1392 2.11328 22.904C2.11328 22.7424 2.12985 22.7205 2.65246 22.1941L3.19163 21.651L2.65246 21.1079C2.12985 20.5815 2.11328 20.5597 2.11328 20.3981Z" fill="#B3B3B3"/>
  <path d="M7.61914 20.3981C7.61914 20.2661 7.64314 20.2073 7.73414 20.1165C7.82515 20.0257 7.88401 20.0017 8.01624 20.0017C8.17818 20.0017 8.20006 20.0182 8.72747 20.5399L9.2716 21.078L9.81573 20.5399C10.3431 20.0182 10.365 20.0017 10.527 20.0017C10.7626 20.0017 10.9241 20.1629 10.9241 20.3981C10.9241 20.5597 10.9075 20.5815 10.3849 21.1079L9.84571 21.651L10.3849 22.1941C10.9075 22.7205 10.9241 22.7424 10.9241 22.904C10.9241 23.1392 10.7626 23.3003 10.527 23.3003C10.365 23.3003 10.3431 23.2838 9.81573 22.7622L9.2716 22.224L8.72747 22.7622C8.20006 23.2838 8.17818 23.3003 8.01624 23.3003C7.78061 23.3003 7.61914 23.1392 7.61914 22.904C7.61914 22.7424 7.6357 22.7205 8.15831 22.1941L8.69749 21.651L8.15831 21.1079C7.6357 20.5815 7.61914 20.5597 7.61914 20.3981Z" fill="#B3B3B3"/>
  <path d="M13.082 20.3981C13.082 20.2661 13.106 20.2073 13.197 20.1165C13.288 20.0257 13.3469 20.0017 13.4791 20.0017C13.6411 20.0017 13.6629 20.0182 14.1904 20.5399L14.7345 21.078L15.2786 20.5399C15.806 20.0182 15.8279 20.0017 15.9898 20.0017C16.2255 20.0017 16.3869 20.1629 16.3869 20.3981C16.3869 20.5597 16.3704 20.5815 15.8478 21.1079L15.3086 21.651L15.8478 22.1941C16.3704 22.7205 16.3869 22.7424 16.3869 22.904C16.3869 23.1392 16.2255 23.3003 15.9898 23.3003C15.8279 23.3003 15.806 23.2838 15.2786 22.7622L14.7345 22.224L14.1904 22.7622C13.6629 23.2838 13.6411 23.3003 13.4791 23.3003C13.2435 23.3003 13.082 23.1392 13.082 22.904C13.082 22.7424 13.0986 22.7205 13.6212 22.1941L14.1604 21.651L13.6212 21.1079C13.0986 20.5815 13.082 20.5597 13.082 20.3981Z" fill="#B3B3B3"/>
  <path d="M2.11328 5.47841C2.11328 5.32914 2.14225 5.25923 2.24745 5.15418L2.38162 5.02026H4.08705H5.79248L5.92665 5.15418C6.11558 5.34275 6.11558 5.61406 5.92665 5.80264L5.79248 5.93655H4.08705H2.38162L2.24745 5.80264C2.14225 5.69758 2.11328 5.62767 2.11328 5.47841Z" fill="#B3B3B3"/>
  <path d="M7.25426 5.47841C7.25426 5.34353 7.38541 5.12967 7.50305 5.07272C7.55749 5.04633 8.01949 5.02512 8.57747 5.02338L9.55642 5.02026L9.69059 5.15418C9.79579 5.25923 9.82476 5.32914 9.82476 5.47841C9.82476 5.62767 9.79579 5.69758 9.69059 5.80264L9.55642 5.93655H8.5911C7.9948 5.93655 7.58402 5.91754 7.51646 5.88684C7.38766 5.82825 7.25426 5.62048 7.25426 5.47841Z" fill="#B3B3B3"/>
  <path d="M2.11328 8.41053C2.11328 8.26126 2.14225 8.19135 2.24745 8.0863L2.38162 7.95238H5.96902H9.55642L9.69059 8.0863C9.87952 8.27487 9.87952 8.54618 9.69059 8.73476L9.55642 8.86867H5.96902H2.38162L2.24745 8.73476C2.14225 8.6297 2.11328 8.55979 2.11328 8.41053Z" fill="#B3B3B3"/>
  <path d="M10.9727 5.47841C10.9727 5.32914 11.0016 5.25923 11.1068 5.15418L11.241 5.02026H12.9464H16.1207L16.2549 5.15418C16.4438 5.34275 16.4438 5.61406 16.2549 5.80264L16.1207 5.93655H12.9464H11.241L11.1068 5.80264C11.0016 5.69758 10.9727 5.62767 10.9727 5.47841Z" fill="#B3B3B3"/>
  <path d="M10.9727 8.41053C10.9727 8.26126 11.0016 8.19135 11.1068 8.0863L11.241 7.95238H14.8284H16.1207L16.2549 8.0863C16.4438 8.27487 16.4438 8.54618 16.2549 8.73476L16.1207 8.86867H14.8284H11.241L11.1068 8.73476C11.0016 8.6297 10.9727 8.55979 10.9727 8.41053Z" fill="#B3B3B3"/>
  <path d="M3.33449 12.4381L4.0934 11.6843C4.84129 10.9413 4.85475 10.9304 5.02023 10.9304C5.25783 10.9304 5.4182 11.0911 5.4182 11.329C5.4182 11.4974 5.41446 11.5018 4.4632 12.4512L3.50823 13.4044H3.33366C3.16216 13.4044 3.15004 13.3953 2.63621 12.8825C2.12788 12.3751 2.11328 12.3559 2.11328 12.1922C2.11328 11.9563 2.27416 11.7943 2.50849 11.7943C2.66225 11.7943 2.69664 11.8167 3.00411 12.1162L3.33449 12.4381Z" fill="#B3B3B3"/>
  <path d="M8.84035 17.3861L9.59926 16.6323C10.3472 15.8893 10.3606 15.8784 10.5261 15.8784C10.7637 15.8784 10.9241 16.0391 10.9241 16.277C10.9241 16.4454 10.9203 16.4497 9.96905 17.3992L9.01409 18.3524H8.83952C8.66802 18.3524 8.6559 18.3433 8.14207 17.8305C7.63374 17.3231 7.61914 17.3039 7.61914 17.1402C7.61914 16.9043 7.78002 16.7423 8.01435 16.7423C8.16811 16.7423 8.2025 16.7647 8.50997 17.0642L8.84035 17.3861Z" fill="#B3B3B3"/>
  <path d="M14.3032 17.3861L15.0621 16.6323C15.81 15.8893 15.8235 15.8784 15.989 15.8784C16.2266 15.8784 16.3869 16.0391 16.3869 16.277C16.3869 16.4454 16.3832 16.4497 15.4319 17.3992L14.477 18.3524H14.3024C14.1309 18.3524 14.1188 18.3433 13.605 17.8305C13.0966 17.3231 13.082 17.3039 13.082 17.1402C13.082 16.9043 13.2429 16.7423 13.4772 16.7423C13.631 16.7423 13.6654 16.7647 13.9729 17.0642L14.3032 17.3861Z" fill="#B3B3B3"/>
  <circle cx="24.2539" cy="13.7818" r="0.367213" fill="#B3B3B3"/>
  <path d="M23.1388 14.7705C22.8571 15.0605 22.6394 15.4401 22.4857 15.9093C22.3363 16.3785 22.2573 17.0097 22.2488 17.803V17.803C22.2488 17.8702 22.3032 17.9246 22.3703 17.9246H23.9585C24.0257 17.9246 24.0801 17.8702 24.0801 17.803V17.803C24.0886 17.3125 24.1441 16.9009 24.2466 16.5683C24.349 16.2356 24.5112 15.9477 24.7332 15.7046C24.9594 15.4614 25.254 15.2269 25.6168 15.0008C26.001 14.7705 26.3297 14.5061 26.6029 14.2075C26.8804 13.9089 27.0938 13.5698 27.2432 13.1902C27.3926 12.8064 27.4673 12.3756 27.4673 11.8979C27.4673 11.2027 27.303 10.5949 26.9743 10.0745C26.6499 9.54993 26.1931 9.14261 25.604 8.85258C25.0149 8.55828 24.3277 8.41113 23.5422 8.41113C22.8251 8.41113 22.1698 8.54762 21.5765 8.82059C20.9874 9.09356 20.5135 9.49662 20.155 10.0298C19.8968 10.4106 19.7238 10.8533 19.636 11.358C19.578 11.6917 19.854 11.9747 20.1927 11.9747H20.9602C21.2745 11.9747 21.5244 11.7272 21.6072 11.4241C21.6649 11.2127 21.7486 11.0274 21.8582 10.8679C22.0546 10.5778 22.3021 10.3646 22.601 10.2281C22.8998 10.0916 23.2135 10.0234 23.5422 10.0234C23.9051 10.0234 24.2338 10.1001 24.5283 10.2537C24.8271 10.403 25.0662 10.6162 25.2455 10.8935C25.4247 11.1707 25.5144 11.4991 25.5144 11.8787C25.5144 12.1943 25.4546 12.4822 25.3351 12.7424M23.2157 21.8144C22.8656 21.8144 22.5647 21.6907 22.3128 21.4433C22.061 21.1917 21.935 20.8889 21.935 20.5349C21.935 20.1851 22.061 19.8866 22.3128 19.6392C22.5647 19.3875 22.8656 19.2617 23.2157 19.2617C23.5614 19.2617 23.8602 19.3875 24.1121 19.6392C24.3682 19.8866 24.4963 20.1851 24.4963 20.5349C24.4963 20.7694 24.4365 20.9848 24.317 21.181C24.2017 21.373 24.0481 21.5265 23.856 21.6417C23.6639 21.7568 23.4504 21.8144 23.2157 21.8144Z" stroke="#B3B3B3" stroke-width="0.780328" stroke-linecap="round"/>
</svg>