<svg xmlns="http://www.w3.org/2000/svg" width="30" height="30" viewBox="0 0 30 30" fill="none">
  <g opacity="0.68">
    <path d="M16.723 11.4649H13.203C12.784 11.4649 12.4009 11.2526 12.1803 10.8943C11.9598 10.536 11.9405 10.1005 12.128 9.72282L12.6021 8.77185C12.7564 8.46313 13.0045 8.27018 13.2829 8.23986C13.5613 8.20954 13.8452 8.34736 14.0602 8.61473L14.1209 8.69191C14.2422 8.84076 14.3827 8.9207 14.5206 8.90692C14.6584 8.89589 14.7852 8.79666 14.8789 8.62852L15.3999 7.68858C15.6149 7.29992 15.9015 7.0987 16.213 7.11248C16.5217 7.12902 16.7864 7.36056 16.9628 7.76851L17.8255 9.78347C17.9854 10.1556 17.9468 10.5801 17.7235 10.9191C17.503 11.2637 17.1282 11.4649 16.723 11.4649ZM13.3601 8.65332C13.3491 8.65332 13.3381 8.65332 13.327 8.65608C13.1892 8.66986 13.0624 8.78012 12.9714 8.95929L12.4973 9.91026C12.3733 10.1556 12.3871 10.445 12.5304 10.6793C12.6738 10.9136 12.9273 11.0542 13.203 11.0542H16.7202C16.9903 11.0542 17.2301 10.9246 17.379 10.6986C17.5278 10.4726 17.5526 10.2024 17.4451 9.95436L16.5824 7.93941C16.4776 7.69133 16.3315 7.53973 16.191 7.53422C16.0614 7.52595 15.8933 7.66377 15.761 7.89807L15.24 8.83801C15.0801 9.12468 14.8293 9.30384 14.5564 9.32865C14.2835 9.3507 14.0051 9.21839 13.7984 8.95929L13.7377 8.88211C13.622 8.7305 13.4897 8.65332 13.3601 8.65332Z" fill="#B3B3B3"/>
    <path d="M13.5825 7.60591C13.0147 7.60591 12.5488 7.14282 12.5488 6.57224C12.5488 6.00166 13.0119 5.53857 13.5825 5.53857C14.1531 5.53857 14.6162 6.00166 14.6162 6.57224C14.6162 7.14282 14.1531 7.60591 13.5825 7.60591ZM13.5825 5.95204C13.2407 5.95204 12.9623 6.23044 12.9623 6.57224C12.9623 6.91404 13.2407 7.19244 13.5825 7.19244C13.9243 7.19244 14.2027 6.91404 14.2027 6.57224C14.2027 6.23044 13.9243 5.95204 13.5825 5.95204Z" fill="#B3B3B3"/>
    <circle cx="4" cy="24" r="3.575" stroke="#B3B3B3" stroke-width="0.85"/>
    <circle cx="15" cy="24" r="3.575" stroke="#B3B3B3" stroke-width="0.85"/>
    <circle cx="26" cy="24" r="3.575" stroke="#B3B3B3" stroke-width="0.85"/>
    <path d="M3.57082 24.2677L4.32973 23.5139C5.07762 22.7709 5.09108 22.76 5.25656 22.76C5.49416 22.76 5.65453 22.9207 5.65453 23.1586C5.65453 23.327 5.65079 23.3313 4.69952 24.2808L3.74456 25.234H3.56999C3.39849 25.234 3.38637 25.2249 2.87253 24.7121C2.36421 24.2047 2.34961 24.1855 2.34961 24.0218C2.34961 23.7859 2.51049 23.6239 2.74482 23.6239C2.89858 23.6239 2.93297 23.6463 3.24044 23.9458L3.57082 24.2677Z" fill="#B3B3B3"/>
    <path d="M13.3496 22.7464C13.3496 22.6145 13.3736 22.5557 13.4646 22.4649C13.5556 22.3741 13.6145 22.3501 13.7467 22.3501C13.9087 22.3501 13.9305 22.3666 14.4579 22.8882L15.0021 23.4264L15.5462 22.8882C16.0736 22.3666 16.0955 22.3501 16.2574 22.3501C16.4931 22.3501 16.6545 22.5113 16.6545 22.7464C16.6545 22.9081 16.638 22.9299 16.1154 23.4563L15.5762 23.9994L16.1154 24.5425C16.638 25.0689 16.6545 25.0908 16.6545 25.2524C16.6545 25.4876 16.4931 25.6487 16.2574 25.6487C16.0955 25.6487 16.0736 25.6322 15.5462 25.1106L15.0021 24.5724L14.4579 25.1106C13.9305 25.6322 13.9087 25.6487 13.7467 25.6487C13.5111 25.6487 13.3496 25.4876 13.3496 25.2524C13.3496 25.0908 13.3662 25.0689 13.8888 24.5425L14.428 23.9994L13.8888 23.4563C13.3662 22.9299 13.3496 22.9081 13.3496 22.7464Z" fill="#B3B3B3"/>
    <path d="M24.3496 22.7464C24.3496 22.6145 24.3736 22.5557 24.4646 22.4649C24.5556 22.3741 24.6145 22.3501 24.7467 22.3501C24.9087 22.3501 24.9305 22.3666 25.4579 22.8882L26.0021 23.4264L26.5462 22.8882C27.0736 22.3666 27.0955 22.3501 27.2574 22.3501C27.4931 22.3501 27.6545 22.5113 27.6545 22.7464C27.6545 22.9081 27.638 22.9299 27.1154 23.4563L26.5762 23.9994L27.1154 24.5425C27.638 25.0689 27.6545 25.0908 27.6545 25.2524C27.6545 25.4876 27.4931 25.6487 27.2574 25.6487C27.0955 25.6487 27.0736 25.6322 26.5462 25.1106L26.0021 24.5724L25.4579 25.1106C24.9305 25.6322 24.9087 25.6487 24.7467 25.6487C24.5111 25.6487 24.3496 25.4876 24.3496 25.2524C24.3496 25.0908 24.3662 25.0689 24.8888 24.5425L25.428 23.9994L24.8888 23.4563C24.3662 22.9299 24.3496 22.9081 24.3496 22.7464Z" fill="#B3B3B3"/>
    <rect x="9.42308" y="3.42308" width="11.1538" height="10.1538" rx="0.423077" stroke="#B3B3B3" stroke-width="0.846154"/>
    <path d="M14.7 20C14.7 20.1657 14.8343 20.3 15 20.3C15.1657 20.3 15.3 20.1657 15.3 20H14.7ZM15.2121 14.7879C15.095 14.6707 14.905 14.6707 14.7879 14.7879L12.8787 16.6971C12.7615 16.8142 12.7615 17.0042 12.8787 17.1213C12.9958 17.2385 13.1858 17.2385 13.3029 17.1213L15 15.4243L16.6971 17.1213C16.8142 17.2385 17.0042 17.2385 17.1213 17.1213C17.2385 17.0042 17.2385 16.8142 17.1213 16.6971L15.2121 14.7879ZM15.3 20V15H14.7V20H15.3Z" fill="#B3B3B3"/>
    <path d="M25.7 20.5C25.7 20.6657 25.8343 20.8 26 20.8C26.1657 20.8 26.3 20.6657 26.3 20.5H25.7ZM22.7879 8.28787C22.6707 8.40503 22.6707 8.59497 22.7879 8.71213L24.6971 10.6213C24.8142 10.7385 25.0042 10.7385 25.1213 10.6213C25.2385 10.5042 25.2385 10.3142 25.1213 10.1971L23.4243 8.5L25.1213 6.80294C25.2385 6.68579 25.2385 6.49584 25.1213 6.37868C25.0042 6.26152 24.8142 6.26152 24.6971 6.37868L22.7879 8.28787ZM26.3 20.5V9.5H25.7V20.5H26.3ZM25 8.2H23V8.8H25V8.2ZM26.3 9.5C26.3 8.78203 25.718 8.2 25 8.2V8.8C25.3866 8.8 25.7 9.1134 25.7 9.5H26.3Z" fill="#B3B3B3"/>
    <path d="M4.3 20.5C4.3 20.6657 4.16569 20.8 4 20.8C3.83431 20.8 3.7 20.6657 3.7 20.5H4.3ZM7.21213 8.28787C7.32929 8.40503 7.32929 8.59497 7.21213 8.71213L5.30294 10.6213C5.18579 10.7385 4.99584 10.7385 4.87868 10.6213C4.76152 10.5042 4.76152 10.3142 4.87868 10.1971L6.57574 8.5L4.87868 6.80294C4.76152 6.68579 4.76152 6.49584 4.87868 6.37868C4.99584 6.26152 5.18579 6.26152 5.30294 6.37868L7.21213 8.28787ZM3.7 20.5L3.7 9.5H4.3L4.3 20.5H3.7ZM5 8.2H7V8.8H5V8.2ZM3.7 9.5C3.7 8.78203 4.28203 8.2 5 8.2V8.8C4.6134 8.8 4.3 9.1134 4.3 9.5H3.7Z" fill="#B3B3B3"/>
  </g>
</svg>