<svg xmlns="http://www.w3.org/2000/svg" width="30" height="30" viewBox="0 0 30 30" fill="none">
  <g opacity="0.68">
    <path fill-rule="evenodd" clip-rule="evenodd" d="M15.9526 2.07254C15.6234 2.18996 15.3448 2.44149 15.1612 2.78683L15.0263 3.04065V5.93417V8.82769L15.1446 9.0677C15.3029 9.38919 15.6937 9.73367 16.0011 9.82291C16.2029 9.88149 17.1667 9.89372 21.5771 9.89372H26.9091L27.1998 9.75103C27.3597 9.67255 27.5698 9.51569 27.6668 9.40244C28.0044 9.00821 28.0009 9.0442 28.0009 5.90788V3.08223L27.8442 2.76886C27.6775 2.4354 27.5025 2.27128 27.1362 2.10518C26.9438 2.01797 26.8023 2.00208 26.2109 2.00112L25.5126 2V2.37565V2.75125L26.1601 2.76907C26.8465 2.7879 26.9499 2.82044 27.1296 3.07405C27.205 3.18051 27.2153 3.473 27.2282 5.86828C27.2441 8.82967 27.2462 8.8082 26.9249 9.00404C26.7592 9.10506 26.6829 9.10654 21.534 9.10669C15.7645 9.10689 16.0711 9.1243 15.8933 8.78693C15.8156 8.63946 15.8092 8.37321 15.8233 5.876C15.8383 3.21066 15.8419 3.12395 15.9404 3.01354C16.1701 2.75602 16.0705 2.76145 20.5852 2.76145H24.8017V2.38073V2L20.4726 2.00223C16.9849 2.00401 16.1064 2.01772 15.9526 2.07254ZM16.0105 11.106C15.5322 11.2769 15.2145 11.6043 15.0766 12.0687C14.963 12.451 14.9645 17.5452 15.0784 17.9283C15.1836 18.2823 15.4275 18.5832 15.7626 18.7722L16.0419 18.9296L21.3959 18.9432C26.0304 18.955 26.7851 18.9466 27.0116 18.8807C27.3232 18.7902 27.7021 18.4762 27.8634 18.1747C27.9754 17.9654 27.9755 17.9614 27.9755 14.9955C27.9755 12.0295 27.9754 12.0255 27.8634 11.8162C27.7046 11.5195 27.3248 11.2025 27.0194 11.1118C26.7994 11.0465 26.0259 11.0362 21.479 11.0381C17.291 11.0399 16.1561 11.054 16.0105 11.106ZM26.9592 11.9582C27.2387 12.178 27.2392 12.183 27.2392 14.9955C27.2392 17.8079 27.2387 17.8129 26.9592 18.0327L26.8192 18.1428H21.5423C15.7483 18.1428 16.0557 18.1593 15.8904 17.8399C15.775 17.6167 15.7748 12.3746 15.8902 12.1515C16.0537 11.8355 15.7382 11.8524 21.5321 11.8502L26.8192 11.8481L26.9592 11.9582ZM16.1943 20.1185C15.8845 20.1723 15.6356 20.3122 15.4053 20.5619C15.0066 20.9943 15.0263 20.8128 15.0263 24.0567V26.9503L15.1627 27.2086C15.3058 27.4798 15.5504 27.7252 15.8268 27.8751C15.9579 27.9461 16.148 27.9678 16.7656 27.9821L17.54 28V27.6188V27.2375L16.8833 27.2208C16.3117 27.2063 16.2081 27.1903 16.0835 27.0977C15.81 26.8943 15.815 26.9506 15.8142 24.0392C15.8135 21.577 15.8213 21.3178 15.9 21.1845C16.0866 20.8689 15.8044 20.884 21.534 20.8842C26.6829 20.8844 26.7592 20.8859 26.9249 20.9869C27.2462 21.1827 27.2441 21.1612 27.2282 24.1226C27.2125 27.0347 27.2252 26.9084 26.9265 27.1199C26.8184 27.1964 26.4183 27.2053 22.5292 27.2179L18.2509 27.2317V27.6113V27.9909L22.58 27.9898C26.7486 27.9887 26.9171 27.985 27.1252 27.8906C27.4849 27.7274 27.6851 27.5404 27.847 27.2165L28.0009 26.9087V24.083C28.0009 20.9467 28.0044 20.9827 27.6668 20.5885C27.5698 20.4752 27.3597 20.3184 27.1998 20.2399L26.9091 20.0972L21.6533 20.0902C18.7625 20.0863 16.306 20.099 16.1943 20.1185Z" fill="#B3B3B3"/>
    <path d="M25.2027 17.0188H22.8158C22.5316 17.0188 22.2718 16.8749 22.1223 16.6319C21.9728 16.3889 21.9597 16.0935 22.0868 15.8375L22.4083 15.1926C22.513 14.9832 22.6812 14.8524 22.87 14.8318C23.0588 14.8113 23.2513 14.9047 23.3971 15.086L23.4382 15.1384C23.5204 15.2393 23.6158 15.2935 23.7092 15.2842C23.8027 15.2767 23.8887 15.2094 23.9522 15.0954L24.3055 14.458C24.4513 14.1944 24.6457 14.058 24.8569 14.0673C25.0663 14.0786 25.2457 14.2356 25.3653 14.5122L25.9504 15.8786C26.0588 16.1309 26.0326 16.4188 25.8812 16.6487C25.7317 16.8823 25.4775 17.0188 25.2027 17.0188ZM22.9223 15.1122C22.9148 15.1122 22.9074 15.1122 22.8999 15.1141C22.8064 15.1234 22.7204 15.1982 22.6588 15.3197L22.3373 15.9646C22.2531 16.1309 22.2625 16.3272 22.3597 16.4861C22.4569 16.6449 22.6288 16.7403 22.8158 16.7403H25.2008C25.384 16.7403 25.5466 16.6524 25.6476 16.4991C25.7485 16.3459 25.7653 16.1627 25.6924 15.9945L25.1074 14.6281C25.0363 14.4599 24.9373 14.3571 24.8419 14.3533C24.7541 14.3477 24.6401 14.4412 24.5504 14.6001L24.1971 15.2374C24.0887 15.4318 23.9186 15.5533 23.7335 15.5702C23.5485 15.5851 23.3597 15.4954 23.2195 15.3197L23.1784 15.2674C23.0999 15.1645 23.0102 15.1122 22.9223 15.1122Z" fill="#B3B3B3"/>
    <path d="M25.2027 26.0188H22.8158C22.5316 26.0188 22.2718 25.8749 22.1223 25.6319C21.9728 25.3889 21.9597 25.0935 22.0868 24.8375L22.4083 24.1926C22.513 23.9832 22.6812 23.8524 22.87 23.8318C23.0588 23.8113 23.2513 23.9047 23.3971 24.086L23.4382 24.1384C23.5204 24.2393 23.6158 24.2935 23.7092 24.2842C23.8027 24.2767 23.8887 24.2094 23.9522 24.0954L24.3055 23.458C24.4513 23.1944 24.6457 23.058 24.8569 23.0673C25.0663 23.0786 25.2457 23.2356 25.3653 23.5122L25.9504 24.8786C26.0588 25.1309 26.0326 25.4188 25.8812 25.6487C25.7317 25.8823 25.4775 26.0188 25.2027 26.0188ZM22.9223 24.1122C22.9148 24.1122 22.9074 24.1122 22.8999 24.1141C22.8064 24.1234 22.7204 24.1982 22.6588 24.3197L22.3373 24.9646C22.2531 25.1309 22.2625 25.3272 22.3597 25.4861C22.4569 25.6449 22.6288 25.7403 22.8158 25.7403H25.2008C25.384 25.7403 25.5466 25.6524 25.6476 25.4991C25.7485 25.3459 25.7653 25.1627 25.6924 24.9945L25.1074 23.6281C25.0363 23.4599 24.9373 23.3571 24.8419 23.3533C24.7541 23.3477 24.6401 23.4412 24.5504 23.6001L24.1971 24.2374C24.0887 24.4318 23.9186 24.5533 23.7335 24.5702C23.5485 24.5851 23.3597 24.4954 23.2195 24.3197L23.1784 24.2674C23.0999 24.1645 23.0102 24.1122 22.9223 24.1122Z" fill="#B3B3B3"/>
    <path d="M25.2027 8.01878H22.8158C22.5316 8.01878 22.2718 7.87485 22.1223 7.63186C21.9728 7.38886 21.9597 7.09353 22.0868 6.83745L22.4083 6.19259C22.513 5.98324 22.6812 5.8524 22.87 5.83183C23.0588 5.81127 23.2513 5.90473 23.3971 6.08604L23.4382 6.13838C23.5204 6.23932 23.6158 6.29352 23.7092 6.28418C23.8027 6.2767 23.8887 6.20941 23.9522 6.09539L24.3055 5.458C24.4513 5.19445 24.6457 5.058 24.8569 5.06734C25.0663 5.07856 25.2457 5.23557 25.3653 5.51221L25.9504 6.87858C26.0588 7.13092 26.0326 7.41877 25.8812 7.64868C25.7317 7.88233 25.4775 8.01878 25.2027 8.01878ZM22.9223 6.11221C22.9148 6.11221 22.9074 6.11221 22.8999 6.11408C22.8064 6.12343 22.7204 6.19819 22.6588 6.31969L22.3373 6.96456C22.2531 7.13092 22.2625 7.32718 22.3597 7.48606C22.4569 7.64494 22.6288 7.74027 22.8158 7.74027H25.2008C25.384 7.74027 25.5466 7.65242 25.6476 7.49915C25.7485 7.34587 25.7653 7.16269 25.6924 6.99447L25.1074 5.6281C25.0363 5.45987 24.9373 5.35707 24.8419 5.35333C24.7541 5.34772 24.6401 5.44118 24.5504 5.60006L24.1971 6.23745C24.0887 6.43184 23.9186 6.55334 23.7335 6.57016C23.5485 6.58512 23.3597 6.49539 23.2195 6.31969L23.1784 6.26735C23.0999 6.16455 23.0102 6.11221 22.9223 6.11221Z" fill="#B3B3B3"/>
    <path d="M23.074 14.4019C22.6889 14.4019 22.373 14.0879 22.373 13.7009C22.373 13.314 22.6871 13 23.074 13C23.4609 13 23.7749 13.314 23.7749 13.7009C23.7749 14.0879 23.4609 14.4019 23.074 14.4019ZM23.074 13.2804C22.8422 13.2804 22.6534 13.4692 22.6534 13.7009C22.6534 13.9327 22.8422 14.1215 23.074 14.1215C23.3058 14.1215 23.4946 13.9327 23.4946 13.7009C23.4946 13.4692 23.3058 13.2804 23.074 13.2804Z" fill="#B3B3B3"/>
    <path d="M23.074 23.4019C22.6889 23.4019 22.373 23.0879 22.373 22.7009C22.373 22.314 22.6871 22 23.074 22C23.4609 22 23.7749 22.314 23.7749 22.7009C23.7749 23.0879 23.4609 23.4019 23.074 23.4019ZM23.074 22.2804C22.8422 22.2804 22.6534 22.4692 22.6534 22.7009C22.6534 22.9327 22.8422 23.1215 23.074 23.1215C23.3058 23.1215 23.4946 22.9327 23.4946 22.7009C23.4946 22.4692 23.3058 22.2804 23.074 22.2804Z" fill="#B3B3B3"/>
    <path d="M23.074 5.40189C22.6889 5.40189 22.373 5.08786 22.373 4.70094C22.373 4.31402 22.6871 4 23.074 4C23.4609 4 23.7749 4.31402 23.7749 4.70094C23.7749 5.08786 23.4609 5.40189 23.074 5.40189ZM23.074 4.28038C22.8422 4.28038 22.6534 4.46916 22.6534 4.70094C22.6534 4.93272 22.8422 5.12151 23.074 5.12151C23.3058 5.12151 23.4946 4.93272 23.4946 4.70094C23.4946 4.46916 23.3058 4.28038 23.074 4.28038Z" fill="#B3B3B3"/>
    <path d="M10.6037 4.11105C10.6855 4.1754 11.0555 4.55421 11.426 4.95281C11.9979 5.5682 12.0996 5.70609 12.0996 5.86626C12.0996 6.03149 11.9962 6.15845 11.2683 6.88629C10.539 7.61559 10.4137 7.71759 10.2475 7.71759C9.99304 7.71759 9.77236 7.49656 9.77236 7.24178C9.77236 7.08673 9.8395 6.9834 10.136 6.68202L10.4996 6.31234L9.42327 6.33485C8.47515 6.35463 8.30707 6.37302 8.01226 6.48897C7.38728 6.73479 6.90496 7.2327 6.65065 7.89463C6.56762 8.11072 6.54551 8.44817 6.51805 9.91916L6.48512 11.6844L6.34776 11.7955C6.15651 11.9503 5.89947 11.9371 5.72615 11.7638L5.58331 11.621V9.91428C5.58331 8.02659 5.61147 7.81225 5.94799 7.13624C6.17542 6.67934 6.76171 6.06617 7.21239 5.81384C7.83376 5.46591 8.01406 5.42955 9.29679 5.394L10.4794 5.36125L10.155 5.00302C9.89047 4.71095 9.83054 4.60693 9.83054 4.43995C9.83054 4.05694 10.2876 3.86244 10.6037 4.11105Z" fill="#B3B3B3"/>
    <circle cx="6" cy="15" r="3.5" stroke="#B3B3B3"/>
    <path d="M5.57082 15.2577L6.32973 14.5039C7.07762 13.7609 7.09108 13.75 7.25656 13.75C7.49416 13.75 7.65453 13.9107 7.65453 14.1486C7.65453 14.317 7.65079 14.3213 6.69952 15.2708L5.74456 16.224H5.56999C5.39849 16.224 5.38637 16.2149 4.87253 15.702C4.36421 15.1947 4.34961 15.1754 4.34961 15.0118C4.34961 14.7759 4.51049 14.6139 4.74482 14.6139C4.89858 14.6139 4.93297 14.6363 5.24044 14.9358L5.57082 15.2577Z" fill="#B3B3B3"/>
    <path d="M18.6722 7.58774C18.4648 7.58774 18.2773 7.54938 18.1097 7.47268C17.9421 7.39455 17.8093 7.28163 17.7113 7.1339C17.6147 6.98617 17.5664 6.80506 17.5664 6.59058C17.5664 6.40592 17.6019 6.25393 17.6729 6.13461C17.744 6.01529 17.8398 5.92083 17.9606 5.85123C18.0813 5.78163 18.2163 5.72907 18.3654 5.69356C18.5146 5.65805 18.6665 5.63106 18.8214 5.61259C19.0174 5.58987 19.1765 5.5714 19.2987 5.5572C19.4208 5.54157 19.5096 5.51671 19.565 5.48262C19.6204 5.44853 19.6481 5.39313 19.6481 5.31643V5.30151C19.6481 5.11543 19.5955 4.97126 19.4904 4.86899C19.3867 4.76671 19.2319 4.71558 19.0259 4.71558C18.8114 4.71558 18.6424 4.76316 18.5188 4.85833C18.3967 4.95208 18.3121 5.05649 18.2653 5.17154L17.6665 5.03518C17.7376 4.83631 17.8413 4.6758 17.9776 4.55364C18.1154 4.43006 18.2738 4.34058 18.4528 4.28518C18.6317 4.22836 18.82 4.19995 19.0174 4.19995C19.1481 4.19995 19.2866 4.21558 19.4329 4.24683C19.5806 4.27666 19.7184 4.33205 19.8462 4.41302C19.9755 4.49399 20.0813 4.60975 20.1637 4.76032C20.2461 4.90947 20.2873 5.10336 20.2873 5.342V7.51529H19.6651V7.06785H19.6396C19.5984 7.15024 19.5366 7.2312 19.4542 7.31075C19.3718 7.39029 19.266 7.45634 19.1367 7.5089C19.0075 7.56146 18.8526 7.58774 18.6722 7.58774ZM18.8107 7.07637C18.9869 7.07637 19.1374 7.04157 19.2624 6.97197C19.3888 6.90237 19.4847 6.81146 19.5501 6.69924C19.6168 6.5856 19.6502 6.46416 19.6502 6.33489V5.91302C19.6275 5.93575 19.5835 5.95705 19.5181 5.97694C19.4542 5.99541 19.381 6.01174 19.2987 6.02595C19.2163 6.03873 19.136 6.0508 19.0579 6.06217C18.9798 6.07211 18.9144 6.08063 18.8619 6.08774C18.7383 6.10336 18.6254 6.12964 18.5231 6.16657C18.4222 6.2035 18.3413 6.25677 18.2802 6.32637C18.2205 6.39455 18.1907 6.48546 18.1907 6.5991C18.1907 6.75677 18.2489 6.87609 18.3654 6.95705C18.4819 7.0366 18.6303 7.07637 18.8107 7.07637Z" fill="#B3B3B3"/>
    <path d="M17.6016 17.1637V12.8H18.2386V14.4215H18.277C18.3139 14.3533 18.3672 14.2745 18.4368 14.185C18.5064 14.0955 18.603 14.0174 18.7266 13.9506C18.8501 13.8824 19.0135 13.8483 19.2166 13.8483C19.4808 13.8483 19.7166 13.9151 19.924 14.0486C20.1314 14.1822 20.294 14.3746 20.4119 14.626C20.5312 14.8775 20.5909 15.18 20.5909 15.5337C20.5909 15.8874 20.532 16.1907 20.4141 16.4435C20.2962 16.6949 20.1342 16.8888 19.9283 17.0252C19.7223 17.1601 19.4872 17.2276 19.223 17.2276C19.0241 17.2276 18.8615 17.1942 18.7351 17.1275C18.6101 17.0607 18.5121 16.9826 18.4411 16.8931C18.37 16.8036 18.3153 16.7241 18.277 16.6545H18.2237V17.1637H17.6016ZM18.2259 15.5273C18.2259 15.7574 18.2592 15.9591 18.326 16.1324C18.3928 16.3057 18.4893 16.4414 18.6158 16.5394C18.7422 16.636 18.897 16.6843 19.0803 16.6843C19.2706 16.6843 19.4297 16.6339 19.5575 16.533C19.6854 16.4307 19.782 16.2922 19.8473 16.1175C19.9141 15.9428 19.9474 15.7461 19.9474 15.5273C19.9474 15.3114 19.9148 15.1175 19.8494 14.9456C19.7855 14.7738 19.6889 14.6381 19.5597 14.5387C19.4318 14.4393 19.272 14.3895 19.0803 14.3895C18.8956 14.3895 18.7393 14.4371 18.6115 14.5323C18.4851 14.6275 18.3892 14.7603 18.3239 14.9307C18.2585 15.1012 18.2259 15.3 18.2259 15.5273Z" fill="#B3B3B3"/>
    <path d="M19.1037 25.6314C18.7869 25.6314 18.5142 25.5597 18.2855 25.4162C18.0582 25.2713 17.8835 25.0717 17.7614 24.8175C17.6392 24.5632 17.5781 24.272 17.5781 23.9439C17.5781 23.6115 17.6406 23.3182 17.7656 23.0639C17.8906 22.8082 18.0668 22.6087 18.294 22.4652C18.5213 22.3217 18.7891 22.25 19.0973 22.25C19.3459 22.25 19.5675 22.2962 19.7621 22.3885C19.9567 22.4794 20.1136 22.6072 20.233 22.772C20.3537 22.9368 20.4254 23.1293 20.4482 23.3494H19.8281C19.794 23.196 19.7159 23.0639 19.5938 22.9531C19.473 22.8423 19.3111 22.7869 19.108 22.7869C18.9304 22.7869 18.7749 22.8338 18.6413 22.9276C18.5092 23.0199 18.4062 23.152 18.3324 23.3239C18.2585 23.4943 18.2216 23.696 18.2216 23.929C18.2216 24.1676 18.2578 24.3736 18.3303 24.5469C18.4027 24.7202 18.505 24.8544 18.6371 24.9496C18.7706 25.0447 18.9276 25.0923 19.108 25.0923C19.2287 25.0923 19.3381 25.0703 19.4361 25.0263C19.5355 24.9808 19.6186 24.9162 19.6854 24.8324C19.7536 24.7486 19.8011 24.6477 19.8281 24.5298H20.4482C20.4254 24.7415 20.3565 24.9304 20.2415 25.0966C20.1264 25.2628 19.9723 25.3935 19.7791 25.4886C19.5874 25.5838 19.3622 25.6314 19.1037 25.6314Z" fill="#B3B3B3"/>
  </g>
</svg>