<svg width="14" height="14" viewBox="0 0 14 14" fill="none" xmlns="http://www.w3.org/2000/svg">
    <g clip-path="url(#clip0_3938_3972)">
        <path
            d="M11.375 0.75H9.625V-0.125H8.75V0.75H5.25V-0.125H4.375V0.75H2.625C2.14375 0.75 1.75 1.14375 1.75 1.625V12.375C1.75 12.8562 2.14375 13.25 2.625 13.25H11.375C11.8562 13.25 12.25 12.8562 12.25 12.375V1.625C12.25 1.14375 11.8562 0.75 11.375 0.75ZM11.375 12.375H2.625V4.25H11.375V12.375ZM11.375 3.375H2.625V1.625H4.375V2.5H5.25V1.625H8.75V2.5H9.625V1.625H11.375V3.375Z"
            fill="#7E8CA8" />
    </g>
    <defs>
        <clipPath id="clip0_3938_3972">
            <rect width="14" height="14" fill="white" />
        </clipPath>
    </defs>
</svg>
    