<svg xmlns="http://www.w3.org/2000/svg" width="14" height="14" viewBox="0 0 14 14" fill="none">
    <path fill-rule="evenodd" clip-rule="evenodd"
        d="M5.26923 0.504231C4.71824 0.637487 4.27312 1.09531 4.15765 1.64745C4.13796 1.74162 4.14231 2.34315 4.14231 2.80369V3.59634L2.43796 3.605C1.28703 3.61338 1.24099 3.61595 1.15938 3.67675C1.11282 3.71143 1.04626 3.7778 1.01148 3.82426C0.94858 3.90827 0.948242 3.77969 0.948242 6.85734V10.8997L1.01924 11.1443C1.26356 11.9865 1.91494 12.6343 2.76396 12.8797L3.00315 12.9488H6.99406H10.985L11.2282 12.8786C12.0721 12.6349 12.7067 12.0065 12.9694 11.1544L13.0385 10.9303L13.0478 6.91759C13.0582 3.52003 13.0697 3.86607 12.8539 3.70183L12.738 3.61369L11.5471 3.605L9.8458 3.59634V2.80369C9.8458 2.34315 9.81304 1.74162 9.79335 1.64745C9.67463 1.07971 9.2066 0.612989 8.63727 0.494597C8.39488 0.444193 5.48159 0.452849 5.26923 0.504231ZM8.57093 1.50832C8.67091 1.5586 8.72636 1.6139 8.77679 1.7136C8.84291 1.84438 8.86435 2.08373 8.86435 2.82497V3.59839H6.99406H5.12376V2.82497C5.12376 2.08373 5.10809 1.84438 5.17422 1.7136C5.22464 1.6139 5.28009 1.5586 5.38008 1.50832L5.51693 1.4395H6.9755H8.43408L8.57093 1.50832ZM4.14811 5.15303L4.15765 5.72897L4.24604 5.84443C4.45589 6.11855 4.8297 6.10684 5.04519 5.81938C5.10294 5.74236 5.10926 5.68474 5.11797 5.15606L5.12747 4.5771H6.99406H8.86064L8.87015 5.15303L8.87968 5.72897L8.96808 5.84443C9.17792 6.11855 9.55173 6.10684 9.76722 5.81938C9.82497 5.74236 9.83129 5.68474 9.84 5.15606L9.84951 4.5771H11.2169H12.0738V7.06002C12.0738 8.86102 12.0631 10.6877 12.0399 10.7988C11.9211 11.3665 11.4531 11.8332 10.8838 11.9516C10.6551 11.9991 3.33298 11.9991 3.10434 11.9516C2.535 11.8332 2.06697 11.3665 1.94825 10.7988C1.92503 10.6877 1.91436 8.86102 1.91436 7.06002V4.5771H2.77126H4.1386L4.14811 5.15303Z"
        fill="#FCFCFC" />
</svg>