<svg xmlns="http://www.w3.org/2000/svg" width="56" height="56" viewBox="0 0 56 56" fill="none">
    <path d="M55.0625 28C55.0646 25.775 54.5191 23.5836 53.4744 21.6191C52.4296 19.6546 50.9175 17.9773 49.0715 16.7352C47.2254 15.493 45.1022 14.7241 42.8888 14.4962C40.6755 14.2684 38.4401 14.5886 36.3797 15.4286C34.3193 16.2687 32.4972 17.6027 31.0742 19.3132C29.6511 21.0236 28.6707 23.0579 28.2194 25.2367C27.7681 27.4155 27.8598 29.6719 28.4864 31.8069C29.113 33.9419 30.2553 35.8899 31.8125 37.4792V51.25C31.8123 51.5804 31.8965 51.9054 32.0573 52.1941C32.2181 52.4828 32.45 52.7255 32.7311 52.8993C33.0121 53.0731 33.3329 53.1721 33.663 53.1869C33.9931 53.2018 34.3215 53.1319 34.617 52.9841L41.5 49.5402L48.383 52.9841C48.6785 53.1319 49.0069 53.2018 49.337 53.1869C49.6671 53.1721 49.9879 53.0731 50.2689 52.8993C50.55 52.7255 50.7819 52.4828 50.9427 52.1941C51.1035 51.9054 51.1877 51.5804 51.1875 51.25V37.4792C53.6725 34.95 55.0641 31.5457 55.0625 28ZM41.5 18.3125C43.416 18.3125 45.289 18.8807 46.8821 19.9451C48.4752 21.0096 49.7169 22.5226 50.4501 24.2928C51.1833 26.0629 51.3752 28.0107 51.0014 29.8899C50.6276 31.7691 49.7049 33.4953 48.3501 34.8501C46.9953 36.2049 45.2691 37.1276 43.3899 37.5014C41.5107 37.8752 39.5629 37.6833 37.7928 36.9501C36.0226 36.2169 34.5096 34.9752 33.4451 33.3821C32.3807 31.789 31.8125 29.916 31.8125 28C31.8125 25.4307 32.8331 22.9667 34.6499 21.1499C36.4667 19.3331 38.9307 18.3125 41.5 18.3125ZM42.367 45.6409C42.0979 45.5062 41.801 45.4361 41.5 45.4361C41.199 45.4361 40.9021 45.5062 40.633 45.6409L35.6875 48.1161V40.2523C37.5038 41.1149 39.4893 41.5625 41.5 41.5625C43.5107 41.5625 45.4962 41.1149 47.3125 40.2523V48.1161L42.367 45.6409ZM27.9375 43.5C27.9375 44.0139 27.7334 44.5067 27.37 44.87C27.0067 45.2334 26.5139 45.4375 26 45.4375H4.6875C3.65979 45.4375 2.67416 45.0292 1.94746 44.3025C1.22076 43.5758 0.8125 42.5902 0.8125 41.5625V10.5625C0.8125 9.53479 1.22076 8.54916 1.94746 7.82246C2.67416 7.09576 3.65979 6.6875 4.6875 6.6875H47.3125C48.3402 6.6875 49.3258 7.09576 50.0525 7.82246C50.7792 8.54916 51.1875 9.53479 51.1875 10.5625C51.1875 11.0764 50.9834 11.5692 50.62 11.9325C50.2567 12.2959 49.7639 12.5 49.25 12.5C48.7361 12.5 48.2433 12.2959 47.88 11.9325C47.5166 11.5692 47.3125 11.0764 47.3125 10.5625H4.6875V41.5625H26C26.5139 41.5625 27.0067 41.7666 27.37 42.13C27.7334 42.4933 27.9375 42.9861 27.9375 43.5ZM24.0625 29.9375C24.0625 30.4514 23.8584 30.9442 23.495 31.3075C23.1317 31.6709 22.6389 31.875 22.125 31.875H12.4375C11.9236 31.875 11.4308 31.6709 11.0675 31.3075C10.7041 30.9442 10.5 30.4514 10.5 29.9375C10.5 29.4236 10.7041 28.9308 11.0675 28.5675C11.4308 28.2041 11.9236 28 12.4375 28H22.125C22.6389 28 23.1317 28.2041 23.495 28.5675C23.8584 28.9308 24.0625 29.4236 24.0625 29.9375ZM24.0625 22.1875C24.0625 22.7014 23.8584 23.1942 23.495 23.5575C23.1317 23.9209 22.6389 24.125 22.125 24.125H12.4375C11.9236 24.125 11.4308 23.9209 11.0675 23.5575C10.7041 23.1942 10.5 22.7014 10.5 22.1875C10.5 21.6736 10.7041 21.1808 11.0675 20.8175C11.4308 20.4541 11.9236 20.25 12.4375 20.25H22.125C22.6389 20.25 23.1317 20.4541 23.495 20.8175C23.8584 21.1808 24.0625 21.6736 24.0625 22.1875Z" fill="url(#paint0_linear_3569_10347)"/>
    <defs>
      <linearGradient id="paint0_linear_3569_10347" x1="55.0625" y1="29.9382" x2="0.812499" y2="29.9382" gradientUnits="userSpaceOnUse">
        <stop stop-color="#001C54"/>
        <stop offset="1" stop-color="#001C54"/>
      </linearGradient>
    </defs>
  </svg>