<svg width="21" height="20" viewBox="0 0 21 20" fill="none" xmlns="http://www.w3.org/2000/svg">
<path fill-rule="evenodd" clip-rule="evenodd" d="M3.59961 2C3.33439 2 3.08004 2.10536 2.8925 2.29289C2.70497 2.48043 2.59961 2.73478 2.59961 3V16.5858L4.8925 14.2929C5.08004 14.1054 5.33439 14 5.59961 14H17.5996C17.8648 14 18.1192 13.8946 18.3067 13.7071C18.4943 13.5196 18.5996 13.2652 18.5996 13V3C18.5996 2.73478 18.4943 2.48043 18.3067 2.29289C18.1192 2.10536 17.8648 2 17.5996 2H3.59961ZM1.47829 0.87868C2.0409 0.31607 2.80396 0 3.59961 0H17.5996C18.3953 0 19.1583 0.31607 19.7209 0.87868C20.2835 1.44129 20.5996 2.20435 20.5996 3V13C20.5996 13.7957 20.2835 14.5587 19.7209 15.1213C19.1583 15.6839 18.3953 16 17.5996 16H6.01382L2.30672 19.7071C2.02072 19.9931 1.5906 20.0787 1.21693 19.9239C0.843252 19.7691 0.599609 19.4045 0.599609 19V3C0.599609 2.20435 0.91568 1.44129 1.47829 0.87868Z" fill="white"/>
</svg>
