<svg width="12" height="12" viewBox="0 0 12 12" fill="none" xmlns="http://www.w3.org/2000/svg">
<g id="edit 1">
<g id="Group 2749">
<path id="Union" fill-rule="evenodd" clip-rule="evenodd" d="M1.75387 1.75729C1.55861 1.95255 1.55861 2.26913 1.75387 2.46439L5.28989 6.00041L1.75484 9.53546C1.55958 9.73072 1.55958 10.0473 1.75484 10.2426C1.9501 10.4378 2.26668 10.4378 2.46195 10.2426L5.99699 6.70752L9.53204 10.2426C9.72731 10.4378 10.0439 10.4378 10.2392 10.2426C10.4344 10.0473 10.4344 9.73072 10.2391 9.53546L6.7041 6.00041L10.2401 2.46439C10.4354 2.26913 10.4354 1.95255 10.2401 1.75729C10.0449 1.56202 9.72828 1.56202 9.53301 1.75729L5.99699 5.29331L2.46098 1.75729C2.26571 1.56202 1.94913 1.56202 1.75387 1.75729Z" fill="black" fill-opacity="0.5"/>
</g>
</g>
</svg>
