<svg xmlns="http://www.w3.org/2000/svg" width="15" height="15" viewBox="0 0 15 15" fill="none">
    <g clip-path="url(#clip0_3569_13520)">
        <path
            d="M6.8916 11.7451H7.7666V12.6201H6.8916V11.7451ZM7.3291 5.18262C7.62988 5.18262 7.91244 5.23958 8.17676 5.35352C8.44108 5.46745 8.67122 5.62467 8.86719 5.8252C9.06315 6.02572 9.22038 6.25814 9.33887 6.52246C9.45736 6.78678 9.5166 7.06934 9.5166 7.37012C9.5166 7.64355 9.47331 7.88281 9.38672 8.08789C9.30013 8.29297 9.19303 8.47526 9.06543 8.63477C8.93783 8.79427 8.79655 8.94238 8.6416 9.0791C8.48665 9.21582 8.34766 9.35254 8.22461 9.48926C8.10156 9.62598 7.99219 9.76953 7.89648 9.91992C7.80078 10.0703 7.75749 10.2412 7.7666 10.4326V10.8701H6.8916V10.4326C6.8916 10.1592 6.9349 9.9222 7.02148 9.72168C7.10807 9.52116 7.21517 9.33887 7.34277 9.1748C7.47038 9.01074 7.61165 8.86035 7.7666 8.72363C7.92155 8.58691 8.06055 8.45247 8.18359 8.32031C8.30664 8.18815 8.41602 8.0446 8.51172 7.88965C8.60742 7.7347 8.65072 7.56152 8.6416 7.37012C8.6416 7.19238 8.60742 7.02376 8.53906 6.86426C8.4707 6.70475 8.37728 6.56576 8.25879 6.44727C8.1403 6.32878 7.99902 6.23307 7.83496 6.16016C7.6709 6.08724 7.50228 6.05306 7.3291 6.05762C7.15137 6.05762 6.98275 6.0918 6.82324 6.16016C6.66374 6.22852 6.52474 6.32194 6.40625 6.44043C6.28776 6.55892 6.19206 6.7002 6.11914 6.86426C6.04622 7.02832 6.01204 7.19694 6.0166 7.37012H5.1416C5.1416 7.06934 5.19857 6.78678 5.3125 6.52246C5.42643 6.25814 5.58138 6.02799 5.77734 5.83203C5.97331 5.63607 6.20573 5.47884 6.47461 5.36035C6.74349 5.24186 7.02832 5.18262 7.3291 5.18262ZM13.0166 4.12988V14.377H1.6416V0.376953H9.29785L13.0166 4.12988ZM9.55078 3.87695H11.5332L9.55078 1.88086V3.87695ZM12.1416 13.502V4.75195H8.67578V1.25195H2.5166V13.502H12.1416Z"
            fill="#7E8CA8" />
    </g>
    <defs>
        <clipPath id="clip0_3569_13520">
            <rect width="14" height="14" fill="white" transform="translate(0.766602 0.376953)" />
        </clipPath>
    </defs>
</svg>