<svg xmlns="http://www.w3.org/2000/svg" width="16" height="16" viewBox="0 0 16 16" fill="none">
  <path d="M13.9797 3.87336C13.9792 3.37202 13.7836 2.90098 13.4287 2.54695C12.6968 1.81672 11.507 1.81773 10.776 2.54969L3.22424 10.1318C2.97861 10.3773 2.79111 10.6811 2.68198 11.0106L2.67493 11.0321L2 14L4.9762 13.3337L4.99835 13.3264C5.32794 13.2172 5.63199 13.0299 5.87827 12.7837L13.431 5.2007C13.7852 4.84602 13.9801 4.37462 13.9797 3.87336ZM3.65042 12.6705L3.33484 12.3547L3.56271 11.3524L4.65521 12.4455L3.65042 12.6705ZM12.7677 4.53914L5.43533 11.901L4.10754 10.5724L9.13022 5.52955L9.89505 6.29438L10.5574 5.632L9.79123 4.8658L10.5038 4.15049L11.2714 4.91807L11.9337 4.25569L11.1648 3.48674L11.4392 3.21125C11.8049 2.84504 12.4007 2.84449 12.7671 3.21006C12.9447 3.38731 13.0426 3.62315 13.0429 3.8741C13.0431 4.12513 12.9456 4.36107 12.7677 4.53914ZM6.92792 13.0531H13.9797V13.9898H5.99435L6.92792 13.0531Z" fill="black" fill-opacity="0.5"/>
</svg>