<svg xmlns="http://www.w3.org/2000/svg" width="40" height="40" viewBox="0 0 40 40" fill="none">
    <path
        d="M0.833935 7.25771C6.32384 11.766 15.9569 19.6975 18.7882 22.1706C19.1683 22.5044 19.5759 22.6741 19.9991 22.6741C20.4215 22.6741 20.8284 22.5059 21.2077 22.1738C24.0414 19.6983 33.6744 11.766 39.1644 7.25771C39.5062 6.97757 39.5583 6.48515 39.2816 6.14266C38.6419 5.35124 37.6881 4.89746 36.666 4.89746H3.33232C2.3102 4.89746 1.35636 5.35124 0.716746 6.14274C0.440024 6.48515 0.492134 6.97757 0.833935 7.25771Z"
        fill="currentColor" />
    <path
        d="M39.5134 9.70034C39.218 9.567 38.8705 9.61352 38.6247 9.81715C35.0293 12.7724 30.2921 16.677 26.7195 19.6567C26.5315 19.813 26.4257 20.0426 26.4298 20.2833C26.4339 20.5232 26.5486 20.7496 26.7423 20.8996C30.0619 23.4776 35.0644 27.024 38.6768 29.5445C38.8209 29.6454 38.9917 29.6967 39.1635 29.6967C39.2937 29.6967 39.4239 29.6676 39.5435 29.6076C39.8219 29.4695 39.9968 29.1917 39.9968 28.8886V10.4334C39.9968 10.1186 39.8079 9.83215 39.5134 9.70034Z"
        fill="currentColor" />
    <path
        d="M1.32001 29.5467C4.93333 27.0262 9.93667 23.4799 13.2554 20.9018C13.449 20.7519 13.5638 20.5254 13.5679 20.2855C13.5719 20.0448 13.4662 19.8152 13.2782 19.6589C9.70549 16.6792 4.96747 12.7746 1.37212 9.81938C1.1247 9.61575 0.776414 9.57083 0.483443 9.70257C0.18883 9.83438 0 10.1208 0 10.4357V28.891C0 29.194 0.175002 29.4718 0.453286 29.6099C0.572897 29.6699 0.703132 29.699 0.833368 29.699C1.00509 29.699 1.17595 29.6478 1.32001 29.5467Z"
        fill="currentColor" />
    <path
        d="M38.9772 31.7415C35.4884 29.3212 29.0617 24.809 25.2255 21.7898C24.9129 21.5428 24.4604 21.5507 24.1529 21.808C23.4001 22.4448 22.7702 22.9814 22.3234 23.3712C20.9513 24.5722 19.0469 24.5722 17.6716 23.3696C17.2265 22.9806 16.5966 22.4424 15.8438 21.8079C15.5386 21.549 15.0853 21.5412 14.772 21.7897C10.9487 24.7987 4.51469 29.3164 1.0202 31.7414C0.825665 31.8771 0.700351 32.0862 0.675976 32.3174C0.652382 32.5486 0.731289 32.7783 0.894884 32.9487C1.52567 33.6077 2.41435 33.9857 3.33155 33.9857H36.6653C37.5825 33.9857 38.4703 33.6077 39.1026 32.9488C39.2654 32.7791 39.3451 32.5495 39.3215 32.3183C39.2971 32.0871 39.1718 31.8772 38.9772 31.7415Z"
        fill="currentColor" />
</svg>