<svg xmlns="http://www.w3.org/2000/svg" width="18" height="18" viewBox="0 0 18 18" fill="none">
    <path
        d="M5.625 12C5.52554 12 5.43016 12.0395 5.35984 12.1098C5.28951 12.1802 5.25 12.2755 5.25 12.375C5.25 12.4745 5.28951 12.5698 5.35984 12.6402C5.43016 12.7105 5.52554 12.75 5.625 12.75H12.375C12.4745 12.75 12.5698 12.7105 12.6402 12.6402C12.7105 12.5698 12.75 12.4745 12.75 12.375C12.75 12.2755 12.7105 12.1802 12.6402 12.1098C12.5698 12.0395 12.4745 12 12.375 12H5.625ZM5.25 13.875C5.25 13.7755 5.28951 13.6802 5.35984 13.6098C5.43016 13.5395 5.52554 13.5 5.625 13.5H10.125C10.2245 13.5 10.3198 13.5395 10.3902 13.6098C10.4605 13.6802 10.5 13.7755 10.5 13.875C10.5 13.9745 10.4605 14.0698 10.3902 14.1402C10.3198 14.2105 10.2245 14.25 10.125 14.25H5.625C5.52554 14.25 5.43016 14.2105 5.35984 14.1402C5.28951 14.0698 5.25 13.9745 5.25 13.875Z"
        fill="#FCFCFC" />
    <path fill-rule="evenodd" clip-rule="evenodd"
        d="M7.84615 5.8557C7.81767 5.78738 7.7696 5.72901 7.70801 5.68796C7.64642 5.64691 7.57405 5.625 7.50003 5.625C7.42601 5.625 7.35364 5.64691 7.29205 5.68796C7.23045 5.72901 7.18239 5.78738 7.1539 5.8557L5.75065 9.2232C5.74841 9.2284 5.74629 9.23365 5.74428 9.23895L5.2789 10.3557C5.24061 10.4475 5.24036 10.5507 5.27819 10.6427C5.31603 10.7347 5.38886 10.8079 5.48065 10.8462C5.57245 10.8845 5.6757 10.8847 5.76769 10.8469C5.85967 10.8091 5.93286 10.7362 5.97115 10.6445L6.3439 9.75008H8.65615L9.0289 10.6445C9.06719 10.7362 9.14038 10.8091 9.23237 10.8469C9.32436 10.8847 9.42761 10.8845 9.5194 10.8462C9.6112 10.8079 9.68403 10.7347 9.72186 10.6427C9.7597 10.5507 9.75944 10.4475 9.72115 10.3557L9.25578 9.23895C9.25377 9.23365 9.25164 9.2284 9.2494 9.2232L7.84615 5.8557ZM7.50003 6.97508L8.34378 9.00008H6.65628L7.50003 6.97508Z"
        fill="#FCFCFC" />
    <path
        d="M11.25 7.875C11.3495 7.875 11.4448 7.91451 11.5152 7.98483C11.5855 8.05516 11.625 8.15054 11.625 8.25V9H12.375C12.4745 9 12.5698 9.03951 12.6402 9.10983C12.7105 9.18016 12.75 9.27554 12.75 9.375C12.75 9.47446 12.7105 9.56984 12.6402 9.64017C12.5698 9.71049 12.4745 9.75 12.375 9.75H11.625V10.5C11.625 10.5995 11.5855 10.6948 11.5152 10.7652C11.4448 10.8355 11.3495 10.875 11.25 10.875C11.1505 10.875 11.0552 10.8355 10.9848 10.7652C10.9145 10.6948 10.875 10.5995 10.875 10.5V9.75H10.125C10.0255 9.75 9.93016 9.71049 9.85983 9.64017C9.78951 9.56984 9.75 9.47446 9.75 9.375C9.75 9.27554 9.78951 9.18016 9.85983 9.10983C9.93016 9.03951 10.0255 9 10.125 9H10.875V8.25C10.875 8.15054 10.9145 8.05516 10.9848 7.98483C11.0552 7.91451 11.1505 7.875 11.25 7.875Z"
        fill="#FCFCFC" />
    <path fill-rule="evenodd" clip-rule="evenodd"
        d="M14.25 5.625L10.5 1.5H5.25C4.85218 1.5 4.47064 1.65804 4.18934 1.93934C3.90804 2.22064 3.75 2.60218 3.75 3V15C3.75 15.3978 3.90804 15.7794 4.18934 16.0607C4.47064 16.342 4.85218 16.5 5.25 16.5H12.75C13.1478 16.5 13.5294 16.342 13.8107 16.0607C14.092 15.7794 14.25 15.3978 14.25 15V5.625ZM10.125 5.625C10.125 5.72446 10.1645 5.81984 10.2348 5.89016C10.3052 5.96049 10.4005 6 10.5 6H13.5V15C13.5 15.1989 13.421 15.3897 13.2803 15.5303C13.1397 15.671 12.9489 15.75 12.75 15.75H5.25C5.05109 15.75 4.86032 15.671 4.71967 15.5303C4.57902 15.3897 4.5 15.1989 4.5 15V3C4.5 2.80109 4.57902 2.61032 4.71967 2.46967C4.86032 2.32902 5.05109 2.25 5.25 2.25H10.125V5.625ZM12.8955 5.25L10.875 3.02737V5.25H12.8955Z"
        fill="#FCFCFC" />
</svg>