<svg xmlns="http://www.w3.org/2000/svg" width="14" height="14" viewBox="0 0 14 14" fill="none">
    <g clip-path="url(#clip0_2398_732)">
        <path
            d="M11.9145 7.90165e-05H2.08566C0.935776 7.90165e-05 9.42467e-05 0.926919 9.42467e-05 2.06594V11.9342C9.42467e-05 13.0732 0.935776 14.0001 2.08566 14.0001H6.28461V9.11741H4.61615V6.63838H6.28461V4.95814C6.28461 3.59113 7.40723 2.47911 8.78729 2.47911H11.3178V4.95814H8.78729V6.63838H11.3178L10.9007 9.11741H8.78729V14.0001H11.9145C13.0644 14.0001 14.0001 13.0732 14.0001 11.9342V2.06594C14.0001 0.926919 13.0644 7.90165e-05 11.9145 7.90165e-05Z"
            fill="currentColor" />
    </g>
    <defs>
        <clipPath id="clip0_2398_732">
            <rect width="14" height="14" fill="white" />
        </clipPath>
    </defs>
</svg>