<svg width="78" height="79" viewBox="0 0 78 79" fill="none" xmlns="http://www.w3.org/2000/svg">
<g id="Group">
<path id="Vector" d="M57.4945 47.6037C64.3695 54.4787 71.1677 61.2769 77.9659 68.0751C74.5091 71.5318 71.0524 74.9885 67.5957 78.4452C60.7591 71.6086 53.8841 64.7336 46.9323 57.7818C46.7403 58.0507 46.625 58.2427 46.5098 58.4347C43.8213 62.9285 41.0943 67.4606 38.4058 71.9543C37.0231 74.2588 34.0657 74.7965 31.9916 73.1065C31.3003 72.5304 30.8394 71.8007 30.609 70.9557C27.9972 61.3153 25.3855 51.6365 22.7738 41.9962C21.1222 35.8509 19.4323 29.6672 17.7807 23.522C17.051 20.795 18.6641 18.3369 21.4295 17.9912C22.0056 17.9144 22.6201 18.0297 23.1578 18.1833C33.7584 21.2559 44.3974 24.3285 54.9979 27.4012C60.0294 28.8607 65.0608 30.3586 70.1306 31.7797C73.3185 32.6631 74.3171 36.1198 72.6656 38.3858C72.2815 38.9235 71.7054 39.3844 71.1293 39.7301C66.7123 42.3034 62.2954 44.8383 57.8401 47.4117C57.8017 47.4117 57.6865 47.4885 57.4945 47.6037Z" fill="#CED3DE"/>
<path id="Vector_2" d="M6.29523 28.5918C4.72051 28.5918 3.14579 28.6302 1.57106 28.5918C0.457236 28.5918 -0.234105 27.5548 0.0731582 26.5178C0.265198 25.8649 0.879723 25.4424 1.60947 25.4424C4.72051 25.4424 7.86995 25.4424 10.981 25.4424C11.9412 25.4424 12.5941 26.1721 12.5941 27.0939C12.5941 27.9773 11.9028 28.6302 10.9426 28.6302C9.40627 28.5918 7.86996 28.5918 6.29523 28.5918Z" fill="#CED3DE"/>
<path id="Vector_3" d="M25.5 6.5069C25.5 4.97058 25.5 3.47268 25.5 1.93636C25.5 0.899349 26.1529 0.208008 27.1131 0.208008C28.0349 0.208008 28.6879 0.937757 28.6879 1.93636C28.6879 5.00899 28.6879 8.08162 28.6879 11.1158C28.6879 12.1144 28.0349 12.8058 27.0747 12.8058C26.1529 12.8058 25.5 12.1144 25.5 11.1542C25.5 9.57953 25.5 8.04321 25.5 6.5069Z" fill="#CED3DE"/>
<path id="Vector_4" d="M42.9741 5.66236C43.6271 5.70077 44.1264 6.00803 44.3952 6.62256C44.6641 7.27549 44.5489 7.89002 44.0496 8.38932C42.9741 9.46474 41.9371 10.5402 40.8617 11.5772C39.7479 12.691 38.634 13.8048 37.5202 14.9187C36.7905 15.6484 35.8303 15.6868 35.1773 15.0339C34.5244 14.3809 34.5628 13.4208 35.2926 12.691C37.4434 10.5402 39.5942 8.38932 41.7067 6.23848C42.0523 5.8544 42.4364 5.62395 42.9741 5.66236Z" fill="#CED3DE"/>
<path id="Vector_5" d="M15.781 17.4917C15.4353 17.2997 15.0128 17.1845 14.7056 16.9156C12.4779 14.7264 10.2503 12.4987 8.06102 10.3095C7.40808 9.65654 7.40808 8.69634 8.02261 8.04341C8.63713 7.39048 9.59733 7.39048 10.2887 8.04341C12.5163 10.2327 14.7056 12.4603 16.9332 14.688C17.4325 15.1873 17.5478 15.8018 17.2789 16.4547C17.0485 16.9924 16.4723 17.3765 15.781 17.4917Z" fill="#CED3DE"/>
<path id="Vector_6" d="M16.4711 36.4272C16.279 36.7728 16.1638 37.1953 15.895 37.4642C13.7057 39.6918 11.4781 41.9195 9.2504 44.1471C8.59746 44.8001 7.63727 44.7617 6.98433 44.1471C6.36981 43.5326 6.36981 42.5724 6.98433 41.9195C9.21199 39.6918 11.4012 37.4642 13.6289 35.2365C14.1282 34.7372 14.7427 34.622 15.3957 34.9293C16.0102 35.1597 16.3559 35.6974 16.4711 36.4272Z" fill="#CED3DE"/>
</g>
</svg>
