<svg width="12" height="14" viewBox="0 0 12 14" fill="none" xmlns="http://www.w3.org/2000/svg">
<path fill-rule="evenodd" clip-rule="evenodd" d="M5.64219 0.70613C5.85284 0.542293 6.14781 0.542293 6.35846 0.70613L11.6085 4.78946C11.7505 4.89998 11.8337 5.06991 11.8337 5.24992V11.6666C11.8337 12.1307 11.6493 12.5758 11.3211 12.904C10.9929 13.2322 10.5478 13.4166 10.0837 13.4166H1.91699C1.45286 13.4166 1.00774 13.2322 0.679555 12.904C0.351367 12.5758 0.166992 12.1307 0.166992 11.6666V5.24992C0.166992 5.06991 0.250101 4.89998 0.392193 4.78946L5.64219 0.70613ZM1.33366 5.53522V11.6666C1.33366 11.8213 1.39512 11.9697 1.50451 12.0791C1.61391 12.1885 1.76228 12.2499 1.91699 12.2499H10.0837C10.2384 12.2499 10.3867 12.1885 10.4961 12.0791C10.6055 11.9697 10.667 11.8213 10.667 11.6666V5.53522L6.00033 1.90559L1.33366 5.53522Z" fill="white"/>
<path fill-rule="evenodd" clip-rule="evenodd" d="M3.66699 6.99992C3.66699 6.67775 3.92816 6.41659 4.25033 6.41659H7.75033C8.07249 6.41659 8.33366 6.67775 8.33366 6.99992V12.8333C8.33366 13.1554 8.07249 13.4166 7.75033 13.4166C7.42816 13.4166 7.16699 13.1554 7.16699 12.8333V7.58325H4.83366V12.8333C4.83366 13.1554 4.57249 13.4166 4.25033 13.4166C3.92816 13.4166 3.66699 13.1554 3.66699 12.8333V6.99992Z" fill="white"/>
</svg>
