<svg width="10" height="10" viewBox="0 0 10 10" fill="none" xmlns="http://www.w3.org/2000/svg">
<g clip-path="url(#clip0_1735_751)">
<path fill-rule="evenodd" clip-rule="evenodd" d="M3.64453 4.84903V5.56721H4.14653C4.64839 5.56721 4.64853 5.56719 4.70446 5.52588C4.83034 5.43288 5.00487 5.36721 5.44573 5.24692C5.94647 5.11031 6.15089 4.95088 6.17157 4.68089C6.18189 4.54615 6.1663 4.47878 6.10309 4.38482C5.99166 4.21913 5.72259 4.11466 5.46504 4.13707C5.22866 4.15765 5.0258 4.24331 4.90328 4.37428C4.78412 4.50168 4.69476 4.53603 4.48343 4.5357C4.29774 4.53539 4.26615 4.52248 4.28362 4.45393C4.29906 4.39333 4.42358 4.24327 4.50898 4.18234L4.58116 4.13086H4.11284H3.64453V4.84903ZM6.33148 4.21097C6.68531 4.60683 6.53863 5.17721 6.02215 5.41383C5.38481 5.70582 5.16536 5.8347 4.96537 6.0345C4.90096 6.09885 4.82285 6.1933 4.7918 6.24438C4.73237 6.34219 4.67187 6.53899 4.68826 6.58109C4.69649 6.60221 4.80653 6.60524 5.42329 6.60139L6.14864 6.59688L6.15224 6.11233C6.15423 5.84582 6.1562 5.61414 6.15664 5.59749C6.15737 5.56935 6.19414 5.56721 6.67582 5.56721H7.19422V4.84903V4.13086H6.72704H6.25988L6.33148 4.21097ZM4.64082 4.19636C4.59089 4.25068 4.60266 4.28661 4.67039 4.28661C4.74191 4.28661 4.7847 4.24556 4.75759 4.20295C4.73135 4.16171 4.67554 4.15856 4.64082 4.19636ZM5.18757 5.54106C4.81978 5.66772 4.62514 5.84413 4.59887 6.07457L4.58866 6.16424L4.66241 6.05666C4.75917 5.91551 4.92844 5.76421 5.1541 5.61713C5.25466 5.5516 5.32979 5.49856 5.32104 5.49927C5.3123 5.49997 5.25224 5.51879 5.18757 5.54106Z" fill="#E00000"/>
<path d="M5.58912 3.86842C5.14109 3.86842 4.86907 4.02843 4.78906 4.10844V3.06836H6.06916L6.30918 3.22837V4.02843C6.05316 3.90042 5.72247 3.86842 5.58912 3.86842Z" fill="#E00000"/>
<path fill-rule="evenodd" clip-rule="evenodd" d="M5.14948 0.356798C4.57155 0.404474 3.94944 0.56261 3.5459 0.764408L3.45115 0.811808L3.22271 0.778927C2.91409 0.734522 2.42336 0.734107 2.2131 0.778062C1.79025 0.866458 1.41864 1.07283 1.20294 1.33903C1.09611 1.47087 0.975651 1.70278 0.926044 1.87209C0.871305 2.0589 0.867878 2.48732 0.919349 2.70822L0.953141 2.85332L0.990483 2.68832C1.04703 2.43848 1.13382 2.28022 1.30737 2.11054C1.46644 1.95504 1.64406 1.85574 1.86082 1.80117C2.66948 1.59761 3.97475 2.00133 5.49724 2.92592L5.99692 3.22939L6.25661 3.38515C6.26289 3.38514 6.36964 3.44006 6.49384 3.50721C7.54075 4.07316 8.3194 4.281 8.76624 4.1138L8.85475 4.08067L8.85444 4.15256C8.85396 4.25776 8.80827 4.5573 8.76482 4.74022C8.66228 5.17169 8.39308 5.7729 8.12018 6.17996C7.65315 6.87653 7.05478 7.46566 6.35064 7.92218C6.11816 8.07291 5.57325 8.3518 5.51132 8.35177C5.45802 8.35173 5.00333 8.1251 4.78668 7.99058C3.56587 7.23264 2.64198 6.07811 2.30195 4.88557C2.20718 4.55322 2.17139 4.29533 2.17177 3.94756C2.17195 3.77624 2.18133 3.58155 2.1926 3.51493C2.26666 3.07726 2.43132 2.65452 2.65664 2.3235C2.69451 2.26785 2.71876 2.21617 2.71052 2.20866C2.67119 2.17281 2.1416 2.12247 2.0478 2.14564C2.01091 2.15476 1.98475 2.18978 1.91987 2.31686C1.76577 2.6187 1.66021 2.9399 1.58585 3.33322C1.54068 3.57202 1.54042 4.26922 1.58539 4.53594C1.64731 4.90327 1.73249 5.20516 1.87342 5.55696C2.3214 6.67517 3.19484 7.71782 4.28856 8.43999C4.7352 8.73491 5.36153 9.044 5.51248 9.044C5.56198 9.044 5.65652 9.01333 5.8097 8.94759C6.62928 8.59587 7.47004 7.97376 8.09502 7.25663C8.89515 6.33849 9.36461 5.32758 9.47099 4.29367C9.50647 3.94884 9.47198 3.39329 9.39819 3.12125L9.3806 3.05639L9.26998 3.13987C8.91278 3.40948 8.59037 3.51892 8.20456 3.50151C7.96078 3.49051 7.76973 3.4397 7.50473 3.3154C7.17143 3.15902 6.92536 2.98568 6.25399 2.43421C5.48837 1.80533 4.98613 1.44498 4.56978 1.22586C4.47949 1.17834 4.41227 1.13561 4.42041 1.1309C4.45601 1.11034 4.76886 1.04801 4.95891 1.02361C5.22304 0.989707 5.80979 0.988894 6.0607 1.02207C6.71292 1.10834 7.29437 1.33114 7.74328 1.66683C7.81334 1.71923 7.87068 1.76753 7.87068 1.77418C7.87068 1.78084 7.83765 1.7882 7.79728 1.79053C7.6961 1.79642 7.50988 1.83637 7.3762 1.8809C7.15029 1.95616 6.73455 2.1761 6.75543 2.20934C6.76076 2.21782 6.87064 2.30666 6.9996 2.40674L7.23411 2.58874L7.39864 2.51208C7.59897 2.41873 7.84369 2.33655 8.05519 2.29161C8.26726 2.24655 8.73586 2.23235 8.94701 2.26458C9.03159 2.27749 9.10077 2.28559 9.10077 2.28256C9.10077 2.26669 8.97586 2.05977 8.88737 1.92904C8.31919 1.08977 7.32581 0.533243 6.12759 0.382963C5.8666 0.350221 5.3852 0.337346 5.14948 0.356798Z" fill="#001C54"/>
</g>
<defs>
<clipPath id="clip0_1735_751">
<rect width="8.86317" height="8.86317" fill="white" transform="translate(0.804688 0.246094)"/>
</clipPath>
</defs>
</svg>
