<svg width="13" height="13" viewBox="0 0 13 13" fill="none" xmlns="http://www.w3.org/2000/svg">
<g clip-path="url(#clip0_1735_815)">
<path d="M6.1126 12.3011C5.07091 12.3011 4.22266 11.4534 4.22266 10.4112C4.22266 10.2025 4.39199 10.0332 4.60064 10.0332C4.80929 10.0332 4.97863 10.2025 4.97863 10.4112C4.97863 11.0367 5.48766 11.5452 6.1126 11.5452C6.73753 11.5452 7.24656 11.0367 7.24656 10.4112C7.24656 10.2025 7.4159 10.0332 7.62455 10.0332C7.8332 10.0332 8.00254 10.2025 8.00254 10.4112C8.00254 11.4534 7.15437 12.3011 6.1126 12.3011Z" fill="url(#paint0_linear_1735_815)"/>
<path d="M10.2719 10.7905H1.95616C1.46983 10.7905 1.07422 10.3949 1.07422 9.90852C1.07422 9.65041 1.18662 9.40605 1.38263 9.23819C1.39527 9.22711 1.40883 9.21705 1.42295 9.20792C2.16278 8.56231 2.58617 7.63349 2.58617 6.65271V5.24661C2.58617 3.3013 4.16918 1.71875 6.11403 1.71875C6.19469 1.71875 6.28189 1.72023 6.36255 1.73388C6.56861 1.76812 6.70777 1.96321 6.67345 2.16881C6.63921 2.37442 6.44062 2.51358 6.23852 2.47925C6.19819 2.4727 6.1539 2.47473 6.11403 2.47473C4.58602 2.47473 3.34215 3.71805 3.34215 5.24661L3.34215 6.65271C3.34215 7.87038 2.80839 9.02252 1.8791 9.8132C1.87154 9.81929 1.86499 9.82482 1.85686 9.83036C1.8433 9.84752 1.8302 9.87373 1.8302 9.90852C1.8302 9.977 1.88769 10.0345 1.95616 10.0345H10.2719C10.3405 10.0345 10.398 9.977 10.398 9.90852C10.398 9.87318 10.3849 9.84752 10.3707 9.83036C10.3632 9.82482 10.3566 9.81929 10.349 9.8132C9.41921 9.02197 8.88601 7.87038 8.88601 6.65271V6.10345C8.88601 5.8948 9.05534 5.72546 9.26399 5.72546C9.47264 5.72546 9.64198 5.8948 9.64198 6.10345V6.65271C9.64198 7.63404 10.0658 8.56332 10.8067 9.20949C10.8202 9.21853 10.8333 9.22813 10.8454 9.23874C11.0415 9.40605 11.1539 9.65041 11.1539 9.90852C11.1539 10.3949 10.7583 10.7905 10.2719 10.7905Z" fill="url(#paint1_linear_1735_815)"/>
<mask id="path-3-inside-1_1735_815" fill="white">
<path d="M9.64495 5.24489C8.25546 5.24489 7.125 4.11452 7.125 2.72503C7.125 1.33554 8.25546 0.205078 9.64495 0.205078C11.0344 0.205078 12.1648 1.33554 12.1648 2.72503C12.1648 4.11452 11.0344 5.24489 9.64495 5.24489ZM9.64495 0.961055C8.6722 0.961055 7.88098 1.75228 7.88098 2.72503C7.88098 3.69769 8.6722 4.48891 9.64495 4.48891C10.6176 4.48891 11.4088 3.69769 11.4088 2.72503C11.4088 1.75228 10.6176 0.961055 9.64495 0.961055Z"/>
</mask>
<path d="M9.64495 5.24489C8.25546 5.24489 7.125 4.11452 7.125 2.72503C7.125 1.33554 8.25546 0.205078 9.64495 0.205078C11.0344 0.205078 12.1648 1.33554 12.1648 2.72503C12.1648 4.11452 11.0344 5.24489 9.64495 5.24489ZM9.64495 0.961055C8.6722 0.961055 7.88098 1.75228 7.88098 2.72503C7.88098 3.69769 8.6722 4.48891 9.64495 4.48891C10.6176 4.48891 11.4088 3.69769 11.4088 2.72503C11.4088 1.75228 10.6176 0.961055 9.64495 0.961055Z" fill="#C4C4C4"/>
<path d="M9.64495 1.88499C10.1109 1.88499 10.4849 2.25875 10.4849 2.72503H3.76511C3.76511 5.9703 6.4 8.60478 9.64495 8.60478V1.88499ZM10.4849 2.72503C10.4849 3.19115 10.1111 3.56497 9.64495 3.56497V-3.15482C6.39984 -3.15482 3.76511 -0.520083 3.76511 2.72503H10.4849ZM9.64495 3.56497C9.17867 3.56497 8.80492 3.19099 8.80492 2.72503L15.5247 2.72503C15.5247 -0.519923 12.8902 -3.15482 9.64495 -3.15482V3.56497ZM8.80492 2.72503C8.80492 2.25891 9.17883 1.88499 9.64495 1.88499V8.60478C12.8901 8.60478 15.5247 5.97014 15.5247 2.72503L8.80492 2.72503ZM9.64495 -2.39884C6.81659 -2.39884 4.52108 -0.103336 4.52108 2.72503L11.2409 2.72503C11.2409 3.6079 10.5278 4.32095 9.64495 4.32095V-2.39884ZM4.52108 2.72503C4.52108 5.55342 6.8167 7.84881 9.64495 7.84881V1.12902C10.5277 1.12902 11.2409 1.84195 11.2409 2.72503L4.52108 2.72503ZM9.64495 7.84881C12.4732 7.84881 14.7687 5.5533 14.7687 2.72503L8.04894 2.72503C8.04894 1.84207 8.76199 1.12902 9.64495 1.12902V7.84881ZM14.7687 2.72503C14.7687 -0.103222 12.4733 -2.39884 9.64495 -2.39884V4.32095C8.76187 4.32095 8.04894 3.60779 8.04894 2.72503L14.7687 2.72503Z" fill="url(#paint2_linear_1735_815)" mask="url(#path-3-inside-1_1735_815)"/>
<circle cx="9.64883" cy="2.725" r="2.51992" fill="#D00000"/>
<path d="M9.01364 3.20508V2.99127L9.67512 2.30592C9.74575 2.23147 9.80398 2.16625 9.84979 2.11025C9.89625 2.05361 9.93093 1.99984 9.95384 1.94894C9.97675 1.89803 9.9882 1.84394 9.9882 1.78667C9.9882 1.72176 9.97293 1.66576 9.94238 1.61867C9.91184 1.57095 9.87016 1.53436 9.81734 1.5089C9.76452 1.48281 9.70503 1.46977 9.63885 1.46977C9.56885 1.46977 9.50776 1.48409 9.45558 1.51272C9.4034 1.54136 9.36331 1.58177 9.33531 1.63395C9.30731 1.68613 9.29331 1.74721 9.29331 1.81721H9.01173C9.01173 1.69822 9.03909 1.59417 9.09382 1.50509C9.14854 1.416 9.22363 1.34695 9.31908 1.29796C9.41454 1.24832 9.52303 1.2235 9.64457 1.2235C9.76739 1.2235 9.87557 1.248 9.96911 1.297C10.0633 1.34536 10.1368 1.41154 10.1896 1.49554C10.2424 1.5789 10.2688 1.67308 10.2688 1.77808C10.2688 1.85062 10.2551 1.92157 10.2278 1.99093C10.2011 2.0603 10.1543 2.13761 10.0875 2.22288C10.0207 2.30752 9.92775 2.41028 9.80875 2.53119L9.42026 2.93781V2.95213H10.3003V3.20508H9.01364Z" fill="white"/>
</g>
<defs>
<linearGradient id="paint0_linear_1735_815" x1="8.00254" y1="11.1672" x2="4.22266" y2="11.1672" gradientUnits="userSpaceOnUse">
<stop stop-color="#001C54"/>
<stop offset="1" stop-color="#001C54"/>
</linearGradient>
<linearGradient id="paint1_linear_1735_815" x1="11.1539" y1="6.25461" x2="1.07422" y2="6.25461" gradientUnits="userSpaceOnUse">
<stop stop-color="#001C54"/>
<stop offset="1" stop-color="#001C54"/>
</linearGradient>
<linearGradient id="paint2_linear_1735_815" x1="12.1648" y1="2.72498" x2="7.125" y2="2.72498" gradientUnits="userSpaceOnUse">
<stop stop-color="#001C54"/>
<stop offset="1" stop-color="#001C54"/>
</linearGradient>
<clipPath id="clip0_1735_815">
<rect width="12.0956" height="12.0956" fill="white" transform="translate(0.578125 0.205078)"/>
</clipPath>
</defs>
</svg>
