<svg width="14" height="14" viewBox="0 0 14 14" fill="none" xmlns="http://www.w3.org/2000/svg">
    <g clip-path="url(#clip0_3127_6636)">
        <path fill-rule="evenodd" clip-rule="evenodd"
            d="M1.06425 0.0393366C0.332291 0.217783 -0.144412 1.00951 0.0441863 1.73354C0.272517 2.61022 1.27245 3.05375 2.05949 2.62749L2.21185 2.54493L2.37898 2.71381L2.54608 2.88269L2.42507 3.02015C2.33811 3.11895 2.30407 3.18337 2.30407 3.24912C2.30407 3.36447 2.36854 3.4582 2.46443 3.48226C2.55536 3.50508 2.63535 3.46616 2.77832 3.32946L2.88789 3.2247L3.04603 3.38089L3.20414 3.53705L3.02934 3.74435C2.21804 4.70642 1.78081 6.10388 1.89143 7.38112C1.98886 8.50571 2.38306 9.4966 3.04087 10.2702L3.20449 10.4627L3.03775 10.6277L2.871 10.7927L2.70463 10.5891C2.60576 10.4681 2.50763 10.3777 2.46276 10.3665C2.36743 10.3425 2.26267 10.3894 2.20088 10.4838C2.13108 10.5903 2.1858 10.7268 2.38438 10.9413L2.54687 11.1168L2.37936 11.286L2.21185 11.4553L2.06025 11.3732C1.26061 10.9401 0.275492 11.3787 0.0429903 12.2713C-0.215913 13.2653 0.738221 14.2162 1.73419 13.9567C2.4604 13.7676 2.91394 13.0417 2.76003 12.3149C2.73517 12.1975 2.67686 12.0314 2.63041 11.9457L2.54599 11.7898L3.04495 11.2929L3.54388 10.7961L3.68974 10.9267C3.91425 11.1278 4.44697 11.475 4.75456 11.6207C5.77267 12.1029 6.94387 12.2434 8.05652 12.0166C8.87842 11.8491 9.66872 11.4721 10.2709 10.9601L10.4633 10.7965L10.641 10.9768C10.7387 11.076 10.8276 11.1936 10.8384 11.2381C10.8592 11.3231 10.9508 11.4051 11.025 11.4051C11.0491 11.4051 11.1559 11.4916 11.2624 11.5972L11.456 11.7893L11.36 11.9801C11.1644 12.3688 11.1643 12.7884 11.3596 13.2026C11.7321 13.9924 12.7836 14.2346 13.4632 13.6871C13.7845 13.4282 13.966 13.0859 13.9942 12.6855C14.0709 11.5981 12.9083 10.8495 11.9494 11.3688L11.7897 11.4553L11.6226 11.2864L11.4555 11.1176L11.5327 11.0257C11.6316 10.9082 11.6356 10.7684 11.5425 10.6809C11.4533 10.5972 11.351 10.6008 11.2159 10.6925L11.1055 10.7674L10.9512 10.6151L10.797 10.4628L10.9607 10.2703C11.7778 9.3092 12.2212 7.90094 12.1101 6.61915C12.0127 5.49453 11.6185 4.50367 10.9607 3.72996L10.797 3.53746L10.9555 3.38089L11.1141 3.22432L11.273 3.38136C11.4631 3.56902 11.5749 3.58994 11.6875 3.45896C11.8025 3.32532 11.7744 3.2268 11.5557 2.99602L11.4518 2.88639L11.6208 2.71568L11.7897 2.54493L11.9421 2.62749C12.7291 3.05375 13.7291 2.61022 13.9574 1.73354C14.2176 0.73448 13.2666 -0.216707 12.2676 0.0434791C11.5175 0.238845 11.0561 1.0033 11.2466 1.73491C11.2714 1.83007 11.3286 1.97602 11.3737 2.05922L11.4556 2.21047L10.9566 2.70733L10.4577 3.20419L10.3118 3.07353C10.0784 2.86449 9.54757 2.52145 9.21685 2.36596C8.65566 2.10213 8.07376 1.95038 7.40126 1.89241C6.10228 1.78045 4.69758 2.21718 3.74809 3.0282L3.54388 3.20262L3.04495 2.70655L2.54599 2.21047L2.62791 2.05922C2.91907 1.52163 2.83022 0.883462 2.40162 0.434123C2.06068 0.076677 1.54069 -0.0767978 1.06425 0.0393366ZM6.24832 0.975325C5.99379 1.01509 5.90989 1.06229 5.87967 1.18268C5.85493 1.28122 5.93472 1.42315 6.02798 1.44657C6.06999 1.4571 6.22772 1.45258 6.37854 1.43654C6.60037 1.41291 6.6665 1.39441 6.72467 1.33977C6.86776 1.20535 6.78549 0.988569 6.57779 0.952659C6.52965 0.944344 6.3814 0.954526 6.24832 0.975325ZM7.33906 1.02897C7.24522 1.12282 7.24253 1.2258 7.3313 1.32901C7.3916 1.39908 7.43376 1.4125 7.70325 1.44739C7.98867 1.48432 8.01169 1.48342 8.08015 1.43263C8.2558 1.30235 8.21823 1.09549 8.00617 1.02536C7.94258 1.00429 7.7835 0.979468 7.65267 0.970162C7.4248 0.953942 7.41164 0.956422 7.33906 1.02897ZM4.87122 1.31495C4.60709 1.4181 4.50808 1.51463 4.53314 1.64451C4.55452 1.75539 4.64741 1.83666 4.75275 1.83666C4.86106 1.83666 5.34395 1.64433 5.38902 1.58321C5.49276 1.4426 5.36697 1.22166 5.18613 1.22676C5.13327 1.22828 4.99155 1.26795 4.87122 1.31495ZM8.7907 1.25296C8.71024 1.28545 8.63443 1.39409 8.63443 1.47688C8.63443 1.51253 8.66395 1.57338 8.70006 1.61212C8.77299 1.69039 9.20156 1.86583 9.31983 1.86583C9.41571 1.86583 9.53876 1.74489 9.53876 1.6506C9.53876 1.48657 9.36405 1.37627 8.88239 1.23618C8.86634 1.23152 8.82509 1.23907 8.7907 1.25296ZM3.77265 1.85977C3.72198 1.88716 3.60053 1.97193 3.50281 2.04813C3.33898 2.17585 3.32509 2.19563 3.32509 2.30126C3.32509 2.39137 3.34213 2.42927 3.40485 2.47862C3.5141 2.56454 3.61325 2.54003 3.86443 2.36503C4.11493 2.19046 4.18561 2.10277 4.15956 1.99892C4.11461 1.8198 3.95358 1.76189 3.77265 1.85977ZM9.9741 1.92193C9.92719 1.96884 9.88883 2.02856 9.88883 2.05467C9.88883 2.11339 9.96999 2.27424 9.99959 2.27424C10.0116 2.27424 10.1114 2.33988 10.2214 2.42011C10.3625 2.52297 10.449 2.56597 10.5147 2.56597C10.6931 2.56597 10.7983 2.34863 10.6928 2.19802C10.6308 2.10957 10.2025 1.83666 10.1256 1.83666C10.0892 1.83666 10.021 1.87502 9.9741 1.92193ZM7.61404 2.3746C8.61036 2.50724 9.45407 2.90874 10.1619 3.58699C11.4871 4.85683 11.9824 6.71282 11.4503 8.41498C11.2749 8.97602 10.9224 9.60839 10.56 10.012L10.4096 10.1796L10.2985 10.0391C10.1563 9.85921 9.97334 9.7013 9.77806 9.58995L9.62357 9.50185L9.81065 9.30803C10.0726 9.03667 10.1825 8.80283 10.2522 8.36828C10.2615 8.31049 10.2555 8.16609 10.2388 8.04739C10.1582 7.47301 9.72739 6.97951 9.16151 6.81329C8.9363 6.74715 8.54119 6.7524 8.3072 6.82466C7.93073 6.94094 7.57836 7.24372 7.41077 7.59487C7.29959 7.82778 7.26476 7.98522 7.26476 8.25454C7.26476 8.68284 7.39863 9.00782 7.69832 9.30701L7.89053 9.49888L7.71784 9.59873C7.51354 9.71679 7.22486 9.99291 7.10257 10.1871C7.05461 10.2633 7.00881 10.3256 7.00078 10.3256C6.99276 10.3256 6.9469 10.2633 6.89891 10.1871C6.77843 9.996 6.48557 9.71653 6.28137 9.59789L6.11103 9.49888L6.30325 9.30701C6.60293 9.00782 6.7368 8.68284 6.7368 8.25454C6.7368 7.98522 6.70197 7.82778 6.5908 7.59487C6.4232 7.24372 6.07083 6.94094 5.69437 6.82466C5.46038 6.7524 5.06527 6.74715 4.84006 6.81329C4.27613 6.97893 3.84334 7.47328 3.76337 8.04304C3.69788 8.50979 3.84602 8.95079 4.18684 9.30383L4.378 9.50185L4.22351 9.58995C4.02823 9.7013 3.84526 9.85921 3.70308 10.0391L3.59202 10.1796L3.44172 10.012C3.35905 9.91983 3.21246 9.72689 3.11596 9.58324C2.06165 8.01387 2.08379 6.00889 3.17366 4.36005C3.4213 3.98537 4.01954 3.38037 4.38988 3.13007C5.33313 2.49251 6.4805 2.22366 7.61404 2.3746ZM6.62481 2.84546C6.10952 2.98403 5.65939 3.43894 5.54466 3.93706C5.50192 4.12259 5.50653 4.50813 5.55355 4.6848C5.6161 4.91966 5.77529 5.19076 5.95467 5.36781L6.1192 5.53021L5.88308 5.68902C5.67208 5.83094 5.3088 6.20181 5.3088 6.27529C5.3088 6.28889 5.35264 6.3 5.40623 6.3C5.57342 6.3 5.94437 6.41027 6.16354 6.52509C6.41159 6.65509 6.77167 6.98613 6.89868 7.20101C6.94682 7.28243 6.99276 7.34903 7.00078 7.34903C7.00881 7.34903 7.05475 7.28243 7.10289 7.20101C7.2299 6.98613 7.58997 6.65509 7.83803 6.52509C8.0572 6.41027 8.42815 6.3 8.59534 6.3C8.64892 6.3 8.69277 6.28889 8.69277 6.27529C8.69277 6.20181 8.32949 5.83094 8.11849 5.68902L7.88237 5.53021L8.0469 5.36781C8.22628 5.19076 8.38547 4.91966 8.44801 4.6848C8.49504 4.50813 8.49965 4.12259 8.45691 3.93706C8.34069 3.43247 7.88911 2.98074 7.36421 2.84401C7.1523 2.78881 6.8331 2.78943 6.62481 2.84546ZM7.35085 3.3453C7.61489 3.43883 7.78718 3.5956 7.93701 3.87871C7.99599 3.99018 8.00652 4.05182 8.00684 4.28712C8.00716 4.52639 7.99666 4.58678 7.92998 4.72902C7.83587 4.92976 7.6669 5.10397 7.46124 5.21235C7.32098 5.28624 7.27949 5.29356 7.00078 5.29356C6.72534 5.29356 6.67966 5.28575 6.54727 5.21588C6.34823 5.1108 6.1615 4.91861 6.07002 4.72471C6.00499 4.58681 5.9944 4.52529 5.99478 4.28712C5.99516 4.04071 6.00426 3.99272 6.07679 3.85427C6.32629 3.378 6.85116 3.16834 7.35085 3.3453ZM1.8206 3.8636C1.7808 3.90342 1.69661 4.04269 1.63354 4.17312C1.52756 4.39226 1.5217 4.41717 1.556 4.50183C1.62091 4.6619 1.8262 4.70627 1.93381 4.58351C2.01071 4.49582 2.21655 4.07933 2.21655 4.01145C2.21655 3.81276 1.96526 3.71894 1.8206 3.8636ZM11.8858 3.92116C11.8464 3.96054 11.8142 4.01988 11.8142 4.05302C11.8142 4.12948 12.0554 4.61233 12.1206 4.66648C12.1903 4.72427 12.3547 4.71703 12.4253 4.65309C12.5174 4.56977 12.5025 4.4165 12.3795 4.18213C12.3214 4.0714 12.2469 3.95129 12.214 3.91518C12.1312 3.82442 11.9798 3.8272 11.8858 3.92116ZM1.27633 5.10596C1.21574 5.14126 1.07884 5.57157 1.07884 5.72668C1.07884 5.85685 1.18339 5.97911 1.29468 5.97911C1.43687 5.97911 1.51382 5.87071 1.58987 5.5632C1.66105 5.27551 1.6598 5.21827 1.58039 5.12582C1.53176 5.0692 1.35883 5.05788 1.27633 5.10596ZM12.4289 5.20998C12.3534 5.30599 12.3536 5.33866 12.432 5.65124C12.5028 5.93322 12.5783 6.03804 12.7099 6.03652C12.8042 6.03544 12.8692 5.99238 12.9198 5.8974C12.9767 5.79057 12.865 5.30494 12.7557 5.18423C12.6816 5.10231 12.5025 5.11643 12.4289 5.20998ZM1.01644 6.50158C0.952928 6.55293 0.946802 6.58221 0.937817 6.87633C0.92854 7.17902 0.931662 7.19958 0.998816 7.27765C1.09505 7.38952 1.2366 7.39075 1.33141 7.28051C1.39389 7.20784 1.39973 7.17432 1.39973 6.88692C1.39973 6.59622 1.39468 6.56798 1.33222 6.50928C1.2483 6.43046 1.10856 6.42705 1.01644 6.50158ZM12.6735 6.57583C12.6066 6.64266 12.6018 6.66757 12.6018 6.95098C12.6018 7.11793 12.5936 7.31476 12.5835 7.38839C12.5668 7.51041 12.573 7.53005 12.6542 7.61123C12.7621 7.71911 12.8613 7.72521 12.9712 7.63066C13.051 7.56205 13.0523 7.55548 13.0637 7.16469C13.0701 6.94666 13.0669 6.73481 13.0566 6.69386C13.0097 6.50675 12.8054 6.44382 12.6735 6.57583ZM5.66517 7.31907C5.88186 7.42269 6.05412 7.59347 6.161 7.8106C6.24671 7.9847 6.25689 8.03178 6.25689 8.25454C6.25689 8.4773 6.24671 8.52438 6.161 8.69848C6.05473 8.91435 5.88034 9.0879 5.66482 9.19222C5.4635 9.28968 5.11419 9.30135 4.89318 9.21798C4.67299 9.13492 4.43162 8.91368 4.32552 8.69766C4.25326 8.55052 4.24416 8.50023 4.24518 8.25454C4.24658 7.92895 4.30084 7.77973 4.49411 7.57007C4.72804 7.31627 4.94173 7.22908 5.29421 7.24366C5.46096 7.25055 5.56688 7.27208 5.66517 7.31907ZM9.18277 7.33529C9.80965 7.61663 9.97299 8.42747 9.5058 8.93868C9.2896 9.17521 9.0982 9.25826 8.7657 9.25978C8.54145 9.2608 8.47923 9.24977 8.3392 9.18411C8.11726 9.08002 7.96247 8.93332 7.84383 8.71452C7.7508 8.54299 7.74467 8.51452 7.74482 8.25454C7.74494 8.00894 7.75407 7.9601 7.82499 7.82533C8.10136 7.30014 8.65732 7.09949 9.18277 7.33529ZM1.21011 7.84021C1.0461 7.87448 1.01221 7.98356 1.06918 8.29386C1.14021 8.68065 1.25349 8.80604 1.45615 8.72208C1.60003 8.66248 1.61925 8.5616 1.54609 8.24996C1.51114 8.10115 1.47076 7.95736 1.45635 7.93041C1.42508 7.872 1.29173 7.82317 1.21011 7.84021ZM12.4967 8.24045C12.4424 8.32338 12.3119 8.75904 12.3108 8.86117C12.3099 8.95003 12.4347 9.07136 12.5271 9.07136C12.6635 9.07136 12.7711 8.93483 12.8353 8.68016C12.9086 8.3899 12.9086 8.2987 12.8352 8.22537C12.7467 8.13686 12.5591 8.1452 12.4967 8.24045ZM1.53494 9.21935C1.42298 9.30742 1.43147 9.45357 1.56306 9.70343C1.69825 9.96012 1.76768 10.034 1.87348 10.034C1.99152 10.034 2.05672 9.99232 2.09925 9.88964C2.13291 9.80842 2.12571 9.78004 2.00963 9.53575C1.83419 9.16658 1.70852 9.08279 1.53494 9.21935ZM12.0788 9.4868C11.9827 9.53665 11.7267 9.98701 11.7267 10.1062C11.7267 10.2254 11.8299 10.3258 11.9525 10.3258C12.0216 10.3258 12.0644 10.3002 12.1315 10.2188C12.2612 10.0614 12.3976 9.7906 12.3976 9.69042C12.3976 9.52216 12.2242 9.41139 12.0788 9.4868ZM3.26421 11.3842C3.18717 11.4433 3.14513 11.5496 3.16427 11.6368C3.1762 11.6911 3.2404 11.7642 3.35304 11.8516C3.67104 12.0986 3.82647 12.138 3.93558 11.9992C4.05816 11.8434 4.01355 11.754 3.69718 11.5218C3.45613 11.3449 3.35663 11.3132 3.26421 11.3842ZM10.0118 11.7145C9.76117 11.8793 9.69903 11.9634 9.73168 12.0934C9.76931 12.2434 9.95435 12.2942 10.131 12.2029C10.2803 12.1257 10.526 11.935 10.5614 11.8689C10.6323 11.7365 10.5026 11.5492 10.3428 11.5532C10.2863 11.5547 10.1646 11.614 10.0118 11.7145ZM4.41774 12.1477C4.33599 12.2294 4.32433 12.3529 4.38953 12.446C4.43894 12.5165 4.80409 12.6773 4.97822 12.7051C5.08406 12.722 5.10165 12.7152 5.17449 12.6287C5.23505 12.5567 5.2499 12.5152 5.23572 12.458C5.21594 12.3783 5.11282 12.2511 5.06792 12.2511C5.05337 12.2511 4.9517 12.2117 4.84204 12.1636C4.59983 12.0573 4.51144 12.054 4.41774 12.1477ZM8.81039 12.2946C8.51642 12.3997 8.45939 12.446 8.45939 12.5795C8.45939 12.8021 8.58469 12.8599 8.87737 12.7722C9.2756 12.653 9.40507 12.5386 9.3389 12.3647C9.27131 12.1869 9.1548 12.1714 8.81039 12.2946ZM5.76785 12.5501C5.62546 12.6583 5.66712 12.8924 5.83845 12.9467C6.01599 13.0029 6.30981 13.0436 6.40725 13.0253C6.58631 12.9917 6.65854 12.7586 6.52674 12.6396C6.41582 12.5395 5.86709 12.4748 5.76785 12.5501ZM7.46103 12.5744C7.19571 12.6025 7.13731 12.6287 7.09098 12.7406C7.04836 12.8435 7.08576 12.9583 7.18258 13.0218C7.23851 13.0584 7.30018 13.0619 7.53603 13.042C7.92327 13.0093 8.03578 12.9229 7.98003 12.7008C7.96148 12.6269 7.82592 12.5403 7.73884 12.5467C7.70996 12.5489 7.58496 12.5613 7.46103 12.5744Z"
            fill="white" />
    </g>
    <defs>
        <clipPath id="clip0_3127_6636">
            <rect width="14.0009" height="14" fill="white" />
        </clipPath>
    </defs>
</svg>
    