<svg xmlns="http://www.w3.org/2000/svg" width="14" height="14" viewBox="0 0 14 14" fill="none">
    <path d="M12.6727 9.31707H12.1273V3.34146C12.1273 2.98569 12.0008 2.64448 11.7758 2.39291C11.5508 2.14133 11.2455 2 10.9273 2H3.07273C2.75447 2 2.44924 2.14133 2.2242 2.39291C1.99916 2.64448 1.87273 2.98569 1.87273 3.34146V9.31707H1.32727C1.24047 9.31707 1.15723 9.35562 1.09586 9.42423C1.03448 9.49284 1 9.5859 1 9.68293V10.6585C1 11.0143 1.12643 11.3555 1.35147 11.6071C1.57652 11.8587 1.88174 12 2.2 12H11.8C12.1183 12 12.4235 11.8587 12.6485 11.6071C12.8736 11.3555 13 11.0143 13 10.6585V9.68293C13 9.5859 12.9655 9.49284 12.9041 9.42423C12.8428 9.35562 12.7595 9.31707 12.6727 9.31707ZM2.52727 3.34146C2.52727 3.17975 2.58474 3.02465 2.68703 2.9103C2.78933 2.79595 2.92806 2.73171 3.07273 2.73171H10.9273C11.0719 2.73171 11.2107 2.79595 11.313 2.9103C11.4153 3.02465 11.4727 3.17975 11.4727 3.34146V9.31707H2.52727V3.34146ZM12.3455 10.6585C12.3455 10.8203 12.288 10.9753 12.1857 11.0897C12.0834 11.2041 11.9447 11.2683 11.8 11.2683H2.2C2.05534 11.2683 1.9166 11.2041 1.81431 11.0897C1.71201 10.9753 1.65455 10.8203 1.65455 10.6585V10.0488H12.3455V10.6585ZM8.2 4.31707C8.2 4.4141 8.16552 4.50716 8.10414 4.57577C8.04277 4.64438 7.95953 4.68293 7.87273 4.68293H6.12727C6.04047 4.68293 5.95723 4.64438 5.89586 4.57577C5.83448 4.50716 5.8 4.4141 5.8 4.31707C5.8 4.22004 5.83448 4.12699 5.89586 4.05838C5.95723 3.98976 6.04047 3.95122 6.12727 3.95122H7.87273C7.95953 3.95122 8.04277 3.98976 8.10414 4.05838C8.16552 4.12699 8.2 4.22004 8.2 4.31707Z" fill="#7E8CA8" stroke="#7E8CA8" stroke-width="0.4"/>
  </svg>