<svg xmlns="http://www.w3.org/2000/svg" width="40" height="40" viewBox="0 0 40 40" fill="none">
    <path fill-rule="evenodd" clip-rule="evenodd"
        d="M21.088 0.0193705C24.211 0.377652 26.5616 1.44125 28.6578 3.44453C30.4409 5.14859 31.6762 7.36476 32.1752 9.75515C32.3549 10.6161 32.4794 12.1843 32.4219 12.8646C32.1814 15.7119 31.1363 17.9777 28.2778 21.849C23.6803 28.0753 20.1065 32.8646 20.0578 32.8646C19.9506 32.8646 11.7019 21.7199 10.5457 20.013C9.30385 18.1796 8.67371 16.9424 8.1782 15.3646C7.80185 14.1664 7.70694 13.5212 7.71262 12.2005C7.72739 8.77789 9.00433 5.79929 11.4653 3.4471C13.3037 1.68992 15.4416 0.605308 17.9294 0.167495C18.595 0.0504642 20.5567 -0.041567 21.088 0.0193705ZM18.7487 4.0746C16.9087 4.36984 15.2986 5.2132 14.0108 6.55609C11.3641 9.31609 10.9681 13.4844 13.0473 16.6966C15.5365 20.5423 20.8286 21.6295 24.6734 19.085C27.6708 17.1015 29.0534 13.4641 28.1106 10.0425C27.8994 9.2764 27.1984 7.86992 26.7137 7.2396C24.8528 4.82039 21.76 3.5914 18.7487 4.0746ZM21.0677 6.38328C23.3619 6.7914 25.1945 8.46148 25.8397 10.7325C25.9708 11.1938 26.0121 11.5491 26.0106 12.2005C26.0082 13.2791 25.855 13.928 25.3743 14.8959C25.0595 15.5298 24.8957 15.7466 24.2511 16.383C23.6388 16.9876 23.37 17.1903 22.8253 17.4584C21.8872 17.9199 21.0848 18.1087 20.0615 18.1087C19.0382 18.1087 18.2357 17.9199 17.2977 17.4584C16.3831 17.0083 15.281 15.9309 14.7959 15.013C13.9939 13.4949 13.866 11.8241 14.4313 10.2494C15.0809 8.43999 16.6594 6.99343 18.5217 6.50109C19.1004 6.34804 20.5045 6.28312 21.0677 6.38328ZM31.8012 35.3451L33.5508 39.9349L26.8061 39.9549C23.0966 39.9659 17.0262 39.9659 13.3164 39.9549L6.57126 39.9349L8.3171 35.3451L10.0629 30.7552L12.792 30.7576L15.521 30.76L17.8099 33.8074C19.568 36.1483 20.1173 36.8298 20.1788 36.7466C20.2229 36.6869 21.2361 35.3156 22.4304 33.6991L24.602 30.7601L27.3268 30.7577L30.0516 30.7552L31.8012 35.3451Z"
        fill="currentColor" />
</svg>