<svg xmlns="http://www.w3.org/2000/svg" width="14" height="14" viewBox="0 0 14 14" fill="none">
    <g clip-path="url(#clip0_3124_6501)">
        <path fill-rule="evenodd" clip-rule="evenodd"
            d="M6.72987 0.0342243C6.51466 0.094216 6.38232 0.169582 6.23437 0.316456C6.069 0.480565 5.96037 0.692765 5.92342 0.923786C5.88617 1.1567 5.88441 6.42735 5.92152 6.65177C6.01142 7.19575 6.45778 7.5804 6.99907 7.5804C7.49308 7.5804 7.91064 7.2666 8.05 6.79066C8.0835 6.67629 8.08976 6.19764 8.08976 3.75513C8.08976 0.516155 8.10509 0.773438 7.89396 0.467871C7.64261 0.104119 7.14461 -0.0814094 6.72987 0.0342243ZM2.92622 1.45263C2.75516 1.50852 2.70825 1.5396 2.40689 1.79672C1.10396 2.90835 0.302869 4.38405 0.0369053 6.16246C-0.0114442 6.48578 -0.0125487 7.58538 0.0351381 7.91324C0.217767 9.1688 0.651146 10.2276 1.3789 11.196C2.82591 13.1214 5.21787 14.1901 7.59274 13.972C9.17143 13.8271 10.5847 13.2114 11.7318 12.169C12.9485 11.0634 13.6842 9.68268 13.9484 8.00899C14.0171 7.57364 14.0172 6.51149 13.9485 6.07897C13.745 4.79707 13.2919 3.7417 12.5255 2.76416C12.0882 2.20643 11.4014 1.57538 11.1151 1.46825C10.7265 1.32286 10.2863 1.49974 10.0997 1.87627C10.0357 2.00539 10.0228 2.06645 10.0236 2.23687C10.0251 2.53656 10.1043 2.66491 10.5013 3.01094C10.8885 3.34837 11.1939 3.69052 11.4586 4.0834C12.9012 6.22458 12.6034 9.0603 10.7487 10.8428C10.1677 11.4012 9.53956 11.7918 8.78008 12.0671C7.8486 12.4046 6.66153 12.4537 5.6521 12.1964C4.99589 12.0292 4.31607 11.702 3.75518 11.2835C3.47058 11.0712 2.9413 10.5468 2.72808 10.2659C2.00281 9.31037 1.63448 8.22174 1.63589 7.03785C1.63691 6.17767 1.81523 5.42171 2.19413 4.67139C2.53484 3.99668 2.94039 3.49219 3.6077 2.91295C3.88465 2.67255 3.97597 2.50039 3.97442 2.22158C3.97263 1.89875 3.81198 1.64596 3.51222 1.49432C3.36916 1.42194 3.08257 1.40156 2.92622 1.45263Z"
            fill="currentColor" />
    </g>
    <defs>
        <clipPath id="clip0_3124_6501">
            <rect width="14" height="14" fill="currentColor" />
        </clipPath>
    </defs>
</svg>