<svg fill="none" height="37" viewBox="0 0 144 37" width="144" xmlns="http://www.w3.org/2000/svg" xmlns:xlink="http://www.w3.org/1999/xlink"><linearGradient id="a"><stop offset="0" stop-color="#001c54"/><stop offset="1" stop-color="#001c54"/></linearGradient><linearGradient id="b" gradientUnits="userSpaceOnUse" x1="68.8049" x2="67.6791" xlink:href="#a" y1="20.3074" y2="20.2983"/><linearGradient id="c" gradientUnits="userSpaceOnUse" x1="63.7221" x2="39.4022" xlink:href="#a" y1="19.9409" y2="20.2878"/><linearGradient id="d" gradientUnits="userSpaceOnUse" x1="3.70397" x2="3.72454" xlink:href="#a" y1="6.21974" y2="34.2409"/><linearGradient id="e" gradientUnits="userSpaceOnUse" x1="154.379" x2="72.4238" xlink:href="#a" y1="21.0722" y2="21.0723"/><clipPath id="f"><path d="m0 0h143.061v35.8343h-143.061z" transform="matrix(.99998733 -.00503475 .00503475 .99998733 -.006836 1.03223)"/></clipPath><g clip-path="url(#f)"><path d="m67.7931 6.25101 1.0502.00851-.1522 28.09518-1.0502-.0085z" fill="url(#b)"/><path d="m57.4022 6.18738.0181 12.65522c.0029 2.9101-.1789 4.2577-.3325 4.8734-.2049.8131-.5729 1.5734-1.1044 2.2574-.5163.6681-1.1582 1.1963-1.9184 1.569-.7524.3725-1.6621.5586-2.7136.5657-1.0438-.0009-2.0213-.2307-2.9248-.6898-.8723-.4437-1.5456-1.0319-2.0123-1.7646-.4824-.7561-.7719-1.5385-.8529-2.3396-.0991-.9817-.1514-2.4833-.1566-4.4732l-.0182-12.65516-6.1622.00924.0044 1.93483c2.4912 3.36229 3.9735 7.54129 3.984 12.07169.0066 3.1696-.7161 6.1688-2.0002 8.8378.3003.4519.6235.8877.9928 1.2993 1.0999 1.2271 2.49 2.1904 4.1311 2.867 1.6099.6613 3.4317.9972 5.4112 1.0004 2.5437-.0048 4.8071-.6978 6.7129-2.0621 1.898-1.3642 3.2497-3.0903 4.0092-5.1383.7297-1.961 1.0782-4.6323 1.0741-8.1717l-.0181-12.65521z" fill="url(#c)"/><path d="m.638574 6.22199.033301 28.02121 6.130795-.0045-.03331-28.02121z" fill="url(#d)"/><g fill="#d00000"><path d="m22.4542 28.364c-1.9794.0046-3.6208-.6956-5.0098-2.1309-1.1065-1.1404-1.7839-2.5544-2.0715-4.2885l20.59-.0184-.037-1.5097c-.0998-4.2852-1.4403-7.7426-3.9738-10.2706-2.5412-2.52784-5.7065-3.81194-9.4255-3.80609-3.7345.00608-6.9158 1.38858-9.4515 4.12259-2.5129 2.7101-3.78818 6.0003-3.78834 9.7835.00757 3.7832 1.27594 7.0607 3.78864 9.7542 2.5285 2.7168 5.7723 4.0942 9.6305 4.0863 5.4046-.0063 9.5346-2.6372 12.2672-7.8359l.6991-1.3943-6.5342-.0483c-1.6128 2.3905-3.8153 3.5545-6.6838 3.5561zm.1097-16.1571c1.7938-.002 3.3322.5188 4.7005 1.5847.8913.6951 1.5452 1.5431 1.9854 2.5908l-13.0979.006c1.2743-2.8104 3.381-4.1855 6.412-4.1815z"/><path d="m36.8077 32.6265-.4373 1.8623-1.1887-1.4852-1.8765.1526 1.0208-1.6033-.721-1.7672 1.8161.4854 1.4281-1.2395.1045 1.9097 1.607.9995z"/><path d="m40.4548 24.1027.5287 1.8329-1.7571-.6828-1.5462 1.0838.0964-1.9125-1.4933-1.1663 1.8175-.4978.6314-1.8022 1.0203 1.6056 1.8794.0518z"/><path d="m39.8266 14.2887 1.3793 1.3016-1.8509.3253-.7869 1.7415-.8824-1.6941-1.8665-.225 1.3103-1.3715-.3671-1.8823 1.6899.8489 1.6411-.9358z"/><path d="m34.5267 6.33504 1.8306.42218-1.4438 1.22391.1741 1.90867-1.5918-1.02331-1.7286.76395.4605-1.86267-1.2421-1.43727 1.8769-.12902.9585-1.64169z"/><path d="m26.0916 2.16781 1.8011-.56836-.6548 1.79465 1.0815 1.56541-1.8798-.07543-1.1223 1.53392-.5135-1.84878-1.7793-.61953 1.5621-1.06044.0268-1.911539z"/><path d="m16.661 2.83696 1.2789-1.40245.3207 1.88298 1.7123.80138-1.6649.89675-.2203 1.89856-1.3489-1.33351-1.8502.37245.8337-1.71856-.9207-1.66994z"/><path d="m8.85243 8.21057.41413-1.862 1.20384 1.46928 1.8762-.1762-1.0051 1.61876.7441 1.75899-1.8236-.4695-1.4123 1.2628-.12775-1.90933-1.61443-.98367z"/></g><path d="m74.5236 5.95046v6.54664h-1.4613v-6.54664zm6.5826 0v6.54664h-1.4613l-2.473-4.23105v4.23105h-1.4658v-6.54664h1.4658l2.4775 4.23104v-4.23104zm3.9972 0v6.54664h-1.4613v-6.54664zm1.9919 0v1.13756h-5.4046v-1.13756zm5.1752 5.41354v1.1331h-3.4846v-1.1331zm-2.9856-5.41354v6.54664h-1.4657v-6.54664zm2.536 2.63483v1.0971h-3.035v-1.0971zm.4541-2.63483v1.13756h-3.4891v-1.13756zm.7149 0h2.5134c.5006 0 .9338.07494 1.2995.22481.3687.14988.6519.3717.8498.66546.1978.29375.2967.65646.2967 1.0881 0 .3597-.0584.66545-.1753.91725-.1169.25179-.2818.46012-.4946.62498-.2099.16487-.4557.29826-.7374.40017l-.4766.26077h-2.1403l-.009-1.13755h1.5917c.2188 0 .4002-.03896.5441-.1169s.2518-.18735.3237-.32823c.0749-.14388.1124-.31174.1124-.50359 0-.19783-.0375-.36869-.1124-.51257-.0749-.14389-.1858-.25329-.3327-.32823-.1439-.07794-.3237-.11691-.5396-.11691h-1.0476v5.40908h-1.4658zm3.624 6.54664-1.4703-2.90913 1.5468-.0045 1.4927 2.84613v.0675zm7.7291-6.54664v6.54664h-1.461l-2.473-4.23105v4.23105h-1.466v-6.54664h1.466l2.477 4.23104v-4.23104zm3.885 1.24547-1.691 5.30117h-1.564l2.423-6.54664h.989zm1.403 5.30117-1.695-5.30117-.176-1.24547h1.003l2.432 6.54664zm-.072-2.437v1.133h-3.413v-1.133zm4.68-4.10964v6.54664h-1.461v-6.54664zm1.992 0v1.13756h-5.404v-1.13756zm2.284 0v6.54664h-1.461v-6.54664zm6.641 3.12942v.29226c0 .49759-.069.94426-.206 1.33986-.135.3957-.329.7329-.58 1.0117-.249.2788-.546.4931-.891.643-.341.1469-.721.2203-1.137.2203-.417 0-.798-.0734-1.142-.2203-.345-.1499-.645-.3642-.9-.643-.251-.2788-.446-.616-.584-1.0117-.138-.3956-.207-.84227-.207-1.33986v-.29226c0-.49759.069-.94422.207-1.33989.138-.39868.331-.7374.58-1.01617.252-.27877.55-.49159.895-.63847.344-.14988.725-.22482 1.142-.22482.416 0 .797.07494 1.142.22482.345.14688.641.3597.89.63847.252.27877.447.61749.585 1.01617.137.39567.206.8423.206 1.33989zm-1.479.29226v-.30125c0-.33273-.03-.62648-.09-.88127-.06-.25779-.147-.47361-.261-.64747-.113-.17386-.254-.30425-.422-.39118-.168-.08992-.358-.13489-.571-.13489-.222 0-.415.04497-.58.13489-.165.08693-.305.21732-.418.39118-.111.17386-.197.38968-.257.64747-.057.25479-.085.54854-.085.88127v.30125c0 .32973.028.62349.085.88126.06.2548.147.4706.261.6475.114.1768.253.3102.418.4002.168.0899.363.1348.585.1348.213 0 .401-.0449.566-.1348.168-.09.309-.2234.423-.4002.114-.1769.199-.3927.256-.6475.06-.25777.09-.55153.09-.88126zm7.779-3.42168v6.54664h-1.462l-2.473-4.23105v4.23105h-1.465v-6.54664h1.465l2.478 4.23104v-4.23104zm3.885 1.24547-1.691 5.30117h-1.565l2.424-6.54664h.989zm1.402 5.30117-1.695-5.30117-.175-1.24547h1.003l2.432 6.54664zm-.072-2.437v1.133h-3.412v-1.133zm6.453 1.3039v1.1331h-3.305v-1.1331zm-2.806-5.41354v6.54664h-1.466v-6.54664zm-62.9033 16.41354v1.1331h-3.4846v-1.1331zm-2.9855-5.4135v6.5466h-1.4658v-6.5466zm2.5359 2.6348v1.0971h-3.035v-1.0971zm.4541-2.6348v1.1375h-3.4891v-1.1375zm4.2985 0h1.4658v4.2984c0 .5096-.1079.9382-.3238 1.286-.2128.3477-.5095.61-.8902.7868-.3807.1769-.8214.2653-1.3219.2653-.5036 0-.9473-.0884-1.3309-.2653-.3807-.1768-.6805-.4391-.8993-.7868-.2158-.3478-.3237-.7764-.3237-1.286v-4.2984h1.4703v4.2984c0 .2818.0419.5126.1258.6925.087.1768.2114.3072.3732.3911.1619.081.3567.1214.5846.1214.2278 0 .4211-.0404.58-.1214.1618-.0839.2832-.2143.3642-.3911.0839-.1799.1259-.4107.1259-.6925zm2.5134 0h2.5134c.5006 0 .9338.0749 1.2995.2248.3687.1499.6519.3717.8498.6654.1978.2938.2967.6565.2967 1.0881 0 .3597-.0584.6655-.1753.9173s-.2818.4601-.4946.625c-.2098.1648-.4556.2982-.7374.4001l-.4766.2608h-2.1403l-.009-1.1375h1.5917c.2189 0 .4002-.039.5441-.117.1439-.0779.2518-.1873.3237-.3282.075-.1439.1124-.3117.1124-.5036 0-.1978-.0374-.3687-.1124-.5125-.0749-.1439-.1858-.2533-.3327-.3283-.1439-.0779-.3237-.1169-.5396-.1169h-1.0476v5.4091h-1.4658zm3.624 6.5466-1.4703-2.9091 1.5468-.0045 1.4927 2.8461v.0675zm7.7876-3.4172v.2922c0 .4976-.0689.9443-.2068 1.3399-.1349.3957-.3282.7329-.58 1.0117-.2488.2788-.5456.4931-.8903.643-.3417.1469-.7209.2203-1.1376.2203-.4166 0-.7973-.0734-1.142-.2203-.3447-.1499-.6445-.3642-.8993-.643-.2518-.2788-.4466-.616-.5845-1.0117-.1379-.3956-.2068-.8423-.2068-1.3399v-.2922c0-.4976.0689-.9442.2068-1.3399.1379-.3987.3312-.7374.58-1.0162.2518-.2787.5501-.4916.8948-.6385.3447-.1498.7254-.2248 1.142-.2248.4167 0 .7974.075 1.1421.2248.3447.1469.6415.3598.8903.6385.2518.2788.4466.6175.5845 1.0162.1379.3957.2068.8423.2068 1.3399zm-1.4793.2922v-.3012c0-.3327-.0299-.6265-.0899-.8813-.0599-.2578-.1469-.4736-.2608-.6475-.1139-.1738-.2548-.3042-.4226-.3911-.1679-.09-.3582-.1349-.5711-.1349-.2218 0-.4151.0449-.58.1349-.1648.0869-.3042.2173-.4181.3911-.1109.1739-.1964.3897-.2563.6475-.057.2548-.0855.5486-.0855.8813v.3012c0 .3298.0285.6235.0855.8813.0599.2548.1469.4706.2608.6475.1139.1768.2532.3102.4181.4002.1679.0899.3627.1348.5845.1348.2129 0 .4017-.0449.5666-.1348.1678-.09.3087-.2234.4226-.4002.1139-.1769.1994-.3927.2563-.6475.06-.2578.0899-.5515.0899-.8813zm4.9594.8498h-1.6456v-1.1375h1.6456c.2428 0 .4377-.0405.5846-.1214.1498-.081.2593-.1919.3286-.3327.072-.1439.108-.3058.108-.4856 0-.1859-.036-.3583-.108-.5171-.0693-.1619-.1788-.2923-.3286-.3912-.1469-.0989-.3418-.1484-.5846-.1484h-1.115v5.4091h-1.4658v-6.5466h2.5808c.5216 0 .9682.0944 1.3402.2832.374.1889.661.4482.859.7779.2.3267.301.7014.301 1.1241 0 .4226-.101.7898-.301 1.1016-.198.3117-.485.5545-.859.7284-.372.1708-.8186.2562-1.3402.2562zm7.8412 1.1421v1.1331h-3.484v-1.1331zm-2.985-5.4135v6.5466h-1.466v-6.5466zm2.536 2.6348v1.0971h-3.035v-1.0971zm.454-2.6348v1.1375h-3.489v-1.1375zm3.435 1.2454-1.691 5.3012h-1.564l2.423-6.5466h.989zm1.403 5.3012-1.695-5.3012-.176-1.2454h1.003l2.433 6.5466zm-.072-2.437v1.133h-3.413v-1.133zm7.581-4.1096v6.5466h-1.462l-2.473-4.231v4.231h-1.465v-6.5466h1.465l2.478 4.231v-4.231zm-42.7691 11h1.4658v4.2984c0 .5096-.1079.9382-.3237 1.286-.2128.3477-.5096.61-.8903.7868-.3807.1769-.8213.2653-1.3219.2653-.5036 0-.9472-.0884-1.3309-.2653-.3807-.1768-.6804-.4391-.8992-.7868-.2159-.3478-.3238-.7764-.3238-1.286v-4.2984h1.4703v4.2984c0 .2818.042.5126.1259.6925.0869.1768.2113.3072.3732.3911.1619.081.3567.1214.5845.1214s.4212-.0404.58-.1214c.1619-.0839.2833-.2143.3642-.3911.084-.1799.1259-.4107.1259-.6925zm7.9135 0v6.5466h-1.4613l-2.4729-4.231v4.231h-1.4658v-6.5466h1.4658l2.4774 4.231v-4.231zm2.6438 0v6.5466h-1.4613v-6.5466zm3.6016 5.0943 1.4568-5.0943h1.6321l-2.2436 6.5466h-1.0656zm-1.3264-5.0943 1.4523 5.0943.2293 1.4523h-1.0791l-2.2302-6.5466zm9.4107 5.4135v1.1331h-3.4846v-1.1331zm-2.9855-5.4135v6.5466h-1.4658v-6.5466zm2.5359 2.6348v1.0971h-3.035v-1.0971zm.4541-2.6348v1.1375h-3.4891v-1.1375zm.7149 0h2.5135c.501 0 .934.0749 1.299.2248.369.1499.652.3717.85.6654.198.2938.297.6565.297 1.0881 0 .3597-.059.6655-.175.9173-.117.2518-.282.4601-.495.625-.21.1648-.456.2982-.737.4001l-.477.2608h-2.14l-.009-1.1375h1.591c.219 0 .401-.039.545-.117.143-.0779.251-.1873.323-.3282.075-.1439.113-.3117.113-.5036 0-.1978-.038-.3687-.113-.5125-.075-.1439-.186-.2533-.332-.3283-.144-.0779-.324-.1169-.54-.1169h-1.048v5.4091h-1.4655zm3.6245 6.5466-1.471-2.9091 1.547-.0045 1.493 2.8461v.0675zm5.723-1.7266c0-.1109-.016-.2098-.049-.2968-.033-.0899-.093-.1723-.18-.2473-.087-.0749-.21-.1498-.369-.2248-.159-.0779-.367-.1573-.625-.2383-.293-.0959-.574-.2038-.84-.3237-.264-.1229-.5-.2653-.706-.4272-.207-.1618-.371-.3507-.49-.5665-.117-.2158-.176-.4676-.176-.7554 0-.2787.062-.5305.185-.7554.122-.2248.295-.4166.517-.5755.221-.1618.482-.2847.782-.3687.3-.0869.629-.1304.989-.1304.48 0 .901.0855 1.264.2563.365.1679.65.4047.854.7104.204.3028.306.655.306 1.0567h-1.457c0-.1769-.038-.3328-.113-.4676-.072-.1379-.182-.2458-.332-.3238-.147-.0779-.332-.1169-.553-.1169-.216 0-.398.033-.544.0989-.144.063-.254.1499-.329.2608-.072.1109-.108.2323-.108.3642 0 .1049.027.2009.081.2878.057.0839.138.1633.243.2383.108.0719.24.1409.396.2068.156.066.334.1289.535.1889.351.1109.661.2338.931.3687.272.1348.502.2877.688.4586.185.1708.325.3642.418.58.096.2158.144.4601.144.7329 0 .2908-.057.5485-.171.7734-.111.2248-.273.4166-.486.5755-.21.1559-.461.2743-.755.3552s-.622.1214-.985.1214c-.33 0-.655-.042-.976-.1259-.32-.0869-.611-.2188-.872-.3957-.258-.1768-.464-.4016-.62-.6744-.153-.2758-.23-.6025-.23-.9802h1.466c0 .1978.029.3657.086.5036.057.1349.137.2443.242.3282.108.0839.239.1439.392.1799.152.0359.323.0539.512.0539.219 0 .396-.03.531-.0899.138-.063.239-.1484.305-.2563s.099-.2278.099-.3597zm3.885-4.82v6.5466h-1.461v-6.5466zm4.096 0v6.5466h-1.461v-6.5466zm1.992 0v1.1375h-5.404v-1.1375zm1.844 0 1.281 2.9136 1.29-2.9136h1.583l-2.127 4.1815v2.3651h-1.488v-2.3651l-2.131-4.1815z" fill="url(#e)"/></g></svg>