<svg width="144" height="37" viewBox="0 0 144 37" fill="none" xmlns="http://www.w3.org/2000/svg">
<g clip-path="url(#clip0_3124_6515)">
<path d="M67.7931 6.25101L68.8433 6.25952L68.6911 34.3547L67.6409 34.3462L67.7931 6.25101Z" fill="url(#paint0_linear_3124_6515)"/>
<path d="M57.4022 6.18738L57.4203 18.8426C57.4232 21.7527 57.2414 23.1003 57.0878 23.716C56.8829 24.5291 56.5149 25.2894 55.9834 25.9734C55.4671 26.6415 54.8252 27.1697 54.065 27.5424C53.3126 27.9149 52.4029 28.101 51.3514 28.1081C50.3076 28.1072 49.3301 27.8774 48.4266 27.4183C47.5543 26.9746 46.881 26.3864 46.4143 25.6537C45.9319 24.8976 45.6424 24.1152 45.5614 23.3141C45.4623 22.3324 45.41 20.8308 45.4048 18.8409L45.3866 6.18574L39.2244 6.19498L39.2288 8.12981C41.72 11.4921 43.2023 15.6711 43.2128 20.2015C43.2194 23.3711 42.4967 26.3703 41.2126 29.0393C41.5129 29.4912 41.8361 29.927 42.2054 30.3386C43.3053 31.5657 44.6954 32.529 46.3365 33.2056C47.9464 33.8669 49.7682 34.2028 51.7477 34.206C54.2914 34.2012 56.5548 33.5082 58.4606 32.1439C60.3586 30.7797 61.7103 29.0536 62.4698 27.0056C63.1995 25.0446 63.548 22.3733 63.5439 18.8339L63.5258 6.17869L57.4022 6.18738Z" fill="url(#paint1_linear_3124_6515)"/>
<path d="M0.638574 6.22199L0.671875 34.2432L6.80267 34.2387L6.76936 6.21749L0.638574 6.22199Z" fill="url(#paint2_linear_3124_6515)"/>
<path d="M22.4542 28.364C20.4748 28.3686 18.8334 27.6684 17.4444 26.2331C16.3379 25.0927 15.6605 23.6787 15.3729 21.9446L35.9629 21.9262L35.9259 20.4165C35.8261 16.1313 34.4856 12.6739 31.9521 10.1459C29.4109 7.61806 26.2456 6.33396 22.5266 6.33981C18.7921 6.34589 15.6108 7.72839 13.0751 10.4624C10.5622 13.1725 9.28692 16.4627 9.28676 20.2459C9.29433 24.0291 10.5627 27.3066 13.0754 30.0001C15.6039 32.7169 18.8477 34.0943 22.7059 34.0864C28.1105 34.0801 32.2405 31.4492 34.9731 26.2505L35.6722 24.8562L29.138 24.8079C27.5252 27.1984 25.3227 28.3624 22.4542 28.364ZM22.5639 12.2069C24.3577 12.2049 25.8961 12.7257 27.2644 13.7916C28.1557 14.4867 28.8096 15.3347 29.2498 16.3824L16.1519 16.3884C17.4262 13.578 19.5329 12.2029 22.5639 12.2069Z" fill="#D00000"/>
<path d="M36.8077 32.6265L36.3704 34.4888L35.1817 33.0036L33.3052 33.1562L34.326 31.5529L33.605 29.7857L35.4211 30.2711L36.8492 29.0316L36.9537 30.9413L38.5607 31.9408L36.8077 32.6265Z" fill="#D00000"/>
<path d="M40.4548 24.1027L40.9835 25.9356L39.2264 25.2528L37.6802 26.3366L37.7766 24.4241L36.2833 23.2578L38.1008 22.76L38.7322 20.9578L39.7525 22.5634L41.6319 22.6152L40.4548 24.1027Z" fill="#D00000"/>
<path d="M39.8266 14.2887L41.2059 15.5903L39.355 15.9156L38.5681 17.6571L37.6857 15.963L35.8192 15.738L37.1295 14.3665L36.7624 12.4842L38.4523 13.3331L40.0934 12.3973L39.8266 14.2887Z" fill="#D00000"/>
<path d="M34.5267 6.33504L36.3573 6.75722L34.9135 7.98113L35.0876 9.8898L33.4958 8.86649L31.7672 9.63044L32.2277 7.76777L30.9856 6.3305L32.8625 6.20148L33.821 4.55979L34.5267 6.33504Z" fill="#D00000"/>
<path d="M26.0916 2.16781L27.8927 1.59945L27.2379 3.3941L28.3194 4.95951L26.4396 4.88408L25.3173 6.418L24.8038 4.56922L23.0245 3.94969L24.5866 2.88925L24.6134 0.977711L26.0916 2.16781Z" fill="#D00000"/>
<path d="M16.661 2.83696L17.9399 1.43451L18.2606 3.31749L19.9729 4.11887L18.308 5.01562L18.0877 6.91418L16.7388 5.58067L14.8886 5.95312L15.7223 4.23456L14.8016 2.56462L16.661 2.83696Z" fill="#D00000"/>
<path d="M8.85243 8.21057L9.26656 6.34857L10.4704 7.81785L12.3466 7.64165L11.3415 9.26041L12.0856 11.0194L10.262 10.5499L8.8497 11.8127L8.72195 9.90337L7.10752 8.9197L8.85243 8.21057Z" fill="#D00000"/>
<path d="M74.5236 5.95046L74.5236 12.4971L73.0623 12.4971L73.0623 5.95046L74.5236 5.95046ZM81.1062 5.95046L81.1062 12.4971L79.6449 12.4971L77.1719 8.26605L77.1719 12.4971L75.7061 12.4971L75.7061 5.95046L77.1719 5.95046L79.6494 10.1815L79.6494 5.95046L81.1062 5.95046ZM85.1034 5.95046L85.1034 12.4971L83.6421 12.4971L83.6421 5.95046L85.1034 5.95046ZM87.0953 5.95046L87.0953 7.08802L81.6907 7.08802L81.6907 5.95046L87.0953 5.95046ZM92.2705 11.364L92.2705 12.4971L88.7859 12.4971L88.7859 11.364L92.2705 11.364ZM89.2849 5.95046L89.2849 12.4971L87.8192 12.4971L87.8192 5.95046L89.2849 5.95046ZM91.8209 8.58529L91.8209 9.68239L88.7859 9.68239L88.7859 8.58529L91.8209 8.58529ZM92.275 5.95046L92.275 7.08802L88.7859 7.08802L88.7859 5.95046L92.275 5.95046ZM92.9899 5.95046L95.5033 5.95046C96.0039 5.95046 96.4371 6.0254 96.8028 6.17527C97.1715 6.32515 97.4547 6.54697 97.6526 6.84073C97.8504 7.13448 97.9493 7.49719 97.9493 7.92883C97.9493 8.28853 97.8909 8.59428 97.774 8.84608C97.6571 9.09787 97.4922 9.3062 97.2794 9.47106C97.0695 9.63593 96.8237 9.76932 96.542 9.87123L96.0654 10.132L93.9251 10.132L93.9161 8.99445L95.5078 8.99445C95.7266 8.99445 95.908 8.95549 96.0519 8.87755C96.1958 8.79961 96.3037 8.6902 96.3756 8.54932C96.4505 8.40544 96.488 8.23758 96.488 8.04573C96.488 7.8479 96.4505 7.67704 96.3756 7.53316C96.3007 7.38927 96.1898 7.27987 96.0429 7.20493C95.899 7.12699 95.7192 7.08802 95.5033 7.08802L94.4557 7.08802L94.4557 12.4971L92.9899 12.4971L92.9899 5.95046ZM96.6139 12.4971L95.1436 9.58797L96.6904 9.58347L98.1831 12.4296L98.1831 12.4971L96.6139 12.4971ZM104.343 5.95046L104.343 12.4971L102.882 12.4971L100.409 8.26605L100.409 12.4971L98.943 12.4971L98.943 5.95046L100.409 5.95046L102.886 10.1815L102.886 5.95046L104.343 5.95046ZM108.228 7.19593L106.537 12.4971L104.973 12.4971L107.396 5.95046L108.385 5.95046L108.228 7.19593ZM109.631 12.4971L107.936 7.19593L107.76 5.95046L108.763 5.95046L111.195 12.4971L109.631 12.4971ZM109.559 10.0601L109.559 11.1931L106.146 11.1931L106.146 10.0601L109.559 10.0601ZM114.239 5.95046L114.239 12.4971L112.778 12.4971L112.778 5.95046L114.239 5.95046ZM116.231 5.95046L116.231 7.08802L110.827 7.08802L110.827 5.95046L116.231 5.95046ZM118.515 5.95046L118.515 12.4971L117.054 12.4971L117.054 5.95046L118.515 5.95046ZM125.156 9.07988L125.156 9.37214C125.156 9.86973 125.087 10.3164 124.95 10.712C124.815 11.1077 124.621 11.4449 124.37 11.7237C124.121 12.0025 123.824 12.2168 123.479 12.3667C123.138 12.5136 122.758 12.587 122.342 12.587C121.925 12.587 121.544 12.5136 121.2 12.3667C120.855 12.2168 120.555 12.0025 120.3 11.7237C120.049 11.4449 119.854 11.1077 119.716 10.712C119.578 10.3164 119.509 9.86973 119.509 9.37214L119.509 9.07988C119.509 8.58229 119.578 8.13566 119.716 7.73999C119.854 7.34131 120.047 7.00259 120.296 6.72382C120.548 6.44505 120.846 6.23223 121.191 6.08535C121.535 5.93547 121.916 5.86053 122.333 5.86053C122.749 5.86053 123.13 5.93547 123.475 6.08535C123.82 6.23223 124.116 6.44505 124.365 6.72382C124.617 7.00259 124.812 7.34131 124.95 7.73999C125.087 8.13566 125.156 8.58229 125.156 9.07988ZM123.677 9.37214L123.677 9.07089C123.677 8.73816 123.647 8.44441 123.587 8.18962C123.527 7.93183 123.44 7.71601 123.326 7.54215C123.213 7.36829 123.072 7.2379 122.904 7.15097C122.736 7.06105 122.546 7.01608 122.333 7.01608C122.111 7.01608 121.918 7.06105 121.753 7.15097C121.588 7.2379 121.448 7.36829 121.335 7.54215C121.224 7.71601 121.138 7.93183 121.078 8.18962C121.021 8.44441 120.993 8.73816 120.993 9.07089L120.993 9.37214C120.993 9.70187 121.021 9.99563 121.078 10.2534C121.138 10.5082 121.225 10.724 121.339 10.9009C121.453 11.0777 121.592 11.2111 121.757 11.3011C121.925 11.391 122.12 11.4359 122.342 11.4359C122.555 11.4359 122.743 11.391 122.908 11.3011C123.076 11.2111 123.217 11.0777 123.331 10.9009C123.445 10.724 123.53 10.5082 123.587 10.2534C123.647 9.99563 123.677 9.70187 123.677 9.37214ZM131.456 5.95046L131.456 12.4971L129.994 12.4971L127.521 8.26605L127.521 12.4971L126.056 12.4971L126.056 5.95046L127.521 5.95046L129.999 10.1815L129.999 5.95046L131.456 5.95046ZM135.341 7.19593L133.65 12.4971L132.085 12.4971L134.509 5.95046L135.498 5.95046L135.341 7.19593ZM136.743 12.4971L135.048 7.19593L134.873 5.95046L135.876 5.95046L138.308 12.4971L136.743 12.4971ZM136.671 10.0601L136.671 11.1931L133.259 11.1931L133.259 10.0601L136.671 10.0601ZM143.124 11.364L143.124 12.4971L139.819 12.4971L139.819 11.364L143.124 11.364ZM140.318 5.95046L140.318 12.4971L138.852 12.4971L138.852 5.95046L140.318 5.95046ZM77.4147 22.364L77.4147 23.4971L73.9301 23.4971L73.9301 22.364L77.4147 22.364ZM74.4292 16.9505L74.4292 23.4971L72.9634 23.4971L72.9634 16.9505L74.4292 16.9505ZM76.9651 19.5853L76.9651 20.6824L73.9301 20.6824L73.9301 19.5853L76.9651 19.5853ZM77.4192 16.9505L77.4192 18.088L73.9301 18.088L73.9301 16.9505L77.4192 16.9505ZM81.7177 16.9505L83.1835 16.9505L83.1835 21.2489C83.1835 21.7585 83.0756 22.1871 82.8597 22.5349C82.6469 22.8826 82.3502 23.1449 81.9695 23.3217C81.5888 23.4986 81.1481 23.587 80.6476 23.587C80.144 23.587 79.7003 23.4986 79.3167 23.3217C78.936 23.1449 78.6362 22.8826 78.4174 22.5349C78.2016 22.1871 78.0937 21.7585 78.0937 21.2489L78.0937 16.9505L79.564 16.9505L79.564 21.2489C79.564 21.5307 79.6059 21.7615 79.6898 21.9414C79.7768 22.1182 79.9012 22.2486 80.063 22.3325C80.2249 22.4135 80.4197 22.4539 80.6476 22.4539C80.8754 22.4539 81.0687 22.4135 81.2276 22.3325C81.3894 22.2486 81.5108 22.1182 81.5918 21.9414C81.6757 21.7615 81.7177 21.5307 81.7177 21.2489L81.7177 16.9505ZM84.2311 16.9505L86.7445 16.9505C87.2451 16.9505 87.6783 17.0254 88.044 17.1753C88.4127 17.3252 88.6959 17.547 88.8938 17.8407C89.0916 18.1345 89.1905 18.4972 89.1905 18.9288C89.1905 19.2885 89.1321 19.5943 89.0152 19.8461C88.8983 20.0979 88.7334 20.3062 88.5206 20.4711C88.3108 20.6359 88.065 20.7693 87.7832 20.8712L87.3066 21.132L85.1663 21.132L85.1573 19.9945L86.749 19.9945C86.9679 19.9945 87.1492 19.9555 87.2931 19.8775C87.437 19.7996 87.5449 19.6902 87.6168 19.5493C87.6918 19.4054 87.7292 19.2376 87.7292 19.0457C87.7292 18.8479 87.6918 18.677 87.6168 18.5332C87.5419 18.3893 87.431 18.2799 87.2841 18.2049C87.1402 18.127 86.9604 18.088 86.7445 18.088L85.6969 18.088L85.6969 23.4971L84.2311 23.4971L84.2311 16.9505ZM87.8551 23.4971L86.3848 20.588L87.9316 20.5835L89.4243 23.4296L89.4243 23.4971L87.8551 23.4971ZM95.6427 20.0799L95.6427 20.3721C95.6427 20.8697 95.5738 21.3164 95.4359 21.712C95.301 22.1077 95.1077 22.4449 94.8559 22.7237C94.6071 23.0025 94.3103 23.2168 93.9656 23.3667C93.6239 23.5136 93.2447 23.587 92.828 23.587C92.4114 23.587 92.0307 23.5136 91.686 23.3667C91.3413 23.2168 91.0415 23.0025 90.7867 22.7237C90.5349 22.4449 90.3401 22.1077 90.2022 21.712C90.0643 21.3164 89.9954 20.8697 89.9954 20.3721L89.9954 20.0799C89.9954 19.5823 90.0643 19.1357 90.2022 18.74C90.3401 18.3413 90.5334 18.0026 90.7822 17.7238C91.034 17.4451 91.3323 17.2322 91.677 17.0853C92.0217 16.9355 92.4024 16.8605 92.819 16.8605C93.2357 16.8605 93.6164 16.9355 93.9611 17.0853C94.3058 17.2322 94.6026 17.4451 94.8514 17.7238C95.1032 18.0026 95.298 18.3413 95.4359 18.74C95.5738 19.1357 95.6427 19.5823 95.6427 20.0799ZM94.1634 20.3721L94.1634 20.0709C94.1634 19.7382 94.1335 19.4444 94.0735 19.1896C94.0136 18.9318 93.9266 18.716 93.8127 18.5421C93.6988 18.3683 93.5579 18.2379 93.3901 18.151C93.2222 18.061 93.0319 18.0161 92.819 18.0161C92.5972 18.0161 92.4039 18.061 92.239 18.151C92.0742 18.2379 91.9348 18.3683 91.8209 18.5421C91.71 18.716 91.6245 18.9318 91.5646 19.1896C91.5076 19.4444 91.4791 19.7382 91.4791 20.0709L91.4791 20.3721C91.4791 20.7019 91.5076 20.9956 91.5646 21.2534C91.6245 21.5082 91.7115 21.724 91.8254 21.9009C91.9393 22.0777 92.0786 22.2111 92.2435 22.3011C92.4114 22.391 92.6062 22.4359 92.828 22.4359C93.0409 22.4359 93.2297 22.391 93.3946 22.3011C93.5624 22.2111 93.7033 22.0777 93.8172 21.9009C93.9311 21.724 94.0166 21.5082 94.0735 21.2534C94.1335 20.9956 94.1634 20.7019 94.1634 20.3721ZM99.1228 21.2219L97.4772 21.2219L97.4772 20.0844L99.1228 20.0844C99.3656 20.0844 99.5605 20.0439 99.7074 19.963C99.8572 19.882 99.9667 19.7711 100.036 19.6303C100.108 19.4864 100.144 19.3245 100.144 19.1447C100.144 18.9588 100.108 18.7864 100.036 18.6276C99.9667 18.4657 99.8572 18.3353 99.7074 18.2364C99.5605 18.1375 99.3656 18.088 99.1228 18.088L98.0078 18.088L98.0078 23.4971L96.542 23.4971L96.542 16.9505L99.1228 16.9505C99.6444 16.9505 100.091 17.0449 100.463 17.2337C100.837 17.4226 101.124 17.6819 101.322 18.0116C101.522 18.3383 101.623 18.713 101.623 19.1357C101.623 19.5583 101.522 19.9255 101.322 20.2373C101.124 20.549 100.837 20.7918 100.463 20.9657C100.091 21.1365 99.6444 21.2219 99.1228 21.2219ZM106.964 22.364L106.964 23.4971L103.48 23.4971L103.48 22.364L106.964 22.364ZM103.979 16.9505L103.979 23.4971L102.513 23.4971L102.513 16.9505L103.979 16.9505ZM106.515 19.5853L106.515 20.6824L103.48 20.6824L103.48 19.5853L106.515 19.5853ZM106.969 16.9505L106.969 18.088L103.48 18.088L103.48 16.9505L106.969 16.9505ZM110.404 18.1959L108.713 23.4971L107.149 23.4971L109.572 16.9505L110.561 16.9505L110.404 18.1959ZM111.807 23.4971L110.112 18.1959L109.936 16.9505L110.939 16.9505L113.372 23.4971L111.807 23.4971ZM111.735 21.0601L111.735 22.1931L108.322 22.1931L108.322 21.0601L111.735 21.0601ZM119.316 16.9505L119.316 23.4971L117.854 23.4971L115.381 19.2661L115.381 23.4971L113.916 23.4971L113.916 16.9505L115.381 16.9505L117.859 21.1815L117.859 16.9505L119.316 16.9505ZM76.5469 27.9505L78.0127 27.9505L78.0127 32.2489C78.0127 32.7585 77.9048 33.1871 77.689 33.5349C77.4762 33.8826 77.1794 34.1449 76.7987 34.3217C76.418 34.4986 75.9774 34.587 75.4768 34.587C74.9732 34.587 74.5296 34.4986 74.1459 34.3217C73.7652 34.1449 73.4655 33.8826 73.2467 33.5349C73.0308 33.1871 72.9229 32.7585 72.9229 32.2489L72.9229 27.9505L74.3932 27.9505L74.3932 32.2489C74.3932 32.5307 74.4352 32.7615 74.5191 32.9414C74.606 33.1182 74.7304 33.2486 74.8923 33.3325C75.0542 33.4135 75.249 33.4539 75.4768 33.4539C75.7046 33.4539 75.898 33.4135 76.0568 33.3325C76.2187 33.2486 76.3401 33.1182 76.421 32.9414C76.505 32.7615 76.5469 32.5307 76.5469 32.2489L76.5469 27.9505ZM84.4604 27.9505L84.4604 34.4971L82.9991 34.4971L80.5262 30.2661L80.5262 34.4971L79.0604 34.4971L79.0604 27.9505L80.5262 27.9505L83.0036 32.1815L83.0036 27.9505L84.4604 27.9505ZM87.1042 27.9505L87.1042 34.4971L85.6429 34.4971L85.6429 27.9505L87.1042 27.9505ZM90.7058 33.0448L92.1626 27.9505L93.7947 27.9505L91.5511 34.4971L90.4855 34.4971L90.7058 33.0448ZM89.3794 27.9505L90.8317 33.0448L91.061 34.4971L89.9819 34.4971L87.7517 27.9505L89.3794 27.9505ZM98.7901 33.364L98.7901 34.4971L95.3055 34.4971L95.3055 33.364L98.7901 33.364ZM95.8046 27.9505L95.8046 34.4971L94.3388 34.4971L94.3388 27.9505L95.8046 27.9505ZM98.3405 30.5853L98.3405 31.6824L95.3055 31.6824L95.3055 30.5853L98.3405 30.5853ZM98.7946 27.9505L98.7946 29.088L95.3055 29.088L95.3055 27.9505L98.7946 27.9505ZM99.5095 27.9505L102.023 27.9505C102.524 27.9505 102.957 28.0254 103.322 28.1753C103.691 28.3252 103.974 28.547 104.172 28.8407C104.37 29.1345 104.469 29.4972 104.469 29.9288C104.469 30.2885 104.41 30.5943 104.294 30.8461C104.177 31.0979 104.012 31.3062 103.799 31.4711C103.589 31.6359 103.343 31.7693 103.062 31.8712L102.585 32.132L100.445 32.132L100.436 30.9945L102.027 30.9945C102.246 30.9945 102.428 30.9555 102.572 30.8775C102.715 30.7996 102.823 30.6902 102.895 30.5493C102.97 30.4054 103.008 30.2376 103.008 30.0457C103.008 29.8479 102.97 29.677 102.895 29.5332C102.82 29.3893 102.709 29.2799 102.563 29.2049C102.419 29.127 102.239 29.088 102.023 29.088L100.975 29.088L100.975 34.4971L99.5095 34.4971L99.5095 27.9505ZM103.134 34.4971L101.663 31.588L103.21 31.5835L104.703 34.4296L104.703 34.4971L103.134 34.4971ZM108.857 32.7705C108.857 32.6596 108.841 32.5607 108.808 32.4737C108.775 32.3838 108.715 32.3014 108.628 32.2264C108.541 32.1515 108.418 32.0766 108.259 32.0016C108.1 31.9237 107.892 31.8443 107.634 31.7633C107.341 31.6674 107.06 31.5595 106.794 31.4396C106.53 31.3167 106.294 31.1743 106.088 31.0124C105.881 30.8506 105.717 30.6617 105.598 30.4459C105.481 30.2301 105.422 29.9783 105.422 29.6905C105.422 29.4118 105.484 29.16 105.607 28.9351C105.729 28.7103 105.902 28.5185 106.124 28.3596C106.345 28.1978 106.606 28.0749 106.906 27.9909C107.206 27.904 107.535 27.8605 107.895 27.8605C108.375 27.8605 108.796 27.946 109.159 28.1168C109.524 28.2847 109.809 28.5215 110.013 28.8272C110.217 29.13 110.319 29.4822 110.319 29.8839L108.862 29.8839C108.862 29.707 108.824 29.5511 108.749 29.4163C108.677 29.2784 108.567 29.1705 108.417 29.0925C108.27 29.0146 108.085 28.9756 107.864 28.9756C107.648 28.9756 107.466 29.0086 107.32 29.0745C107.176 29.1375 107.066 29.2244 106.991 29.3353C106.919 29.4462 106.883 29.5676 106.883 29.6995C106.883 29.8044 106.91 29.9004 106.964 29.9873C107.021 30.0712 107.102 30.1506 107.207 30.2256C107.315 30.2975 107.447 30.3665 107.603 30.4324C107.759 30.4984 107.937 30.5613 108.138 30.6213C108.489 30.7322 108.799 30.8551 109.069 30.99C109.341 31.1248 109.571 31.2777 109.757 31.4486C109.942 31.6194 110.082 31.8128 110.175 32.0286C110.271 32.2444 110.319 32.4887 110.319 32.7615C110.319 33.0523 110.262 33.31 110.148 33.5349C110.037 33.7597 109.875 33.9515 109.662 34.1104C109.452 34.2663 109.201 34.3847 108.907 34.4656C108.613 34.5465 108.285 34.587 107.922 34.587C107.592 34.587 107.267 34.545 106.946 34.4611C106.626 34.3742 106.335 34.2423 106.074 34.0654C105.816 33.8886 105.61 33.6638 105.454 33.391C105.301 33.1152 105.224 32.7885 105.224 32.4108L106.69 32.4108C106.69 32.6086 106.719 32.7765 106.776 32.9144C106.833 33.0493 106.913 33.1587 107.018 33.2426C107.126 33.3265 107.257 33.3865 107.41 33.4225C107.562 33.4584 107.733 33.4764 107.922 33.4764C108.141 33.4764 108.318 33.4464 108.453 33.3865C108.591 33.3235 108.692 33.2381 108.758 33.1302C108.824 33.0223 108.857 32.9024 108.857 32.7705ZM112.742 27.9505L112.742 34.4971L111.281 34.4971L111.281 27.9505L112.742 27.9505ZM116.838 27.9505L116.838 34.4971L115.377 34.4971L115.377 27.9505L116.838 27.9505ZM118.83 27.9505L118.83 29.088L113.426 29.088L113.426 27.9505L118.83 27.9505ZM120.674 27.9505L121.955 30.8641L123.245 27.9505L124.828 27.9505L122.701 32.132L122.701 34.4971L121.213 34.4971L121.213 32.132L119.082 27.9505L120.674 27.9505Z" fill="url(#paint3_linear_3124_6515)"/>
</g>
<defs>
<linearGradient id="paint0_linear_3124_6515" x1="68.8049" y1="20.3074" x2="67.6791" y2="20.2983" gradientUnits="userSpaceOnUse">
<stop stop-color="#001C54"/>
<stop offset="1" stop-color="#001C54"/>
</linearGradient>
<linearGradient id="paint1_linear_3124_6515" x1="63.7221" y1="19.9409" x2="39.4022" y2="20.2878" gradientUnits="userSpaceOnUse">
<stop stop-color="#001C54"/>
<stop offset="1" stop-color="#001C54"/>
</linearGradient>
<linearGradient id="paint2_linear_3124_6515" x1="3.70397" y1="6.21974" x2="3.72454" y2="34.2409" gradientUnits="userSpaceOnUse">
<stop stop-color="#001C54"/>
<stop offset="1" stop-color="#001C54"/>
</linearGradient>
<linearGradient id="paint3_linear_3124_6515" x1="154.379" y1="21.0722" x2="72.4238" y2="21.0723" gradientUnits="userSpaceOnUse">
<stop stop-color="#001C54"/>
<stop offset="1" stop-color="#001C54"/>
</linearGradient>
<clipPath id="clip0_3124_6515">
<rect width="143.061" height="35.8343" fill="white" transform="translate(-0.00683594 1.03223) rotate(-0.288471)"/>
</clipPath>
</defs>
</svg>
