<svg width="15" height="14" viewBox="0 0 15 14" fill="none" xmlns="http://www.w3.org/2000/svg">
    <g clip-path="url(#clip0_3127_6640)">
        <path fill-rule="evenodd" clip-rule="evenodd"
            d="M3.56767 1.03069C0.339003 2.02664 0.232615 2.0619 0.135395 2.16798C-0.0412724 2.36076 -0.0412724 2.64231 0.135364 2.83507C0.232615 2.94117 0.337626 2.9759 3.58316 3.97464C5.42427 4.54122 6.96768 5.00479 7.01296 5.00479C7.05824 5.00479 8.42236 4.59645 10.0443 4.09736C11.6663 3.59828 12.9983 3.18993 13.0044 3.18993C13.0106 3.18993 13.0194 4.09007 13.0241 5.19025C13.0324 7.15503 13.0337 7.19214 13.0971 7.27697C13.2197 7.44118 13.3197 7.4924 13.5176 7.4924C13.7155 7.4924 13.8155 7.44118 13.9381 7.27697C14.0017 7.19176 14.0027 7.15806 14.012 4.82259C14.0183 3.21741 14.0106 2.41774 13.9881 2.34017C13.9153 2.08947 14.0337 2.13325 10.4188 1.02161C8.58651 0.458162 7.0451 -0.00156055 6.99347 3.98153e-06C6.94184 0.00159981 5.40021 0.46539 3.56767 1.03069ZM2.92618 4.35551C2.91895 4.37704 2.81901 4.86855 2.70411 5.44781C2.47359 6.61 2.47124 6.65894 2.63812 6.8378C2.72711 6.93317 2.96439 7.02955 4.82665 7.72705C6.00831 8.16963 6.95949 8.5091 7.017 8.50875C7.07288 8.50841 8.055 8.15698 9.19946 7.72783C11.0711 7.02598 11.2903 6.93662 11.3801 6.83918C11.547 6.658 11.5447 6.61138 11.3111 5.43244C11.1945 4.84443 11.0882 4.35104 11.0748 4.33602C11.0614 4.32097 10.1886 4.57392 9.13147 4.89925C7.38128 5.43786 7.19323 5.48955 6.99347 5.48689C6.80188 5.48432 6.53828 5.41079 4.88986 4.90019C3.85335 4.57908 2.99048 4.3164 2.97233 4.3164C2.95418 4.3164 2.93344 4.33401 2.92618 4.35551ZM0 10.512V13.5196L0.592333 13.5099C1.24039 13.4993 1.26702 13.4921 1.42179 13.2848C1.48578 13.1991 1.48631 13.1764 1.48631 10.512C1.48631 7.84752 1.48578 7.82483 1.42179 7.73913C1.26702 7.53183 1.24039 7.5246 0.592333 7.51396L0 7.50426V10.512ZM2.0026 10.512V13.0152H2.4448H2.887L3.79813 13.3016C6.04677 14.0083 6.01382 14.0004 6.69621 14C7.10411 13.9997 7.22599 13.988 7.46283 13.9261C7.99127 13.788 8.20717 13.6682 9.62189 12.7292C10.3619 12.238 11.5729 11.4352 12.3129 10.9451C13.2212 10.3437 13.687 10.0165 13.7464 9.9384C13.7948 9.87472 13.8722 9.74189 13.9185 9.64317C13.9902 9.49006 14.0026 9.42238 14.0026 9.1821C14.0026 8.93797 13.9906 8.87457 13.9127 8.70579C13.6675 8.17498 13.0388 7.88945 12.5006 8.06449C12.3974 8.09809 11.5676 8.5274 10.6568 9.01857L9.0007 9.91158L8.95812 10.0788C8.86581 10.441 8.62546 10.7238 8.26074 10.8991L8.05735 10.997L6.86076 11.0065L5.66418 11.016L5.58567 10.9375C5.48235 10.8342 5.48163 10.6911 5.58398 10.5888L5.66077 10.512H6.76742C8.02587 10.512 8.06802 10.5056 8.28527 10.284C8.49082 10.0744 8.55625 9.8116 8.47302 9.52993C8.42223 9.35805 8.16302 9.09883 7.99114 9.04805C7.8989 9.0208 7.48586 9.01 6.53572 9.01H5.20909L4.75578 8.55306C4.50645 8.30177 4.25716 8.07647 4.20178 8.05241C4.12217 8.01787 3.8813 8.0087 3.05184 8.0087H2.0026V10.512Z"
            fill="white" />
    </g>
    <defs>
        <clipPath id="clip0_3127_6640">
            <rect width="14.0141" height="14" fill="white" />
        </clipPath>
    </defs>
</svg>
    