<svg width="16" height="16" viewBox="0 0 16 16" fill="none" xmlns="http://www.w3.org/2000/svg">
    <path fill-rule="evenodd" clip-rule="evenodd"
        d="M3.79048 0.320315C3.79711 0.320317 3.80373 0.320318 3.81032 0.320318H12.1903L12.2102 0.320315C12.3375 0.320289 12.4716 0.320261 12.5869 0.329991C12.7165 0.340932 12.883 0.367729 13.0525 0.457475C13.2615 0.568159 13.4325 0.739115 13.5432 0.948161C13.6329 1.11766 13.6597 1.28411 13.6706 1.41377C13.6804 1.52907 13.6803 1.66316 13.6803 1.79047L13.6803 1.81032V13.0621L13.6803 13.0918C13.6803 13.377 13.6804 13.6366 13.6616 13.8412C13.6443 14.0307 13.6016 14.3419 13.3808 14.5894C13.143 14.856 12.7973 15.0004 12.4406 14.9824C12.1093 14.9656 11.8579 14.7772 11.7109 14.6564C11.5521 14.526 11.3674 14.3435 11.1645 14.1431L11.1434 14.1223L8.09166 11.1087C8.05656 11.074 8.02679 11.0446 8.00032 11.0189C7.97384 11.0446 7.94408 11.074 7.90897 11.1087L4.85726 14.1223L4.83613 14.1431C4.6332 14.3436 4.4485 14.526 4.28975 14.6564C4.14274 14.7772 3.89131 14.9656 3.56005 14.9824C3.20332 15.0004 2.8576 14.856 2.61981 14.5894C2.39899 14.3419 2.35637 14.0307 2.33902 13.8412C2.32027 13.6366 2.32029 13.377 2.32032 13.0917L2.32032 13.0621V1.81032C2.32032 1.80373 2.32032 1.79711 2.32032 1.79048C2.32029 1.66317 2.32026 1.52907 2.32999 1.41377C2.34093 1.28411 2.36773 1.11766 2.45747 0.948161C2.56816 0.739115 2.73911 0.568159 2.94816 0.457475C3.11766 0.367729 3.28411 0.340932 3.41377 0.329991C3.52907 0.320261 3.66317 0.320289 3.79048 0.320315ZM3.68058 1.68058C3.68033 1.71802 3.68032 1.76037 3.68032 1.81032V13.0621C3.68032 13.1814 3.68041 13.2833 3.68114 13.3712C3.74417 13.31 3.81675 13.2384 3.90166 13.1546L6.95338 10.141C6.95802 10.1364 6.96268 10.1318 6.96736 10.1272C7.05687 10.0388 7.15131 9.94546 7.23935 9.872C7.33847 9.7893 7.47433 9.69229 7.65605 9.63686C7.88046 9.56841 8.12018 9.56841 8.34459 9.63686C8.5263 9.69229 8.66217 9.7893 8.76129 9.872C8.84932 9.94546 8.94376 10.0387 9.03327 10.1272C9.03794 10.1318 9.04261 10.1364 9.04726 10.141L12.099 13.1546C12.1839 13.2384 12.2565 13.31 12.3195 13.3712C12.3202 13.2833 12.3203 13.1814 12.3203 13.0621V1.81032C12.3203 1.76038 12.3203 1.71802 12.3201 1.68058C12.2826 1.68033 12.2403 1.68032 12.1903 1.68032H3.81032C3.76037 1.68032 3.71802 1.68033 3.68058 1.68058Z"
        fill="#7E8CA8" />
</svg>
    