<svg xmlns="http://www.w3.org/2000/svg" width="18" height="18" viewBox="0 0 18 18" fill="none">
    <path fill-rule="evenodd" clip-rule="evenodd"
        d="M3.15714 0.759478C3.1496 0.767238 3.10844 0.778405 3.06565 0.784272C3.01776 0.790859 2.98787 0.80477 2.98787 0.820498C2.98787 0.846088 3.13626 1.01151 3.56881 1.46808C3.69624 1.6026 3.87822 1.79908 3.97322 1.90471C4.06822 2.01036 4.27832 2.23578 4.44008 2.40567C4.60185 2.57555 4.77427 2.7596 4.82326 2.81466C4.90813 2.91009 5.31275 3.34488 5.70846 3.76589C5.80957 3.87345 5.97087 4.04778 6.06692 4.1533C6.16297 4.25882 6.37674 4.48751 6.54198 4.66149C6.7072 4.83546 6.88668 5.02892 6.9408 5.09138C6.99492 5.15383 7.1658 5.33856 7.32053 5.50188C7.47525 5.6652 7.70939 5.91515 7.84082 6.05729C7.97225 6.19945 8.15838 6.4007 8.25442 6.50452C8.35047 6.60835 8.53527 6.80536 8.66509 6.94232C8.7949 7.07925 8.97689 7.27537 9.0695 7.37813C9.16211 7.48086 9.37643 7.71046 9.54578 7.88836C9.71512 8.06623 9.85369 8.21875 9.85369 8.22724C9.85369 8.2721 9.91542 8.22406 10.0559 8.0699C10.1418 7.97559 10.2742 7.83224 10.35 7.75135C10.4258 7.67047 10.6078 7.47469 10.7544 7.31631C10.901 7.15793 11.1313 6.91192 11.2662 6.76963C11.401 6.62731 11.5739 6.44039 11.6503 6.35422C11.7267 6.26806 11.88 6.10363 11.9908 5.98883C12.1017 5.87404 12.1894 5.77801 12.1857 5.77543C12.1531 5.75246 12.0635 5.69751 11.9912 5.65614C11.9429 5.62845 11.8871 5.59652 11.8673 5.58518C11.8474 5.57382 11.82 5.55391 11.8062 5.54089C11.7925 5.52789 11.7694 5.51723 11.755 5.51723C11.7405 5.51723 11.7287 5.50871 11.7287 5.4983C11.7287 5.4879 11.7121 5.47938 11.6919 5.47938C11.6717 5.47938 11.6552 5.47289 11.6552 5.46494C11.6552 5.44959 11.6323 5.43545 11.5108 5.37555C11.4689 5.35488 11.4346 5.33145 11.4346 5.3235C11.4346 5.31555 11.4228 5.30904 11.4083 5.30904C11.3939 5.30904 11.371 5.2984 11.3574 5.28538C11.3355 5.26429 11.2849 5.23306 11.168 5.16848C11.1478 5.1573 11.1271 5.1439 11.1221 5.13869C11.117 5.13349 11.0839 5.11324 11.0485 5.09369C10.9119 5.01815 10.8168 4.96156 10.77 4.92779C10.7431 4.90847 10.7164 4.89264 10.7105 4.89264C10.7047 4.89264 10.6459 4.85857 10.5798 4.81694C10.5137 4.7753 10.4549 4.74123 10.449 4.74123C10.4432 4.74123 10.4164 4.7254 10.3896 4.70606C10.348 4.67602 10.2732 4.63193 10.0835 4.52529C10.0632 4.51393 10.0426 4.50038 10.0375 4.49518C10.0294 4.48679 9.99659 4.46743 9.8636 4.39248C9.84376 4.38129 9.81628 4.36152 9.80253 4.34849C9.78878 4.33549 9.76571 4.32484 9.75128 4.32484C9.73683 4.32484 9.72501 4.31632 9.72501 4.30591C9.72501 4.2955 9.70847 4.28698 9.68825 4.28698C9.66803 4.28698 9.65148 4.27939 9.65148 4.2701C9.65148 4.26082 9.6308 4.24788 9.60553 4.24135C9.58025 4.23482 9.55957 4.22112 9.55957 4.21091C9.55957 4.20069 9.54786 4.19235 9.53352 4.19235C9.5192 4.19235 9.50474 4.18595 9.50135 4.17815C9.49799 4.17035 9.46214 4.147 9.4217 4.12629C9.38126 4.10557 9.34404 4.08427 9.33898 4.07897C9.33393 4.07366 9.31325 4.06003 9.29303 4.04867C9.10325 3.94204 9.02854 3.89794 8.98689 3.8679C8.96005 3.84856 8.93365 3.83274 8.92825 3.83274C8.92282 3.83274 8.84966 3.79017 8.76564 3.73814C8.68163 3.68611 8.60255 3.64352 8.5899 3.6435C8.57727 3.64349 8.56692 3.63512 8.56692 3.6249C8.56692 3.6147 8.54624 3.60099 8.52097 3.59447C8.49569 3.58794 8.47501 3.57658 8.47501 3.56924C8.47501 3.56191 8.44606 3.5442 8.41067 3.52991C8.37529 3.51562 8.34633 3.49756 8.34633 3.4898C8.34633 3.48202 8.32773 3.4697 8.30497 3.46239C8.28222 3.45507 8.25948 3.44386 8.25442 3.43745C8.2406 3.41996 8.10277 3.33971 8.066 3.32775C8.04832 3.32199 8.03383 3.30977 8.03383 3.30057C8.03383 3.29139 8.02202 3.28386 8.00757 3.28386C7.99314 3.28386 7.97038 3.27322 7.95702 3.2602C7.94367 3.24719 7.88724 3.21203 7.83163 3.18207C7.77602 3.15212 7.72639 3.12231 7.72133 3.11582C7.71628 3.10935 7.68319 3.08906 7.6478 3.07076C7.61242 3.05244 7.55865 3.02191 7.52832 3.00289C7.49799 2.98388 7.42354 2.94026 7.36288 2.90592C7.30222 2.87161 7.24431 2.83703 7.2342 2.82908C7.21836 2.81664 7.13036 2.76518 6.99523 2.68936C6.97501 2.678 6.95433 2.6644 6.94927 2.65908C6.94422 2.65378 6.907 2.63249 6.86655 2.61176C6.82611 2.59105 6.78889 2.5688 6.78383 2.56232C6.77878 2.55583 6.72915 2.52602 6.67354 2.49608C6.61793 2.46612 6.5615 2.43097 6.54815 2.41795C6.53479 2.40495 6.51203 2.39429 6.4976 2.39429C6.48315 2.39429 6.47133 2.38676 6.47133 2.37758C6.47133 2.36838 6.45685 2.35615 6.43916 2.3504C6.40694 2.33991 6.26804 2.26067 6.25073 2.24288C6.24567 2.23767 6.21258 2.21742 6.1772 2.19787C6.04547 2.12506 5.94716 2.06646 5.93824 2.05544C5.93319 2.0492 5.90427 2.03133 5.87396 2.01571C5.84367 2.00012 5.74027 1.93978 5.64418 1.8816C5.49389 1.79062 5.36275 1.71409 5.21214 1.62947C5.19192 1.61812 5.17124 1.60449 5.16618 1.59917C5.16113 1.59387 5.12391 1.57258 5.08346 1.55185C5.04302 1.53115 5.00718 1.50781 5.00381 1.49999C5.00043 1.49218 4.98596 1.4858 4.97164 1.4858C4.95731 1.4858 4.9456 1.47745 4.9456 1.46723C4.9456 1.45703 4.92492 1.44333 4.89964 1.4368C4.87436 1.43027 4.85368 1.41732 4.85368 1.40805C4.85368 1.39875 4.83714 1.39116 4.81692 1.39116C4.7967 1.39116 4.78015 1.38265 4.78015 1.37224C4.78015 1.36183 4.76833 1.35331 4.75389 1.35331C4.73946 1.35331 4.71655 1.34267 4.703 1.32965C4.68106 1.30857 4.63045 1.27734 4.51361 1.21276C4.49339 1.20157 4.47271 1.18817 4.46765 1.18297C4.4594 1.17447 4.39609 1.13722 4.29302 1.08027C4.2728 1.06908 4.25212 1.05548 4.24707 1.05003C4.22821 1.02968 3.92449 0.879834 3.9024 0.879986C3.88977 0.880061 3.87942 0.872604 3.87942 0.863425C3.87942 0.854226 3.85666 0.840958 3.82887 0.833955C3.80107 0.826952 3.72455 0.807666 3.65883 0.791105C3.52966 0.75857 3.17947 0.736482 3.15714 0.759478ZM2.13614 1.40737C2.11425 1.42692 2.09633 1.45256 2.09633 1.46435C2.09633 1.47615 2.08966 1.4858 2.08148 1.4858C2.06561 1.4858 2.00442 1.61734 2.00442 1.65147C2.00442 1.66271 1.99822 1.67475 1.99063 1.67823C1.96932 1.68798 1.91232 1.86765 1.91241 1.92473C1.91247 1.95274 1.90423 1.98093 1.89412 1.98736C1.86863 2.00358 1.86863 15.996 1.89412 16.0122C1.90423 16.0186 1.91247 16.0468 1.91241 16.0748C1.91232 16.1319 1.96932 16.3116 1.99063 16.3213C1.99822 16.3248 2.00442 16.339 2.00442 16.3529C2.00442 16.3833 2.06307 16.5017 2.08254 16.5106C2.09013 16.5141 2.09633 16.529 2.09633 16.5437C2.09633 16.5978 2.1482 16.5679 2.23864 16.4617C2.28962 16.4019 2.4501 16.2284 2.59526 16.0761C2.74043 15.9239 2.93236 15.7195 3.02179 15.6219C3.27335 15.3473 3.71699 14.871 3.97751 14.5959C4.10729 14.4588 4.29754 14.2538 4.4003 14.1404C4.50306 14.0269 4.69054 13.8256 4.81692 13.6929C4.9433 13.5603 5.13896 13.3507 5.2517 13.2273C5.36446 13.1038 5.54438 12.9108 5.65152 12.7983C5.75867 12.6858 5.84633 12.5911 5.84633 12.5878C5.84633 12.5845 5.95058 12.4721 6.07799 12.3381C6.2054 12.204 6.40598 11.9886 6.52376 11.8593C6.64152 11.7301 6.84128 11.5163 6.96766 11.3841C7.09404 11.252 7.26927 11.0639 7.35707 10.9661C7.44488 10.8684 7.63306 10.6657 7.77527 10.5157C7.91747 10.3657 8.03383 10.2402 8.03383 10.2368C8.03383 10.2333 8.1145 10.1467 8.21306 10.0442C8.31165 9.94168 8.49983 9.74032 8.63126 9.59674C8.7627 9.45314 8.95088 9.25074 9.04946 9.14694C9.14803 9.04313 9.22869 8.95497 9.22869 8.95101C9.22869 8.94703 9.14803 8.85938 9.04946 8.75621C8.95088 8.65304 8.78203 8.47187 8.67426 8.35362C8.56646 8.23536 8.37828 8.03294 8.25606 7.9038C8.13383 7.77466 8.03383 7.66617 8.03383 7.66275C8.03383 7.65932 7.95319 7.57264 7.85461 7.47013C7.75602 7.36762 7.56784 7.16618 7.43641 7.02251C7.30497 6.87883 7.09159 6.6504 6.96225 6.51491C6.8329 6.37941 6.65359 6.18679 6.56383 6.08687C6.47405 5.98698 6.27589 5.77435 6.12346 5.6144C5.97104 5.45445 5.84633 5.32047 5.84633 5.31668C5.84633 5.3129 5.78637 5.24705 5.71306 5.17034C5.63975 5.09361 5.45984 4.90108 5.31324 4.74246C5.16664 4.58385 4.95984 4.36216 4.85368 4.24983C4.74753 4.13748 4.59911 3.97851 4.52387 3.89656C4.44863 3.81462 4.22528 3.57438 4.02754 3.3627C3.8298 3.15103 3.62666 2.93261 3.57611 2.87732C3.39695 2.68139 2.91111 2.16088 2.68289 1.92036C2.55558 1.78621 2.38945 1.6079 2.3137 1.52413C2.17618 1.37205 2.17591 1.37186 2.13614 1.40737ZM12.873 6.43697C12.7896 6.52575 12.7213 6.60104 12.7213 6.60428C12.7213 6.60752 12.617 6.71985 12.4894 6.85389C12.3618 6.98795 12.1529 7.21146 12.0252 7.35059C11.8975 7.48972 11.6896 7.71247 11.5632 7.8456C11.4369 7.97873 11.2259 8.20472 11.0945 8.34777C10.9631 8.49082 10.7835 8.68308 10.6955 8.77503L10.5355 8.94217L10.5852 9.00348C10.6126 9.03718 10.7135 9.14688 10.8096 9.24724C10.9056 9.34759 11.0628 9.51632 11.1588 9.6222C11.2549 9.72807 11.4669 9.95503 11.63 10.1265C11.7931 10.298 11.9656 10.483 12.0134 10.5377C12.09 10.6252 12.533 11.1008 12.9451 11.5378C13.0755 11.6762 13.1258 11.7131 13.1258 11.6705C13.1258 11.6612 13.1464 11.6483 13.1717 11.6418C13.197 11.6352 13.2177 11.6215 13.2177 11.6113C13.2177 11.6011 13.2342 11.5928 13.2544 11.5928C13.2746 11.5928 13.2912 11.5843 13.2912 11.5738C13.2912 11.5634 13.3036 11.5549 13.3188 11.5549C13.3339 11.5549 13.3463 11.5473 13.3463 11.538C13.3463 11.5288 13.367 11.5158 13.3923 11.5093C13.4176 11.5028 13.4383 11.4891 13.4383 11.4789C13.4383 11.4686 13.4508 11.4603 13.466 11.4603C13.4813 11.4603 13.5598 11.4177 13.6405 11.3656C13.7211 11.3136 13.7912 11.271 13.7962 11.271C13.8011 11.271 13.8504 11.2412 13.9058 11.2048C13.9611 11.1683 14.0101 11.1385 14.0147 11.1385C14.0193 11.1385 14.0933 11.0959 14.1792 11.0439C14.2651 10.9918 14.3444 10.9493 14.3556 10.9493C14.3667 10.9493 14.3758 10.9421 14.3758 10.9334C14.3758 10.9246 14.4087 10.9012 14.4491 10.8813C14.4894 10.8614 14.5225 10.8388 14.5226 10.831C14.5227 10.8231 14.5394 10.8168 14.5596 10.8168C14.5798 10.8168 14.5963 10.8084 14.5963 10.7982C14.5963 10.788 14.617 10.7743 14.6423 10.7678C14.6676 10.7612 14.6883 10.7504 14.6883 10.7436C14.6883 10.7369 14.7151 10.7192 14.748 10.7043C14.7809 10.6894 14.8187 10.666 14.832 10.6523C14.8454 10.6387 14.8681 10.6275 14.8826 10.6275C14.897 10.6275 14.9089 10.6211 14.909 10.6133C14.9091 10.6055 14.9277 10.5901 14.9503 10.5791C15.0453 10.5329 15.2126 10.4314 15.2183 10.4165C15.2217 10.4076 15.2403 10.4004 15.2596 10.4004C15.279 10.4004 15.295 10.394 15.2951 10.3862C15.2952 10.3784 15.3283 10.3557 15.3686 10.3358C15.4089 10.3159 15.4419 10.2925 15.4419 10.2838C15.4419 10.275 15.4508 10.2679 15.4615 10.2679C15.5162 10.2679 15.7573 10.0359 15.8663 9.87839C15.9214 9.79871 15.9876 9.66974 16.0499 9.52027C16.15 9.28005 16.15 8.71951 16.0499 8.47929C15.9876 8.32983 15.9214 8.20086 15.8663 8.12118C15.7573 7.96367 15.5162 7.73168 15.4615 7.73168C15.4508 7.73168 15.4419 7.72453 15.4419 7.7158C15.4419 7.70706 15.4089 7.68364 15.3686 7.66375C15.3283 7.64386 15.2952 7.6212 15.2951 7.61339C15.295 7.60557 15.279 7.59919 15.2596 7.59919C15.2403 7.59919 15.2217 7.59196 15.2183 7.58314C15.2126 7.56827 15.142 7.5242 14.9824 7.436C14.947 7.41645 14.9139 7.39522 14.9089 7.38882C14.9038 7.3824 14.881 7.3712 14.8583 7.36387C14.8356 7.35657 14.8169 7.34425 14.8169 7.33647C14.8169 7.32871 14.788 7.31065 14.7526 7.29636C14.7172 7.28207 14.6883 7.26436 14.6883 7.25703C14.6883 7.24969 14.6676 7.23833 14.6423 7.2318C14.617 7.22527 14.5963 7.21157 14.5963 7.20137C14.5963 7.19115 14.5798 7.1828 14.5596 7.1828C14.5394 7.1828 14.5228 7.17636 14.5228 7.16849C14.5228 7.16062 14.4978 7.14279 14.4673 7.12886C14.4367 7.11495 14.4014 7.09369 14.3889 7.08166C14.3763 7.06962 14.333 7.04282 14.2928 7.02211C14.2525 7.00139 14.2154 6.98009 14.2103 6.97479C14.2053 6.96948 14.1846 6.95587 14.1644 6.94451C14.0375 6.87333 13.9472 6.81995 13.8816 6.77729C13.8404 6.75049 13.8022 6.72855 13.7969 6.72855C13.7915 6.72855 13.7211 6.68597 13.6405 6.63392C13.5598 6.58187 13.4813 6.53929 13.466 6.53929C13.4508 6.53929 13.4383 6.5327 13.4383 6.52465C13.4383 6.51661 13.4072 6.49327 13.3693 6.4728C13.3314 6.45232 13.2962 6.43114 13.2912 6.42572C13.2861 6.42031 13.2489 6.39894 13.2085 6.37822C13.168 6.35751 13.1308 6.33629 13.1258 6.33109C13.1148 6.31977 13.0364 6.27404 13.0295 6.27491C13.0268 6.27525 12.9564 6.34818 12.873 6.43697ZM9.82299 9.71445C9.80106 9.74299 9.66044 9.89514 9.51049 10.0526C9.36056 10.21 9.1415 10.4443 9.02373 10.5731C8.90593 10.7019 8.72395 10.8983 8.61931 11.0095C8.28977 11.3597 7.82297 11.8607 7.66349 12.0353C7.57904 12.1278 7.40654 12.3117 7.28016 12.4441C7.15378 12.5764 6.97462 12.769 6.88203 12.8721C6.78944 12.9753 6.60745 13.1718 6.47762 13.309C6.24152 13.5584 5.85635 13.9722 5.56771 14.2865C5.48337 14.3784 5.29137 14.5828 5.14107 14.7408C4.99076 14.8988 4.80747 15.0961 4.73374 15.1794C4.66001 15.2627 4.47692 15.4601 4.32686 15.618C4.17683 15.7759 4.00139 15.9633 3.93703 16.0344C3.79942 16.1864 3.29993 16.7233 3.05581 16.9818C2.96175 17.0813 2.89144 17.1691 2.89956 17.1768C2.94912 17.2236 3.50763 17.2747 3.55438 17.2368C3.56633 17.2271 3.6214 17.2132 3.67675 17.2059C3.7321 17.1986 3.78587 17.1865 3.79624 17.1789C3.80661 17.1714 3.84666 17.1541 3.88526 17.1406C3.92387 17.1271 4.01254 17.0827 4.08232 17.042C4.15208 17.0013 4.21769 16.968 4.22811 16.968C4.23854 16.968 4.24707 16.9605 4.24707 16.9513C4.24707 16.9421 4.26155 16.9299 4.27924 16.9241C4.31148 16.9136 4.45039 16.8344 4.46765 16.8166C4.4758 16.8082 4.50857 16.7889 4.64157 16.7139C4.6614 16.7027 4.68889 16.6829 4.70264 16.6699C4.71639 16.6569 4.73946 16.6463 4.75389 16.6463C4.76833 16.6463 4.78015 16.6377 4.78015 16.6273C4.78015 16.6169 4.7967 16.6084 4.81692 16.6084C4.83714 16.6084 4.85368 16.5999 4.85368 16.5895C4.85368 16.5791 4.8655 16.5706 4.87995 16.5706C4.89438 16.5706 4.91729 16.5599 4.93084 16.5469C4.95278 16.5258 5.00339 16.4946 5.12023 16.43C5.14045 16.4188 5.16113 16.4054 5.16618 16.4002C5.17124 16.395 5.19192 16.3815 5.21214 16.3701C5.36275 16.2855 5.49389 16.209 5.64418 16.118C5.74027 16.0598 5.84367 15.9995 5.87396 15.9839C5.90427 15.9682 5.93319 15.9504 5.93824 15.9441C5.94716 15.9331 6.04547 15.8745 6.1772 15.8017C6.21258 15.7822 6.24567 15.7619 6.25073 15.7567C6.26804 15.7389 6.40694 15.6597 6.43916 15.6492C6.45685 15.6434 6.47133 15.6312 6.47133 15.622C6.47133 15.6128 6.48315 15.6053 6.4976 15.6053C6.51203 15.6053 6.53479 15.5946 6.54815 15.5816C6.5615 15.5686 6.61793 15.5335 6.67354 15.5035C6.72915 15.4735 6.77878 15.4435 6.78383 15.4367C6.78889 15.43 6.82819 15.4085 6.87115 15.389C6.91411 15.3694 6.94927 15.3463 6.94927 15.3374C6.94927 15.3286 6.96098 15.3214 6.97532 15.3214C6.98964 15.3214 7.00411 15.315 7.00749 15.3072C7.01086 15.2994 7.0467 15.2761 7.08714 15.2554C7.12758 15.2347 7.20203 15.1919 7.25258 15.1601C7.30314 15.1283 7.37758 15.0856 7.41803 15.0652C7.45847 15.0447 7.49431 15.0216 7.49768 15.0138C7.50106 15.006 7.51553 14.9996 7.52985 14.9996C7.54418 14.9996 7.55589 14.9924 7.55589 14.9836C7.55589 14.9747 7.59106 14.9515 7.63402 14.932C7.677 14.9125 7.71628 14.891 7.72133 14.8843C7.72639 14.8775 7.77602 14.8474 7.83163 14.8175C7.88724 14.7875 7.94367 14.7524 7.95702 14.7394C7.97038 14.7264 7.99314 14.7157 8.00757 14.7157C8.02202 14.7157 8.03383 14.7082 8.03383 14.699C8.03383 14.6898 8.04832 14.6776 8.066 14.6718C8.09823 14.6613 8.23713 14.5821 8.25444 14.5643C8.2595 14.5591 8.29258 14.5388 8.32797 14.5193C8.48755 14.4311 8.55819 14.387 8.56385 14.3722C8.56724 14.3633 8.57964 14.3561 8.59143 14.3561C8.60323 14.356 8.68163 14.3135 8.76564 14.2614C8.84966 14.2094 8.92282 14.1668 8.92825 14.1668C8.93365 14.1668 8.96005 14.151 8.98689 14.1317C9.02854 14.1016 9.10325 14.0575 9.29303 13.9509C9.31325 13.9395 9.33393 13.9259 9.33898 13.9206C9.34404 13.9153 9.38126 13.894 9.4217 13.8733C9.46214 13.8526 9.49799 13.8292 9.50135 13.8214C9.50474 13.8136 9.5192 13.8072 9.53352 13.8072C9.54786 13.8072 9.55957 13.7989 9.55957 13.7887C9.55957 13.7785 9.58025 13.7647 9.60553 13.7582C9.6308 13.7517 9.65148 13.7387 9.65148 13.7295C9.65148 13.7202 9.66803 13.7126 9.68825 13.7126C9.70847 13.7126 9.72501 13.7041 9.72501 13.6937C9.72501 13.6833 9.73683 13.6747 9.75128 13.6747C9.76571 13.6747 9.78847 13.6638 9.80183 13.6504C9.81518 13.637 9.85507 13.6112 9.89045 13.593C9.95972 13.5576 10.0227 13.5196 10.0375 13.5044C10.0426 13.4992 10.0632 13.4856 10.0835 13.4743C10.2411 13.3857 10.3663 13.3124 10.5218 13.2174C10.6213 13.1566 10.7069 13.1069 10.7119 13.1069C10.717 13.1069 10.7431 13.0911 10.77 13.0718C10.8168 13.038 10.9119 12.9814 11.0485 12.9059C11.0839 12.8863 11.117 12.866 11.1221 12.8607C11.1271 12.8554 11.1644 12.8341 11.2048 12.8134C11.2452 12.7927 11.2811 12.7693 11.2844 12.7615C11.2878 12.7537 11.3023 12.7473 11.3166 12.7473C11.331 12.7473 11.3427 12.7388 11.3427 12.7284C11.3427 12.718 11.3545 12.7095 11.3689 12.7095C11.3834 12.7095 11.4061 12.6985 11.4195 12.6851C11.4328 12.6717 11.4756 12.644 11.5145 12.6236C11.5534 12.6031 11.6009 12.578 11.6202 12.5678C11.6394 12.5575 11.6552 12.5426 11.6552 12.5346C11.6552 12.5267 11.6717 12.5202 11.6919 12.5202C11.7121 12.5202 11.7287 12.5117 11.7287 12.5013C11.7287 12.4909 11.7405 12.4823 11.755 12.4823C11.7694 12.4823 11.7925 12.4717 11.8062 12.4587C11.82 12.4457 11.8474 12.4257 11.8673 12.4144C11.8871 12.403 11.953 12.3655 12.0136 12.331C12.0743 12.2966 12.1515 12.2492 12.1852 12.2258L12.2465 12.1833L12.0551 11.9826C11.9498 11.8722 11.7774 11.6866 11.6721 11.5702C11.5667 11.4538 11.3771 11.2503 11.2507 11.1181C11.1244 10.9858 10.9258 10.7732 10.8096 10.6456C10.6933 10.5181 10.5134 10.3253 10.4098 10.2172C10.3061 10.1092 10.2213 10.0178 10.2213 10.0143C10.2213 9.99983 9.89204 9.66225 9.87805 9.6624C9.8697 9.66249 9.84494 9.68592 9.82299 9.71445Z"
        fill="currentColor" />
</svg>