<svg width="14" height="14" viewBox="0 0 14 14" fill="none" xmlns="http://www.w3.org/2000/svg">
    <path
        d="M6.99944 12.2976C7.32135 12.2976 7.5823 12.0366 7.5823 11.7147C7.5823 11.3928 7.32135 11.1318 6.99944 11.1318V12.2976ZM10.7156 4.09932L10.2564 4.4583V4.4583L10.7156 4.09932ZM11.4864 5.54987L12.041 5.3707V5.3707L11.4864 5.54987ZM6.99944 11.1318C4.71772 11.1318 2.86801 9.28214 2.86801 7.00042H1.7023C1.7023 9.92595 4.07391 12.2976 6.99944 12.2976V11.1318ZM2.86801 7.00042C2.86801 4.71869 4.71772 2.86899 6.99944 2.86899V1.70328C4.07391 1.70328 1.7023 4.07489 1.7023 7.00042H2.86801ZM6.99944 2.86899C8.32203 2.86899 9.49931 3.48982 10.2564 4.4583L11.1748 3.74034C10.2063 2.50142 8.69591 1.70328 6.99944 1.70328V2.86899ZM10.2564 4.4583C10.5512 4.83532 10.7816 5.26438 10.9317 5.72904L12.041 5.3707C11.8481 4.77354 11.5523 4.22315 11.1748 3.74034L10.2564 4.4583ZM10.9317 5.72904C11.0609 6.12883 11.1309 6.55588 11.1309 7.00042H12.2966C12.2966 6.43275 12.2071 5.88485 12.041 5.3707L10.9317 5.72904Z"
        fill="#7E8CA8" />
    <path d="M11.7937 8.65772L13.0132 6.11419L10.2007 6.32984L11.7937 8.65772Z" fill="#7E8CA8" />
</svg>
    