<svg xmlns="http://www.w3.org/2000/svg" width="14" height="14" viewBox="0 0 14 14" fill="none">
    <path
        d="M13.5017 11.0324L11.1975 8.72818C11.6164 7.89027 11.8957 6.91272 11.8957 5.93516C11.8957 2.65337 9.24235 0 5.96055 0C2.67876 0 0.0253906 2.65337 0.0253906 5.93516C0.0253906 9.21696 2.67876 11.8703 5.96055 11.8703C6.93811 11.8703 7.91567 11.591 8.75357 11.1721L11.0578 13.4763C11.7561 14.1746 12.8035 14.1746 13.5017 13.4763C14.1301 12.7781 14.1301 11.7307 13.5017 11.0324ZM5.96055 10.4738C3.44684 10.4738 1.4219 8.44888 1.4219 5.93516C1.4219 3.42145 3.44684 1.39651 5.96055 1.39651C8.47427 1.39651 10.4992 3.42145 10.4992 5.93516C10.4992 8.44888 8.47427 10.4738 5.96055 10.4738Z"
        fill="#000" />
</svg>