<svg xmlns="http://www.w3.org/2000/svg" width="14" height="14" viewBox="0 0 14 14" fill="none">
    <g clip-path="url(#clip0_3124_6495)">
        <path fill-rule="evenodd" clip-rule="evenodd"
            d="M6.69103 0.0617773C6.2578 0.243721 5.89324 0.670904 5.51983 1.43419C5.3071 1.86904 5.12505 2.35631 4.98512 2.86527C4.8979 3.18262 4.75285 3.81926 4.75285 3.88482C4.75285 3.90223 5.40205 3.91176 6.58635 3.91176H8.41983L8.50311 3.73401C8.58379 3.56175 8.82157 3.29114 9.00871 3.15852L9.08547 3.10415L8.97635 2.73339C8.40404 0.788705 7.49381 -0.275364 6.69103 0.0617773ZM5.06419 0.26795C4.53156 0.420218 3.70157 0.790649 3.27987 1.0643L3.1086 1.17545L3.10827 1.41431C3.10772 1.82441 2.98087 2.13968 2.70586 2.41438C2.4165 2.70344 2.05217 2.83548 1.62408 2.80638L1.38646 2.79023L1.17893 3.10153C0.986417 3.39032 0.72594 3.84348 0.724899 3.89145C0.724652 3.90286 1.44113 3.90902 2.31711 3.90514L3.90981 3.89807L3.98602 3.52657C4.26308 2.17626 4.64868 1.17356 5.2302 0.29122C5.2875 0.204299 5.28698 0.204245 5.06419 0.26795ZM8.76978 0.29122C9.06451 0.738415 9.26212 1.11632 9.44622 1.58476C9.58527 1.9386 9.76808 2.49136 9.83739 2.76748L9.88343 2.95096L10.0315 2.98165C10.4123 3.06063 10.7796 3.34734 10.9669 3.71183L11.0695 3.91151L12.1725 3.91165C12.7792 3.91171 13.2755 3.9053 13.2755 3.89739C13.2755 3.86224 13.0752 3.49367 12.9383 3.2769C12.5757 2.70284 12.0097 2.06002 11.4669 1.60567C11.0138 1.22646 10.4186 0.857256 9.83632 0.594141C9.60547 0.489836 8.81957 0.215934 8.75111 0.215934C8.73262 0.215934 8.74015 0.246267 8.76978 0.29122ZM1.59172 0.899662C1.4738 0.937113 1.34369 1.03493 1.27115 1.14066C1.17912 1.2748 1.16394 1.53551 1.23955 1.68282C1.4273 2.04868 1.91027 2.1045 2.16951 1.7903C2.45471 1.44467 2.23832 0.934513 1.78643 0.887097C1.72233 0.880362 1.63472 0.886029 1.59172 0.899662ZM9.52136 3.81849C9.31638 3.9073 9.19232 4.09721 9.19232 4.32219C9.19232 4.64592 9.42293 4.88092 9.74041 4.88072C10.3295 4.8804 10.512 4.09715 9.98548 3.82884C9.85885 3.76428 9.65688 3.75979 9.52136 3.81849ZM0.33998 4.80355C0.235625 5.07778 0.0999192 5.66906 0.0357112 6.12926C-0.0117802 6.46979 -0.0119446 7.53923 0.0354646 7.88135C0.0901633 8.2761 0.19334 8.74284 0.300819 9.08195L0.397529 9.38706L1.66399 9.38651L2.93047 9.38597L3.01898 9.19767C3.13093 8.9596 3.32841 8.74273 3.54484 8.62016L3.71338 8.5247L3.69981 8.4152C3.66389 8.12539 3.65142 6.41072 3.6817 5.92393C3.71313 5.41886 3.75314 4.96201 3.77945 4.80834L3.79233 4.73306H2.07957H0.366808L0.33998 4.80355ZM4.60654 4.79465C4.59818 4.82855 4.56907 5.07184 4.54192 5.33534C4.50196 5.72288 4.49253 6.05509 4.49262 7.07375C4.49275 8.39568 4.49804 8.45626 4.61311 8.45626C4.64071 8.45626 4.75433 8.50149 4.86564 8.55676C5.13335 8.68973 5.36665 8.92489 5.49394 9.19003L5.58867 9.38736L7.47879 9.38035L9.36894 9.37337L9.38939 9.25371C9.4884 8.67418 9.55729 6.67005 9.50226 5.97025L9.48007 5.68806L9.29569 5.62616C8.9422 5.50751 8.66619 5.26167 8.50039 4.91785L8.4113 4.73306H6.51652H4.62177L4.60654 4.79465ZM10.9785 4.92751C10.8731 5.15178 10.6233 5.41938 10.4194 5.52656C10.2904 5.59432 10.29 5.59498 10.3098 5.70451C10.3207 5.76496 10.3293 6.34416 10.329 6.99162C10.3284 8.11553 10.3056 8.57288 10.2162 9.25702L10.1992 9.38706H11.9008H13.6024L13.7003 9.07907C13.8029 8.75628 13.9064 8.28382 13.9657 7.86767C14.0119 7.54377 14.0113 6.46741 13.9648 6.12926C13.9195 5.80003 13.7929 5.21907 13.7082 4.95207L13.6431 4.74674L12.3563 4.74023L11.0695 4.73369L10.9785 4.92751ZM4.08144 9.25585C3.70557 9.38709 3.57921 9.84789 3.83673 10.1484C4.08704 10.4406 4.55093 10.3938 4.74685 10.0566C4.83627 9.90278 4.82369 9.63326 4.71974 9.47636C4.58883 9.27873 4.30084 9.17922 4.08144 9.25585ZM0.779241 10.23C0.779241 10.272 1.06178 10.745 1.23845 10.9989C1.50238 11.3782 1.77029 11.6879 2.1531 12.0563C2.72258 12.6042 3.24841 12.9694 3.97024 13.3183C4.3403 13.4971 5.18893 13.8103 5.2464 13.7893C5.25881 13.7847 5.19441 13.664 5.10329 13.5209C4.77872 13.0114 4.47667 12.3077 4.23732 11.5036L4.1374 11.1678L3.98611 11.1371C3.59206 11.0572 3.21199 10.7666 3.03581 10.4104L2.93584 10.2084H1.85754C1.26449 10.2084 0.779241 10.2181 0.779241 10.23ZM5.49169 10.3926C5.40408 10.5704 5.15251 10.8574 5.00277 10.9504L4.93758 10.9909L5.05133 11.3686C5.44198 12.6656 6.0278 13.6237 6.60309 13.9064C6.76892 13.9878 6.82049 14 7.00021 14C7.17995 14 7.23142 13.9878 7.3971 13.9064C8.10125 13.56 8.79466 12.232 9.17435 10.5027L9.23896 10.2084H7.41072H5.58251L5.49169 10.3926ZM10.042 10.3658C9.95841 10.7894 9.75433 11.5548 9.61879 11.9533C9.3864 12.6364 9.10962 13.2127 8.77055 13.7194C8.74076 13.7639 8.73281 13.7947 8.75111 13.7947C8.76813 13.7947 8.96994 13.7329 9.19958 13.6574C9.62693 13.5169 10.3893 13.1616 10.7165 12.9506L10.8843 12.8424L10.8964 12.5259C10.9081 12.2212 10.9127 12.2011 11.0214 11.9823C11.287 11.448 11.7809 11.1638 12.3739 11.2041L12.6095 11.2201L12.7746 10.9811C12.9421 10.7389 13.2207 10.2697 13.2207 10.23C13.2207 10.2181 12.5125 10.2084 11.6469 10.2084H10.0731L10.042 10.3658ZM12.0424 12.0588C11.8179 12.1558 11.6638 12.4211 11.7027 12.6436C11.7512 12.9213 11.9876 13.1238 12.2612 13.1221C12.58 13.1201 12.8097 12.8858 12.8097 12.5625C12.8097 12.1689 12.404 11.9026 12.0424 12.0588Z"
            fill="white" />
    </g>
    <defs>
        <clipPath id="clip0_3124_6495">
            <rect width="14" height="14" fill="white" />
        </clipPath>
    </defs>
</svg>