<svg width="48" height="48" viewBox="0 0 48 48" fill="none" xmlns="http://www.w3.org/2000/svg">
    <g clip-path="url(#clip0_3842_11243)">
        <path
            d="M18 42H10.5V10.5H15V15H33V10.5H37.5V24H40.5V10.5C40.5 9.70435 40.1839 8.94129 39.6213 8.37868C39.0587 7.81607 38.2956 7.5 37.5 7.5H33V6C33 5.20435 32.6839 4.44129 32.1213 3.87868C31.5587 3.31607 30.7956 3 30 3H18C17.2044 3 16.4413 3.31607 15.8787 3.87868C15.3161 4.44129 15 5.20435 15 6V7.5H10.5C9.70435 7.5 8.94129 7.81607 8.37868 8.37868C7.81607 8.94129 7.5 9.70435 7.5 10.5V42C7.5 42.7957 7.81607 43.5587 8.37868 44.1213C8.94129 44.6839 9.70435 45 10.5 45H18V42ZM18 6H30V12H18V6Z"
            fill="#7E8CA8" stroke="#7E8CA8" stroke-width="0.428571" />
        <path
            d="M31.5 47C30.1858 47 28.9508 46.7505 27.795 46.2514C26.6392 45.7523 25.6338 45.0756 24.7788 44.2212C23.9238 43.3663 23.247 42.3608 22.7486 41.205C22.2502 40.0492 22.0006 38.8142 22 37.5C22 36.1858 22.2495 34.9508 22.7486 33.795C23.2477 32.6392 23.9244 31.6337 24.7788 30.7787C25.6338 29.9238 26.6392 29.247 27.795 28.7486C28.9508 28.2502 30.1858 28.0006 31.5 28C32.5292 28 33.5029 28.1504 34.4212 28.4512C35.3396 28.7521 36.1867 29.1717 36.9625 29.71L35.585 31.1112C34.9833 30.7312 34.3421 30.4345 33.6612 30.2211C32.9804 30.0077 32.26 29.9006 31.5 29.9C29.3942 29.9 27.6009 30.6404 26.1201 32.1211C24.6394 33.6018 23.8994 35.3948 23.9 37.5C23.9 39.6058 24.6404 41.3991 26.1211 42.8798C27.6018 44.3606 29.3948 45.1006 31.5 45.1C33.6058 45.1 35.3991 44.3599 36.8799 42.8798C38.3606 41.3997 39.1006 39.6065 39.1 37.5C39.1 37.215 39.0842 36.93 39.0525 36.645C39.0208 36.36 38.9733 36.0829 38.91 35.8137L40.4537 34.27C40.6279 34.7767 40.7625 35.2992 40.8575 35.8375C40.9525 36.3758 41 36.93 41 37.5C41 38.8142 40.7505 40.0492 40.2514 41.205C39.7523 42.3608 39.0756 43.3663 38.2213 44.2212C37.3663 45.0763 36.3608 45.7533 35.205 46.2523C34.0492 46.7514 32.8142 47.0006 31.5 47ZM30.17 41.87L26.1325 37.8325L27.4625 36.5025L30.17 39.21L39.67 29.6862L41 31.0162L30.17 41.87Z"
            fill="#7E8CA8" stroke="#7E8CA8" />
    </g>
    <defs>
        <clipPath id="clip0_3842_11243">
            <rect width="48" height="48" fill="white" />
        </clipPath>
    </defs>
</svg>
    