<svg width="14" height="14" viewBox="0 0 14 14" fill="none" xmlns="http://www.w3.org/2000/svg">
    <g clip-path="url(#clip0_3938_3968)">
        <path fill-rule="evenodd" clip-rule="evenodd"
            d="M6.99911 1.90945C6.66156 1.90945 6.33784 2.04354 6.09916 2.28222C5.86048 2.5209 5.72638 2.84462 5.72638 3.18217H8.27184C8.27184 2.84462 8.13775 2.5209 7.89907 2.28222C7.66038 2.04354 7.33666 1.90945 6.99911 1.90945ZM5.31529 1.27308C5.76393 0.877264 6.35384 0.636719 6.99911 0.636719C7.64438 0.636719 8.23366 0.877264 8.68293 1.27308H10.8173C11.1548 1.27308 11.4786 1.40717 11.7172 1.64586C11.9559 1.88454 12.09 2.20826 12.09 2.54581V12.0913C12.09 12.4288 11.9559 12.7525 11.7172 12.9912C11.4786 13.2299 11.1548 13.364 10.8173 13.364H3.18093C2.84338 13.364 2.51966 13.2299 2.28098 12.9912C2.04229 12.7525 1.9082 12.4288 1.9082 12.0913V2.54581C1.9082 2.20826 2.04229 1.88454 2.28098 1.64586C2.51966 1.40717 2.84338 1.27308 3.18093 1.27308H5.31529ZM4.53384 2.54581H3.18093V12.0913H10.8173V2.54581H9.46438C9.51657 2.74945 9.54457 2.96263 9.54457 3.18217V3.81854C9.54457 3.98731 9.47752 4.14917 9.35818 4.26851C9.23884 4.38786 9.07698 4.4549 8.9082 4.4549H5.09002C4.92125 4.4549 4.75939 4.38786 4.64004 4.26851C4.5207 4.14917 4.45366 3.98731 4.45366 3.81854V3.18217C4.45366 2.96263 4.48166 2.74945 4.53384 2.54581ZM4.45366 6.36399C4.45366 6.19522 4.5207 6.03336 4.64004 5.91401C4.75939 5.79467 4.92125 5.72763 5.09002 5.72763H8.9082C9.07698 5.72763 9.23884 5.79467 9.35818 5.91401C9.47752 6.03336 9.54457 6.19522 9.54457 6.36399C9.54457 6.53277 9.47752 6.69463 9.35818 6.81397C9.23884 6.93331 9.07698 7.00035 8.9082 7.00035H5.09002C4.92125 7.00035 4.75939 6.93331 4.64004 6.81397C4.5207 6.69463 4.45366 6.53277 4.45366 6.36399ZM4.45366 8.90945C4.45366 8.74067 4.5207 8.57881 4.64004 8.45947C4.75939 8.34013 4.92125 8.27308 5.09002 8.27308H6.99911C7.16789 8.27308 7.32975 8.34013 7.44909 8.45947C7.56843 8.57881 7.63548 8.74067 7.63548 8.90945C7.63548 9.07822 7.56843 9.24008 7.44909 9.35942C7.32975 9.47876 7.16789 9.54581 6.99911 9.54581H5.09002C4.92125 9.54581 4.75939 9.47876 4.64004 9.35942C4.5207 9.24008 4.45366 9.07822 4.45366 8.90945Z"
            fill="url(#paint0_linear_3938_3968)" />
    </g>
    <defs>
        <linearGradient id="paint0_linear_3938_3968" x1="12.09" y1="7.00036" x2="1.9082"
            y2="7.00036" gradientUnits="userSpaceOnUse">
            <stop stop-color="#001C54" />
            <stop offset="1" stop-color="#001C54" />
        </linearGradient>
        <clipPath id="clip0_3938_3968">
            <rect width="14" height="14" fill="white" />
        </clipPath>
    </defs>
</svg>
    