<svg xmlns="http://www.w3.org/2000/svg" width="14" height="14" viewBox="0 0 14 14" fill="none">
    <g clip-path="url(#clip0_2398_747)">
        <path fill-rule="evenodd" clip-rule="evenodd"
            d="M2.14508 0C0.962543 0 0.00390625 0.958637 0.00390625 2.14118V11.8588C0.00390625 13.0414 0.962544 14 2.14508 14H11.8627C13.0453 14 14.0039 13.0414 14.0039 11.8588V2.14118C14.0039 0.958637 13.0453 0 11.8627 0H2.14508ZM9.07193 1.75C9.07176 2.35517 9.29151 2.93978 9.69026 3.395C10.4836 4.31083 11.5803 4.25833 11.5803 4.25833V6.06083C10.6804 6.06238 9.80284 5.78075 9.07193 5.25583V8.925C9.07193 10.7625 7.58443 12.25 5.75276 12.25C4.04359 12.25 2.43359 10.8675 2.43359 8.925C2.43359 6.93 4.19526 5.36667 6.20776 5.635V7.47833C5.21026 7.16917 4.24193 7.92167 4.24193 8.925C4.24193 9.765 4.93026 10.4417 5.75859 10.4417C6.15027 10.4416 6.52665 10.2896 6.80846 10.0175C7.09027 9.74553 7.25552 9.37476 7.26943 8.98333V1.75H9.07193Z"
            fill="currentColor" />
    </g>
    <defs>
        <clipPath id="clip0_2398_747">
            <rect width="14" height="14" fill="white" />
        </clipPath>
    </defs>
</svg>