<svg width="20" height="20" viewBox="0 0 20 20" fill="none" xmlns="http://www.w3.org/2000/svg">
    <path
        d="M8.6 4.56098H11.4C11.4 4.17285 11.2525 3.80063 10.9899 3.52619C10.7274 3.25174 10.3713 3.09756 10 3.09756C9.6287 3.09756 9.2726 3.25174 9.01005 3.52619C8.7475 3.80063 8.6 4.17285 8.6 4.56098ZM7.55 4.56098C7.55 4.22466 7.61337 3.89164 7.7365 3.58093C7.85962 3.27022 8.04008 2.9879 8.26759 2.75009C8.49509 2.51228 8.76518 2.32364 9.06243 2.19494C9.35967 2.06624 9.67826 2 10 2C10.3217 2 10.6403 2.06624 10.9376 2.19494C11.2348 2.32364 11.5049 2.51228 11.7324 2.75009C11.9599 2.9879 12.1404 3.27022 12.2635 3.58093C12.3866 3.89164 12.45 4.22466 12.45 4.56098H16.475C16.6142 4.56098 16.7478 4.61879 16.8462 4.72171C16.9447 4.82463 17 4.96421 17 5.10976C17 5.2553 16.9447 5.39489 16.8462 5.4978C16.7478 5.60072 16.6142 5.65854 16.475 5.65854H15.551L14.732 14.5202C14.6692 15.1993 14.3666 15.8295 13.8834 16.2879C13.4001 16.7464 12.7708 17.0003 12.1182 17H7.8818C7.2293 17.0001 6.60017 16.7461 6.11706 16.2877C5.63396 15.8292 5.33151 15.1991 5.2687 14.5202L4.449 5.65854H3.525C3.38576 5.65854 3.25223 5.60072 3.15377 5.4978C3.05531 5.39489 3 5.2553 3 5.10976C3 4.96421 3.05531 4.82463 3.15377 4.72171C3.25223 4.61879 3.38576 4.56098 3.525 4.56098H7.55ZM8.95 8.03659C8.95 7.89104 8.89469 7.75146 8.79623 7.64854C8.69777 7.54562 8.56424 7.4878 8.425 7.4878C8.28576 7.4878 8.15223 7.54562 8.05377 7.64854C7.95531 7.75146 7.9 7.89104 7.9 8.03659V13.5244C7.9 13.6699 7.95531 13.8095 8.05377 13.9124C8.15223 14.0154 8.28576 14.0732 8.425 14.0732C8.56424 14.0732 8.69777 14.0154 8.79623 13.9124C8.89469 13.8095 8.95 13.6699 8.95 13.5244V8.03659ZM11.575 7.4878C11.7142 7.4878 11.8478 7.54562 11.9462 7.64854C12.0447 7.75146 12.1 7.89104 12.1 8.03659V13.5244C12.1 13.6699 12.0447 13.8095 11.9462 13.9124C11.8478 14.0154 11.7142 14.0732 11.575 14.0732C11.4358 14.0732 11.3022 14.0154 11.2038 13.9124C11.1053 13.8095 11.05 13.6699 11.05 13.5244V8.03659C11.05 7.89104 11.1053 7.75146 11.2038 7.64854C11.3022 7.54562 11.4358 7.4878 11.575 7.4878ZM6.3138 14.4149C6.35156 14.8222 6.53307 15.2002 6.82296 15.4752C7.11284 15.7502 7.49032 15.9025 7.8818 15.9024H12.1182C12.5097 15.9025 12.8872 15.7502 13.177 15.4752C13.4669 15.2002 13.6484 14.8222 13.6862 14.4149L14.4968 5.65854H5.5032L6.3138 14.4149Z"
        fill="currentColor" />
</svg>