<svg xmlns="http://www.w3.org/2000/svg" width="10" height="10" viewBox="0 0 10 10" fill="none">
  <path d="M9.6203 2.55105C9.61004 2.55105 9.59465 2.55105 9.57926 2.55105C6.86557 2.30446 4.15702 2.21141 1.4741 2.458L0.427612 2.55105C0.212159 2.56966 0.0223546 2.43008 0.00183529 2.23468C-0.0186841 2.03927 0.135211 1.87178 0.345535 1.85317L1.39202 1.76012C4.12111 1.50889 6.88609 1.60659 9.65621 1.85317C9.86653 1.87178 10.0204 2.04393 9.99991 2.23468C9.98452 2.41612 9.81523 2.55105 9.6203 2.55105Z" fill="#4171CD"/>
  <path d="M3.20543 2.07966C3.18491 2.07966 3.16439 2.07966 3.13874 2.07501C2.93355 2.04244 2.78991 1.861 2.82582 1.6749L2.93868 1.06542C3.02076 0.618781 3.13361 0 4.32884 0H5.67286C6.87324 0 6.9861 0.642043 7.06305 1.07007L7.1759 1.6749C7.21181 1.86565 7.06818 2.0471 6.86299 2.07501C6.65266 2.10758 6.4526 1.97731 6.42182 1.79121L6.30896 1.18638C6.23714 0.781618 6.22176 0.702526 5.67799 0.702526H4.33397C3.79023 0.702526 3.77997 0.767661 3.70303 1.18173L3.58504 1.78656C3.55426 1.9587 3.39011 2.07966 3.20543 2.07966Z" fill="#4171CD"/>
  <path d="M6.64792 9.99977H3.35456C1.56425 9.99977 1.49243 9.10184 1.436 8.37605L1.10256 3.69098C1.08717 3.50023 1.25133 3.33274 1.46165 3.31879C1.6771 3.30948 1.85665 3.45371 1.87204 3.64446L2.20548 8.32953C2.26191 9.0367 2.28243 9.30189 3.35456 9.30189H6.64792C7.72519 9.30189 7.74571 9.0367 7.79701 8.32953L8.13045 3.64446C8.14583 3.45371 8.33051 3.30948 8.54083 3.31879C8.75116 3.33274 8.91531 3.49558 8.89992 3.69098L8.56648 8.37605C8.51005 9.10184 8.43824 9.99977 6.64792 9.99977Z" fill="#4171CD"/>
  <path d="M5.8547 7.44397H4.14647C3.93613 7.44397 3.76172 7.28578 3.76172 7.09503C3.76172 6.90428 3.93613 6.74609 4.14647 6.74609H5.8547C6.06503 6.74609 6.23944 6.90428 6.23944 7.09503C6.23944 7.28578 6.06503 7.44397 5.8547 7.44397Z" fill="#4171CD"/>
  <path d="M6.28169 5.58459H3.71677C3.50645 5.58459 3.33203 5.42641 3.33203 5.23566C3.33203 5.0449 3.50645 4.88672 3.71677 4.88672H6.28169C6.49201 4.88672 6.66643 5.0449 6.66643 5.23566C6.66643 5.42641 6.49201 5.58459 6.28169 5.58459Z" fill="#4171CD"/>
</svg>