<svg width="16" height="16" viewBox="0 0 16 16" fill="none" xmlns="http://www.w3.org/2000/svg">
    <path
        d="M8 16C3.57647 16 0 12.4235 0 8C0 3.57647 3.57647 0 8 0C12.4235 0 16 3.57647 16 8C16 12.4235 12.3765 16 8 16ZM8 0.941176C4.09412 0.941176 0.941176 4.09412 0.941176 8C0.941176 11.9059 4.09412 15.0588 8 15.0588C11.9059 15.0588 15.0588 11.9059 15.0588 8C15.0588 4.09412 11.8588 0.941176 8 0.941176Z"
        fill="#FCFCFC" />
    <path
        d="M3.38905 13.7877L2.54199 13.4112C2.77729 12.8465 3.53023 12.5171 4.33023 12.1407C5.13023 11.7642 6.11846 11.3407 6.11846 10.823V10.1171C5.83611 9.88184 5.36552 9.36419 5.2714 8.61125C5.03611 8.37595 4.65964 7.95242 4.65964 7.38772C4.65964 7.05831 4.80082 6.77595 4.89493 6.58772C4.80082 6.21125 4.7067 5.50537 4.7067 4.94066C4.7067 3.10537 5.97729 1.88184 8.00082 1.88184C8.56552 1.88184 9.2714 2.02301 9.64787 2.44654C10.542 2.63478 11.2949 3.67007 11.2949 4.94066C11.2949 5.74066 11.1538 6.39948 11.0596 6.72889C11.1538 6.87007 11.2479 7.10537 11.2479 7.38772C11.2479 7.99948 10.9185 8.42301 10.6361 8.61125C10.542 9.36419 10.1185 9.83478 9.83611 10.0701V10.823C9.83611 11.2465 10.6832 11.576 11.4361 11.8583C12.3302 12.1877 13.2714 12.5642 13.6008 13.3171L12.7067 13.6465C12.5655 13.2701 11.8126 12.9877 11.1067 12.7524C10.0714 12.376 8.89493 11.9524 8.89493 10.8701V9.64654L9.13023 9.50537C9.13023 9.50537 9.69493 9.12889 9.69493 8.37595V8.04654L9.97729 7.90536C10.0243 7.90536 10.2596 7.76419 10.2596 7.38772C10.2596 7.2936 10.1655 7.15242 10.1185 7.10537L9.93023 6.91713L10.0243 6.68184C10.0243 6.68184 10.2596 5.92889 10.2596 4.98772C10.2596 4.0936 9.74199 3.43478 9.31846 3.43478H9.03611L8.89493 3.19948C8.89493 3.01125 8.56552 2.82301 8.00082 2.82301C6.54199 2.82301 5.64787 3.62301 5.64787 4.94066C5.64787 5.55242 5.88317 6.58772 5.88317 6.58772L5.93023 6.82301L5.74199 7.05831C5.69493 7.05831 5.60082 7.19948 5.60082 7.38772C5.60082 7.62301 5.88317 7.90536 6.02434 7.99948L6.21258 8.14066V8.37595C6.21258 9.08184 6.82435 9.45831 6.82435 9.50537L7.05964 9.64654V10.8701C7.05964 11.9995 5.83611 12.5642 4.7067 13.0348C4.18905 13.223 3.48317 13.5524 3.38905 13.7877Z"
        fill="#FCFCFC" />
</svg>
    