<svg xmlns="http://www.w3.org/2000/svg" width="16" height="16" viewBox="0 0 16 16" fill="none">
  <path d="M12.4499 2.21657L12.4499 2.2166C12.3557 2.32467 12.3535 2.36669 12.3535 2.41202C12.3535 2.4635 12.356 2.48127 12.3573 2.48865L12.3574 2.48895C12.3579 2.49207 12.3594 2.49997 12.3696 2.52131C12.4007 2.58636 12.4696 2.6914 12.6543 2.94592L12.2497 3.23964L12.6543 2.94592C13.7314 4.42981 14.3332 6.48281 14.2526 8.37016C14.1745 10.2003 13.6798 11.7119 12.668 13.2013C12.5393 13.3908 12.4975 13.4751 12.4824 13.5211C12.4771 13.5371 12.4766 13.5447 12.4764 13.5503C12.4762 13.5582 12.4767 13.5765 12.4845 13.6157L12.4845 13.6158C12.5027 13.7065 12.5227 13.7492 12.6065 13.8339C12.6538 13.8818 12.676 13.8923 12.6798 13.8939L12.6798 13.894C12.6807 13.8944 12.6902 13.8995 12.727 13.8996C12.7407 13.8996 12.75 13.8992 12.7559 13.8987C12.758 13.8971 12.7606 13.8949 12.7638 13.8922C12.8218 13.8423 12.9174 13.7257 13.1203 13.4241C14.6579 11.1389 15.1127 8.08334 14.3122 5.3134L14.7926 5.1746L14.3122 5.3134C13.9982 4.22692 13.4208 3.08459 12.7765 2.26474L12.7764 2.26471C12.691 2.15603 12.6334 2.1172 12.6084 2.10493C12.6027 2.10214 12.599 2.10086 12.5971 2.1003C12.5953 2.09976 12.5945 2.09967 12.5944 2.09965L12.5922 2.09965C12.5907 2.09973 12.5874 2.10004 12.582 2.10126L12.4499 2.21657ZM12.4499 2.21657C12.5101 2.14738 12.5419 2.12159 12.5562 2.11173M12.4499 2.21657L12.5562 2.11173M10.2299 5.22326L10.2299 5.22327C10.6567 5.89348 10.8742 6.41353 11.0116 7.12071L11.0116 7.12073C11.0541 7.33931 11.0721 7.70842 11.0749 8.03724C11.0778 8.36608 11.066 8.73547 11.0273 8.95484C11.0273 8.95485 11.0273 8.95486 11.0273 8.95487L10.5349 8.868L10.2299 5.22326ZM10.2299 5.22326C10.1158 5.04394 10.1026 4.95798 10.1026 4.9245C10.1027 4.90506 10.1054 4.85431 10.1972 4.74193C10.2515 4.67558 10.284 4.64561 10.3035 4.63061C10.3161 4.62099 10.3272 4.61432 10.3442 4.60771C10.3495 4.6088 10.3562 4.61028 10.3643 4.6123C10.3701 4.61673 10.3784 4.62346 10.3891 4.6332C10.4299 4.67004 10.4857 4.73123 10.5535 4.82203C10.6885 5.00301 10.8436 5.26472 10.9965 5.58777C11.7207 7.11791 11.714 9.0865 10.9789 10.6146L10.2299 5.22326ZM12.5562 2.11173C12.5621 2.10767 12.565 2.10641 12.5661 2.10592M12.5562 2.11173L12.5661 2.10592M12.5661 2.10592C12.5674 2.10535 12.5718 2.10357 12.582 2.10126L12.5661 2.10592ZM5.44861 4.63012L5.44861 4.63012C5.9321 4.18185 6.3818 3.76624 6.71678 3.45783C6.88433 3.30357 7.02283 3.17644 7.12238 3.08556C7.18907 3.02468 7.23113 2.98671 7.25302 2.96695C7.26558 2.9556 7.2715 2.95026 7.27163 2.95002C7.27286 2.9491 7.27612 2.94673 7.2816 2.94306C7.28906 2.93806 7.29814 2.93235 7.30794 2.92659C7.31776 2.92081 7.32665 2.91596 7.33362 2.91241C7.33711 2.91063 7.33935 2.90957 7.34036 2.9091C7.34902 2.90586 7.35799 2.90475 7.3751 2.91249C7.39641 2.92211 7.43679 2.95051 7.47158 3.01837L7.49975 3.07331L7.50002 8.07388L7.50027 13.0943L7.47989 13.1428C7.45601 13.1997 7.41615 13.2326 7.38118 13.2467C7.3606 13.255 7.34404 13.2565 7.33074 13.2545C7.30449 13.2321 7.26814 13.2005 7.22177 13.1595C7.12033 13.0699 6.97838 12.9423 6.8057 12.7856C6.46071 12.4726 5.99749 12.0472 5.49956 11.5854L5.15954 11.952L5.49956 11.5854L3.68543 9.90273L3.54171 9.76942L3.34569 9.76931L2.32522 9.76875C1.73854 9.76842 1.5048 9.76616 1.38452 9.74813C1.37911 9.74254 1.37246 9.7356 1.36441 9.72706L1.36438 9.72703C1.34844 9.7101 1.33716 9.69796 1.32938 9.68953C1.32718 9.67698 1.32439 9.65799 1.32162 9.63079C1.30114 9.43014 1.30104 9.04663 1.3008 8.176L1.30079 8.1127V8.11269C1.30065 7.64107 1.30333 7.23144 1.30802 6.93271C1.31037 6.78298 1.3132 6.66338 1.31631 6.57861C1.3174 6.54898 1.31847 6.52514 1.31947 6.50667C1.32527 6.49641 1.33365 6.48383 1.34466 6.47035C1.37176 6.43718 1.39818 6.41841 1.40871 6.41293L1.40873 6.41292C1.41287 6.41076 1.41637 6.40896 1.41929 6.40747C1.428 6.40642 1.44229 6.405 1.46393 6.4036C1.58904 6.39553 1.82053 6.39503 2.33501 6.39489H2.33502L3.34956 6.39457L3.54559 6.39451L3.68935 6.26123L5.44861 4.63012ZM1.32227 6.46718C1.32229 6.46727 1.32215 6.46883 1.32181 6.47157C1.32209 6.46846 1.32226 6.46709 1.32227 6.46718Z" stroke="#7E8CA8"/>
</svg>