<svg width="16" height="16" viewBox="0 0 16 16" fill="none" xmlns="http://www.w3.org/2000/svg">
<path d="M4 12.4545V3H7.78551C8.48106 3 9.0612 3.1031 9.52592 3.3093C9.99065 3.51551 10.34 3.80173 10.5739 4.16797C10.8078 4.53113 10.9247 4.94969 10.9247 5.42365C10.9247 5.79297 10.8509 6.11766 10.7031 6.39773C10.5554 6.67472 10.3523 6.90246 10.0938 7.08097C9.83831 7.25639 9.54593 7.38104 9.21662 7.4549V7.54723C9.5767 7.56262 9.91371 7.66418 10.2276 7.85192C10.5446 8.03965 10.8016 8.30279 10.9986 8.64134C11.1955 8.9768 11.294 9.37689 11.294 9.84162C11.294 10.3433 11.1694 10.7911 10.9201 11.185C10.6739 11.5759 10.3092 11.8852 9.82599 12.1129C9.3428 12.3407 8.74728 12.4545 8.03942 12.4545H4ZM5.99893 10.8203H7.62855C8.18561 10.8203 8.59186 10.7141 8.8473 10.5018C9.10275 10.2863 9.23047 10.0001 9.23047 9.64311C9.23047 9.38151 9.16738 9.15069 9.04119 8.95064C8.91501 8.75059 8.73497 8.59363 8.50107 8.47976C8.27024 8.36589 7.99479 8.30895 7.67472 8.30895H5.99893V10.8203ZM5.99893 6.95632H7.48082C7.75473 6.95632 7.99787 6.90862 8.21023 6.81321C8.42566 6.71473 8.59493 6.57623 8.71804 6.39773C8.84422 6.21922 8.90732 6.00533 8.90732 5.75604C8.90732 5.41442 8.78575 5.13897 8.54261 4.92969C8.30256 4.72041 7.96094 4.61577 7.51776 4.61577H5.99893V6.95632Z" fill="#B3B3B3"/>
</svg>
