<svg width="16" height="16" viewBox="0 0 16 16" fill="none" xmlns="http://www.w3.org/2000/svg">
<path d="M5.39218 3.01813V5.19995H4.93089V3.45599H4.9181L4.41846 3.7692V3.36011L4.95858 3.01813H5.39218Z" fill="#B3B3B3"/>
<path d="M4.23202 9V8.66761L5.00866 7.94851C5.07471 7.88459 5.1301 7.82706 5.17485 7.77592C5.2203 7.72479 5.25475 7.67472 5.27819 7.62571C5.30162 7.57599 5.31334 7.52237 5.31334 7.46484C5.31334 7.40092 5.29878 7.34588 5.26966 7.29972C5.24055 7.25284 5.20077 7.21697 5.15035 7.19212C5.09992 7.16655 5.04275 7.15376 4.97883 7.15376C4.91206 7.15376 4.85383 7.16726 4.80411 7.19425C4.75439 7.22124 4.71604 7.25994 4.68905 7.31037C4.66206 7.3608 4.64857 7.42081 4.64857 7.49041H4.21072C4.21072 7.34766 4.24303 7.22372 4.30766 7.11861C4.37229 7.01349 4.46285 6.93217 4.57932 6.87464C4.6958 6.81712 4.83003 6.78835 4.98202 6.78835C5.13827 6.78835 5.27428 6.81605 5.39005 6.87145C5.50653 6.92614 5.59708 7.00213 5.66171 7.09943C5.72634 7.19673 5.75866 7.30824 5.75866 7.43395C5.75866 7.51634 5.74232 7.59766 5.70965 7.67791C5.67769 7.75817 5.62052 7.8473 5.53813 7.94531C5.45574 8.04261 5.33962 8.15945 5.18976 8.29581L4.87123 8.60795V8.62287H5.78742V9H4.23202Z" fill="#B3B3B3"/>
<path d="M4.99454 13.0298C4.83545 13.0298 4.69376 13.0025 4.56947 12.9478C4.44589 12.8924 4.34823 12.8164 4.2765 12.7198C4.20548 12.6225 4.1689 12.5103 4.16677 12.3832H4.63126C4.6341 12.4364 4.6515 12.4833 4.68346 12.5238C4.71613 12.5636 4.75945 12.5945 4.81343 12.6165C4.86741 12.6385 4.92813 12.6495 4.99561 12.6495C5.06592 12.6495 5.12806 12.6371 5.18204 12.6122C5.23602 12.5874 5.27828 12.5529 5.30882 12.5089C5.33936 12.4648 5.35463 12.4141 5.35463 12.3565C5.35463 12.2983 5.33829 12.2468 5.30562 12.2021C5.27366 12.1566 5.22749 12.1211 5.16713 12.0955C5.10747 12.07 5.03644 12.0572 4.95406 12.0572H4.75058V11.7184H4.95406C5.02366 11.7184 5.08509 11.7063 5.13836 11.6822C5.19234 11.658 5.23424 11.6246 5.26407 11.582C5.2939 11.5387 5.30882 11.4883 5.30882 11.4308C5.30882 11.3761 5.29568 11.3281 5.2694 11.2869C5.24383 11.245 5.20761 11.2124 5.16073 11.1889C5.11457 11.1655 5.06059 11.1538 4.9988 11.1538C4.9363 11.1538 4.87913 11.1651 4.82728 11.1879C4.77544 11.2099 4.73389 11.2415 4.70264 11.2827C4.67139 11.3239 4.6547 11.3722 4.65257 11.4276H4.21045C4.21258 11.3018 4.24845 11.1911 4.31805 11.0952C4.38765 10.9993 4.4814 10.9244 4.5993 10.8704C4.71791 10.8157 4.85178 10.7884 5.00093 10.7884C5.1515 10.7884 5.28325 10.8157 5.39617 10.8704C5.5091 10.9251 5.59681 10.9989 5.65931 11.092C5.72252 11.1843 5.75377 11.288 5.75306 11.4031C5.75377 11.5252 5.71578 11.6271 5.63907 11.7088C5.56308 11.7905 5.464 11.8423 5.34184 11.8643V11.8814C5.50235 11.902 5.62451 11.9577 5.70832 12.0487C5.79284 12.1388 5.83474 12.2518 5.83403 12.3874C5.83474 12.5117 5.79887 12.6222 5.72643 12.7188C5.6547 12.8153 5.55562 12.8913 5.4292 12.9467C5.30278 13.0021 5.15789 13.0298 4.99454 13.0298Z" fill="#B3B3B3"/>
<rect x="7" y="7.6499" width="5" height="0.75" fill="#B3B3B3"/>
<rect x="7" y="3.6499" width="5" height="0.75" fill="#B3B3B3"/>
<rect x="7" y="11.6499" width="5" height="0.75" fill="#B3B3B3"/>
<rect x="7" y="7" width="0.75" height="2" fill="#B3B3B3"/>
<rect x="7" y="3" width="0.75" height="2" fill="#B3B3B3"/>
<rect x="7" y="11" width="0.75" height="2" fill="#B3B3B3"/>
</svg>
