<svg width="16" height="16" viewBox="0 0 16 16" fill="none" xmlns="http://www.w3.org/2000/svg">
<path d="M9.91353 3H11.9125V9.13991C11.9125 9.82931 11.7478 10.4325 11.4185 10.9496C11.0923 11.4666 10.6352 11.8698 10.0474 12.1591C9.45958 12.4453 8.7748 12.5884 7.99307 12.5884C7.20827 12.5884 6.52196 12.4453 5.93413 12.1591C5.34629 11.8698 4.88927 11.4666 4.56303 10.9496C4.2368 10.4325 4.07369 9.82931 4.07369 9.13991V3H6.07262V8.96911C6.07262 9.32919 6.1511 9.64927 6.30806 9.92933C6.4681 10.2094 6.69277 10.4295 6.98207 10.5895C7.27137 10.7495 7.60837 10.8295 7.99307 10.8295C8.38086 10.8295 8.71786 10.7495 9.00408 10.5895C9.29338 10.4295 9.51651 10.2094 9.67348 9.92933C9.83351 9.64927 9.91353 9.32919 9.91353 8.96911V3Z" fill="#B3B3B3"/>
<path d="M3.25195 15.0398H12.7342V15.9261H3.25195V15.0398Z" fill="#B3B3B3"/>
</svg>
